# Blender 5.2.0 LTS
# www.blender.org
mtllib AssaultRifle.mtl
o AssaultRifle_Receiver
v -0.165000 0.025000 0.035000
v -0.165000 0.035000 0.045000
v -0.175000 0.035000 0.035000
v -0.165000 0.027929 0.042071
v -0.170773 0.029227 0.040774
v -0.172071 0.035000 0.042071
v -0.172071 0.027929 0.035000
v -0.165000 0.145000 0.045000
v -0.165000 0.155000 0.035000
v -0.175000 0.145000 0.035000
v -0.165000 0.152071 0.042071
v -0.170773 0.150773 0.040773
v -0.172071 0.152071 0.035000
v -0.172071 0.145000 0.042071
v -0.165000 0.025000 -0.035000
v -0.175000 0.035000 -0.035000
v -0.165000 0.035000 -0.045000
v -0.172071 0.027929 -0.035000
v -0.170774 0.029226 -0.040774
v -0.172071 0.035000 -0.042071
v -0.165000 0.027929 -0.042071
v -0.165000 0.155000 -0.035000
v -0.165000 0.145000 -0.045000
v -0.175000 0.145000 -0.035000
v -0.165000 0.152071 -0.042071
v -0.170773 0.150773 -0.040774
v -0.172071 0.145000 -0.042071
v -0.172071 0.152071 -0.035000
v 0.365000 0.025000 0.035000
v 0.375000 0.035000 0.035000
v 0.365000 0.035000 0.045000
v 0.372071 0.027929 0.035000
v 0.370773 0.029227 0.040774
v 0.372071 0.035000 0.042071
v 0.365000 0.027929 0.042071
v 0.365000 0.155000 0.035000
v 0.365000 0.145000 0.045000
v 0.375000 0.145000 0.035000
v 0.365000 0.152071 0.042071
v 0.370773 0.150773 0.040773
v 0.372071 0.145000 0.042071
v 0.372071 0.152071 0.035000
v 0.365000 0.025000 -0.035000
v 0.365000 0.035000 -0.045000
v 0.375000 0.035000 -0.035000
v 0.365000 0.027929 -0.042071
v 0.370773 0.029226 -0.040774
v 0.372071 0.035000 -0.042071
v 0.372071 0.027929 -0.035000
v 0.365000 0.155000 -0.035000
v 0.375000 0.145000 -0.035000
v 0.365000 0.145000 -0.045000
v 0.372071 0.152071 -0.035000
v 0.370773 0.150773 -0.040774
v 0.372071 0.145000 -0.042071
v 0.365000 0.152071 -0.042071
vn -0.0000 -0.0000 1.0000
vn 1.0000 -0.0000 -0.0000
vn -0.0000 1.0000 -0.0000
vn -1.0000 -0.0000 -0.0000
vn -0.0000 -0.0000 -1.0000
vn -0.3251 -0.8881 0.3251
vn -0.3672 -0.8865 0.2817
vn -0.3251 -0.3251 0.8881
vn -0.2817 -0.3672 0.8865
vn -0.8881 -0.3251 0.3251
vn -0.8864 -0.2817 0.3672
vn -0.3251 0.3251 0.8881
vn -0.3672 0.2817 0.8865
vn -0.3251 0.8881 0.3251
vn -0.2817 0.8865 0.3672
vn -0.8881 0.3251 0.3251
vn -0.8865 0.3672 0.2817
vn -0.3251 -0.8881 -0.3251
vn -0.2817 -0.8865 -0.3672
vn -0.8881 -0.3251 -0.3251
vn -0.8865 -0.3672 -0.2818
vn -0.3251 -0.3251 -0.8881
vn -0.3672 -0.2817 -0.8865
vn -0.3251 0.8881 -0.3251
vn -0.3672 0.8865 -0.2817
vn -0.3251 0.3251 -0.8881
vn -0.2817 0.3672 -0.8865
vn -0.8881 0.3251 -0.3251
vn -0.8864 0.2817 -0.3672
vn 0.3251 -0.8881 0.3251
vn 0.2817 -0.8865 0.3672
vn 0.8881 -0.3251 0.3251
vn 0.8865 -0.3672 0.2817
vn 0.3251 -0.3251 0.8881
vn 0.3672 -0.2817 0.8865
vn 0.3251 0.8881 0.3251
vn 0.3672 0.8865 0.2817
vn 0.3251 0.3251 0.8881
vn 0.2817 0.3672 0.8865
vn 0.8881 0.3251 0.3250
vn 0.8865 0.2817 0.3672
vn 0.3251 -0.8881 -0.3251
vn 0.3672 -0.8865 -0.2817
vn 0.3251 -0.3251 -0.8881
vn 0.2817 -0.3672 -0.8865
vn 0.8881 -0.3251 -0.3251
vn 0.8865 -0.2817 -0.3672
vn 0.3251 0.8881 -0.3251
vn 0.2818 0.8865 -0.3672
vn 0.8881 0.3251 -0.3251
vn 0.8865 0.3672 -0.2817
vn 0.3251 0.3251 -0.8881
vn 0.3672 0.2817 -0.8865
vn -0.3827 -0.9239 -0.0000
vn -0.9239 -0.3827 -0.0000
vn -0.3827 -0.0000 0.9239
vn -0.9239 -0.0000 0.3827
vn -0.3827 0.9239 -0.0000
vn -0.9239 0.3827 -0.0000
vn -0.3827 -0.0000 -0.9239
vn -0.9239 -0.0000 -0.3827
vn -0.0000 -0.9239 -0.3827
vn -0.0000 -0.3827 -0.9239
vn -0.0000 0.9239 -0.3827
vn -0.0000 0.3827 -0.9239
vn 0.9239 -0.0000 -0.3827
vn 0.3827 -0.0000 -0.9239
vn 0.3827 -0.9239 -0.0000
vn 0.9239 -0.3827 -0.0000
vn 0.3827 0.9239 -0.0000
vn 0.9239 0.3827 -0.0000
vn 0.3827 -0.0000 0.9239
vn 0.9239 -0.0000 0.3827
vn -0.0000 -0.9239 0.3827
vn -0.0000 -0.3827 0.9239
vn -0.0000 0.9239 0.3827
vn -0.0000 0.3827 0.9239
vn -0.0000 -1.0000 -0.0000
vn -0.2817 -0.8865 0.3672
vn -0.3672 -0.2817 0.8865
vn -0.8865 -0.3672 0.2817
vn -0.2817 0.3672 0.8865
vn -0.3672 0.8865 0.2817
vn -0.8864 0.2817 0.3672
vn -0.3672 -0.8865 -0.2817
vn -0.8865 -0.2817 -0.3672
vn -0.2817 -0.3672 -0.8865
vn -0.2817 0.8865 -0.3672
vn -0.3672 0.2817 -0.8865
vn -0.8865 0.3672 -0.2817
vn 0.3672 -0.8865 0.2817
vn 0.8865 -0.2817 0.3672
vn 0.2817 -0.3672 0.8865
vn 0.2818 0.8865 0.3672
vn 0.3672 0.2817 0.8865
vn 0.8865 0.3672 0.2817
vn 0.2817 -0.8865 -0.3672
vn 0.3672 -0.2817 -0.8865
vn 0.8865 -0.3672 -0.2817
vn 0.3672 0.8865 -0.2817
vn 0.8865 0.2817 -0.3672
vn 0.2817 0.3672 -0.8865
vt 0.605769 0.754545
vt 0.394231 0.995455
vt 0.394231 0.754545
vt 0.605769 0.527778
vt 0.394231 0.722222
vt 0.394231 0.527778
vt 0.870455 0.527778
vt 0.629545 0.722222
vt 0.629545 0.527778
vt 0.605769 0.027778
vt 0.394231 0.222222
vt 0.394231 0.027778
vt 0.605769 0.254545
vt 0.394231 0.495455
vt 0.394231 0.254545
vt 0.129545 0.722222
vt 0.126921 0.750000
vt 0.125000 0.722222
vt 0.383128 1.000000
vt 0.375000 0.995455
vt 0.375000 0.011740
vt 0.394231 0.000000
vt 0.605769 0.995454
vt 0.625000 0.998079
vt 0.605769 1.000000
vt 0.870455 0.722222
vt 0.875000 0.738260
vt 0.870454 0.750000
vt 0.616872 0.000000
vt 0.625000 0.027778
vt 0.129545 0.527778
vt 0.125000 0.511740
vt 0.129545 0.500000
vt 0.383128 0.250000
vt 0.375000 0.222222
vt 0.375000 0.251921
vt 0.394231 0.250000
vt 0.873079 0.500000
vt 0.875000 0.527778
vt 0.616872 0.250000
vt 0.625000 0.254545
vt 0.605769 0.222222
vt 0.625000 0.238260
vt 0.605769 0.250000
vt 0.370455 0.722222
vt 0.377709 0.746727
vt 0.370455 0.750000
vt 0.375000 0.722222
vt 0.394231 0.750000
vt 0.622931 0.746087
vt 0.625000 0.722222
vt 0.625000 0.754545
vt 0.605769 0.722222
vt 0.605769 0.750000
vt 0.370455 0.527778
vt 0.377069 0.503913
vt 0.375000 0.527778
vt 0.375000 0.495455
vt 0.394231 0.500000
vt 0.622291 0.503273
vt 0.629545 0.500000
vt 0.625000 0.527778
vt 0.605769 0.495455
vt 0.605769 0.500000
vt 0.125000 0.527778
vt 0.375000 0.027778
vt 0.394231 1.000000
vt 0.605769 0.000000
vt 0.875000 0.722222
vt 0.625000 0.222222
vt 0.370455 0.500000
vt 0.375000 0.254545
vt 0.870455 0.500000
vt 0.625000 0.495455
vt 0.129545 0.750000
vt 0.375000 0.754545
vt 0.629545 0.750000
vt 0.625000 0.995455
s 1
usemtl Gunmetal
f 37/1/1 2/2/1 31/3/1
f 51/4/2 30/5/2 45/6/2
f 22/7/3 36/8/3 50/9/3
f 10/10/4 16/11/4 3/12/4
f 23/13/5 44/14/5 17/15/5
f 1/16/6 5/17/6 7/18/7
f 2/2/8 5/19/8 4/20/9
f 3/12/10 5/21/10 6/22/11
f 8/23/12 12/24/12 14/25/13
f 9/26/14 12/27/14 11/28/15
f 10/10/16 12/29/16 13/30/17
f 15/31/18 19/32/18 21/33/19
f 16/11/20 19/34/20 18/35/21
f 17/15/22 19/36/22 20/37/23
f 22/7/24 26/38/24 28/39/25
f 23/13/26 26/40/26 25/41/27
f 24/42/28 26/43/28 27/44/29
f 29/45/30 33/46/30 35/47/31
f 30/5/32 33/46/32 32/48/33
f 31/3/34 33/46/34 34/49/35
f 36/8/36 40/50/36 42/51/37
f 37/1/38 40/50/38 39/52/39
f 38/53/40 40/50/40 41/54/41
f 43/55/42 47/56/42 49/57/43
f 44/14/44 47/56/44 46/58/45
f 45/6/46 47/56/46 48/59/47
f 50/9/48 54/60/48 56/61/49
f 51/4/50 54/60/50 53/62/51
f 52/63/52 54/60/52 55/64/53
f 15/31/54 7/18/54 18/65/54
f 7/66/55 16/11/55 18/35/55
f 8/23/56 6/67/56 2/2/56
f 14/68/57 3/12/57 6/22/57
f 22/7/58 13/69/58 9/26/58
f 28/70/59 10/10/59 13/30/59
f 17/15/60 27/44/60 23/13/60
f 20/37/61 24/42/61 27/44/61
f 15/31/62 46/71/62 43/55/62
f 21/72/63 44/14/63 46/58/63
f 50/9/64 25/73/64 22/7/64
f 56/74/65 23/13/65 25/41/65
f 45/6/66 55/64/66 51/4/66
f 48/59/67 52/63/67 55/64/67
f 43/55/68 32/48/68 29/45/68
f 49/57/69 30/5/69 32/48/69
f 36/8/70 53/62/70 50/9/70
f 42/51/71 51/4/71 53/62/71
f 31/3/72 41/54/72 37/1/72
f 34/49/73 38/53/73 41/54/73
f 29/45/74 4/75/74 1/16/74
f 35/76/75 2/2/75 4/20/75
f 9/26/76 39/77/76 36/8/76
f 11/78/77 37/1/77 39/52/77
f 43/55/78 1/16/78 15/31/78
f 37/1/1 8/23/1 2/2/1
f 51/4/2 38/53/2 30/5/2
f 22/7/3 9/26/3 36/8/3
f 10/10/4 24/42/4 16/11/4
f 23/13/5 52/63/5 44/14/5
f 1/16/6 4/75/79 5/17/6
f 2/2/8 6/67/80 5/19/8
f 3/12/10 7/66/81 5/21/10
f 8/23/12 11/78/82 12/24/12
f 9/26/14 13/69/83 12/27/14
f 10/10/16 14/68/84 12/29/16
f 15/31/18 18/65/85 19/32/18
f 16/11/20 20/37/86 19/34/20
f 17/15/22 21/72/87 19/36/22
f 22/7/24 25/73/88 26/38/24
f 23/13/26 27/44/89 26/40/26
f 24/42/28 28/70/90 26/43/28
f 29/45/30 32/48/91 33/46/30
f 30/5/32 34/49/92 33/46/32
f 31/3/34 35/76/93 33/46/34
f 36/8/36 39/77/94 40/50/36
f 37/1/38 41/54/95 40/50/38
f 38/53/40 42/51/96 40/50/40
f 43/55/42 46/71/97 47/56/42
f 44/14/44 48/59/98 47/56/44
f 45/6/46 49/57/99 47/56/46
f 50/9/48 53/62/100 54/60/48
f 51/4/50 55/64/101 54/60/50
f 52/63/52 56/74/102 54/60/52
f 15/31/54 1/16/54 7/18/54
f 7/66/55 3/12/55 16/11/55
f 8/23/56 14/25/56 6/67/56
f 14/68/57 10/10/57 3/12/57
f 22/7/58 28/39/58 13/69/58
f 28/70/59 24/42/59 10/10/59
f 17/15/60 20/37/60 27/44/60
f 20/37/61 16/11/61 24/42/61
f 15/31/62 21/33/62 46/71/62
f 21/72/63 17/15/63 44/14/63
f 50/9/64 56/61/64 25/73/64
f 56/74/65 52/63/65 23/13/65
f 45/6/66 48/59/66 55/64/66
f 48/59/67 44/14/67 52/63/67
f 43/55/68 49/57/68 32/48/68
f 49/57/69 45/6/69 30/5/69
f 36/8/70 42/51/70 53/62/70
f 42/51/71 38/53/71 51/4/71
f 31/3/72 34/49/72 41/54/72
f 34/49/73 30/5/73 38/53/73
f 29/45/74 35/47/74 4/75/74
f 35/76/75 31/3/75 2/2/75
f 9/26/76 11/28/76 39/77/76
f 11/78/77 8/23/77 37/1/77
f 43/55/78 29/45/78 1/16/78
o AssaultRifle_Handguard
v -0.520000 0.045000 0.040000
v -0.520000 0.055000 0.050000
v -0.530000 0.055000 0.040000
v -0.520000 0.047929 0.047071
v -0.525774 0.049227 0.045773
v -0.527071 0.055000 0.047071
v -0.527071 0.047929 0.040000
v -0.520000 0.145000 0.050000
v -0.520000 0.155000 0.040000
v -0.530000 0.145000 0.040000
v -0.520000 0.152071 0.047071
v -0.525774 0.150774 0.045773
v -0.527071 0.152071 0.040000
v -0.527071 0.145000 0.047071
v -0.520000 0.045000 -0.040000
v -0.530000 0.055000 -0.040000
v -0.520000 0.055000 -0.050000
v -0.527071 0.047929 -0.040000
v -0.525774 0.049226 -0.045774
v -0.527071 0.055000 -0.047071
v -0.520000 0.047929 -0.047071
v -0.520000 0.155000 -0.040000
v -0.520000 0.145000 -0.050000
v -0.530000 0.145000 -0.040000
v -0.520000 0.152071 -0.047071
v -0.525774 0.150773 -0.045774
v -0.527071 0.145000 -0.047071
v -0.527071 0.152071 -0.040000
v -0.200000 0.045000 0.040000
v -0.190000 0.055000 0.040000
v -0.200000 0.055000 0.050000
v -0.192929 0.047929 0.040000
v -0.194227 0.049227 0.045773
v -0.192929 0.055000 0.047071
v -0.200000 0.047929 0.047071
v -0.200000 0.155000 0.040000
v -0.200000 0.145000 0.050000
v -0.190000 0.145000 0.040000
v -0.200000 0.152071 0.047071
v -0.194227 0.150774 0.045773
v -0.192929 0.145000 0.047071
v -0.192929 0.152071 0.040000
v -0.200000 0.045000 -0.040000
v -0.200000 0.055000 -0.050000
v -0.190000 0.055000 -0.040000
v -0.200000 0.047929 -0.047071
v -0.194227 0.049226 -0.045774
v -0.192929 0.055000 -0.047071
v -0.192929 0.047929 -0.040000
v -0.200000 0.155000 -0.040000
v -0.190000 0.145000 -0.040000
v -0.200000 0.145000 -0.050000
v -0.192929 0.152071 -0.040000
v -0.194227 0.150773 -0.045774
v -0.192929 0.145000 -0.047071
v -0.200000 0.152071 -0.047071
vn -0.0000 -0.0000 1.0000
vn 1.0000 -0.0000 -0.0000
vn -0.0000 1.0000 -0.0000
vn -1.0000 -0.0000 -0.0000
vn -0.0000 -0.0000 -1.0000
vn -0.3251 -0.8881 0.3251
vn -0.3672 -0.8865 0.2818
vn -0.3251 -0.3251 0.8881
vn -0.2818 -0.3672 0.8864
vn -0.8881 -0.3251 0.3251
vn -0.8865 -0.2818 0.3672
vn -0.3251 0.3251 0.8881
vn -0.3672 0.2817 0.8865
vn -0.3251 0.8881 0.3251
vn -0.2818 0.8865 0.3672
vn -0.8881 0.3251 0.3251
vn -0.8865 0.3672 0.2818
vn -0.3251 -0.8881 -0.3251
vn -0.2817 -0.8865 -0.3672
vn -0.8881 -0.3251 -0.3251
vn -0.8865 -0.3672 -0.2818
vn -0.3251 -0.3251 -0.8881
vn -0.3672 -0.2817 -0.8865
vn -0.3251 0.8881 -0.3251
vn -0.3672 0.8865 -0.2817
vn -0.3251 0.3251 -0.8881
vn -0.2818 0.3672 -0.8865
vn -0.8881 0.3251 -0.3251
vn -0.8865 0.2817 -0.3672
vn 0.3251 -0.8881 0.3251
vn 0.2817 -0.8865 0.3672
vn 0.8881 -0.3251 0.3251
vn 0.8865 -0.3672 0.2817
vn 0.3251 -0.3251 0.8881
vn 0.3672 -0.2817 0.8865
vn 0.3251 0.8881 0.3251
vn 0.3672 0.8865 0.2818
vn 0.3251 0.3251 0.8881
vn 0.2817 0.3672 0.8865
vn 0.8881 0.3251 0.3251
vn 0.8865 0.2817 0.3672
vn 0.3251 -0.8881 -0.3251
vn 0.3672 -0.8865 -0.2817
vn 0.3251 -0.3251 -0.8881
vn 0.2817 -0.3672 -0.8865
vn 0.8881 -0.3251 -0.3251
vn 0.8865 -0.2817 -0.3672
vn 0.3251 0.8881 -0.3251
vn 0.2818 0.8865 -0.3672
vn 0.8881 0.3251 -0.3251
vn 0.8865 0.3672 -0.2817
vn 0.3251 0.3251 -0.8881
vn 0.3672 0.2817 -0.8865
vn -0.3827 -0.9239 -0.0000
vn -0.9239 -0.3827 -0.0000
vn -0.3827 -0.0000 0.9239
vn -0.9239 -0.0000 0.3827
vn -0.3827 0.9239 -0.0000
vn -0.9239 0.3827 -0.0000
vn -0.3827 -0.0000 -0.9239
vn -0.9239 -0.0000 -0.3827
vn -0.0000 -0.9239 -0.3827
vn -0.0000 -0.3827 -0.9239
vn -0.0000 0.9239 -0.3827
vn -0.0000 0.3827 -0.9239
vn 0.9239 -0.0000 -0.3827
vn 0.3827 -0.0000 -0.9239
vn 0.3827 -0.9239 -0.0000
vn 0.9239 -0.3827 -0.0000
vn 0.3827 0.9239 -0.0000
vn 0.9239 0.3827 -0.0000
vn 0.3827 -0.0000 0.9239
vn 0.9239 -0.0000 0.3827
vn -0.0000 -0.9239 0.3827
vn -0.0000 -0.3827 0.9239
vn -0.0000 0.9239 0.3827
vn -0.0000 0.3827 0.9239
vn -0.0000 -1.0000 -0.0000
vn -0.2817 -0.8865 0.3672
vn -0.3672 -0.2817 0.8865
vn -0.8865 -0.3672 0.2818
vn -0.2818 0.3672 0.8865
vn -0.3672 0.8865 0.2817
vn -0.8865 0.2818 0.3672
vn -0.3672 -0.8865 -0.2818
vn -0.8865 -0.2818 -0.3672
vn -0.2818 -0.3672 -0.8864
vn -0.2818 0.8865 -0.3672
vn -0.3672 0.2817 -0.8865
vn -0.8865 0.3672 -0.2818
vn 0.3672 -0.8865 0.2817
vn 0.8865 -0.2817 0.3672
vn 0.2817 -0.3672 0.8865
vn 0.2818 0.8865 0.3672
vn 0.3672 0.2817 0.8865
vn 0.8865 0.3672 0.2817
vn 0.2817 -0.8865 -0.3672
vn 0.3672 -0.2817 -0.8865
vn 0.8865 -0.3672 -0.2817
vn 0.3672 0.8865 -0.2818
vn 0.8865 0.2817 -0.3672
vn 0.2817 0.3672 -0.8865
vt 0.602273 0.757353
vt 0.397727 0.992647
vt 0.397727 0.757353
vt 0.602273 0.525000
vt 0.397727 0.725000
vt 0.397727 0.525000
vt 0.867647 0.525000
vt 0.632353 0.725000
vt 0.632353 0.525000
vt 0.602273 0.025000
vt 0.397727 0.225000
vt 0.397727 0.025000
vt 0.602273 0.257353
vt 0.397727 0.492647
vt 0.397727 0.257353
vt 0.132353 0.725000
vt 0.128108 0.750000
vt 0.125000 0.725000
vt 0.384606 1.000000
vt 0.375000 0.992647
vt 0.375000 0.010566
vt 0.397727 0.000000
vt 0.602273 0.992647
vt 0.625000 0.996892
vt 0.602273 1.000000
vt 0.867647 0.725000
vt 0.875000 0.739434
vt 0.867647 0.750000
vt 0.615394 0.000000
vt 0.625000 0.025000
vt 0.132353 0.525000
vt 0.125000 0.510566
vt 0.132353 0.500000
vt 0.384606 0.250000
vt 0.375000 0.225000
vt 0.375000 0.253108
vt 0.397727 0.250000
vt 0.871892 0.500000
vt 0.875000 0.525000
vt 0.615394 0.250000
vt 0.625000 0.257353
vt 0.602273 0.225000
vt 0.625000 0.239434
vt 0.602273 0.250000
vt 0.367647 0.725000
vt 0.378202 0.747514
vt 0.367647 0.750000
vt 0.375000 0.725000
vt 0.397727 0.750000
vt 0.622834 0.746478
vt 0.625000 0.725000
vt 0.625000 0.757353
vt 0.602273 0.725000
vt 0.602273 0.750000
vt 0.367647 0.525000
vt 0.377166 0.503522
vt 0.375000 0.525000
vt 0.375000 0.492647
vt 0.397727 0.500000
vt 0.621798 0.502486
vt 0.632353 0.500000
vt 0.625000 0.525000
vt 0.602273 0.492647
vt 0.602273 0.500000
vt 0.125000 0.525000
vt 0.375000 0.025000
vt 0.397727 1.000000
vt 0.602273 0.000000
vt 0.875000 0.725000
vt 0.625000 0.225000
vt 0.367647 0.500000
vt 0.867647 0.500000
vt 0.625000 0.492647
vt 0.132353 0.750000
vt 0.375000 0.757353
vt 0.632353 0.750000
vt 0.625000 0.992647
vt 0.375000 0.257353
s 1
usemtl Olive
f 93/79/103 58/80/103 87/81/103
f 107/82/104 86/83/104 101/84/104
f 78/85/105 92/86/105 106/87/105
f 66/88/106 72/89/106 59/90/106
f 79/91/107 100/92/107 73/93/107
f 57/94/108 61/95/108 63/96/109
f 58/80/110 61/97/110 60/98/111
f 59/90/112 61/99/112 62/100/113
f 64/101/114 68/102/114 70/103/115
f 65/104/116 68/105/116 67/106/117
f 66/88/118 68/107/118 69/108/119
f 71/109/120 75/110/120 77/111/121
f 72/89/122 75/112/122 74/113/123
f 73/93/124 75/114/124 76/115/125
f 78/85/126 82/116/126 84/117/127
f 79/91/128 82/118/128 81/119/129
f 80/120/130 82/121/130 83/122/131
f 85/123/132 89/124/132 91/125/133
f 86/83/134 89/124/134 88/126/135
f 87/81/136 89/124/136 90/127/137
f 92/86/138 96/128/138 98/129/139
f 93/79/140 96/128/140 95/130/141
f 94/131/142 96/128/142 97/132/143
f 99/133/144 103/134/144 105/135/145
f 100/92/146 103/134/146 102/136/147
f 101/84/148 103/134/148 104/137/149
f 106/87/150 110/138/150 112/139/151
f 107/82/152 110/138/152 109/140/153
f 108/141/154 110/138/154 111/142/155
f 57/94/156 74/143/156 71/109/156
f 63/144/157 72/89/157 74/113/157
f 64/101/158 62/145/158 58/80/158
f 70/146/159 59/90/159 62/100/159
f 78/85/160 69/147/160 65/104/160
f 84/148/161 66/88/161 69/108/161
f 73/93/162 83/122/162 79/91/162
f 76/115/163 80/120/163 83/122/163
f 71/109/164 102/149/164 99/133/164
f 102/136/165 73/93/165 100/92/165
f 78/85/166 112/139/166 81/150/166
f 112/151/167 79/91/167 81/119/167
f 101/84/168 111/142/168 107/82/168
f 104/137/169 108/141/169 111/142/169
f 99/133/170 88/126/170 85/123/170
f 105/135/171 86/83/171 88/126/171
f 92/86/172 109/140/172 106/87/172
f 98/129/173 107/82/173 109/140/173
f 87/81/174 97/132/174 93/79/174
f 90/127/175 94/131/175 97/132/175
f 57/94/176 91/125/176 60/152/176
f 91/153/177 58/80/177 60/98/177
f 65/104/178 95/154/178 92/86/178
f 67/155/179 93/79/179 95/130/179
f 99/133/180 57/94/180 71/109/180
f 93/79/103 64/101/103 58/80/103
f 107/82/104 94/131/104 86/83/104
f 78/85/105 65/104/105 92/86/105
f 66/88/106 80/120/106 72/89/106
f 79/91/107 108/141/107 100/92/107
f 57/94/108 60/152/181 61/95/108
f 58/80/110 62/145/182 61/97/110
f 59/90/112 63/144/183 61/99/112
f 64/101/114 67/155/184 68/102/114
f 65/104/116 69/147/185 68/105/116
f 66/88/118 70/146/186 68/107/118
f 71/109/120 74/143/187 75/110/120
f 72/89/122 76/115/188 75/112/122
f 73/93/124 77/156/189 75/114/124
f 78/85/126 81/150/190 82/116/126
f 79/91/128 83/122/191 82/118/128
f 80/120/130 84/148/192 82/121/130
f 85/123/132 88/126/193 89/124/132
f 86/83/134 90/127/194 89/124/134
f 87/81/136 91/153/195 89/124/136
f 92/86/138 95/154/196 96/128/138
f 93/79/140 97/132/197 96/128/140
f 94/131/142 98/129/198 96/128/142
f 99/133/144 102/149/199 103/134/144
f 100/92/146 104/137/200 103/134/146
f 101/84/148 105/135/201 103/134/148
f 106/87/150 109/140/202 110/138/150
f 107/82/152 111/142/203 110/138/152
f 108/141/154 112/151/204 110/138/154
f 57/94/156 63/96/156 74/143/156
f 63/144/157 59/90/157 72/89/157
f 64/101/158 70/103/158 62/145/158
f 70/146/159 66/88/159 59/90/159
f 78/85/160 84/117/160 69/147/160
f 84/148/161 80/120/161 66/88/161
f 73/93/162 76/115/162 83/122/162
f 76/115/163 72/89/163 80/120/163
f 71/109/164 77/111/164 102/149/164
f 102/136/165 77/156/165 73/93/165
f 78/85/166 106/87/166 112/139/166
f 112/151/167 108/141/167 79/91/167
f 101/84/168 104/137/168 111/142/168
f 104/137/169 100/92/169 108/141/169
f 99/133/170 105/135/170 88/126/170
f 105/135/171 101/84/171 86/83/171
f 92/86/172 98/129/172 109/140/172
f 98/129/173 94/131/173 107/82/173
f 87/81/174 90/127/174 97/132/174
f 90/127/175 86/83/175 94/131/175
f 57/94/176 85/123/176 91/125/176
f 91/153/177 87/81/177 58/80/177
f 65/104/178 67/106/178 95/154/178
f 67/155/179 64/101/179 93/79/179
f 99/133/180 85/123/180 57/94/180
o AssaultRifle_Barrel
v -0.845000 0.100000 -0.022000
v -0.395000 0.100000 -0.022000
v -0.845000 0.089000 -0.019053
v -0.395000 0.089000 -0.019053
v -0.845000 0.080947 -0.011000
v -0.395000 0.080947 -0.011000
v -0.845000 0.078000 0.000000
v -0.395000 0.078000 -0.000000
v -0.845000 0.080947 0.011000
v -0.395000 0.080947 0.011000
v -0.845000 0.089000 0.019053
v -0.395000 0.089000 0.019053
v -0.845000 0.100000 0.022000
v -0.395000 0.100000 0.022000
v -0.845000 0.111000 0.019053
v -0.395000 0.111000 0.019053
v -0.845000 0.119053 0.011000
v -0.395000 0.119053 0.011000
v -0.845000 0.122000 0.000000
v -0.395000 0.122000 -0.000000
v -0.845000 0.119053 -0.011000
v -0.395000 0.119053 -0.011000
v -0.845000 0.111000 -0.019053
v -0.395000 0.111000 -0.019053
vn -0.0000 -0.2588 -0.9659
vn -0.0000 -0.7071 -0.7071
vn -0.0000 -0.9659 -0.2588
vn -0.0000 -0.9659 0.2588
vn -0.0000 -0.7071 0.7071
vn -0.0000 -0.2588 0.9659
vn -0.0000 0.2588 0.9659
vn -0.0000 0.7071 0.7071
vn -0.0000 0.9659 0.2588
vn -0.0000 0.9659 -0.2588
vn 1.0000 -0.0000 -0.0000
vn -0.0000 0.7071 -0.7071
vn -0.0000 0.2588 -0.9659
vn -1.0000 -0.0000 -0.0000
vt 1.000000 1.000000
vt 0.916667 0.500000
vt 1.000000 0.500000
vt 0.916667 1.000000
vt 0.833333 0.500000
vt 0.833333 1.000000
vt 0.750000 0.500000
vt 0.750000 1.000000
vt 0.666667 0.500000
vt 0.666667 1.000000
vt 0.583333 0.500000
vt 0.583333 1.000000
vt 0.500000 0.500000
vt 0.500000 1.000000
vt 0.416667 0.500000
vt 0.416667 1.000000
vt 0.333333 0.500000
vt 0.333333 1.000000
vt 0.250000 0.500000
vt 0.250000 1.000000
vt 0.166667 0.500000
vt 0.042154 0.370000
vt 0.250000 0.010000
vt 0.457846 0.370000
vt 0.166667 1.000000
vt 0.083333 0.500000
vt 0.083333 1.000000
vt 0.000000 0.500000
vt 0.990000 0.250000
vt 0.630000 0.042154
vt 0.630000 0.457846
vt 0.370000 0.457846
vt 0.250000 0.490000
vt 0.130000 0.457846
vt 0.010000 0.250000
vt 0.042154 0.130000
vt 0.130000 0.042154
vt 0.370000 0.042154
vt 0.457846 0.130000
vt 0.490000 0.250000
vt 0.000000 1.000000
vt 0.750000 0.490000
vt 0.870000 0.457846
vt 0.957846 0.370000
vt 0.957846 0.130000
vt 0.870000 0.042154
vt 0.750000 0.010000
vt 0.542154 0.130000
vt 0.510000 0.250000
vt 0.542154 0.370000
s 1
usemtl Dark
f 114/157/205 115/158/205 113/159/205
f 116/160/206 117/161/206 115/158/206
f 118/162/207 119/163/207 117/161/207
f 120/164/208 121/165/208 119/163/208
f 122/166/209 123/167/209 121/165/209
f 124/168/210 125/169/210 123/167/210
f 126/170/211 127/171/211 125/169/211
f 128/172/212 129/173/212 127/171/212
f 130/174/213 131/175/213 129/173/213
f 132/176/214 133/177/214 131/175/214
f 134/178/215 126/179/215 118/180/215
f 134/181/216 135/182/216 133/177/216
f 136/183/217 113/184/217 135/182/217
f 119/185/218 127/186/218 135/187/218
f 114/157/205 116/160/205 115/158/205
f 116/160/206 118/162/206 117/161/206
f 118/162/207 120/164/207 119/163/207
f 120/164/208 122/166/208 121/165/208
f 122/166/209 124/168/209 123/167/209
f 124/168/210 126/170/210 125/169/210
f 126/170/211 128/172/211 127/171/211
f 128/172/212 130/174/212 129/173/212
f 130/174/213 132/176/213 131/175/213
f 132/176/214 134/181/214 133/177/214
f 118/180/215 116/188/215 114/189/215
f 114/189/215 136/190/215 134/178/215
f 134/178/215 132/191/215 130/192/215
f 130/192/215 128/193/215 126/179/215
f 126/179/215 124/194/215 122/195/215
f 122/195/215 120/196/215 118/180/215
f 118/180/215 114/189/215 134/178/215
f 134/178/215 130/192/215 126/179/215
f 126/179/215 122/195/215 118/180/215
f 134/181/216 136/183/216 135/182/216
f 136/183/217 114/197/217 113/184/217
f 135/187/218 113/198/218 115/199/218
f 115/199/218 117/200/218 119/185/218
f 119/185/218 121/201/218 123/202/218
f 123/202/218 125/203/218 127/186/218
f 127/186/218 129/204/218 131/205/218
f 131/205/218 133/206/218 135/187/218
f 135/187/218 115/199/218 119/185/218
f 119/185/218 123/202/218 127/186/218
f 127/186/218 131/205/218 135/187/218
o AssaultRifle_Muzzle
v -0.895000 0.100000 -0.032000
v -0.825000 0.100000 -0.032000
v -0.895000 0.084000 -0.027713
v -0.825000 0.084000 -0.027713
v -0.895000 0.072287 -0.016000
v -0.825000 0.072287 -0.016000
v -0.895000 0.068000 0.000000
v -0.825000 0.068000 -0.000000
v -0.895000 0.072287 0.016000
v -0.825000 0.072287 0.016000
v -0.895000 0.084000 0.027713
v -0.825000 0.084000 0.027713
v -0.895000 0.100000 0.032000
v -0.825000 0.100000 0.032000
v -0.895000 0.116000 0.027713
v -0.825000 0.116000 0.027713
v -0.895000 0.127713 0.016000
v -0.825000 0.127713 0.016000
v -0.895000 0.132000 0.000000
v -0.825000 0.132000 -0.000000
v -0.895000 0.127713 -0.016000
v -0.825000 0.127713 -0.016000
v -0.895000 0.116000 -0.027713
v -0.825000 0.116000 -0.027713
vn -0.0000 -0.2588 -0.9659
vn -0.0000 -0.7071 -0.7071
vn -0.0000 -0.9659 -0.2588
vn -0.0000 -0.9659 0.2588
vn -0.0000 -0.7071 0.7071
vn -0.0000 -0.2588 0.9659
vn -0.0000 0.2588 0.9659
vn -0.0000 0.7071 0.7071
vn -0.0000 0.9659 0.2588
vn -0.0000 0.9659 -0.2588
vn 1.0000 -0.0000 -0.0000
vn -0.0000 0.7071 -0.7071
vn -0.0000 0.2588 -0.9659
vn -1.0000 -0.0000 -0.0000
vt 1.000000 1.000000
vt 0.916667 0.500000
vt 1.000000 0.500000
vt 0.916667 1.000000
vt 0.833333 0.500000
vt 0.833333 1.000000
vt 0.750000 0.500000
vt 0.750000 1.000000
vt 0.666667 0.500000
vt 0.666667 1.000000
vt 0.583333 0.500000
vt 0.583333 1.000000
vt 0.500000 0.500000
vt 0.500000 1.000000
vt 0.416667 0.500000
vt 0.416667 1.000000
vt 0.333333 0.500000
vt 0.333333 1.000000
vt 0.250000 0.500000
vt 0.250000 1.000000
vt 0.166667 0.500000
vt 0.042154 0.370000
vt 0.250000 0.010000
vt 0.457846 0.370000
vt 0.166667 1.000000
vt 0.083333 0.500000
vt 0.083333 1.000000
vt 0.000000 0.500000
vt 0.990000 0.250000
vt 0.630000 0.042154
vt 0.630000 0.457846
vt 0.370000 0.457846
vt 0.250000 0.490000
vt 0.130000 0.457846
vt 0.010000 0.250000
vt 0.042154 0.130000
vt 0.130000 0.042154
vt 0.370000 0.042154
vt 0.457846 0.130000
vt 0.490000 0.250000
vt 0.000000 1.000000
vt 0.750000 0.490000
vt 0.870000 0.457846
vt 0.957846 0.370000
vt 0.957846 0.130000
vt 0.870000 0.042154
vt 0.750000 0.010000
vt 0.542154 0.130000
vt 0.510000 0.250000
vt 0.542154 0.370000
s 1
usemtl Gunmetal
f 138/207/219 139/208/219 137/209/219
f 140/210/220 141/211/220 139/208/220
f 142/212/221 143/213/221 141/211/221
f 144/214/222 145/215/222 143/213/222
f 146/216/223 147/217/223 145/215/223
f 148/218/224 149/219/224 147/217/224
f 150/220/225 151/221/225 149/219/225
f 152/222/226 153/223/226 151/221/226
f 154/224/227 155/225/227 153/223/227
f 156/226/228 157/227/228 155/225/228
f 158/228/229 150/229/229 142/230/229
f 158/231/230 159/232/230 157/227/230
f 160/233/231 137/234/231 159/232/231
f 143/235/232 151/236/232 159/237/232
f 138/207/219 140/210/219 139/208/219
f 140/210/220 142/212/220 141/211/220
f 142/212/221 144/214/221 143/213/221
f 144/214/222 146/216/222 145/215/222
f 146/216/223 148/218/223 147/217/223
f 148/218/224 150/220/224 149/219/224
f 150/220/225 152/222/225 151/221/225
f 152/222/226 154/224/226 153/223/226
f 154/224/227 156/226/227 155/225/227
f 156/226/228 158/231/228 157/227/228
f 142/230/229 140/238/229 138/239/229
f 138/239/229 160/240/229 158/228/229
f 158/228/229 156/241/229 154/242/229
f 154/242/229 152/243/229 150/229/229
f 150/229/229 148/244/229 146/245/229
f 146/245/229 144/246/229 142/230/229
f 142/230/229 138/239/229 158/228/229
f 158/228/229 154/242/229 150/229/229
f 150/229/229 146/245/229 142/230/229
f 158/231/230 160/233/230 159/232/230
f 160/233/231 138/247/231 137/234/231
f 159/237/232 137/248/232 139/249/232
f 139/249/232 141/250/232 143/235/232
f 143/235/232 145/251/232 147/252/232
f 147/252/232 149/253/232 151/236/232
f 151/236/232 153/254/232 155/255/232
f 155/255/232 157/256/232 159/237/232
f 159/237/232 139/249/232 143/235/232
f 143/235/232 147/252/232 151/236/232
f 151/236/232 155/255/232 159/237/232
o AssaultRifle_Stock
v 0.370000 0.010000 0.030000
v 0.370000 0.020000 0.040000
v 0.360000 0.020000 0.030000
v 0.370000 0.012929 0.037071
v 0.364227 0.014227 0.035774
v 0.362929 0.020000 0.037071
v 0.362929 0.012929 0.030000
v 0.370000 0.120000 0.040000
v 0.370000 0.130000 0.030000
v 0.360000 0.120000 0.030000
v 0.370000 0.127071 0.037071
v 0.364227 0.125774 0.035773
v 0.362929 0.127071 0.030000
v 0.362929 0.120000 0.037071
v 0.370000 0.010000 -0.030000
v 0.360000 0.020000 -0.030000
v 0.370000 0.020000 -0.040000
v 0.362929 0.012929 -0.030000
v 0.364227 0.014226 -0.035774
v 0.362929 0.020000 -0.037071
v 0.370000 0.012929 -0.037071
v 0.370000 0.130000 -0.030000
v 0.370000 0.120000 -0.040000
v 0.360000 0.120000 -0.030000
v 0.370000 0.127071 -0.037071
v 0.364227 0.125774 -0.035774
v 0.362929 0.120000 -0.037071
v 0.362929 0.127071 -0.030000
v 0.630000 0.010000 0.030000
v 0.640000 0.020000 0.030000
v 0.630000 0.020000 0.040000
v 0.637071 0.012929 0.030000
v 0.635773 0.014227 0.035773
v 0.637071 0.020000 0.037071
v 0.630000 0.012929 0.037071
v 0.630000 0.130000 0.030000
v 0.630000 0.120000 0.040000
v 0.640000 0.120000 0.030000
v 0.630000 0.127071 0.037071
v 0.635773 0.125774 0.035773
v 0.637071 0.120000 0.037071
v 0.637071 0.127071 0.030000
v 0.630000 0.010000 -0.030000
v 0.630000 0.020000 -0.040000
v 0.640000 0.020000 -0.030000
v 0.630000 0.012929 -0.037071
v 0.635773 0.014226 -0.035774
v 0.637071 0.020000 -0.037071
v 0.637071 0.012929 -0.030000
v 0.630000 0.130000 -0.030000
v 0.640000 0.120000 -0.030000
v 0.630000 0.120000 -0.040000
v 0.637071 0.127071 -0.030000
v 0.635773 0.125774 -0.035774
v 0.637071 0.120000 -0.037071
v 0.630000 0.127071 -0.037071
vn -0.0000 -0.0000 1.0000
vn 1.0000 -0.0000 -0.0000
vn -0.0000 1.0000 -0.0000
vn -1.0000 -0.0000 -0.0000
vn -0.0000 -0.0000 -1.0000
vn -0.3251 -0.8881 0.3251
vn -0.3672 -0.8865 0.2817
vn -0.3251 -0.3251 0.8881
vn -0.2817 -0.3672 0.8865
vn -0.8881 -0.3251 0.3251
vn -0.8864 -0.2817 0.3672
vn -0.3251 0.3251 0.8881
vn -0.3672 0.2817 0.8865
vn -0.3251 0.8881 0.3251
vn -0.2818 0.8865 0.3672
vn -0.8881 0.3251 0.3251
vn -0.8865 0.3672 0.2817
vn -0.3251 -0.8881 -0.3251
vn -0.2817 -0.8865 -0.3672
vn -0.8881 -0.3251 -0.3251
vn -0.8865 -0.3672 -0.2817
vn -0.3251 -0.3251 -0.8881
vn -0.3672 -0.2817 -0.8865
vn -0.3251 0.8881 -0.3251
vn -0.3672 0.8865 -0.2817
vn -0.3251 0.3251 -0.8881
vn -0.2817 0.3672 -0.8865
vn -0.8881 0.3251 -0.3251
vn -0.8864 0.2817 -0.3672
vn 0.3251 -0.8881 0.3251
vn 0.2817 -0.8865 0.3672
vn 0.8881 -0.3251 0.3251
vn 0.8865 -0.3672 0.2817
vn 0.3251 -0.3251 0.8881
vn 0.3672 -0.2818 0.8864
vn 0.3251 0.8881 0.3251
vn 0.3672 0.8865 0.2817
vn 0.3251 0.3251 0.8881
vn 0.2817 0.3672 0.8865
vn 0.8881 0.3251 0.3251
vn 0.8864 0.2818 0.3672
vn 0.3251 -0.8881 -0.3251
vn 0.3672 -0.8865 -0.2817
vn 0.3251 -0.3251 -0.8881
vn 0.2817 -0.3672 -0.8865
vn 0.8881 -0.3251 -0.3251
vn 0.8864 -0.2818 -0.3672
vn 0.3251 0.8881 -0.3251
vn 0.2818 0.8864 -0.3672
vn 0.8881 0.3251 -0.3251
vn 0.8865 0.3672 -0.2817
vn 0.3251 0.3251 -0.8881
vn 0.3672 0.2818 -0.8865
vn -0.3827 -0.9239 -0.0000
vn -0.9239 -0.3827 -0.0000
vn -0.3827 -0.0000 0.9239
vn -0.9239 -0.0000 0.3827
vn -0.3827 0.9239 -0.0000
vn -0.9239 0.3827 -0.0000
vn -0.3827 -0.0000 -0.9239
vn -0.9239 -0.0000 -0.3827
vn -0.0000 -0.9239 -0.3827
vn -0.0000 -0.3827 -0.9239
vn -0.0000 0.9239 -0.3827
vn -0.0000 0.3827 -0.9239
vn 0.9239 -0.0000 -0.3827
vn 0.3827 -0.0000 -0.9239
vn 0.3827 -0.9239 -0.0000
vn 0.9239 -0.3827 -0.0000
vn 0.3827 0.9239 -0.0000
vn 0.9239 0.3827 -0.0000
vn 0.3827 -0.0000 0.9239
vn 0.9239 -0.0000 0.3827
vn -0.0000 -0.9239 0.3827
vn -0.0000 -0.3827 0.9239
vn -0.0000 0.9239 0.3827
vn -0.0000 0.3827 0.9239
vn -0.0000 -1.0000 -0.0000
vn -0.2817 -0.8865 0.3672
vn -0.3672 -0.2817 0.8865
vn -0.8865 -0.3672 0.2817
vn -0.2817 0.3672 0.8865
vn -0.3672 0.8865 0.2817
vn -0.8864 0.2817 0.3672
vn -0.3672 -0.8865 -0.2817
vn -0.8865 -0.2817 -0.3672
vn -0.2817 -0.3672 -0.8865
vn -0.2818 0.8865 -0.3672
vn -0.3672 0.2817 -0.8865
vn -0.8865 0.3672 -0.2817
vn 0.3672 -0.8865 0.2817
vn 0.8864 -0.2818 0.3672
vn 0.2817 -0.3672 0.8865
vn 0.2818 0.8864 0.3672
vn 0.3672 0.2818 0.8865
vn 0.8865 0.3672 0.2817
vn 0.2817 -0.8864 -0.3672
vn 0.3672 -0.2818 -0.8865
vn 0.8865 -0.3672 -0.2817
vn 0.3672 0.8865 -0.2817
vn 0.8864 0.2818 -0.3672
vn 0.2817 0.3672 -0.8865
vt 0.604167 0.758929
vt 0.395833 0.991071
vt 0.395833 0.758929
vt 0.604167 0.531250
vt 0.395833 0.718750
vt 0.395833 0.531250
vt 0.866071 0.531250
vt 0.633929 0.718750
vt 0.633929 0.531250
vt 0.604167 0.031250
vt 0.395833 0.218750
vt 0.395833 0.031250
vt 0.604167 0.258929
vt 0.395833 0.491071
vt 0.395833 0.258929
vt 0.133929 0.718750
vt 0.128774 0.750000
vt 0.125000 0.718750
vt 0.383805 1.000000
vt 0.375000 0.991071
vt 0.375000 0.013208
vt 0.395833 0.000000
vt 0.604167 0.991071
vt 0.625000 0.996226
vt 0.604167 1.000000
vt 0.866071 0.718750
vt 0.875000 0.736792
vt 0.866071 0.750000
vt 0.616195 0.000000
vt 0.625000 0.031250
vt 0.133929 0.531250
vt 0.125000 0.513208
vt 0.133929 0.500000
vt 0.383805 0.250000
vt 0.375000 0.218750
vt 0.375000 0.253774
vt 0.395833 0.250000
vt 0.871226 0.500000
vt 0.875000 0.531250
vt 0.616195 0.250000
vt 0.625000 0.258929
vt 0.604167 0.218750
vt 0.625000 0.236792
vt 0.604167 0.250000
vt 0.366071 0.718750
vt 0.377935 0.746855
vt 0.366071 0.750000
vt 0.375000 0.718750
vt 0.395833 0.750000
vt 0.623323 0.745597
vt 0.625000 0.718750
vt 0.625000 0.758929
vt 0.604167 0.718750
vt 0.604167 0.750000
vt 0.366071 0.531250
vt 0.376677 0.504403
vt 0.375000 0.531250
vt 0.375000 0.491071
vt 0.395833 0.500000
vt 0.622065 0.503145
vt 0.633929 0.500000
vt 0.625000 0.531250
vt 0.604167 0.491071
vt 0.604167 0.500000
vt 0.125000 0.531250
vt 0.375000 0.031250
vt 0.395833 1.000000
vt 0.875000 0.718750
vt 0.625000 0.218750
vt 0.366071 0.500000
vt 0.375000 0.258929
vt 0.866071 0.500000
vt 0.625000 0.491071
vt 0.133929 0.750000
vt 0.375000 0.758929
vt 0.633929 0.750000
vt 0.625000 0.991071
vt 0.604167 0.000000
s 1
usemtl Olive
f 197/257/233 162/258/233 191/259/233
f 211/260/234 190/261/234 205/262/234
f 182/263/235 196/264/235 210/265/235
f 170/266/236 176/267/236 163/268/236
f 183/269/237 204/270/237 177/271/237
f 161/272/238 165/273/238 167/274/239
f 162/258/240 165/275/240 164/276/241
f 163/268/242 165/277/242 166/278/243
f 168/279/244 172/280/244 174/281/245
f 169/282/246 172/283/246 171/284/247
f 170/266/248 172/285/248 173/286/249
f 175/287/250 179/288/250 181/289/251
f 176/267/252 179/290/252 178/291/253
f 177/271/254 179/292/254 180/293/255
f 182/263/256 186/294/256 188/295/257
f 183/269/258 186/296/258 185/297/259
f 184/298/260 186/299/260 187/300/261
f 189/301/262 193/302/262 195/303/263
f 190/261/264 193/302/264 192/304/265
f 191/259/266 193/302/266 194/305/267
f 196/264/268 200/306/268 202/307/269
f 197/257/270 200/306/270 199/308/271
f 198/309/272 200/306/272 201/310/273
f 203/311/274 207/312/274 209/313/275
f 204/270/276 207/312/276 206/314/277
f 205/262/278 207/312/278 208/315/279
f 210/265/280 214/316/280 216/317/281
f 211/260/282 214/316/282 213/318/283
f 212/319/284 214/316/284 215/320/285
f 161/272/286 178/321/286 175/287/286
f 167/322/287 176/267/287 178/291/287
f 168/279/288 166/323/288 162/258/288
f 166/278/289 170/266/289 163/268/289
f 182/263/290 173/324/290 169/282/290
f 188/325/291 170/266/291 173/286/291
f 177/271/292 187/300/292 183/269/292
f 180/293/293 184/298/293 187/300/293
f 175/287/294 206/326/294 203/311/294
f 181/327/295 204/270/295 206/314/295
f 210/265/296 185/328/296 182/263/296
f 216/329/297 183/269/297 185/297/297
f 205/262/298 215/320/298 211/260/298
f 208/315/299 212/319/299 215/320/299
f 203/311/300 192/304/300 189/301/300
f 209/313/301 190/261/301 192/304/301
f 196/264/302 213/318/302 210/265/302
f 202/307/303 211/260/303 213/318/303
f 191/259/304 201/310/304 197/257/304
f 194/305/305 198/309/305 201/310/305
f 189/301/306 164/330/306 161/272/306
f 195/331/307 162/258/307 164/276/307
f 169/282/308 199/332/308 196/264/308
f 171/333/309 197/257/309 199/308/309
f 203/311/310 161/272/310 175/287/310
f 197/257/233 168/279/233 162/258/233
f 211/260/234 198/309/234 190/261/234
f 182/263/235 169/282/235 196/264/235
f 170/266/236 184/298/236 176/267/236
f 183/269/237 212/319/237 204/270/237
f 161/272/238 164/330/311 165/273/238
f 162/258/240 166/323/312 165/275/240
f 163/268/242 167/322/313 165/277/242
f 168/279/244 171/333/314 172/280/244
f 169/282/246 173/324/315 172/283/246
f 170/266/248 174/334/316 172/285/248
f 175/287/250 178/321/317 179/288/250
f 176/267/252 180/293/318 179/290/252
f 177/271/254 181/327/319 179/292/254
f 182/263/256 185/328/320 186/294/256
f 183/269/258 187/300/321 186/296/258
f 184/298/260 188/325/322 186/299/260
f 189/301/262 192/304/323 193/302/262
f 190/261/264 194/305/324 193/302/264
f 191/259/266 195/331/325 193/302/266
f 196/264/268 199/332/326 200/306/268
f 197/257/270 201/310/327 200/306/270
f 198/309/272 202/307/328 200/306/272
f 203/311/274 206/326/329 207/312/274
f 204/270/276 208/315/330 207/312/276
f 205/262/278 209/313/331 207/312/278
f 210/265/280 213/318/332 214/316/280
f 211/260/282 215/320/333 214/316/282
f 212/319/284 216/329/334 214/316/284
f 161/272/286 167/274/286 178/321/286
f 167/322/287 163/268/287 176/267/287
f 168/279/288 174/281/288 166/323/288
f 166/278/289 174/334/289 170/266/289
f 182/263/290 188/295/290 173/324/290
f 188/325/291 184/298/291 170/266/291
f 177/271/292 180/293/292 187/300/292
f 180/293/293 176/267/293 184/298/293
f 175/287/294 181/289/294 206/326/294
f 181/327/295 177/271/295 204/270/295
f 210/265/296 216/317/296 185/328/296
f 216/329/297 212/319/297 183/269/297
f 205/262/298 208/315/298 215/320/298
f 208/315/299 204/270/299 212/319/299
f 203/311/300 209/313/300 192/304/300
f 209/313/301 205/262/301 190/261/301
f 196/264/302 202/307/302 213/318/302
f 202/307/303 198/309/303 211/260/303
f 191/259/304 194/305/304 201/310/304
f 194/305/305 190/261/305 198/309/305
f 189/301/306 195/303/306 164/330/306
f 195/331/307 191/259/307 162/258/307
f 169/282/308 171/284/308 199/332/308
f 171/333/309 168/279/309 197/257/309
f 203/311/310 189/301/310 161/272/310
o AssaultRifle_Grip
v 0.167053 -0.130756 0.035000
v 0.204477 0.045310 0.035000
v 0.167053 -0.130756 -0.035000
v 0.204477 0.045310 -0.035000
v 0.235523 -0.145310 0.035000
v 0.272947 0.030756 0.035000
v 0.235523 -0.145310 -0.035000
v 0.272947 0.030756 -0.035000
vn -0.9781 0.2079 -0.0000
vn -0.0000 -0.0000 -1.0000
vn 0.9781 -0.2079 -0.0000
vn -0.0000 -0.0000 1.0000
vn -0.2079 -0.9781 -0.0000
vn 0.2079 0.9781 -0.0000
vt 0.625000 0.000000
vt 0.375000 0.250000
vt 0.375000 0.000000
vt 0.625000 0.250000
vt 0.375000 0.500000
vt 0.625000 0.500000
vt 0.375000 0.750000
vt 0.625000 1.000000
vt 0.375000 1.000000
vt 0.125000 0.750000
vt 0.125000 0.500000
vt 0.875000 0.500000
vt 0.625000 0.750000
vt 0.875000 0.750000
s 1
usemtl Dark
f 218/335/335 219/336/335 217/337/335
f 220/338/336 223/339/336 219/336/336
f 224/340/337 221/341/337 223/339/337
f 221/341/338 218/342/338 217/343/338
f 223/339/339 217/344/339 219/345/339
f 220/346/340 222/347/340 224/340/340
f 218/335/335 220/338/335 219/336/335
f 220/338/336 224/340/336 223/339/336
f 224/340/337 222/347/337 221/341/337
f 221/341/338 222/347/338 218/342/338
f 223/339/339 221/341/339 217/344/339
f 220/346/340 218/348/340 222/347/340
o AssaultRifle_SightF
v -0.530000 0.160000 0.015000
v -0.530000 0.220000 0.015000
v -0.530000 0.160000 -0.015000
v -0.530000 0.220000 -0.015000
v -0.510000 0.160000 0.015000
v -0.510000 0.220000 0.015000
v -0.510000 0.160000 -0.015000
v -0.510000 0.220000 -0.015000
vn -1.0000 -0.0000 -0.0000
vn -0.0000 -0.0000 -1.0000
vn 1.0000 -0.0000 -0.0000
vn -0.0000 -0.0000 1.0000
vn -0.0000 -1.0000 -0.0000
vn -0.0000 1.0000 -0.0000
vt 0.625000 0.000000
vt 0.375000 0.250000
vt 0.375000 0.000000
vt 0.625000 0.250000
vt 0.375000 0.500000
vt 0.625000 0.500000
vt 0.375000 0.750000
vt 0.625000 0.750000
vt 0.375000 1.000000
vt 0.125000 0.750000
vt 0.125000 0.500000
vt 0.875000 0.500000
vt 0.625000 1.000000
vt 0.875000 0.750000
s 1
usemtl Dark
f 226/349/341 227/350/341 225/351/341
f 228/352/342 231/353/342 227/350/342
f 232/354/343 229/355/343 231/353/343
f 230/356/344 225/357/344 229/355/344
f 231/353/345 225/358/345 227/359/345
f 228/360/346 230/356/346 232/354/346
f 226/349/341 228/352/341 227/350/341
f 228/352/342 232/354/342 231/353/342
f 232/354/343 230/356/343 229/355/343
f 230/356/344 226/361/344 225/357/344
f 231/353/345 229/355/345 225/358/345
f 228/360/346 226/362/346 230/356/346
o AssaultRifle_SightR
v 0.160000 0.165000 0.015000
v 0.160000 0.215000 0.015000
v 0.160000 0.165000 -0.015000
v 0.160000 0.215000 -0.015000
v 0.200000 0.165000 0.015000
v 0.200000 0.215000 0.015000
v 0.200000 0.165000 -0.015000
v 0.200000 0.215000 -0.015000
vn -1.0000 -0.0000 -0.0000
vn -0.0000 -0.0000 -1.0000
vn 1.0000 -0.0000 -0.0000
vn -0.0000 -0.0000 1.0000
vn -0.0000 -1.0000 -0.0000
vn -0.0000 1.0000 -0.0000
vt 0.625000 0.000000
vt 0.375000 0.250000
vt 0.375000 0.000000
vt 0.625000 0.250000
vt 0.375000 0.500000
vt 0.625000 0.500000
vt 0.375000 0.750000
vt 0.625000 0.750000
vt 0.375000 1.000000
vt 0.125000 0.750000
vt 0.125000 0.500000
vt 0.875000 0.500000
vt 0.625000 1.000000
vt 0.875000 0.750000
s 1
usemtl Dark
f 234/363/347 235/364/347 233/365/347
f 236/366/348 239/367/348 235/364/348
f 240/368/349 237/369/349 239/367/349
f 238/370/350 233/371/350 237/369/350
f 239/367/351 233/372/351 235/373/351
f 236/374/352 238/370/352 240/368/352
f 234/363/347 236/366/347 235/364/347
f 236/366/348 240/368/348 239/367/348
f 240/368/349 238/370/349 237/369/349
f 238/370/350 234/375/350 233/371/350
f 239/367/351 237/369/351 233/372/351
f 236/374/352 234/376/352 238/370/352
o AssaultRifle_Magazine
v -0.007861 -0.205095 0.035000
v -0.041263 0.032569 0.035000
v -0.007861 -0.205095 -0.035000
v -0.041263 0.032569 -0.035000
v 0.081263 -0.192569 0.035000
v 0.047861 0.045095 0.035000
v 0.081263 -0.192569 -0.035000
v 0.047861 0.045095 -0.035000
vn -0.9903 -0.1392 -0.0000
vn -0.0000 -0.0000 -1.0000
vn 0.9903 0.1392 -0.0000
vn -0.0000 -0.0000 1.0000
vn 0.1392 -0.9903 -0.0000
vn -0.1392 0.9903 -0.0000
vt 0.625000 0.000000
vt 0.375000 0.250000
vt 0.375000 0.000000
vt 0.625000 0.250000
vt 0.375000 0.500000
vt 0.625000 0.500000
vt 0.375000 0.750000
vt 0.625000 0.750000
vt 0.375000 1.000000
vt 0.125000 0.750000
vt 0.125000 0.500000
vt 0.875000 0.500000
vt 0.625000 1.000000
vt 0.875000 0.750000
s 1
usemtl Gunmetal
f 242/377/353 243/378/353 241/379/353
f 244/380/354 247/381/354 243/378/354
f 248/382/355 245/383/355 247/381/355
f 246/384/356 241/385/356 245/383/356
f 247/381/357 241/386/357 243/387/357
f 244/388/358 246/384/358 248/382/358
f 242/377/353 244/380/353 243/378/353
f 244/380/354 248/382/354 247/381/354
f 248/382/355 246/384/355 245/383/355
f 246/384/356 242/389/356 241/385/356
f 247/381/357 245/383/357 241/386/357
f 244/388/358 242/390/358 246/384/358
o AssaultRifle_ChargingHandle
v 0.120000 0.145000 -0.110000
v 0.120000 0.145000 -0.030000
v 0.127500 0.142990 -0.110000
v 0.127500 0.142990 -0.030000
v 0.132990 0.137500 -0.110000
v 0.132990 0.137500 -0.030000
v 0.135000 0.130000 -0.110000
v 0.135000 0.130000 -0.030000
v 0.132990 0.122500 -0.110000
v 0.132990 0.122500 -0.030000
v 0.127500 0.117010 -0.110000
v 0.127500 0.117010 -0.030000
v 0.120000 0.115000 -0.110000
v 0.120000 0.115000 -0.030000
v 0.112500 0.117010 -0.110000
v 0.112500 0.117010 -0.030000
v 0.107010 0.122500 -0.110000
v 0.107010 0.122500 -0.030000
v 0.105000 0.130000 -0.110000
v 0.105000 0.130000 -0.030000
v 0.107010 0.137500 -0.110000
v 0.107010 0.137500 -0.030000
v 0.112500 0.142990 -0.110000
v 0.112500 0.142990 -0.030000
vn 0.2588 0.9659 -0.0000
vn 0.7071 0.7071 -0.0000
vn 0.9659 0.2588 -0.0000
vn 0.9659 -0.2588 -0.0000
vn 0.7071 -0.7071 -0.0000
vn 0.2588 -0.9659 -0.0000
vn -0.2588 -0.9659 -0.0000
vn -0.7071 -0.7071 -0.0000
vn -0.9659 -0.2588 -0.0000
vn -0.9659 0.2588 -0.0000
vn -0.0000 -0.0000 1.0000
vn -0.7071 0.7071 -0.0000
vn -0.2588 0.9659 -0.0000
vn -0.0000 -0.0000 -1.0000
vt 1.000000 1.000000
vt 0.916667 0.500000
vt 1.000000 0.500000
vt 0.916667 1.000000
vt 0.833333 0.500000
vt 0.833333 1.000000
vt 0.750000 0.500000
vt 0.750000 1.000000
vt 0.666667 0.500000
vt 0.666667 1.000000
vt 0.583333 0.500000
vt 0.583333 1.000000
vt 0.500000 0.500000
vt 0.500000 1.000000
vt 0.416667 0.500000
vt 0.416667 1.000000
vt 0.333333 0.500000
vt 0.333333 1.000000
vt 0.250000 0.500000
vt 0.250000 1.000000
vt 0.166667 0.500000
vt 0.042154 0.370000
vt 0.250000 0.010000
vt 0.457846 0.370000
vt 0.166667 1.000000
vt 0.083333 0.500000
vt 0.083333 1.000000
vt 0.000000 0.500000
vt 0.990000 0.250000
vt 0.630000 0.042154
vt 0.630000 0.457846
vt 0.370000 0.457846
vt 0.250000 0.490000
vt 0.130000 0.457846
vt 0.010000 0.250000
vt 0.042154 0.130000
vt 0.130000 0.042154
vt 0.370000 0.042154
vt 0.457846 0.130000
vt 0.490000 0.250000
vt 0.000000 1.000000
vt 0.750000 0.490000
vt 0.870000 0.457846
vt 0.957846 0.370000
vt 0.957846 0.130000
vt 0.870000 0.042154
vt 0.750000 0.010000
vt 0.542154 0.130000
vt 0.510000 0.250000
vt 0.542154 0.370000
s 1
usemtl Dark
f 250/391/359 251/392/359 249/393/359
f 252/394/360 253/395/360 251/392/360
f 254/396/361 255/397/361 253/395/361
f 256/398/362 257/399/362 255/397/362
f 258/400/363 259/401/363 257/399/363
f 260/402/364 261/403/364 259/401/364
f 262/404/365 263/405/365 261/403/365
f 264/406/366 265/407/366 263/405/366
f 266/408/367 267/409/367 265/407/367
f 268/410/368 269/411/368 267/409/368
f 270/412/369 262/413/369 254/414/369
f 270/415/370 271/416/370 269/411/370
f 272/417/371 249/418/371 271/416/371
f 255/419/372 263/420/372 271/421/372
f 250/391/359 252/394/359 251/392/359
f 252/394/360 254/396/360 253/395/360
f 254/396/361 256/398/361 255/397/361
f 256/398/362 258/400/362 257/399/362
f 258/400/363 260/402/363 259/401/363
f 260/402/364 262/404/364 261/403/364
f 262/404/365 264/406/365 263/405/365
f 264/406/366 266/408/366 265/407/366
f 266/408/367 268/410/367 267/409/367
f 268/410/368 270/415/368 269/411/368
f 254/414/369 252/422/369 250/423/369
f 250/423/369 272/424/369 270/412/369
f 270/412/369 268/425/369 266/426/369
f 266/426/369 264/427/369 262/413/369
f 262/413/369 260/428/369 258/429/369
f 258/429/369 256/430/369 254/414/369
f 254/414/369 250/423/369 270/412/369
f 270/412/369 266/426/369 262/413/369
f 262/413/369 258/429/369 254/414/369
f 270/415/370 272/417/370 271/416/370
f 272/417/371 250/431/371 249/418/371
f 271/421/372 249/432/372 251/433/372
f 251/433/372 253/434/372 255/419/372
f 255/419/372 257/435/372 259/436/372
f 259/436/372 261/437/372 263/420/372
f 263/420/372 265/438/372 267/439/372
f 267/439/372 269/440/372 271/421/372
f 271/421/372 251/433/372 255/419/372
f 255/419/372 259/436/372 263/420/372
f 263/420/372 267/439/372 271/421/372
