# Blender 5.2.0 LTS
# www.blender.org
mtllib C4Charge.mtl
o C4Charge_Block
v -0.095000 -0.000002 -14.940001
v -0.095000 0.014998 -14.925000
v -0.110000 0.014998 -14.940001
v -0.095000 0.004391 -14.929394
v -0.103660 0.006337 -14.931340
v -0.105607 0.014998 -14.929394
v -0.105607 0.004391 -14.940001
v -0.095000 0.054998 -14.925000
v -0.095000 0.069998 -14.940001
v -0.110000 0.054998 -14.940001
v -0.095000 0.065604 -14.929394
v -0.103660 0.063658 -14.931340
v -0.105607 0.065604 -14.940001
v -0.105607 0.054998 -14.929394
v -0.095000 -0.000002 -15.059999
v -0.110000 0.014998 -15.059999
v -0.095000 0.014998 -15.075000
v -0.105607 0.004391 -15.059999
v -0.103660 0.006337 -15.068660
v -0.105607 0.014998 -15.070606
v -0.095000 0.004391 -15.070606
v -0.095000 0.069998 -15.059999
v -0.095000 0.054998 -15.075000
v -0.110000 0.054998 -15.059999
v -0.095000 0.065604 -15.070606
v -0.103660 0.063658 -15.068660
v -0.105607 0.054998 -15.070606
v -0.105607 0.065604 -15.059999
v 0.095000 -0.000002 -14.940001
v 0.110000 0.014998 -14.940001
v 0.095000 0.014998 -14.925000
v 0.105607 0.004391 -14.940001
v 0.103660 0.006337 -14.931340
v 0.105607 0.014998 -14.929394
v 0.095000 0.004391 -14.929394
v 0.095000 0.069998 -14.940001
v 0.095000 0.054998 -14.925000
v 0.110000 0.054998 -14.940001
v 0.095000 0.065604 -14.929394
v 0.103660 0.063658 -14.931340
v 0.105607 0.054998 -14.929394
v 0.105607 0.065604 -14.940001
v 0.095000 -0.000002 -15.059999
v 0.095000 0.014998 -15.075000
v 0.110000 0.014998 -15.059999
v 0.095000 0.004391 -15.070606
v 0.103660 0.006337 -15.068660
v 0.105607 0.014998 -15.070606
v 0.105607 0.004391 -15.059999
v 0.095000 0.069998 -15.059999
v 0.110000 0.054998 -15.059999
v 0.095000 0.054998 -15.075000
v 0.105607 0.065604 -15.059999
v 0.103660 0.063658 -15.068660
v 0.105607 0.054998 -15.070606
v 0.095000 0.065604 -15.070606
vn -0.0000 -0.0000 1.0000
vn 1.0000 -0.0000 -0.0000
vn -0.0000 1.0000 -0.0000
vn -1.0000 -0.0000 -0.0000
vn -0.0000 -0.0000 -1.0000
vn -0.3250 -0.8881 0.3250
vn -0.3672 -0.8864 0.2818
vn -0.3251 -0.3250 0.8881
vn -0.2818 -0.3670 0.8865
vn -0.8881 -0.3251 0.3251
vn -0.8864 -0.2818 0.3672
vn -0.3251 0.3250 0.8881
vn -0.3672 0.2817 0.8864
vn -0.3250 0.8881 0.3250
vn -0.2816 0.8866 0.3670
vn -0.8881 0.3251 0.3251
vn -0.8865 0.3671 0.2817
vn -0.3250 -0.8881 -0.3250
vn -0.2816 -0.8866 -0.3670
vn -0.8881 -0.3251 -0.3251
vn -0.8865 -0.3671 -0.2817
vn -0.3251 -0.3250 -0.8881
vn -0.3672 -0.2817 -0.8864
vn -0.3250 0.8881 -0.3250
vn -0.3672 0.8864 -0.2818
vn -0.3251 0.3250 -0.8881
vn -0.2818 0.3670 -0.8865
vn -0.8881 0.3251 -0.3251
vn -0.8864 0.2818 -0.3672
vn 0.3250 -0.8881 0.3250
vn 0.2816 -0.8866 0.3670
vn 0.8881 -0.3251 0.3251
vn 0.8865 -0.3671 0.2817
vn 0.3251 -0.3250 0.8881
vn 0.3672 -0.2817 0.8864
vn 0.3250 0.8881 0.3250
vn 0.3672 0.8864 0.2818
vn 0.3251 0.3250 0.8881
vn 0.2818 0.3670 0.8865
vn 0.8881 0.3251 0.3251
vn 0.8864 0.2818 0.3672
vn 0.3250 -0.8881 -0.3250
vn 0.3672 -0.8864 -0.2818
vn 0.3251 -0.3250 -0.8881
vn 0.2818 -0.3670 -0.8865
vn 0.8881 -0.3251 -0.3251
vn 0.8864 -0.2818 -0.3672
vn 0.3250 0.8881 -0.3250
vn 0.2816 0.8866 -0.3670
vn 0.8881 0.3251 -0.3251
vn 0.8865 0.3671 -0.2817
vn 0.3251 0.3250 -0.8881
vn 0.3672 0.2817 -0.8864
vn -0.3827 -0.9239 -0.0000
vn -0.9239 -0.3827 -0.0000
vn -0.3827 -0.0000 0.9239
vn -0.9239 -0.0000 0.3827
vn -0.3827 0.9239 -0.0000
vn -0.9239 0.3827 -0.0000
vn -0.3827 -0.0000 -0.9239
vn -0.9239 -0.0000 -0.3827
vn -0.0000 -0.9239 -0.3826
vn -0.0000 -0.9239 -0.3827
vn -0.0000 -0.3826 -0.9239
vn -0.0000 -0.3827 -0.9239
vn -0.0000 0.9239 -0.3826
vn -0.0000 0.9239 -0.3827
vn -0.0000 0.3826 -0.9239
vn -0.0000 0.3827 -0.9239
vn 0.9239 -0.0000 -0.3827
vn 0.3827 -0.0000 -0.9239
vn 0.3827 -0.9239 -0.0000
vn 0.9239 -0.3827 -0.0000
vn 0.3827 0.9239 -0.0000
vn 0.9239 0.3827 -0.0000
vn 0.3827 -0.0000 0.9239
vn 0.9239 -0.0000 0.3827
vn -0.0000 -0.9238 0.3828
vn -0.0000 -0.9239 0.3826
vn -0.0000 -0.3826 0.9239
vn -0.0000 -0.3828 0.9238
vn -0.0000 0.9238 0.3828
vn -0.0000 0.9239 0.3826
vn -0.0000 0.3826 0.9239
vn -0.0000 0.3828 0.9238
vn -0.0000 -1.0000 -0.0000
vn -0.2816 -0.8866 0.3670
vn -0.3672 -0.2817 0.8864
vn -0.8865 -0.3671 0.2817
vn -0.2818 0.3670 0.8865
vn -0.3672 0.8864 0.2818
vn -0.8864 0.2818 0.3672
vn -0.3672 -0.8864 -0.2818
vn -0.8864 -0.2818 -0.3672
vn -0.2818 -0.3670 -0.8865
vn -0.2816 0.8866 -0.3670
vn -0.3672 0.2817 -0.8864
vn -0.8865 0.3671 -0.2817
vn 0.3672 -0.8864 0.2818
vn 0.8864 -0.2818 0.3672
vn 0.2818 -0.3670 0.8865
vn 0.2816 0.8866 0.3670
vn 0.3672 0.2817 0.8864
vn 0.8865 0.3671 0.2817
vn 0.2816 -0.8866 -0.3670
vn 0.3672 -0.2817 -0.8864
vn 0.8865 -0.3671 -0.2817
vn 0.3672 0.8864 -0.2818
vn 0.8864 0.2818 -0.3672
vn 0.2818 0.3670 -0.8865
vn -0.0000 -0.3829 0.9238
vn -0.0000 0.3829 0.9238
vt 0.571429 0.767045
vt 0.428571 0.982955
vt 0.428571 0.767045
vt 0.571429 0.525001
vt 0.428571 0.724999
vt 0.428571 0.525001
vt 0.857955 0.525001
vt 0.642045 0.724999
vt 0.642045 0.525001
vt 0.571429 0.025001
vt 0.428571 0.224999
vt 0.428571 0.025001
vt 0.571429 0.267045
vt 0.428571 0.482955
vt 0.428571 0.267045
vt 0.142045 0.724999
vt 0.132204 0.750000
vt 0.125000 0.724999
vt 0.397642 1.000000
vt 0.375000 0.982955
vt 0.375000 0.010567
vt 0.428571 0.000000
vt 0.571429 0.982955
vt 0.625000 0.992796
vt 0.571429 1.000000
vt 0.857955 0.724999
vt 0.875000 0.739433
vt 0.857955 0.750000
vt 0.602358 0.000000
vt 0.625000 0.025001
vt 0.142045 0.525001
vt 0.125000 0.510567
vt 0.142045 0.500000
vt 0.397642 0.250000
vt 0.375000 0.224999
vt 0.375000 0.257204
vt 0.428571 0.250000
vt 0.867796 0.500000
vt 0.875000 0.525001
vt 0.602358 0.250000
vt 0.625000 0.267045
vt 0.571429 0.224999
vt 0.625000 0.239433
vt 0.571429 0.250000
vt 0.357955 0.724999
vt 0.382547 0.748879
vt 0.357955 0.750000
vt 0.375000 0.724999
vt 0.428571 0.750000
vt 0.619854 0.746478
vt 0.625000 0.724999
vt 0.625000 0.767045
vt 0.571429 0.724999
vt 0.571429 0.750000
vt 0.357955 0.525001
vt 0.380146 0.503522
vt 0.375000 0.525001
vt 0.375000 0.482955
vt 0.428571 0.500000
vt 0.617453 0.501121
vt 0.642045 0.500000
vt 0.625000 0.525001
vt 0.571429 0.482955
vt 0.571429 0.500000
vt 0.125000 0.525001
vt 0.375000 0.025001
vt 0.428571 1.000000
vt 0.875000 0.724999
vt 0.625000 0.224999
vt 0.357955 0.500000
vt 0.857955 0.500000
vt 0.142045 0.750000
vt 0.642045 0.750000
vt 0.625000 0.982955
vt 0.571429 0.000000
vt 0.375000 0.267045
vt 0.375000 0.767045
vt 0.625000 0.482955
s 1
usemtl Tan
f 37/1/1 2/2/1 31/3/1
f 51/4/2 30/5/2 45/6/2
f 22/7/3 36/8/3 50/9/3
f 10/10/4 16/11/4 3/12/4
f 23/13/5 44/14/5 17/15/5
f 1/16/6 5/17/6 7/18/7
f 2/2/8 5/19/8 4/20/9
f 3/12/10 5/21/10 6/22/11
f 8/23/12 12/24/12 14/25/13
f 9/26/14 12/27/14 11/28/15
f 10/10/16 12/29/16 13/30/17
f 15/31/18 19/32/18 21/33/19
f 16/11/20 19/34/20 18/35/21
f 17/15/22 19/36/22 20/37/23
f 22/7/24 26/38/24 28/39/25
f 23/13/26 26/40/26 25/41/27
f 24/42/28 26/43/28 27/44/29
f 29/45/30 33/46/30 35/47/31
f 30/5/32 33/46/32 32/48/33
f 31/3/34 33/46/34 34/49/35
f 36/8/36 40/50/36 42/51/37
f 37/1/38 40/50/38 39/52/39
f 38/53/40 40/50/40 41/54/41
f 43/55/42 47/56/42 49/57/43
f 44/14/44 47/56/44 46/58/45
f 45/6/46 47/56/46 48/59/47
f 50/9/48 54/60/48 56/61/49
f 51/4/50 54/60/50 53/62/51
f 52/63/52 54/60/52 55/64/53
f 1/16/54 18/65/54 15/31/54
f 7/66/55 16/11/55 18/35/55
f 8/23/56 6/67/56 2/2/56
f 6/22/57 10/10/57 3/12/57
f 22/7/58 13/68/58 9/26/58
f 28/69/59 10/10/59 13/30/59
f 23/13/60 20/37/60 27/44/60
f 20/37/61 24/42/61 27/44/61
f 15/31/62 46/70/63 43/55/63
f 46/58/64 17/15/65 44/14/64
f 50/9/66 25/71/67 22/7/67
f 25/41/68 52/63/69 23/13/68
f 51/4/70 48/59/70 55/64/70
f 48/59/71 52/63/71 55/64/71
f 43/55/72 32/48/72 29/45/72
f 49/57/73 30/5/73 32/48/73
f 36/8/74 53/62/74 50/9/74
f 42/51/75 51/4/75 53/62/75
f 37/1/76 34/49/76 41/54/76
f 34/49/77 38/53/77 41/54/77
f 29/45/78 4/72/79 1/16/79
f 4/20/80 31/3/81 2/2/80
f 9/26/82 39/73/83 36/8/83
f 39/52/84 8/23/85 37/1/84
f 43/55/86 1/16/86 15/31/86
f 37/1/1 8/23/1 2/2/1
f 51/4/2 38/53/2 30/5/2
f 22/7/3 9/26/3 36/8/3
f 10/10/4 24/42/4 16/11/4
f 23/13/5 52/63/5 44/14/5
f 1/16/6 4/72/87 5/17/6
f 2/2/8 6/67/88 5/19/8
f 3/12/10 7/66/89 5/21/10
f 8/23/12 11/74/90 12/24/12
f 9/26/14 13/68/91 12/27/14
f 10/10/16 14/75/92 12/29/16
f 15/31/18 18/65/93 19/32/18
f 16/11/20 20/37/94 19/34/20
f 17/15/22 21/76/95 19/36/22
f 22/7/24 25/71/96 26/38/24
f 23/13/26 27/44/97 26/40/26
f 24/42/28 28/69/98 26/43/28
f 29/45/30 32/48/99 33/46/30
f 30/5/32 34/49/100 33/46/32
f 31/3/34 35/77/101 33/46/34
f 36/8/36 39/73/102 40/50/36
f 37/1/38 41/54/103 40/50/38
f 38/53/40 42/51/104 40/50/40
f 43/55/42 46/70/105 47/56/42
f 44/14/44 48/59/106 47/56/44
f 45/6/46 49/57/107 47/56/46
f 50/9/48 53/62/108 54/60/48
f 51/4/50 55/64/109 54/60/50
f 52/63/52 56/78/110 54/60/52
f 1/16/54 7/18/54 18/65/54
f 7/66/55 3/12/55 16/11/55
f 8/23/56 14/25/56 6/67/56
f 6/22/57 14/75/57 10/10/57
f 22/7/58 28/39/58 13/68/58
f 28/69/59 24/42/59 10/10/59
f 23/13/60 17/15/60 20/37/60
f 20/37/61 16/11/61 24/42/61
f 15/31/62 21/33/62 46/70/63
f 46/58/64 21/76/65 17/15/65
f 50/9/66 56/61/66 25/71/67
f 25/41/68 56/78/69 52/63/69
f 51/4/70 45/6/70 48/59/70
f 48/59/71 44/14/71 52/63/71
f 43/55/72 49/57/72 32/48/72
f 49/57/73 45/6/73 30/5/73
f 36/8/74 42/51/74 53/62/74
f 42/51/75 38/53/75 51/4/75
f 37/1/76 31/3/76 34/49/76
f 34/49/77 30/5/77 38/53/77
f 29/45/78 35/47/78 4/72/79
f 4/20/80 35/77/111 31/3/81
f 9/26/82 11/28/82 39/73/83
f 39/52/84 11/74/112 8/23/85
f 43/55/86 29/45/86 1/16/86
o C4Charge_Stripe
v -0.110000 0.064998 -14.980000
v -0.110000 0.084998 -14.980000
v -0.110000 0.064998 -15.020000
v -0.110000 0.084998 -15.020000
v 0.110000 0.064998 -14.980000
v 0.110000 0.084998 -14.980000
v 0.110000 0.064998 -15.020000
v 0.110000 0.084998 -15.020000
vn -1.0000 -0.0000 -0.0000
vn -0.0000 -0.0000 -1.0000
vn 1.0000 -0.0000 -0.0000
vn -0.0000 -0.0000 1.0000
vn -0.0000 -1.0000 -0.0000
vn -0.0000 1.0000 -0.0000
vt 0.625000 0.000000
vt 0.375000 0.250000
vt 0.375000 0.000000
vt 0.625000 0.250000
vt 0.375000 0.500000
vt 0.625000 0.500000
vt 0.375000 0.750000
vt 0.625000 0.750000
vt 0.375000 1.000000
vt 0.125000 0.750000
vt 0.125000 0.500000
vt 0.875000 0.500000
vt 0.625000 1.000000
vt 0.875000 0.750000
s 1
usemtl SignalRed
f 58/79/113 59/80/113 57/81/113
f 60/82/114 63/83/114 59/80/114
f 64/84/115 61/85/115 63/83/115
f 62/86/116 57/87/116 61/85/116
f 63/83/117 57/88/117 59/89/117
f 60/90/118 62/86/118 64/84/118
f 58/79/113 60/82/113 59/80/113
f 60/82/114 64/84/114 63/83/114
f 64/84/115 62/86/115 61/85/115
f 62/86/116 58/91/116 57/87/116
f 63/83/117 61/85/117 57/88/117
f 60/90/118 58/92/118 62/86/118
