# Blender 5.2.0 LTS
# www.blender.org
mtllib Detonator.mtl
o Detonator_Body
v -0.037000 -0.000003 -17.927999
v -0.037000 0.007997 -17.920000
v -0.045000 0.007997 -17.927999
v -0.037000 0.002340 -17.922344
v -0.041619 0.003378 -17.923384
v -0.042657 0.007997 -17.922344
v -0.042657 0.002340 -17.928001
v -0.037000 0.041997 -17.920000
v -0.037000 0.049997 -17.927999
v -0.045000 0.041997 -17.927999
v -0.037000 0.047654 -17.922344
v -0.041619 0.046616 -17.923384
v -0.042657 0.047654 -17.928001
v -0.042657 0.041997 -17.922344
v -0.037000 -0.000003 -18.072001
v -0.045000 0.007997 -18.072001
v -0.037000 0.007997 -18.080000
v -0.042657 0.002340 -18.071999
v -0.041619 0.003378 -18.076616
v -0.042657 0.007997 -18.077656
v -0.037000 0.002340 -18.077656
v -0.037000 0.049997 -18.072001
v -0.037000 0.041997 -18.080000
v -0.045000 0.041997 -18.072001
v -0.037000 0.047654 -18.077656
v -0.041619 0.046616 -18.076616
v -0.042657 0.041997 -18.077656
v -0.042657 0.047654 -18.071999
v 0.037000 -0.000003 -17.927999
v 0.045000 0.007997 -17.927999
v 0.037000 0.007997 -17.920000
v 0.042657 0.002340 -17.928001
v 0.041619 0.003378 -17.923384
v 0.042657 0.007997 -17.922344
v 0.037000 0.002340 -17.922344
v 0.037000 0.049997 -17.927999
v 0.037000 0.041997 -17.920000
v 0.045000 0.041997 -17.927999
v 0.037000 0.047654 -17.922344
v 0.041619 0.046616 -17.923384
v 0.042657 0.041997 -17.922344
v 0.042657 0.047654 -17.928001
v 0.037000 -0.000003 -18.072001
v 0.037000 0.007997 -18.080000
v 0.045000 0.007997 -18.072001
v 0.037000 0.002340 -18.077656
v 0.041619 0.003378 -18.076616
v 0.042657 0.007997 -18.077656
v 0.042657 0.002340 -18.071999
v 0.037000 0.049997 -18.072001
v 0.045000 0.041997 -18.072001
v 0.037000 0.041997 -18.080000
v 0.042657 0.047654 -18.071999
v 0.041619 0.046616 -18.076616
v 0.042657 0.041997 -18.077656
v 0.037000 0.047654 -18.077656
vn -0.0000 -0.0000 1.0000
vn 1.0000 -0.0000 -0.0000
vn -0.0000 1.0000 -0.0000
vn -1.0000 -0.0000 -0.0000
vn -0.0000 -0.0000 -1.0000
vn -0.3251 -0.8881 0.3251
vn -0.3671 -0.8865 0.2817
vn -0.3253 -0.3249 0.8880
vn -0.2821 -0.3670 0.8864
vn -0.8880 -0.3253 0.3251
vn -0.8864 -0.2819 0.3673
vn -0.3253 0.3249 0.8880
vn -0.3673 0.2816 0.8864
vn -0.3251 0.8881 0.3251
vn -0.2819 0.8864 0.3672
vn -0.8880 0.3253 0.3251
vn -0.8863 0.3675 0.2818
vn -0.3251 -0.8881 -0.3251
vn -0.2819 -0.8864 -0.3672
vn -0.8880 -0.3253 -0.3251
vn -0.8863 -0.3675 -0.2818
vn -0.3253 -0.3249 -0.8880
vn -0.3673 -0.2816 -0.8864
vn -0.3251 0.8881 -0.3251
vn -0.3671 0.8865 -0.2817
vn -0.3253 0.3249 -0.8880
vn -0.2821 0.3670 -0.8864
vn -0.8880 0.3253 -0.3251
vn -0.8864 0.2819 -0.3673
vn 0.3251 -0.8881 0.3251
vn 0.2819 -0.8864 0.3672
vn 0.8880 -0.3253 0.3251
vn 0.8863 -0.3675 0.2818
vn 0.3253 -0.3249 0.8880
vn 0.3673 -0.2816 0.8864
vn 0.3251 0.8881 0.3251
vn 0.3671 0.8865 0.2817
vn 0.3253 0.3249 0.8880
vn 0.2821 0.3670 0.8864
vn 0.8880 0.3253 0.3251
vn 0.8864 0.2819 0.3673
vn 0.3251 -0.8881 -0.3251
vn 0.3671 -0.8865 -0.2817
vn 0.3253 -0.3249 -0.8880
vn 0.2821 -0.3670 -0.8864
vn 0.8880 -0.3253 -0.3251
vn 0.8864 -0.2819 -0.3673
vn 0.3251 0.8881 -0.3251
vn 0.2819 0.8864 -0.3672
vn 0.8880 0.3253 -0.3251
vn 0.8863 0.3675 -0.2818
vn 0.3253 0.3249 -0.8880
vn 0.3673 0.2816 -0.8864
vn -0.3827 -0.9239 -0.0000
vn -0.9239 -0.3827 -0.0000
vn -0.3828 -0.0000 0.9238
vn -0.9238 -0.0000 0.3828
vn -0.3827 0.9239 -0.0000
vn -0.9239 0.3827 -0.0000
vn -0.3828 -0.0000 -0.9238
vn -0.9238 -0.0000 -0.3828
vn -0.0000 -0.9238 -0.3830
vn -0.0000 -0.9239 -0.3827
vn -0.0000 -0.9239 -0.3826
vn -0.0000 -0.3834 -0.9236
vn -0.0000 -0.3826 -0.9239
vn -0.0000 0.9238 -0.3830
vn -0.0000 0.9239 -0.3827
vn -0.0000 0.9239 -0.3826
vn -0.0000 0.3834 -0.9236
vn -0.0000 0.3826 -0.9239
vn 0.9238 -0.0000 -0.3828
vn 0.3828 -0.0000 -0.9238
vn 0.3827 -0.9239 -0.0000
vn 0.9239 -0.3827 -0.0000
vn 0.3827 0.9239 -0.0000
vn 0.9239 0.3827 -0.0000
vn 0.3828 -0.0000 0.9238
vn 0.9238 -0.0000 0.3828
vn -0.0000 -0.9238 0.3830
vn -0.0000 -0.9239 0.3827
vn -0.0000 -0.9239 0.3826
vn -0.0000 -0.3834 0.9236
vn -0.0000 -0.3826 0.9239
vn -0.0000 0.9238 0.3830
vn -0.0000 0.9239 0.3827
vn -0.0000 0.9239 0.3826
vn -0.0000 0.3834 0.9236
vn -0.0000 0.3826 0.9239
vn -0.0000 -1.0000 -0.0000
vn -0.2819 -0.8864 0.3672
vn -0.3673 -0.2816 0.8864
vn -0.8863 -0.3675 0.2818
vn -0.2821 0.3670 0.8864
vn -0.3671 0.8865 0.2817
vn -0.8864 0.2819 0.3673
vn -0.3671 -0.8865 -0.2817
vn -0.8864 -0.2819 -0.3673
vn -0.2821 -0.3670 -0.8864
vn -0.2819 0.8864 -0.3672
vn -0.3673 0.2816 -0.8864
vn -0.8863 0.3675 -0.2818
vn 0.3671 -0.8865 0.2817
vn 0.8864 -0.2819 0.3673
vn 0.2821 -0.3670 0.8864
vn 0.2819 0.8864 0.3672
vn 0.3673 0.2816 0.8864
vn 0.8863 0.3675 0.2818
vn 0.2819 -0.8864 -0.3672
vn 0.3673 -0.2816 -0.8864
vn 0.8863 -0.3675 -0.2818
vn 0.3671 0.8865 -0.2817
vn 0.8864 0.2819 -0.3673
vn 0.2821 0.3670 -0.8864
vn -0.0000 -0.9237 -0.3830
vn -0.0000 -0.3835 -0.9236
vn -0.0000 0.9237 -0.3830
vn -0.0000 0.3835 -0.9236
vn -0.0000 -0.9237 0.3830
vn -0.0000 -0.3835 0.9236
vn -0.0000 0.9237 0.3830
vn -0.0000 0.3835 0.9236
vt 0.585000 0.772222
vt 0.415000 0.977778
vt 0.415000 0.772222
vt 0.585000 0.512499
vt 0.415000 0.737501
vt 0.415000 0.512499
vt 0.852778 0.512499
vt 0.647222 0.737501
vt 0.647222 0.512499
vt 0.585000 0.012499
vt 0.415000 0.237501
vt 0.415000 0.012499
vt 0.585000 0.272222
vt 0.415000 0.477778
vt 0.415000 0.272222
vt 0.147222 0.737501
vt 0.134392 0.750000
vt 0.125000 0.737498
vt 0.391906 1.000000
vt 0.375000 0.977778
vt 0.375000 0.005287
vt 0.415000 0.000000
vt 0.585000 0.977778
vt 0.625000 0.990608
vt 0.585000 1.000000
vt 0.852778 0.737501
vt 0.875000 0.744713
vt 0.852778 0.750000
vt 0.608094 0.000000
vt 0.625000 0.012502
vt 0.147222 0.512499
vt 0.125000 0.505287
vt 0.147222 0.500000
vt 0.391906 0.250000
vt 0.375000 0.237498
vt 0.375000 0.259392
vt 0.415000 0.250000
vt 0.865608 0.500000
vt 0.875000 0.512502
vt 0.608094 0.250000
vt 0.625000 0.272222
vt 0.585000 0.237501
vt 0.625000 0.244713
vt 0.585000 0.250000
vt 0.352778 0.737501
vt 0.380635 0.751368
vt 0.352778 0.750000
vt 0.375000 0.737498
vt 0.415000 0.750000
vt 0.622495 0.748238
vt 0.625000 0.737498
vt 0.625000 0.772222
vt 0.585000 0.737501
vt 0.585000 0.750000
vt 0.352778 0.512499
vt 0.377505 0.501762
vt 0.375000 0.512502
vt 0.375000 0.477778
vt 0.415000 0.500000
vt 0.619365 0.498632
vt 0.647222 0.500000
vt 0.625000 0.512502
vt 0.585000 0.477778
vt 0.585000 0.500000
vt 0.125000 0.512502
vt 0.375000 0.012502
vt 0.415000 1.000000
vt 0.585000 0.000000
vt 0.875000 0.737498
vt 0.625000 0.237498
vt 0.352778 0.500000
vt 0.375000 0.272222
vt 0.852778 0.500000
vt 0.625000 0.477778
vt 0.147222 0.750000
vt 0.375000 0.772222
vt 0.647222 0.750000
vt 0.625000 0.977778
s 1
usemtl Dark
f 37/1/1 2/2/1 31/3/1
f 51/4/2 30/5/2 45/6/2
f 22/7/3 36/8/3 50/9/3
f 10/10/4 16/11/4 3/12/4
f 23/13/5 44/14/5 17/15/5
f 1/16/6 5/17/6 7/18/7
f 2/2/8 5/19/8 4/20/9
f 3/12/10 5/21/10 6/22/11
f 8/23/12 12/24/12 14/25/13
f 9/26/14 12/27/14 11/28/15
f 10/10/16 12/29/16 13/30/17
f 15/31/18 19/32/18 21/33/19
f 16/11/20 19/34/20 18/35/21
f 17/15/22 19/36/22 20/37/23
f 22/7/24 26/38/24 28/39/25
f 23/13/26 26/40/26 25/41/27
f 24/42/28 26/43/28 27/44/29
f 29/45/30 33/46/30 35/47/31
f 30/5/32 33/46/32 32/48/33
f 31/3/34 33/46/34 34/49/35
f 36/8/36 40/50/36 42/51/37
f 37/1/38 40/50/38 39/52/39
f 38/53/40 40/50/40 41/54/41
f 43/55/42 47/56/42 49/57/43
f 44/14/44 47/56/44 46/58/45
f 45/6/46 47/56/46 48/59/47
f 50/9/48 54/60/48 56/61/49
f 51/4/50 54/60/50 53/62/51
f 52/63/52 54/60/52 55/64/53
f 1/16/54 18/65/54 15/31/54
f 7/66/55 16/11/55 18/35/55
f 8/23/56 6/67/56 2/2/56
f 14/68/57 3/12/57 6/22/57
f 22/7/58 13/69/58 9/26/58
f 28/70/59 10/10/59 13/30/59
f 17/15/60 27/44/60 23/13/60
f 20/37/61 24/42/61 27/44/61
f 15/31/62 46/71/63 43/55/64
f 21/72/65 44/14/66 46/58/66
f 50/9/67 25/73/68 22/7/69
f 56/74/70 23/13/71 25/41/71
f 51/4/72 48/59/72 55/64/72
f 48/59/73 52/63/73 55/64/73
f 43/55/74 32/48/74 29/45/74
f 49/57/75 30/5/75 32/48/75
f 36/8/76 53/62/76 50/9/76
f 42/51/77 51/4/77 53/62/77
f 31/3/78 41/54/78 37/1/78
f 34/49/79 38/53/79 41/54/79
f 29/45/80 4/75/81 1/16/82
f 35/76/83 2/2/84 4/20/84
f 9/26/85 39/77/86 36/8/87
f 11/78/88 37/1/89 39/52/89
f 43/55/90 1/16/90 15/31/90
f 37/1/1 8/23/1 2/2/1
f 51/4/2 38/53/2 30/5/2
f 22/7/3 9/26/3 36/8/3
f 10/10/4 24/42/4 16/11/4
f 23/13/5 52/63/5 44/14/5
f 1/16/6 4/75/91 5/17/6
f 2/2/8 6/67/92 5/19/8
f 3/12/10 7/66/93 5/21/10
f 8/23/12 11/78/94 12/24/12
f 9/26/14 13/69/95 12/27/14
f 10/10/16 14/68/96 12/29/16
f 15/31/18 18/65/97 19/32/18
f 16/11/20 20/37/98 19/34/20
f 17/15/22 21/72/99 19/36/22
f 22/7/24 25/73/100 26/38/24
f 23/13/26 27/44/101 26/40/26
f 24/42/28 28/70/102 26/43/28
f 29/45/30 32/48/103 33/46/30
f 30/5/32 34/49/104 33/46/32
f 31/3/34 35/76/105 33/46/34
f 36/8/36 39/77/106 40/50/36
f 37/1/38 41/54/107 40/50/38
f 38/53/40 42/51/108 40/50/40
f 43/55/42 46/71/109 47/56/42
f 44/14/44 48/59/110 47/56/44
f 45/6/46 49/57/111 47/56/46
f 50/9/48 53/62/112 54/60/48
f 51/4/50 55/64/113 54/60/50
f 52/63/52 56/74/114 54/60/52
f 1/16/54 7/18/54 18/65/54
f 7/66/55 3/12/55 16/11/55
f 8/23/56 14/25/56 6/67/56
f 14/68/57 10/10/57 3/12/57
f 22/7/58 28/39/58 13/69/58
f 28/70/59 24/42/59 10/10/59
f 17/15/60 20/37/60 27/44/60
f 20/37/61 16/11/61 24/42/61
f 15/31/62 21/33/115 46/71/63
f 21/72/65 17/15/116 44/14/66
f 50/9/67 56/61/117 25/73/68
f 56/74/70 52/63/118 23/13/71
f 51/4/72 45/6/72 48/59/72
f 48/59/73 44/14/73 52/63/73
f 43/55/74 49/57/74 32/48/74
f 49/57/75 45/6/75 30/5/75
f 36/8/76 42/51/76 53/62/76
f 42/51/77 38/53/77 51/4/77
f 31/3/78 34/49/78 41/54/78
f 34/49/79 30/5/79 38/53/79
f 29/45/80 35/47/119 4/75/81
f 35/76/83 31/3/120 2/2/84
f 9/26/85 11/28/121 39/77/86
f 11/78/88 8/23/122 37/1/89
f 43/55/90 29/45/90 1/16/90
o Detonator_Antenna
v 0.030000 0.040000 -18.057999
v 0.030000 0.260000 -18.057999
v 0.034000 0.040000 -18.056927
v 0.034000 0.260000 -18.056927
v 0.036928 0.040000 -18.053999
v 0.036928 0.260000 -18.053999
v 0.038000 0.040000 -18.049999
v 0.038000 0.260000 -18.049999
v 0.036928 0.040000 -18.046000
v 0.036928 0.260000 -18.046000
v 0.034000 0.040000 -18.043072
v 0.034000 0.260000 -18.043072
v 0.030000 0.040000 -18.042000
v 0.030000 0.260000 -18.042000
v 0.026000 0.040000 -18.043072
v 0.026000 0.260000 -18.043072
v 0.023072 0.040000 -18.046000
v 0.023072 0.260000 -18.046000
v 0.022000 0.040000 -18.049999
v 0.022000 0.260000 -18.049999
v 0.023072 0.040000 -18.053999
v 0.023072 0.260000 -18.053999
v 0.026000 0.040000 -18.056927
v 0.026000 0.260000 -18.056927
vn 0.2588 -0.0000 -0.9659
vn 0.7071 -0.0000 -0.7071
vn 0.9659 -0.0000 -0.2588
vn 0.9659 -0.0000 0.2588
vn 0.7071 -0.0000 0.7071
vn 0.2588 -0.0000 0.9659
vn -0.2588 -0.0000 0.9659
vn -0.7071 -0.0000 0.7071
vn -0.9659 -0.0000 0.2588
vn -0.9659 -0.0000 -0.2588
vn -0.0000 1.0000 -0.0000
vn -0.7071 -0.0000 -0.7071
vn -0.2588 -0.0000 -0.9659
vn -0.0000 -1.0000 -0.0000
vt 1.000000 1.000000
vt 0.916667 0.500000
vt 1.000000 0.500000
vt 0.916667 1.000000
vt 0.833333 0.500000
vt 0.833333 1.000000
vt 0.750000 0.500000
vt 0.750000 1.000000
vt 0.666667 0.500000
vt 0.666667 1.000000
vt 0.583333 0.500000
vt 0.583333 1.000000
vt 0.500000 0.500000
vt 0.500000 1.000000
vt 0.416667 0.500000
vt 0.416667 1.000000
vt 0.333333 0.500000
vt 0.333333 1.000000
vt 0.250000 0.500000
vt 0.250000 1.000000
vt 0.166667 0.500000
vt 0.042154 0.370000
vt 0.250000 0.010000
vt 0.457846 0.370000
vt 0.166667 1.000000
vt 0.083333 0.500000
vt 0.083333 1.000000
vt 0.000000 0.500000
vt 0.990000 0.250000
vt 0.630000 0.042154
vt 0.630000 0.457846
vt 0.370000 0.457846
vt 0.250000 0.490000
vt 0.130000 0.457846
vt 0.010000 0.250000
vt 0.042154 0.130000
vt 0.130000 0.042154
vt 0.370000 0.042154
vt 0.457846 0.130000
vt 0.490000 0.250000
vt 0.000000 1.000000
vt 0.750000 0.490000
vt 0.870000 0.457846
vt 0.957846 0.370000
vt 0.957846 0.130000
vt 0.870000 0.042154
vt 0.750000 0.010000
vt 0.542154 0.130000
vt 0.510000 0.250000
vt 0.542154 0.370000
s 1
usemtl Gunmetal
f 58/79/123 59/80/123 57/81/123
f 60/82/124 61/83/124 59/80/124
f 62/84/125 63/85/125 61/83/125
f 64/86/126 65/87/126 63/85/126
f 66/88/127 67/89/127 65/87/127
f 68/90/128 69/91/128 67/89/128
f 70/92/129 71/93/129 69/91/129
f 72/94/130 73/95/130 71/93/130
f 74/96/131 75/97/131 73/95/131
f 76/98/132 77/99/132 75/97/132
f 78/100/133 70/101/133 62/102/133
f 78/103/134 79/104/134 77/99/134
f 80/105/135 57/106/135 79/104/135
f 63/107/136 71/108/136 79/109/136
f 58/79/123 60/82/123 59/80/123
f 60/82/124 62/84/124 61/83/124
f 62/84/125 64/86/125 63/85/125
f 64/86/126 66/88/126 65/87/126
f 66/88/127 68/90/127 67/89/127
f 68/90/128 70/92/128 69/91/128
f 70/92/129 72/94/129 71/93/129
f 72/94/130 74/96/130 73/95/130
f 74/96/131 76/98/131 75/97/131
f 76/98/132 78/103/132 77/99/132
f 62/102/133 60/110/133 58/111/133
f 58/111/133 80/112/133 78/100/133
f 78/100/133 76/113/133 74/114/133
f 74/114/133 72/115/133 70/101/133
f 70/101/133 68/116/133 66/117/133
f 66/117/133 64/118/133 62/102/133
f 62/102/133 58/111/133 78/100/133
f 78/100/133 74/114/133 70/101/133
f 70/101/133 66/117/133 62/102/133
f 78/103/134 80/105/134 79/104/134
f 80/105/135 58/119/135 57/106/135
f 79/109/136 57/120/136 59/121/136
f 59/121/136 61/122/136 63/107/136
f 63/107/136 65/123/136 67/124/136
f 67/124/136 69/125/136 71/108/136
f 71/108/136 73/126/136 75/127/136
f 75/127/136 77/128/136 79/109/136
f 79/109/136 59/121/136 63/107/136
f 63/107/136 67/124/136 71/108/136
f 71/108/136 75/127/136 79/109/136
o Detonator_Button
v -0.020000 0.049997 -17.959999
v -0.020000 0.069997 -17.959999
v -0.020000 0.049997 -18.000000
v -0.020000 0.069997 -18.000000
v 0.020000 0.049997 -17.959999
v 0.020000 0.069997 -17.959999
v 0.020000 0.049997 -18.000000
v 0.020000 0.069997 -18.000000
vn -1.0000 -0.0000 -0.0000
vn -0.0000 -0.0000 -1.0000
vn 1.0000 -0.0000 -0.0000
vn -0.0000 -0.0000 1.0000
vn -0.0000 -1.0000 -0.0000
vn -0.0000 1.0000 -0.0000
vt 0.625000 0.000000
vt 0.375000 0.250000
vt 0.375000 0.000000
vt 0.625000 0.250000
vt 0.375000 0.500000
vt 0.625000 0.500000
vt 0.375000 0.750000
vt 0.625000 0.750000
vt 0.375000 1.000000
vt 0.125000 0.750000
vt 0.125000 0.500000
vt 0.875000 0.500000
vt 0.625000 1.000000
vt 0.875000 0.750000
s 1
usemtl SignalRed
f 82/129/137 83/130/137 81/131/137
f 84/132/138 87/133/138 83/130/138
f 88/134/139 85/135/139 87/133/139
f 86/136/140 81/137/140 85/135/140
f 87/133/141 81/138/141 83/139/141
f 84/140/142 86/136/142 88/134/142
f 82/129/137 84/132/137 83/130/137
f 84/132/138 88/134/138 87/133/138
f 88/134/139 86/136/139 85/135/139
f 86/136/140 82/141/140 81/137/140
f 87/133/141 85/135/141 81/138/141
f 84/140/142 82/142/142 86/136/142
