# Blender 5.2.0 LTS
# www.blender.org
mtllib DroneTablet.mtl
o DroneTablet_Body
v -0.140000 -0.000004 -23.910000
v -0.140000 0.009996 -23.900000
v -0.150000 0.009996 -23.910000
v -0.140000 0.002925 -23.902929
v -0.145774 0.004223 -23.904226
v -0.147071 0.009996 -23.902929
v -0.147071 0.002925 -23.910000
v -0.140000 0.009996 -23.900000
v -0.140000 0.019996 -23.910000
v -0.150000 0.009996 -23.910000
v -0.140000 0.017067 -23.902929
v -0.145774 0.015770 -23.904226
v -0.147071 0.017067 -23.910000
v -0.147071 0.009996 -23.902929
v -0.140000 -0.000004 -24.090000
v -0.150000 0.009996 -24.090000
v -0.140000 0.009996 -24.100000
v -0.147071 0.002925 -24.090000
v -0.145774 0.004223 -24.095774
v -0.147071 0.009996 -24.097071
v -0.140000 0.002925 -24.097071
v -0.140000 0.019996 -24.090000
v -0.140000 0.009996 -24.100000
v -0.150000 0.009996 -24.090000
v -0.140000 0.017067 -24.097071
v -0.145774 0.015770 -24.095774
v -0.147071 0.009996 -24.097071
v -0.147071 0.017067 -24.090000
v 0.140000 -0.000004 -23.910000
v 0.150000 0.009996 -23.910000
v 0.140000 0.009996 -23.900000
v 0.147071 0.002925 -23.910000
v 0.145774 0.004223 -23.904226
v 0.147071 0.009996 -23.902929
v 0.140000 0.002925 -23.902929
v 0.140000 0.019996 -23.910000
v 0.140000 0.009996 -23.900000
v 0.150000 0.009996 -23.910000
v 0.140000 0.017067 -23.902929
v 0.145774 0.015770 -23.904226
v 0.147071 0.009996 -23.902929
v 0.147071 0.017067 -23.910000
v 0.140000 -0.000004 -24.090000
v 0.140000 0.009996 -24.100000
v 0.150000 0.009996 -24.090000
v 0.140000 0.002925 -24.097071
v 0.145774 0.004223 -24.095774
v 0.147071 0.009996 -24.097071
v 0.147071 0.002925 -24.090000
v 0.140000 0.019996 -24.090000
v 0.150000 0.009996 -24.090000
v 0.140000 0.009996 -24.100000
v 0.147071 0.017067 -24.090000
v 0.145774 0.015770 -24.095774
v 0.147071 0.009996 -24.097071
v 0.140000 0.017067 -24.097071
vn -0.0000 -0.0000 1.0000
vn 1.0000 -0.0000 -0.0000
vn -0.0000 1.0000 -0.0000
vn -1.0000 -0.0000 -0.0000
vn -0.0000 -0.0000 -1.0000
vn -0.3250 -0.8881 0.3251
vn -0.3670 -0.8866 0.2816
vn -0.3251 -0.3250 0.8881
vn -0.2816 -0.3675 0.8863
vn -0.8881 -0.3250 0.3251
vn -0.8865 -0.2815 0.3672
vn -0.3251 0.3250 0.8881
vn -0.3673 0.2813 0.8865
vn -0.3250 0.8881 0.3251
vn -0.2818 0.8863 0.3674
vn -0.8881 0.3250 0.3251
vn -0.8864 0.3674 0.2817
vn -0.3250 -0.8881 -0.3251
vn -0.2818 -0.8863 -0.3674
vn -0.8881 -0.3250 -0.3251
vn -0.8863 -0.3675 -0.2817
vn -0.3251 -0.3250 -0.8881
vn -0.3673 -0.2814 -0.8865
vn -0.3250 0.8881 -0.3251
vn -0.3670 0.8865 -0.2816
vn -0.3251 0.3250 -0.8881
vn -0.2816 0.3675 -0.8863
vn -0.8881 0.3250 -0.3251
vn -0.8865 0.2814 -0.3672
vn 0.3250 -0.8881 0.3251
vn 0.2818 -0.8863 0.3674
vn 0.8881 -0.3250 0.3251
vn 0.8864 -0.3674 0.2817
vn 0.3251 -0.3250 0.8881
vn 0.3673 -0.2813 0.8865
vn 0.3250 0.8881 0.3251
vn 0.3670 0.8866 0.2816
vn 0.3251 0.3250 0.8881
vn 0.2816 0.3675 0.8863
vn 0.8881 0.3250 0.3251
vn 0.8865 0.2815 0.3672
vn 0.3250 -0.8881 -0.3251
vn 0.3670 -0.8865 -0.2816
vn 0.3251 -0.3250 -0.8881
vn 0.2816 -0.3675 -0.8863
vn 0.8881 -0.3250 -0.3251
vn 0.8865 -0.2814 -0.3672
vn 0.3250 0.8881 -0.3251
vn 0.2818 0.8863 -0.3674
vn 0.8881 0.3250 -0.3251
vn 0.8863 0.3675 -0.2817
vn 0.3251 0.3250 -0.8881
vn 0.3673 0.2814 -0.8865
vn -0.3827 -0.9239 -0.0000
vn -0.9239 -0.3827 -0.0000
vn -0.2663 -0.0000 0.9639
vn -0.4835 -0.0000 0.8753
vn -0.2662 -0.0000 0.9639
vn -0.8716 -0.0000 0.4902
vn -0.9829 -0.0000 0.1842
vn -0.3827 0.9239 -0.0000
vn -0.9239 0.3827 -0.0000
vn -0.6380 -0.0000 -0.7701
vn -0.1812 -0.0000 -0.9834
vn -0.6380 -0.0000 -0.7700
vn -0.9627 -0.0000 -0.2707
vn -0.9364 -0.0000 -0.3510
vn -0.0000 -0.9239 -0.3827
vn -0.0000 -0.3827 -0.9239
vn -0.0000 0.9239 -0.3827
vn -0.0000 0.3827 -0.9239
vn 0.9829 -0.0000 -0.1842
vn 0.8716 -0.0000 -0.4902
vn 0.4835 -0.0000 -0.8753
vn 0.2663 -0.0000 -0.9639
vn 0.3827 -0.9239 -0.0000
vn 0.9239 -0.3827 -0.0000
vn 0.3827 0.9239 -0.0000
vn 0.9239 0.3827 -0.0000
vn 0.6380 -0.0000 0.7701
vn 0.1812 -0.0000 0.9834
vn 0.6380 -0.0000 0.7700
vn 0.9627 -0.0000 0.2707
vn 0.9364 -0.0000 0.3510
vn -0.0000 -0.9239 0.3827
vn -0.0000 -0.3827 0.9239
vn -0.0000 0.9239 0.3827
vn -0.0000 0.3827 0.9239
vn -0.0000 -1.0000 -0.0000
vn -0.2818 -0.8863 0.3674
vn -0.3673 -0.2813 0.8865
vn -0.8864 -0.3674 0.2817
vn -0.2816 0.3675 0.8863
vn -0.3670 0.8866 0.2816
vn -0.8865 0.2815 0.3672
vn -0.3670 -0.8865 -0.2816
vn -0.8865 -0.2814 -0.3672
vn -0.2816 -0.3675 -0.8863
vn -0.2818 0.8863 -0.3674
vn -0.3673 0.2814 -0.8865
vn -0.8863 0.3675 -0.2817
vn 0.3670 -0.8866 0.2816
vn 0.8865 -0.2815 0.3672
vn 0.2816 -0.3675 0.8863
vn 0.2818 0.8863 0.3674
vn 0.3673 0.2813 0.8865
vn 0.8864 0.3674 0.2817
vn 0.2818 -0.8863 -0.3674
vn 0.3673 -0.2814 -0.8865
vn 0.8863 -0.3675 -0.2817
vn 0.3670 0.8865 -0.2816
vn 0.8865 0.2814 -0.3672
vn 0.2816 0.3675 -0.8863
vn -0.1811 -0.0000 -0.9835
vn 0.2662 -0.0000 -0.9639
vn 0.1811 -0.0000 0.9835
vt 0.500000 0.758333
vt 0.500000 0.991667
vt 0.500000 0.758333
vt 0.500000 0.512500
vt 0.500000 0.737500
vt 0.866667 0.512500
vt 0.633333 0.737500
vt 0.633333 0.512500
vt 0.500000 0.012500
vt 0.500000 0.237500
vt 0.500000 0.258333
vt 0.500000 0.491667
vt 0.500000 0.258333
vt 0.133333 0.737500
vt 0.128522 0.750000
vt 0.125000 0.737500
vt 0.427831 1.000000
vt 0.375000 0.991667
vt 0.375000 0.005283
vt 0.500000 0.000000
vt 0.625000 0.996478
vt 0.500000 1.000000
vt 0.866667 0.737500
vt 0.875000 0.744717
vt 0.866667 0.750000
vt 0.572169 0.000000
vt 0.625000 0.012500
vt 0.133333 0.512500
vt 0.125000 0.505283
vt 0.133333 0.500000
vt 0.427831 0.250000
vt 0.375000 0.237500
vt 0.375000 0.253522
vt 0.500000 0.250000
vt 0.871478 0.500000
vt 0.875000 0.512500
vt 0.572169 0.250000
vt 0.625000 0.258333
vt 0.625000 0.244717
vt 0.366667 0.737500
vt 0.392610 0.749413
vt 0.366667 0.750000
vt 0.375000 0.737500
vt 0.500000 0.750000
vt 0.608564 0.748239
vt 0.625000 0.737500
vt 0.625000 0.758333
vt 0.366667 0.512500
vt 0.391436 0.501761
vt 0.375000 0.512500
vt 0.375000 0.491667
vt 0.500000 0.500000
vt 0.607390 0.500587
vt 0.633333 0.500000
vt 0.625000 0.512500
vt 0.125000 0.512500
vt 0.375000 0.012500
vt 0.875000 0.737500
vt 0.625000 0.237500
vt 0.366667 0.500000
vt 0.375000 0.258333
vt 0.866667 0.500000
vt 0.625000 0.491667
vt 0.133333 0.750000
vt 0.375000 0.758333
vt 0.633333 0.750000
vt 0.625000 0.991667
s 1
usemtl Dark
f 37/1/1 2/2/1 31/3/1
f 51/4/2 30/5/2 45/4/2
f 22/6/3 36/7/3 50/8/3
f 10/9/4 16/10/4 3/9/4
f 23/11/5 44/12/5 17/13/5
f 1/14/6 5/15/6 7/16/7
f 2/2/8 5/17/8 4/18/9
f 3/9/10 5/19/10 6/20/11
f 8/2/12 12/21/12 14/22/13
f 9/23/14 12/24/14 11/25/15
f 10/9/16 12/26/16 13/27/17
f 15/28/18 19/29/18 21/30/19
f 16/10/20 19/31/20 18/32/21
f 17/13/22 19/33/22 20/34/23
f 22/6/24 26/35/24 28/36/25
f 23/11/26 26/37/26 25/38/27
f 24/10/28 26/39/28 27/34/29
f 29/40/30 33/41/30 35/42/31
f 30/5/32 33/41/32 32/43/33
f 31/3/34 33/41/34 34/44/35
f 36/7/36 40/45/36 42/46/37
f 37/1/38 40/45/38 39/47/39
f 38/5/40 40/45/40 41/44/41
f 43/48/42 47/49/42 49/50/43
f 44/12/44 47/49/44 46/51/45
f 45/4/46 47/49/46 48/52/47
f 50/8/48 54/53/48 56/54/49
f 51/4/50 54/53/50 53/55/51
f 52/12/52 54/53/52 55/52/53
f 1/14/54 18/56/54 15/28/54
f 7/57/55 16/10/55 18/32/55
f 8/2/56 6/22/57 2/2/58
f 14/20/59 3/9/60 6/20/59
f 22/6/61 13/58/61 9/23/61
f 28/59/62 10/9/62 13/27/62
f 17/13/63 27/34/64 23/11/65
f 20/34/66 24/10/67 27/34/66
f 15/28/68 46/60/68 43/48/68
f 21/61/69 44/12/69 46/51/69
f 50/8/70 25/62/70 22/6/70
f 56/63/71 23/11/71 25/38/71
f 45/4/72 55/52/73 51/4/72
f 48/52/74 52/12/75 55/52/74
f 43/48/76 32/43/76 29/40/76
f 49/50/77 30/5/77 32/43/77
f 36/7/78 53/55/78 50/8/78
f 42/46/79 51/4/79 53/55/79
f 31/3/80 41/44/81 37/1/82
f 34/44/83 38/5/84 41/44/83
f 29/40/85 4/64/85 1/14/85
f 35/65/86 2/2/86 4/18/86
f 9/23/87 39/66/87 36/7/87
f 11/67/88 37/1/88 39/47/88
f 43/48/89 1/14/89 15/28/89
f 37/1/1 8/2/1 2/2/1
f 51/4/2 38/5/2 30/5/2
f 22/6/3 9/23/3 36/7/3
f 10/9/4 24/10/4 16/10/4
f 23/11/5 52/12/5 44/12/5
f 1/14/6 4/64/90 5/15/6
f 2/2/8 6/22/91 5/17/8
f 3/9/10 7/57/92 5/19/10
f 8/2/12 11/67/93 12/21/12
f 9/23/14 13/58/94 12/24/14
f 10/9/16 14/20/95 12/26/16
f 15/28/18 18/56/96 19/29/18
f 16/10/20 20/34/97 19/31/20
f 17/13/22 21/61/98 19/33/22
f 22/6/24 25/62/99 26/35/24
f 23/11/26 27/34/100 26/37/26
f 24/10/28 28/59/101 26/39/28
f 29/40/30 32/43/102 33/41/30
f 30/5/32 34/44/103 33/41/32
f 31/3/34 35/65/104 33/41/34
f 36/7/36 39/66/105 40/45/36
f 37/1/38 41/44/106 40/45/38
f 38/5/40 42/46/107 40/45/40
f 43/48/42 46/60/108 47/49/42
f 44/12/44 48/52/109 47/49/44
f 45/4/46 49/50/110 47/49/46
f 50/8/48 53/55/111 54/53/48
f 51/4/50 55/52/112 54/53/50
f 52/12/52 56/63/113 54/53/52
f 1/14/54 7/16/54 18/56/54
f 7/57/55 3/9/55 16/10/55
f 8/2/56 14/22/57 6/22/57
f 14/20/59 10/9/60 3/9/60
f 22/6/61 28/36/61 13/58/61
f 28/59/62 24/10/62 10/9/62
f 17/13/63 20/34/114 27/34/64
f 20/34/66 16/10/67 24/10/67
f 15/28/68 21/30/68 46/60/68
f 21/61/69 17/13/69 44/12/69
f 50/8/70 56/54/70 25/62/70
f 56/63/71 52/12/71 23/11/71
f 45/4/72 48/52/73 55/52/73
f 48/52/74 44/12/115 52/12/75
f 43/48/76 49/50/76 32/43/76
f 49/50/77 45/4/77 30/5/77
f 36/7/78 42/46/78 53/55/78
f 42/46/79 38/5/79 51/4/79
f 31/3/80 34/44/116 41/44/81
f 34/44/83 30/5/84 38/5/84
f 29/40/85 35/42/85 4/64/85
f 35/65/86 31/3/86 2/2/86
f 9/23/87 11/25/87 39/66/87
f 11/67/88 8/2/88 37/1/88
f 43/48/89 29/40/89 1/14/89
o DroneTablet_Screen
v -0.130000 0.013996 -23.920000
v -0.130000 0.025996 -23.920000
v -0.130000 0.013996 -24.080000
v -0.130000 0.025996 -24.080000
v 0.130000 0.013996 -23.920000
v 0.130000 0.025996 -23.920000
v 0.130000 0.013996 -24.080000
v 0.130000 0.025996 -24.080000
vn -1.0000 -0.0000 -0.0000
vn -0.0000 -0.0000 -1.0000
vn 1.0000 -0.0000 -0.0000
vn -0.0000 -0.0000 1.0000
vn -0.0000 -1.0000 -0.0000
vn -0.0000 1.0000 -0.0000
vt 0.625000 0.000000
vt 0.375000 0.250000
vt 0.375000 0.000000
vt 0.625000 0.250000
vt 0.375000 0.500000
vt 0.625000 0.500000
vt 0.375000 0.750000
vt 0.625000 0.750000
vt 0.375000 1.000000
vt 0.125000 0.750000
vt 0.125000 0.500000
vt 0.875000 0.500000
vt 0.625000 1.000000
vt 0.875000 0.750000
s 1
usemtl Screen
f 58/68/117 59/69/117 57/70/117
f 60/71/118 63/72/118 59/69/118
f 64/73/119 61/74/119 63/72/119
f 62/75/120 57/76/120 61/74/120
f 63/72/121 57/77/121 59/78/121
f 60/79/122 62/75/122 64/73/122
f 58/68/117 60/71/117 59/69/117
f 60/71/118 64/73/118 63/72/118
f 64/73/119 62/75/119 61/74/119
f 62/75/120 58/80/120 57/76/120
f 63/72/121 61/74/121 57/77/121
f 60/79/122 58/81/122 62/75/122
o DroneTablet_StickL
v -0.115000 0.004996 -24.095001
v -0.115000 0.054996 -24.095001
v -0.115000 0.004996 -24.125000
v -0.115000 0.054996 -24.125000
v -0.085000 0.004996 -24.095001
v -0.085000 0.054996 -24.095001
v -0.085000 0.004996 -24.125000
v -0.085000 0.054996 -24.125000
vn -1.0000 -0.0000 -0.0000
vn -0.0000 -0.0000 -1.0000
vn 1.0000 -0.0000 -0.0000
vn -0.0000 -0.0000 1.0000
vn -0.0000 -1.0000 -0.0000
vn -0.0000 1.0000 -0.0000
vt 0.625000 0.000000
vt 0.375000 0.250000
vt 0.375000 0.000000
vt 0.625000 0.250000
vt 0.375000 0.500000
vt 0.625000 0.500000
vt 0.375000 0.750000
vt 0.625000 0.750000
vt 0.375000 1.000000
vt 0.125000 0.750000
vt 0.125000 0.500000
vt 0.875000 0.500000
vt 0.625000 1.000000
vt 0.875000 0.750000
s 1
usemtl Gunmetal
f 66/82/123 67/83/123 65/84/123
f 68/85/124 71/86/124 67/83/124
f 72/87/125 69/88/125 71/86/125
f 70/89/126 65/90/126 69/88/126
f 71/86/127 65/91/127 67/92/127
f 68/93/128 70/89/128 72/87/128
f 66/82/123 68/85/123 67/83/123
f 68/85/124 72/87/124 71/86/124
f 72/87/125 70/89/125 69/88/125
f 70/89/126 66/94/126 65/90/126
f 71/86/127 69/88/127 65/91/127
f 68/93/128 66/95/128 70/89/128
o DroneTablet_StickR
v 0.085000 0.004996 -24.095001
v 0.085000 0.054996 -24.095001
v 0.085000 0.004996 -24.125000
v 0.085000 0.054996 -24.125000
v 0.115000 0.004996 -24.095001
v 0.115000 0.054996 -24.095001
v 0.115000 0.004996 -24.125000
v 0.115000 0.054996 -24.125000
vn -1.0000 -0.0000 -0.0000
vn -0.0000 -0.0000 -1.0000
vn 1.0000 -0.0000 -0.0000
vn -0.0000 -0.0000 1.0000
vn -0.0000 -1.0000 -0.0000
vn -0.0000 1.0000 -0.0000
vt 0.625000 0.000000
vt 0.375000 0.250000
vt 0.375000 0.000000
vt 0.625000 0.250000
vt 0.375000 0.500000
vt 0.625000 0.500000
vt 0.375000 0.750000
vt 0.625000 0.750000
vt 0.375000 1.000000
vt 0.125000 0.750000
vt 0.125000 0.500000
vt 0.875000 0.500000
vt 0.625000 1.000000
vt 0.875000 0.750000
s 1
usemtl Gunmetal
f 74/96/129 75/97/129 73/98/129
f 76/99/130 79/100/130 75/97/130
f 80/101/131 77/102/131 79/100/131
f 78/103/132 73/104/132 77/102/132
f 79/100/133 73/105/133 75/106/133
f 76/107/134 78/103/134 80/101/134
f 74/96/129 76/99/129 75/97/129
f 76/99/130 80/101/130 79/100/130
f 80/101/131 78/103/131 77/102/131
f 78/103/132 74/108/132 73/104/132
f 79/100/133 77/102/133 73/105/133
f 76/107/134 74/109/134 78/103/134
