# Blender 5.2.0 LTS
# www.blender.org
mtllib Landmine.mtl
o Landmine_Body
v 0.000000 -0.000000 -21.170000
v 0.000000 0.070000 -21.170000
v 0.065056 -0.000000 -21.157059
v 0.065056 0.070000 -21.157059
v 0.120208 -0.000000 -21.120209
v 0.120208 0.070000 -21.120209
v 0.157060 -0.000000 -21.065056
v 0.157060 0.070000 -21.065056
v 0.170000 0.000000 -21.000000
v 0.170000 0.070000 -21.000000
v 0.157060 0.000000 -20.934944
v 0.157060 0.070000 -20.934944
v 0.120208 0.000000 -20.879791
v 0.120208 0.070000 -20.879791
v 0.065056 0.000000 -20.842941
v 0.065056 0.070000 -20.842941
v 0.000000 0.000000 -20.830000
v 0.000000 0.070000 -20.830000
v -0.065056 0.000000 -20.842941
v -0.065056 0.070000 -20.842941
v -0.120208 0.000000 -20.879791
v -0.120208 0.070000 -20.879791
v -0.157060 0.000000 -20.934944
v -0.157060 0.070000 -20.934944
v -0.170000 0.000000 -21.000000
v -0.170000 0.070000 -21.000000
v -0.157060 -0.000000 -21.065056
v -0.157060 0.070000 -21.065056
v -0.120208 -0.000000 -21.120209
v -0.120208 0.070000 -21.120209
v -0.065056 -0.000000 -21.157059
v -0.065056 0.070000 -21.157059
vn 0.1951 -0.0000 -0.9808
vn 0.5556 -0.0000 -0.8315
vn 0.8315 -0.0000 -0.5556
vn 0.9808 -0.0000 -0.1951
vn 0.9808 -0.0000 0.1951
vn 0.8315 -0.0000 0.5556
vn 0.5556 -0.0000 0.8315
vn 0.1951 -0.0000 0.9808
vn -0.1951 -0.0000 0.9808
vn -0.5556 -0.0000 0.8315
vn -0.8315 -0.0000 0.5556
vn -0.9808 -0.0000 0.1951
vn -0.9808 -0.0000 -0.1951
vn -0.8315 -0.0000 -0.5556
vn -0.0000 1.0000 -0.0000
vn -0.5556 -0.0000 -0.8315
vn -0.1951 -0.0000 -0.9808
vn -0.0000 -1.0000 -0.0000
vt 1.000000 1.000000
vt 0.937500 0.500000
vt 1.000000 0.500000
vt 0.937500 1.000000
vt 0.875000 0.500000
vt 0.875000 1.000000
vt 0.812500 0.500000
vt 0.812500 1.000000
vt 0.750000 0.500000
vt 0.750000 1.000000
vt 0.687500 0.500000
vt 0.687500 1.000000
vt 0.625000 0.500000
vt 0.625000 1.000000
vt 0.562500 0.500000
vt 0.562500 1.000000
vt 0.500000 0.500000
vt 0.500000 1.000000
vt 0.437500 0.500000
vt 0.437500 1.000000
vt 0.375000 0.500000
vt 0.375000 1.000000
vt 0.312500 0.500000
vt 0.312500 1.000000
vt 0.250000 0.500000
vt 0.250000 1.000000
vt 0.187500 0.500000
vt 0.187500 1.000000
vt 0.125000 0.500000
vt 0.080294 0.080294
vt 0.419706 0.080294
vt 0.419706 0.419706
vt 0.125000 1.000000
vt 0.062500 0.500000
vt 0.062500 1.000000
vt 0.000000 0.500000
vt 0.841844 0.028269
vt 0.528269 0.158156
vt 0.658156 0.471731
vt 0.341844 0.471731
vt 0.250000 0.490000
vt 0.158156 0.471731
vt 0.080294 0.419706
vt 0.028269 0.341844
vt 0.010000 0.250000
vt 0.028269 0.158156
vt 0.158156 0.028269
vt 0.250000 0.010000
vt 0.341844 0.028269
vt 0.471731 0.158156
vt 0.490000 0.250000
vt 0.471731 0.341844
vt 0.000000 1.000000
vt 0.750000 0.490000
vt 0.841844 0.471731
vt 0.919706 0.419706
vt 0.971731 0.341844
vt 0.990000 0.250000
vt 0.971731 0.158156
vt 0.919706 0.080294
vt 0.750000 0.010000
vt 0.658156 0.028269
vt 0.580294 0.080294
vt 0.510000 0.250000
vt 0.528269 0.341844
vt 0.580294 0.419706
s 1
usemtl Olive
f 2/1/1 3/2/1 1/3/1
f 4/4/2 5/5/2 3/2/2
f 6/6/3 7/7/3 5/5/3
f 8/8/4 9/9/4 7/7/4
f 10/10/5 11/11/5 9/9/5
f 12/12/6 13/13/6 11/11/6
f 14/14/7 15/15/7 13/13/7
f 16/16/8 17/17/8 15/15/8
f 18/18/9 19/19/9 17/17/9
f 20/20/10 21/21/10 19/19/10
f 22/22/11 23/23/11 21/21/11
f 24/24/12 25/25/12 23/23/12
f 26/26/13 27/27/13 25/25/13
f 28/28/14 29/29/14 27/27/14
f 22/30/15 14/31/15 6/32/15
f 30/33/16 31/34/16 29/29/16
f 32/35/17 1/36/17 31/34/17
f 15/37/18 23/38/18 31/39/18
f 2/1/1 4/4/1 3/2/1
f 4/4/2 6/6/2 5/5/2
f 6/6/3 8/8/3 7/7/3
f 8/8/4 10/10/4 9/9/4
f 10/10/5 12/12/5 11/11/5
f 12/12/6 14/14/6 13/13/6
f 14/14/7 16/16/7 15/15/7
f 16/16/8 18/18/8 17/17/8
f 18/18/9 20/20/9 19/19/9
f 20/20/10 22/22/10 21/21/10
f 22/22/11 24/24/11 23/23/11
f 24/24/12 26/26/12 25/25/12
f 26/26/13 28/28/13 27/27/13
f 28/28/14 30/33/14 29/29/14
f 6/32/15 4/40/15 2/41/15
f 2/41/15 32/42/15 30/43/15
f 30/43/15 28/44/15 26/45/15
f 26/45/15 24/46/15 22/30/15
f 22/30/15 20/47/15 18/48/15
f 18/48/15 16/49/15 14/31/15
f 14/31/15 12/50/15 10/51/15
f 10/51/15 8/52/15 6/32/15
f 6/32/15 2/41/15 30/43/15
f 30/43/15 26/45/15 22/30/15
f 22/30/15 18/48/15 14/31/15
f 14/31/15 10/51/15 6/32/15
f 6/32/15 30/43/15 22/30/15
f 30/33/16 32/35/16 31/34/16
f 32/35/17 2/53/17 1/36/17
f 31/39/18 1/54/18 3/55/18
f 3/55/18 5/56/18 7/57/18
f 7/57/18 9/58/18 11/59/18
f 11/59/18 13/60/18 15/37/18
f 15/37/18 17/61/18 19/62/18
f 19/62/18 21/63/18 23/38/18
f 23/38/18 25/64/18 27/65/18
f 27/65/18 29/66/18 31/39/18
f 31/39/18 3/55/18 7/57/18
f 7/57/18 11/59/18 15/37/18
f 15/37/18 19/62/18 23/38/18
f 23/38/18 27/65/18 31/39/18
f 31/39/18 7/57/18 15/37/18
o Landmine_Cap
v 0.000000 0.060000 -21.059999
v 0.000000 0.100000 -21.059999
v 0.030000 0.060000 -21.051962
v 0.030000 0.100000 -21.051962
v 0.051962 0.060000 -21.030001
v 0.051962 0.100000 -21.030001
v 0.060000 0.060000 -21.000000
v 0.060000 0.100000 -21.000000
v 0.051962 0.060000 -20.969999
v 0.051962 0.100000 -20.969999
v 0.030000 0.060000 -20.948038
v 0.030000 0.100000 -20.948038
v 0.000000 0.060000 -20.940001
v 0.000000 0.100000 -20.940001
v -0.030000 0.060000 -20.948038
v -0.030000 0.100000 -20.948038
v -0.051962 0.060000 -20.969999
v -0.051962 0.100000 -20.969999
v -0.060000 0.060000 -21.000000
v -0.060000 0.100000 -21.000000
v -0.051962 0.060000 -21.030001
v -0.051962 0.100000 -21.030001
v -0.030000 0.060000 -21.051962
v -0.030000 0.100000 -21.051962
vn 0.2588 -0.0000 -0.9659
vn 0.7071 -0.0000 -0.7071
vn 0.9659 -0.0000 -0.2588
vn 0.9659 -0.0000 0.2588
vn 0.7071 -0.0000 0.7071
vn 0.2588 -0.0000 0.9659
vn -0.2588 -0.0000 0.9659
vn -0.7071 -0.0000 0.7071
vn -0.9659 -0.0000 0.2588
vn -0.9659 -0.0000 -0.2588
vn -0.0000 1.0000 -0.0000
vn -0.7071 -0.0000 -0.7071
vn -0.2588 -0.0000 -0.9659
vn -0.0000 -1.0000 -0.0000
vt 1.000000 1.000000
vt 0.916667 0.500000
vt 1.000000 0.500000
vt 0.916667 1.000000
vt 0.833333 0.500000
vt 0.833333 1.000000
vt 0.750000 0.500000
vt 0.750000 1.000000
vt 0.666667 0.500000
vt 0.666667 1.000000
vt 0.583333 0.500000
vt 0.583333 1.000000
vt 0.500000 0.500000
vt 0.500000 1.000000
vt 0.416667 0.500000
vt 0.416667 1.000000
vt 0.333333 0.500000
vt 0.333333 1.000000
vt 0.250000 0.500000
vt 0.250000 1.000000
vt 0.166667 0.500000
vt 0.042154 0.370000
vt 0.250000 0.010000
vt 0.457846 0.370000
vt 0.166667 1.000000
vt 0.083333 0.500000
vt 0.083333 1.000000
vt 0.000000 0.500000
vt 0.990000 0.250000
vt 0.630000 0.042154
vt 0.630000 0.457846
vt 0.370000 0.457846
vt 0.250000 0.490000
vt 0.130000 0.457846
vt 0.010000 0.250000
vt 0.042154 0.130000
vt 0.130000 0.042154
vt 0.370000 0.042154
vt 0.457846 0.130000
vt 0.490000 0.250000
vt 0.000000 1.000000
vt 0.750000 0.490000
vt 0.870000 0.457846
vt 0.957846 0.370000
vt 0.957846 0.130000
vt 0.870000 0.042154
vt 0.750000 0.010000
vt 0.542154 0.130000
vt 0.510000 0.250000
vt 0.542154 0.370000
s 1
usemtl Dark
f 34/67/19 35/68/19 33/69/19
f 36/70/20 37/71/20 35/68/20
f 38/72/21 39/73/21 37/71/21
f 40/74/22 41/75/22 39/73/22
f 42/76/23 43/77/23 41/75/23
f 44/78/24 45/79/24 43/77/24
f 46/80/25 47/81/25 45/79/25
f 48/82/26 49/83/26 47/81/26
f 50/84/27 51/85/27 49/83/27
f 52/86/28 53/87/28 51/85/28
f 54/88/29 46/89/29 38/90/29
f 54/91/30 55/92/30 53/87/30
f 56/93/31 33/94/31 55/92/31
f 39/95/32 47/96/32 55/97/32
f 34/67/19 36/70/19 35/68/19
f 36/70/20 38/72/20 37/71/20
f 38/72/21 40/74/21 39/73/21
f 40/74/22 42/76/22 41/75/22
f 42/76/23 44/78/23 43/77/23
f 44/78/24 46/80/24 45/79/24
f 46/80/25 48/82/25 47/81/25
f 48/82/26 50/84/26 49/83/26
f 50/84/27 52/86/27 51/85/27
f 52/86/28 54/91/28 53/87/28
f 38/90/29 36/98/29 34/99/29
f 34/99/29 56/100/29 54/88/29
f 54/88/29 52/101/29 50/102/29
f 50/102/29 48/103/29 46/89/29
f 46/89/29 44/104/29 42/105/29
f 42/105/29 40/106/29 38/90/29
f 38/90/29 34/99/29 54/88/29
f 54/88/29 50/102/29 46/89/29
f 46/89/29 42/105/29 38/90/29
f 54/91/30 56/93/30 55/92/30
f 56/93/31 34/107/31 33/94/31
f 55/97/32 33/108/32 35/109/32
f 35/109/32 37/110/32 39/95/32
f 39/95/32 41/111/32 43/112/32
f 43/112/32 45/113/32 47/96/32
f 47/96/32 49/114/32 51/115/32
f 51/115/32 53/116/32 55/97/32
f 55/97/32 35/109/32 39/95/32
f 39/95/32 43/112/32 47/96/32
f 47/96/32 51/115/32 55/97/32
