# Blender 5.2.0 LTS
# www.blender.org
mtllib LMG.mtl
o LMG_Receiver
v -0.313000 0.014999 -8.952000
v -0.313000 0.026999 -8.940000
v -0.325000 0.026999 -8.952000
v -0.313000 0.018513 -8.943514
v -0.319928 0.020070 -8.945071
v -0.321485 0.026999 -8.943514
v -0.321485 0.018513 -8.952000
v -0.313000 0.172999 -8.940000
v -0.313000 0.184999 -8.952000
v -0.325000 0.172999 -8.952000
v -0.313000 0.181484 -8.943514
v -0.319928 0.179927 -8.945071
v -0.321485 0.181484 -8.952000
v -0.321485 0.172999 -8.943514
v -0.313000 0.014999 -9.048000
v -0.325000 0.026999 -9.048000
v -0.313000 0.026999 -9.060000
v -0.321485 0.018513 -9.048000
v -0.319928 0.020070 -9.054929
v -0.321485 0.026999 -9.056486
v -0.313000 0.018513 -9.056486
v -0.313000 0.184999 -9.048000
v -0.313000 0.172999 -9.060000
v -0.325000 0.172999 -9.048000
v -0.313000 0.181484 -9.056486
v -0.319928 0.179927 -9.054929
v -0.321485 0.172999 -9.056486
v -0.321485 0.181484 -9.048000
v 0.413000 0.014999 -8.952000
v 0.425000 0.026999 -8.952000
v 0.413000 0.026999 -8.940000
v 0.421485 0.018513 -8.952000
v 0.419928 0.020070 -8.945071
v 0.421485 0.026999 -8.943514
v 0.413000 0.018513 -8.943514
v 0.413000 0.184999 -8.952000
v 0.413000 0.172999 -8.940000
v 0.425000 0.172999 -8.952000
v 0.413000 0.181484 -8.943514
v 0.419928 0.179927 -8.945071
v 0.421485 0.172999 -8.943514
v 0.421485 0.181484 -8.952000
v 0.413000 0.014999 -9.048000
v 0.413000 0.026999 -9.060000
v 0.425000 0.026999 -9.048000
v 0.413000 0.018513 -9.056486
v 0.419928 0.020070 -9.054929
v 0.421485 0.026999 -9.056486
v 0.421485 0.018513 -9.048000
v 0.413000 0.184999 -9.048000
v 0.425000 0.172999 -9.048000
v 0.413000 0.172999 -9.060000
v 0.421485 0.181484 -9.048000
v 0.419928 0.179927 -9.054929
v 0.421485 0.172999 -9.056486
v 0.413000 0.181484 -9.056486
vn -0.0000 -0.0000 1.0000
vn 1.0000 -0.0000 -0.0000
vn -0.0000 1.0000 -0.0000
vn -1.0000 -0.0000 -0.0000
vn -0.0000 -0.0000 -1.0000
vn -0.3250 -0.8881 0.3250
vn -0.3672 -0.8865 0.2817
vn -0.3251 -0.3249 0.8881
vn -0.2818 -0.3671 0.8865
vn -0.8881 -0.3251 0.3250
vn -0.8864 -0.2818 0.3672
vn -0.3251 0.3249 0.8881
vn -0.3672 0.2816 0.8865
vn -0.3250 0.8881 0.3250
vn -0.2817 0.8865 0.3671
vn -0.8881 0.3251 0.3250
vn -0.8865 0.3672 0.2817
vn -0.3250 -0.8881 -0.3250
vn -0.2817 -0.8865 -0.3671
vn -0.8881 -0.3251 -0.3250
vn -0.8865 -0.3672 -0.2817
vn -0.3251 -0.3249 -0.8881
vn -0.3672 -0.2815 -0.8865
vn -0.3250 0.8881 -0.3250
vn -0.3672 0.8865 -0.2817
vn -0.3251 0.3249 -0.8881
vn -0.2818 0.3672 -0.8865
vn -0.8881 0.3251 -0.3250
vn -0.8864 0.2818 -0.3672
vn 0.3250 -0.8881 0.3250
vn 0.2817 -0.8865 0.3671
vn 0.8881 -0.3251 0.3250
vn 0.8865 -0.3672 0.2817
vn 0.3251 -0.3249 0.8881
vn 0.3672 -0.2816 0.8865
vn 0.3250 0.8881 0.3250
vn 0.3672 0.8865 0.2817
vn 0.3251 0.3249 0.8881
vn 0.2818 0.3671 0.8865
vn 0.8881 0.3251 0.3250
vn 0.8864 0.2818 0.3672
vn 0.3250 -0.8881 -0.3250
vn 0.3672 -0.8865 -0.2817
vn 0.3251 -0.3249 -0.8881
vn 0.2818 -0.3671 -0.8865
vn 0.8881 -0.3251 -0.3250
vn 0.8864 -0.2818 -0.3672
vn 0.3250 0.8881 -0.3250
vn 0.2817 0.8865 -0.3671
vn 0.8881 0.3251 -0.3250
vn 0.8865 0.3672 -0.2817
vn 0.3251 0.3249 -0.8881
vn 0.3672 0.2815 -0.8865
vn -0.3827 -0.9239 -0.0000
vn -0.9239 -0.3827 -0.0000
vn -0.3826 -0.0000 0.9239
vn -0.9239 -0.0000 0.3827
vn -0.3827 0.9239 -0.0000
vn -0.9239 0.3827 -0.0000
vn -0.3826 -0.0000 -0.9239
vn -0.9239 -0.0000 -0.3827
vn -0.0000 -0.9239 -0.3827
vn -0.0000 -0.3827 -0.9239
vn -0.0000 -0.3826 -0.9239
vn -0.0000 0.9239 -0.3827
vn -0.0000 0.3827 -0.9239
vn -0.0000 0.3826 -0.9239
vn 0.9239 -0.0000 -0.3827
vn 0.3826 -0.0000 -0.9239
vn 0.3827 -0.9239 -0.0000
vn 0.9239 -0.3827 -0.0000
vn 0.3827 0.9239 -0.0000
vn 0.9239 0.3827 -0.0000
vn 0.3826 -0.0000 0.9239
vn 0.9239 -0.0000 0.3827
vn -0.0000 -0.9239 0.3827
vn -0.0000 -0.3827 0.9239
vn -0.0000 -0.3825 0.9240
vn -0.0000 0.9239 0.3827
vn -0.0000 0.3827 0.9239
vn -0.0000 0.3825 0.9240
vn -0.0000 -1.0000 -0.0000
vn -0.2817 -0.8865 0.3671
vn -0.3672 -0.2816 0.8865
vn -0.8865 -0.3672 0.2817
vn -0.2818 0.3671 0.8865
vn -0.3672 0.8865 0.2817
vn -0.8864 0.2818 0.3672
vn -0.3672 -0.8865 -0.2817
vn -0.8864 -0.2818 -0.3672
vn -0.2818 -0.3671 -0.8865
vn -0.2817 0.8865 -0.3671
vn -0.3672 0.2815 -0.8865
vn -0.8865 0.3672 -0.2817
vn 0.3672 -0.8865 0.2817
vn 0.8864 -0.2818 0.3672
vn 0.2818 -0.3671 0.8865
vn 0.2817 0.8865 0.3671
vn 0.3672 0.2816 0.8865
vn 0.8865 0.3672 0.2817
vn 0.2817 -0.8865 -0.3671
vn 0.3672 -0.2815 -0.8865
vn 0.8865 -0.3672 -0.2817
vn 0.3672 0.8865 -0.2817
vn 0.8864 0.2818 -0.3672
vn 0.2818 0.3671 -0.8865
vt 0.607353 0.754000
vt 0.392647 0.996000
vt 0.392647 0.754000
vt 0.607353 0.525000
vt 0.392647 0.725000
vt 0.392647 0.525000
vt 0.871000 0.525000
vt 0.629000 0.725000
vt 0.629000 0.525000
vt 0.607353 0.025000
vt 0.392647 0.225000
vt 0.392647 0.025000
vt 0.607353 0.254000
vt 0.392647 0.496000
vt 0.392647 0.254000
vt 0.129000 0.725000
vt 0.126691 0.750000
vt 0.125000 0.725000
vt 0.382459 1.000000
vt 0.375000 0.996000
vt 0.375000 0.010566
vt 0.392647 0.000000
vt 0.607353 0.996000
vt 0.625000 0.998309
vt 0.607353 1.000000
vt 0.871000 0.725000
vt 0.875000 0.739434
vt 0.871000 0.750000
vt 0.617542 0.000000
vt 0.625000 0.025000
vt 0.129000 0.525000
vt 0.125000 0.510566
vt 0.129000 0.500000
vt 0.382459 0.250000
vt 0.375000 0.225000
vt 0.375000 0.251691
vt 0.392647 0.250000
vt 0.873309 0.500000
vt 0.875000 0.525000
vt 0.617541 0.250000
vt 0.625000 0.254000
vt 0.607353 0.225000
vt 0.625000 0.239434
vt 0.607353 0.250000
vt 0.371000 0.725000
vt 0.377486 0.747042
vt 0.371000 0.750000
vt 0.375000 0.725000
vt 0.392647 0.750000
vt 0.623077 0.746478
vt 0.625000 0.725000
vt 0.625000 0.754000
vt 0.607353 0.725000
vt 0.607353 0.750000
vt 0.371000 0.525000
vt 0.376923 0.503522
vt 0.375000 0.525000
vt 0.375000 0.496000
vt 0.392647 0.500000
vt 0.622514 0.502958
vt 0.629000 0.500000
vt 0.625000 0.525000
vt 0.607353 0.496000
vt 0.607353 0.500000
vt 0.125000 0.525000
vt 0.375000 0.025000
vt 0.392647 1.000000
vt 0.607353 0.000000
vt 0.875000 0.725000
vt 0.625000 0.225000
vt 0.371000 0.500000
vt 0.375000 0.254000
vt 0.871000 0.500000
vt 0.625000 0.496000
vt 0.129000 0.750000
vt 0.375000 0.754000
vt 0.629000 0.750000
vt 0.625000 0.996000
s 1
usemtl Gunmetal
f 37/1/1 2/2/1 31/3/1
f 51/4/2 30/5/2 45/6/2
f 22/7/3 36/8/3 50/9/3
f 10/10/4 16/11/4 3/12/4
f 23/13/5 44/14/5 17/15/5
f 1/16/6 5/17/6 7/18/7
f 2/2/8 5/19/8 4/20/9
f 3/12/10 5/21/10 6/22/11
f 8/23/12 12/24/12 14/25/13
f 9/26/14 12/27/14 11/28/15
f 10/10/16 12/29/16 13/30/17
f 15/31/18 19/32/18 21/33/19
f 16/11/20 19/34/20 18/35/21
f 17/15/22 19/36/22 20/37/23
f 22/7/24 26/38/24 28/39/25
f 23/13/26 26/40/26 25/41/27
f 24/42/28 26/43/28 27/44/29
f 29/45/30 33/46/30 35/47/31
f 30/5/32 33/46/32 32/48/33
f 31/3/34 33/46/34 34/49/35
f 36/8/36 40/50/36 42/51/37
f 37/1/38 40/50/38 39/52/39
f 38/53/40 40/50/40 41/54/41
f 43/55/42 47/56/42 49/57/43
f 44/14/44 47/56/44 46/58/45
f 45/6/46 47/56/46 48/59/47
f 50/9/48 54/60/48 56/61/49
f 51/4/50 54/60/50 53/62/51
f 52/63/52 54/60/52 55/64/53
f 1/16/54 18/65/54 15/31/54
f 7/66/55 16/11/55 18/35/55
f 8/23/56 6/67/56 2/2/56
f 14/68/57 3/12/57 6/22/57
f 22/7/58 13/69/58 9/26/58
f 28/70/59 10/10/59 13/30/59
f 23/13/60 20/37/60 27/44/60
f 20/37/61 24/42/61 27/44/61
f 15/31/62 46/71/62 43/55/62
f 21/72/63 44/14/64 46/58/64
f 50/9/65 25/73/65 22/7/65
f 56/74/66 23/13/67 25/41/67
f 45/6/68 55/64/68 51/4/68
f 48/59/69 52/63/69 55/64/69
f 43/55/70 32/48/70 29/45/70
f 49/57/71 30/5/71 32/48/71
f 36/8/72 53/62/72 50/9/72
f 42/51/73 51/4/73 53/62/73
f 31/3/74 41/54/74 37/1/74
f 34/49/75 38/53/75 41/54/75
f 29/45/76 4/75/76 1/16/76
f 35/76/77 2/2/78 4/20/78
f 9/26/79 39/77/79 36/8/79
f 11/78/80 37/1/81 39/52/81
f 43/55/82 1/16/82 15/31/82
f 37/1/1 8/23/1 2/2/1
f 51/4/2 38/53/2 30/5/2
f 22/7/3 9/26/3 36/8/3
f 10/10/4 24/42/4 16/11/4
f 23/13/5 52/63/5 44/14/5
f 1/16/6 4/75/83 5/17/6
f 2/2/8 6/67/84 5/19/8
f 3/12/10 7/66/85 5/21/10
f 8/23/12 11/78/86 12/24/12
f 9/26/14 13/69/87 12/27/14
f 10/10/16 14/68/88 12/29/16
f 15/31/18 18/65/89 19/32/18
f 16/11/20 20/37/90 19/34/20
f 17/15/22 21/72/91 19/36/22
f 22/7/24 25/73/92 26/38/24
f 23/13/26 27/44/93 26/40/26
f 24/42/28 28/70/94 26/43/28
f 29/45/30 32/48/95 33/46/30
f 30/5/32 34/49/96 33/46/32
f 31/3/34 35/76/97 33/46/34
f 36/8/36 39/77/98 40/50/36
f 37/1/38 41/54/99 40/50/38
f 38/53/40 42/51/100 40/50/40
f 43/55/42 46/71/101 47/56/42
f 44/14/44 48/59/102 47/56/44
f 45/6/46 49/57/103 47/56/46
f 50/9/48 53/62/104 54/60/48
f 51/4/50 55/64/105 54/60/50
f 52/63/52 56/74/106 54/60/52
f 1/16/54 7/18/54 18/65/54
f 7/66/55 3/12/55 16/11/55
f 8/23/56 14/25/56 6/67/56
f 14/68/57 10/10/57 3/12/57
f 22/7/58 28/39/58 13/69/58
f 28/70/59 24/42/59 10/10/59
f 23/13/60 17/15/60 20/37/60
f 20/37/61 16/11/61 24/42/61
f 15/31/62 21/33/62 46/71/62
f 21/72/63 17/15/63 44/14/64
f 50/9/65 56/61/65 25/73/65
f 56/74/66 52/63/66 23/13/67
f 45/6/68 48/59/68 55/64/68
f 48/59/69 44/14/69 52/63/69
f 43/55/70 49/57/70 32/48/70
f 49/57/71 45/6/71 30/5/71
f 36/8/72 42/51/72 53/62/72
f 42/51/73 38/53/73 51/4/73
f 31/3/74 34/49/74 41/54/74
f 34/49/75 30/5/75 38/53/75
f 29/45/76 35/47/76 4/75/76
f 35/76/77 31/3/77 2/2/78
f 9/26/79 11/28/79 39/77/79
f 11/78/80 8/23/80 37/1/81
f 43/55/82 29/45/82 1/16/82
o LMG_Barrel
v -1.070000 0.110000 -9.026000
v -0.370000 0.110000 -9.026000
v -1.070000 0.097000 -9.022516
v -0.370000 0.097000 -9.022516
v -1.070000 0.087483 -9.013000
v -0.370000 0.087483 -9.013000
v -1.070000 0.084000 -9.000000
v -0.370000 0.084000 -9.000000
v -1.070000 0.087483 -8.987000
v -0.370000 0.087483 -8.987000
v -1.070000 0.097000 -8.977484
v -0.370000 0.097000 -8.977484
v -1.070000 0.110000 -8.974000
v -0.370000 0.110000 -8.974000
v -1.070000 0.123000 -8.977484
v -0.370000 0.123000 -8.977484
v -1.070000 0.132517 -8.987000
v -0.370000 0.132517 -8.987000
v -1.070000 0.136000 -9.000000
v -0.370000 0.136000 -9.000000
v -1.070000 0.132517 -9.013000
v -0.370000 0.132517 -9.013000
v -1.070000 0.123000 -9.022516
v -0.370000 0.123000 -9.022516
vn -0.0000 -0.2588 -0.9659
vn -0.0000 -0.7071 -0.7071
vn -0.0000 -0.9659 -0.2588
vn -0.0000 -0.9659 0.2588
vn -0.0000 -0.7071 0.7071
vn -0.0000 -0.2588 0.9659
vn -0.0000 0.2588 0.9659
vn -0.0000 0.7071 0.7071
vn -0.0000 0.9659 0.2588
vn -0.0000 0.9659 -0.2588
vn 1.0000 -0.0000 -0.0000
vn -0.0000 0.7071 -0.7071
vn -0.0000 0.2588 -0.9659
vn -1.0000 -0.0000 -0.0000
vt 1.000000 1.000000
vt 0.916667 0.500000
vt 1.000000 0.500000
vt 0.916667 1.000000
vt 0.833333 0.500000
vt 0.833333 1.000000
vt 0.750000 0.500000
vt 0.750000 1.000000
vt 0.666667 0.500000
vt 0.666667 1.000000
vt 0.583333 0.500000
vt 0.583333 1.000000
vt 0.500000 0.500000
vt 0.500000 1.000000
vt 0.416667 0.500000
vt 0.416667 1.000000
vt 0.333333 0.500000
vt 0.333333 1.000000
vt 0.250000 0.500000
vt 0.250000 1.000000
vt 0.166667 0.500000
vt 0.042154 0.370000
vt 0.250000 0.010000
vt 0.457846 0.370000
vt 0.166667 1.000000
vt 0.083333 0.500000
vt 0.083333 1.000000
vt 0.000000 0.500000
vt 0.990000 0.250000
vt 0.630000 0.042154
vt 0.630000 0.457846
vt 0.370000 0.457846
vt 0.250000 0.490000
vt 0.130000 0.457846
vt 0.010000 0.250000
vt 0.042154 0.130000
vt 0.130000 0.042154
vt 0.370000 0.042154
vt 0.457846 0.130000
vt 0.490000 0.250000
vt 0.000000 1.000000
vt 0.750000 0.490000
vt 0.870000 0.457846
vt 0.957846 0.370000
vt 0.957846 0.130000
vt 0.870000 0.042154
vt 0.750000 0.010000
vt 0.542154 0.130000
vt 0.510000 0.250000
vt 0.542154 0.370000
s 1
usemtl Dark
f 58/79/107 59/80/107 57/81/107
f 60/82/108 61/83/108 59/80/108
f 62/84/109 63/85/109 61/83/109
f 64/86/110 65/87/110 63/85/110
f 66/88/111 67/89/111 65/87/111
f 68/90/112 69/91/112 67/89/112
f 70/92/113 71/93/113 69/91/113
f 72/94/114 73/95/114 71/93/114
f 74/96/115 75/97/115 73/95/115
f 76/98/116 77/99/116 75/97/116
f 78/100/117 70/101/117 62/102/117
f 78/103/118 79/104/118 77/99/118
f 80/105/119 57/106/119 79/104/119
f 63/107/120 71/108/120 79/109/120
f 58/79/107 60/82/107 59/80/107
f 60/82/108 62/84/108 61/83/108
f 62/84/109 64/86/109 63/85/109
f 64/86/110 66/88/110 65/87/110
f 66/88/111 68/90/111 67/89/111
f 68/90/112 70/92/112 69/91/112
f 70/92/113 72/94/113 71/93/113
f 72/94/114 74/96/114 73/95/114
f 74/96/115 76/98/115 75/97/115
f 76/98/116 78/103/116 77/99/116
f 62/102/117 60/110/117 58/111/117
f 58/111/117 80/112/117 78/100/117
f 78/100/117 76/113/117 74/114/117
f 74/114/117 72/115/117 70/101/117
f 70/101/117 68/116/117 66/117/117
f 66/117/117 64/118/117 62/102/117
f 62/102/117 58/111/117 78/100/117
f 78/100/117 74/114/117 70/101/117
f 70/101/117 66/117/117 62/102/117
f 78/103/118 80/105/118 79/104/118
f 80/105/119 58/119/119 57/106/119
f 79/109/120 57/120/120 59/121/120
f 59/121/120 61/122/120 63/107/120
f 63/107/120 65/123/120 67/124/120
f 67/124/120 69/125/120 71/108/120
f 71/108/120 73/126/120 75/127/120
f 75/127/120 77/128/120 79/109/120
f 79/109/120 59/121/120 63/107/120
f 63/107/120 67/124/120 71/108/120
f 71/108/120 75/127/120 79/109/120
o LMG_Shroud
v -0.610000 0.110000 -9.050000
v -0.290000 0.110000 -9.050000
v -0.610000 0.085000 -9.043302
v -0.290000 0.085000 -9.043302
v -0.610000 0.066699 -9.025000
v -0.290000 0.066699 -9.025000
v -0.610000 0.060000 -9.000000
v -0.290000 0.060000 -9.000000
v -0.610000 0.066699 -8.975000
v -0.290000 0.066699 -8.975000
v -0.610000 0.085000 -8.956698
v -0.290000 0.085000 -8.956698
v -0.610000 0.110000 -8.950000
v -0.290000 0.110000 -8.950000
v -0.610000 0.135000 -8.956698
v -0.290000 0.135000 -8.956698
v -0.610000 0.153301 -8.975000
v -0.290000 0.153301 -8.975000
v -0.610000 0.160000 -9.000000
v -0.290000 0.160000 -9.000000
v -0.610000 0.153301 -9.025000
v -0.290000 0.153301 -9.025000
v -0.610000 0.135000 -9.043302
v -0.290000 0.135000 -9.043302
vn -0.0000 -0.2588 -0.9659
vn -0.0000 -0.7071 -0.7071
vn -0.0000 -0.9659 -0.2588
vn -0.0000 -0.9659 0.2588
vn -0.0000 -0.7071 0.7071
vn -0.0000 -0.2588 0.9659
vn -0.0000 0.2588 0.9659
vn -0.0000 0.7071 0.7071
vn -0.0000 0.9659 0.2588
vn -0.0000 0.9659 -0.2588
vn 1.0000 -0.0000 -0.0000
vn -0.0000 0.7071 -0.7071
vn -0.0000 0.2588 -0.9659
vn -1.0000 -0.0000 -0.0000
vt 1.000000 1.000000
vt 0.916667 0.500000
vt 1.000000 0.500000
vt 0.916667 1.000000
vt 0.833333 0.500000
vt 0.833333 1.000000
vt 0.750000 0.500000
vt 0.750000 1.000000
vt 0.666667 0.500000
vt 0.666667 1.000000
vt 0.583333 0.500000
vt 0.583333 1.000000
vt 0.500000 0.500000
vt 0.500000 1.000000
vt 0.416667 0.500000
vt 0.416667 1.000000
vt 0.333333 0.500000
vt 0.333333 1.000000
vt 0.250000 0.500000
vt 0.250000 1.000000
vt 0.166667 0.500000
vt 0.042154 0.370000
vt 0.250000 0.010000
vt 0.457846 0.370000
vt 0.166667 1.000000
vt 0.083333 0.500000
vt 0.083333 1.000000
vt 0.000000 0.500000
vt 0.990000 0.250000
vt 0.630000 0.042154
vt 0.630000 0.457846
vt 0.370000 0.457846
vt 0.250000 0.490000
vt 0.130000 0.457846
vt 0.010000 0.250000
vt 0.042154 0.130000
vt 0.130000 0.042154
vt 0.370000 0.042154
vt 0.457846 0.130000
vt 0.490000 0.250000
vt 0.000000 1.000000
vt 0.750000 0.490000
vt 0.870000 0.457846
vt 0.957846 0.370000
vt 0.957846 0.130000
vt 0.870000 0.042154
vt 0.750000 0.010000
vt 0.542154 0.130000
vt 0.510000 0.250000
vt 0.542154 0.370000
s 1
usemtl Olive
f 82/129/121 83/130/121 81/131/121
f 84/132/122 85/133/122 83/130/122
f 86/134/123 87/135/123 85/133/123
f 88/136/124 89/137/124 87/135/124
f 90/138/125 91/139/125 89/137/125
f 92/140/126 93/141/126 91/139/126
f 94/142/127 95/143/127 93/141/127
f 96/144/128 97/145/128 95/143/128
f 98/146/129 99/147/129 97/145/129
f 100/148/130 101/149/130 99/147/130
f 102/150/131 94/151/131 86/152/131
f 102/153/132 103/154/132 101/149/132
f 104/155/133 81/156/133 103/154/133
f 87/157/134 95/158/134 103/159/134
f 82/129/121 84/132/121 83/130/121
f 84/132/122 86/134/122 85/133/122
f 86/134/123 88/136/123 87/135/123
f 88/136/124 90/138/124 89/137/124
f 90/138/125 92/140/125 91/139/125
f 92/140/126 94/142/126 93/141/126
f 94/142/127 96/144/127 95/143/127
f 96/144/128 98/146/128 97/145/128
f 98/146/129 100/148/129 99/147/129
f 100/148/130 102/153/130 101/149/130
f 86/152/131 84/160/131 82/161/131
f 82/161/131 104/162/131 102/150/131
f 102/150/131 100/163/131 98/164/131
f 98/164/131 96/165/131 94/151/131
f 94/151/131 92/166/131 90/167/131
f 90/167/131 88/168/131 86/152/131
f 86/152/131 82/161/131 102/150/131
f 102/150/131 98/164/131 94/151/131
f 94/151/131 90/167/131 86/152/131
f 102/153/132 104/155/132 103/154/132
f 104/155/133 82/169/133 81/156/133
f 103/159/134 81/170/134 83/171/134
f 83/171/134 85/172/134 87/157/134
f 87/157/134 89/173/134 91/174/134
f 91/174/134 93/175/134 95/158/134
f 95/158/134 97/176/134 99/177/134
f 99/177/134 101/178/134 103/159/134
f 103/159/134 83/171/134 87/157/134
f 87/157/134 91/174/134 95/158/134
f 95/158/134 99/177/134 103/159/134
o LMG_Stock
v 0.400000 0.009999 -8.960000
v 0.400000 0.019999 -8.950000
v 0.390000 0.019999 -8.960000
v 0.400000 0.012927 -8.952928
v 0.394227 0.014225 -8.954226
v 0.392929 0.019999 -8.952928
v 0.392929 0.012927 -8.959999
v 0.400000 0.139999 -8.950000
v 0.400000 0.149999 -8.960000
v 0.390000 0.139999 -8.960000
v 0.400000 0.147070 -8.952928
v 0.394227 0.145772 -8.954226
v 0.392929 0.147070 -8.959999
v 0.392929 0.139999 -8.952928
v 0.400000 0.009999 -9.040000
v 0.390000 0.019999 -9.040000
v 0.400000 0.019999 -9.050000
v 0.392929 0.012927 -9.040001
v 0.394227 0.014225 -9.045774
v 0.392929 0.019999 -9.047072
v 0.400000 0.012927 -9.047072
v 0.400000 0.149999 -9.040000
v 0.400000 0.139999 -9.050000
v 0.390000 0.139999 -9.040000
v 0.400000 0.147070 -9.047072
v 0.394227 0.145772 -9.045774
v 0.392929 0.139999 -9.047072
v 0.392929 0.147070 -9.040001
v 0.700000 0.009999 -8.960000
v 0.710000 0.019999 -8.960000
v 0.700000 0.019999 -8.950000
v 0.707071 0.012927 -8.959999
v 0.705774 0.014225 -8.954226
v 0.707071 0.019999 -8.952928
v 0.700000 0.012927 -8.952928
v 0.700000 0.149999 -8.960000
v 0.700000 0.139999 -8.950000
v 0.710000 0.139999 -8.960000
v 0.700000 0.147070 -8.952928
v 0.705774 0.145772 -8.954226
v 0.707071 0.139999 -8.952928
v 0.707071 0.147070 -8.959999
v 0.700000 0.009999 -9.040000
v 0.700000 0.019999 -9.050000
v 0.710000 0.019999 -9.040000
v 0.700000 0.012927 -9.047072
v 0.705774 0.014225 -9.045774
v 0.707071 0.019999 -9.047072
v 0.707071 0.012927 -9.040001
v 0.700000 0.149999 -9.040000
v 0.710000 0.139999 -9.040000
v 0.700000 0.139999 -9.050000
v 0.707071 0.147070 -9.040001
v 0.705774 0.145772 -9.045774
v 0.707071 0.139999 -9.047072
v 0.700000 0.147070 -9.047072
vn -0.0000 -0.0000 1.0000
vn 1.0000 -0.0000 -0.0000
vn -0.0000 1.0000 -0.0000
vn -1.0000 -0.0000 -0.0000
vn -0.0000 -0.0000 -1.0000
vn -0.3251 -0.8881 0.3250
vn -0.3672 -0.8864 0.2818
vn -0.3250 -0.3251 0.8881
vn -0.2818 -0.3672 0.8864
vn -0.8881 -0.3250 0.3250
vn -0.8864 -0.2819 0.3671
vn -0.3250 0.3251 0.8881
vn -0.3671 0.2817 0.8865
vn -0.3251 0.8881 0.3250
vn -0.2817 0.8865 0.3671
vn -0.8881 0.3250 0.3250
vn -0.8865 0.3670 0.2818
vn -0.3251 -0.8881 -0.3250
vn -0.2817 -0.8865 -0.3671
vn -0.8881 -0.3250 -0.3250
vn -0.8865 -0.3670 -0.2818
vn -0.3250 -0.3251 -0.8881
vn -0.3671 -0.2817 -0.8865
vn -0.3251 0.8881 -0.3250
vn -0.3672 0.8864 -0.2818
vn -0.3250 0.3251 -0.8881
vn -0.2818 0.3672 -0.8864
vn -0.8881 0.3250 -0.3250
vn -0.8864 0.2819 -0.3671
vn 0.3251 -0.8881 0.3250
vn 0.2817 -0.8865 0.3671
vn 0.8881 -0.3250 0.3250
vn 0.8865 -0.3670 0.2817
vn 0.3250 -0.3250 0.8881
vn 0.3671 -0.2817 0.8865
vn 0.3251 0.8881 0.3250
vn 0.3672 0.8864 0.2818
vn 0.3250 0.3250 0.8881
vn 0.2818 0.3672 0.8864
vn 0.8881 0.3250 0.3250
vn 0.8865 0.2818 0.3671
vn 0.3251 -0.8881 -0.3250
vn 0.3672 -0.8864 -0.2818
vn 0.3250 -0.3250 -0.8881
vn 0.2818 -0.3672 -0.8864
vn 0.8881 -0.3250 -0.3250
vn 0.8865 -0.2818 -0.3671
vn 0.3251 0.8881 -0.3250
vn 0.2817 0.8865 -0.3671
vn 0.8881 0.3250 -0.3250
vn 0.8865 0.3670 -0.2817
vn 0.3250 0.3250 -0.8881
vn 0.3671 0.2817 -0.8865
vn -0.3827 -0.9239 -0.0000
vn -0.9239 -0.3827 -0.0000
vn -0.3826 -0.0000 0.9239
vn -0.9239 -0.0000 0.3826
vn -0.3827 0.9239 -0.0000
vn -0.9239 0.3827 -0.0000
vn -0.3826 -0.0000 -0.9239
vn -0.9239 -0.0000 -0.3826
vn -0.0000 -0.9239 -0.3826
vn -0.0000 -0.9239 -0.3827
vn -0.0000 -0.3826 -0.9239
vn -0.0000 0.9239 -0.3826
vn -0.0000 0.9239 -0.3827
vn -0.0000 0.3826 -0.9239
vn -0.0000 0.3825 -0.9239
vn 0.9239 -0.0000 -0.3826
vn 0.3826 -0.0000 -0.9239
vn 0.3827 -0.9239 -0.0000
vn 0.9239 -0.3827 -0.0000
vn 0.3827 0.9239 -0.0000
vn 0.9239 0.3827 -0.0000
vn 0.3826 -0.0000 0.9239
vn 0.9239 -0.0000 0.3826
vn -0.0000 -0.9239 0.3826
vn -0.0000 -0.3826 0.9239
vn -0.0000 -0.3824 0.9240
vn -0.0000 0.9239 0.3826
vn -0.0000 0.3824 0.9240
vn -0.0000 0.3826 0.9239
vn -0.0000 -1.0000 -0.0000
vn -0.2817 -0.8865 0.3671
vn -0.3671 -0.2817 0.8865
vn -0.8865 -0.3670 0.2818
vn -0.2818 0.3672 0.8864
vn -0.3672 0.8864 0.2818
vn -0.8864 0.2819 0.3671
vn -0.3672 -0.8864 -0.2818
vn -0.8864 -0.2819 -0.3671
vn -0.2818 -0.3672 -0.8864
vn -0.2817 0.8865 -0.3671
vn -0.3671 0.2817 -0.8865
vn -0.8865 0.3670 -0.2818
vn 0.3672 -0.8864 0.2818
vn 0.8865 -0.2818 0.3671
vn 0.2818 -0.3672 0.8864
vn 0.2817 0.8865 0.3671
vn 0.3671 0.2817 0.8865
vn 0.8865 0.3670 0.2817
vn 0.2817 -0.8865 -0.3671
vn 0.3671 -0.2817 -0.8865
vn 0.8865 -0.3670 -0.2817
vn 0.3672 0.8864 -0.2818
vn 0.8865 0.2818 -0.3671
vn 0.2818 0.3672 -0.8864
vt 0.607143 0.757812
vt 0.392857 0.992188
vt 0.392857 0.757812
vt 0.607143 0.525001
vt 0.392857 0.725000
vt 0.392857 0.525001
vt 0.867188 0.525001
vt 0.632812 0.725000
vt 0.632812 0.525000
vt 0.607143 0.025000
vt 0.392857 0.225000
vt 0.392857 0.025000
vt 0.607143 0.257812
vt 0.392857 0.492188
vt 0.392857 0.257812
vt 0.132812 0.725000
vt 0.128302 0.750000
vt 0.125000 0.725002
vt 0.382547 1.000000
vt 0.375000 0.992188
vt 0.375000 0.010564
vt 0.392857 0.000000
vt 0.607143 0.992188
vt 0.625000 0.996698
vt 0.607143 1.000000
vt 0.867188 0.725000
vt 0.875000 0.739436
vt 0.867188 0.750000
vt 0.617453 0.000000
vt 0.625000 0.024998
vt 0.132812 0.525000
vt 0.125000 0.510564
vt 0.132812 0.500000
vt 0.382547 0.250000
vt 0.375000 0.225002
vt 0.375000 0.253302
vt 0.392857 0.250000
vt 0.871698 0.500000
vt 0.875000 0.524998
vt 0.617453 0.250000
vt 0.625000 0.257812
vt 0.607143 0.225000
vt 0.625000 0.239436
vt 0.607143 0.250000
vt 0.367188 0.725000
vt 0.377516 0.747579
vt 0.367188 0.750000
vt 0.375000 0.725002
vt 0.392857 0.750000
vt 0.623585 0.746479
vt 0.625000 0.725002
vt 0.625000 0.757812
vt 0.607143 0.725000
vt 0.607143 0.750000
vt 0.367188 0.525001
vt 0.376415 0.503521
vt 0.375000 0.524998
vt 0.375000 0.492188
vt 0.392857 0.500000
vt 0.622484 0.502421
vt 0.632813 0.500000
vt 0.625000 0.524998
vt 0.607143 0.492188
vt 0.607143 0.500000
vt 0.125000 0.524998
vt 0.392857 1.000000
vt 0.607143 0.000000
vt 0.875000 0.725002
vt 0.625000 0.225002
vt 0.367188 0.500000
vt 0.375000 0.257812
vt 0.867188 0.500000
vt 0.625000 0.492188
vt 0.132812 0.750000
vt 0.375000 0.757812
vt 0.632812 0.750000
vt 0.625000 0.992188
vt 0.375000 0.024998
s 1
usemtl Dark
f 141/179/135 106/180/135 135/181/135
f 155/182/136 134/183/136 149/184/136
f 126/185/137 140/186/137 154/187/137
f 114/188/138 120/189/138 107/190/138
f 127/191/139 148/192/139 121/193/139
f 105/194/140 109/195/140 111/196/141
f 106/180/142 109/197/142 108/198/143
f 107/190/144 109/199/144 110/200/145
f 112/201/146 116/202/146 118/203/147
f 113/204/148 116/205/148 115/206/149
f 114/188/150 116/207/150 117/208/151
f 119/209/152 123/210/152 125/211/153
f 120/189/154 123/212/154 122/213/155
f 121/193/156 123/214/156 124/215/157
f 126/185/158 130/216/158 132/217/159
f 127/191/160 130/218/160 129/219/161
f 128/220/162 130/221/162 131/222/163
f 133/223/164 137/224/164 139/225/165
f 134/183/166 137/224/166 136/226/167
f 135/181/168 137/224/168 138/227/169
f 140/186/170 144/228/170 146/229/171
f 141/179/172 144/228/172 143/230/173
f 142/231/174 144/228/174 145/232/175
f 147/233/176 151/234/176 153/235/177
f 148/192/178 151/234/178 150/236/179
f 149/184/180 151/234/180 152/237/181
f 154/187/182 158/238/182 160/239/183
f 155/182/184 158/238/184 157/240/185
f 156/241/186 158/238/186 159/242/187
f 105/194/188 122/243/188 119/209/188
f 122/213/189 107/190/189 120/189/189
f 112/201/190 110/244/190 106/180/190
f 118/245/191 107/190/191 110/200/191
f 126/185/192 117/246/192 113/204/192
f 132/247/193 114/188/193 117/208/193
f 121/193/194 131/222/194 127/191/194
f 124/215/195 128/220/195 131/222/195
f 147/233/196 125/211/197 150/248/196
f 125/249/198 148/192/198 150/236/198
f 154/187/199 129/250/200 126/185/200
f 160/251/201 127/191/202 129/219/202
f 149/184/203 159/242/203 155/182/203
f 152/237/204 156/241/204 159/242/204
f 147/233/205 136/226/205 133/223/205
f 153/235/206 134/183/206 136/226/206
f 140/186/207 157/240/207 154/187/207
f 157/240/208 142/231/208 155/182/208
f 135/181/209 145/232/209 141/179/209
f 138/227/210 142/231/210 145/232/210
f 133/223/211 108/252/211 105/194/211
f 139/253/212 106/180/213 108/198/213
f 140/186/214 115/206/214 143/254/214
f 115/255/215 141/179/216 143/230/216
f 147/233/217 105/194/217 119/209/217
f 141/179/135 112/201/135 106/180/135
f 155/182/136 142/231/136 134/183/136
f 126/185/137 113/204/137 140/186/137
f 114/188/138 128/220/138 120/189/138
f 127/191/139 156/241/139 148/192/139
f 105/194/140 108/252/218 109/195/140
f 106/180/142 110/244/219 109/197/142
f 107/190/144 111/256/220 109/199/144
f 112/201/146 115/255/221 116/202/146
f 113/204/148 117/246/222 116/205/148
f 114/188/150 118/245/223 116/207/150
f 119/209/152 122/243/224 123/210/152
f 120/189/154 124/215/225 123/212/154
f 121/193/156 125/249/226 123/214/156
f 126/185/158 129/250/227 130/216/158
f 127/191/160 131/222/228 130/218/160
f 128/220/162 132/247/229 130/221/162
f 133/223/164 136/226/230 137/224/164
f 134/183/166 138/227/231 137/224/166
f 135/181/168 139/253/232 137/224/168
f 140/186/170 143/254/233 144/228/170
f 141/179/172 145/232/234 144/228/172
f 142/231/174 146/229/235 144/228/174
f 147/233/176 150/248/236 151/234/176
f 148/192/178 152/237/237 151/234/178
f 149/184/180 153/235/238 151/234/180
f 154/187/182 157/240/239 158/238/182
f 155/182/184 159/242/240 158/238/184
f 156/241/186 160/251/241 158/238/186
f 105/194/188 111/196/188 122/243/188
f 122/213/189 111/256/189 107/190/189
f 112/201/190 118/203/190 110/244/190
f 118/245/191 114/188/191 107/190/191
f 126/185/192 132/217/192 117/246/192
f 132/247/193 128/220/193 114/188/193
f 121/193/194 124/215/194 131/222/194
f 124/215/195 120/189/195 128/220/195
f 147/233/196 119/209/197 125/211/197
f 125/249/198 121/193/198 148/192/198
f 154/187/199 160/239/199 129/250/200
f 160/251/201 156/241/201 127/191/202
f 149/184/203 152/237/203 159/242/203
f 152/237/204 148/192/204 156/241/204
f 147/233/205 153/235/205 136/226/205
f 153/235/206 149/184/206 134/183/206
f 140/186/207 146/229/207 157/240/207
f 157/240/208 146/229/208 142/231/208
f 135/181/209 138/227/209 145/232/209
f 138/227/210 134/183/210 142/231/210
f 133/223/211 139/225/211 108/252/211
f 139/253/212 135/181/212 106/180/213
f 140/186/214 113/204/214 115/206/214
f 115/255/215 112/201/215 141/179/216
f 147/233/217 133/223/217 105/194/217
o LMG_Grip
v 0.187053 -0.140758 -8.960000
v 0.224477 0.035309 -8.960000
v 0.187053 -0.140758 -9.040000
v 0.224477 0.035309 -9.040000
v 0.255523 -0.155312 -8.960000
v 0.292947 0.020755 -8.960000
v 0.255523 -0.155312 -9.040000
v 0.292947 0.020755 -9.040000
vn -0.9781 0.2079 -0.0000
vn -0.0000 -0.0000 -1.0000
vn 0.9781 -0.2079 -0.0000
vn -0.0000 -0.0000 1.0000
vn -0.2079 -0.9781 -0.0000
vn 0.2079 0.9781 -0.0000
vt 0.625000 0.000000
vt 0.375000 0.250000
vt 0.375000 0.000000
vt 0.625000 0.250000
vt 0.375000 0.500000
vt 0.625000 0.500000
vt 0.375000 0.750000
vt 0.625000 0.750000
vt 0.375000 1.000000
vt 0.125000 0.750000
vt 0.125000 0.500000
vt 0.875000 0.500000
vt 0.625000 1.000000
vt 0.875000 0.750000
s 1
usemtl Dark
f 162/257/242 163/258/242 161/259/242
f 164/260/243 167/261/243 163/258/243
f 168/262/244 165/263/244 167/261/244
f 166/264/245 161/265/245 165/263/245
f 167/261/246 161/266/246 163/267/246
f 164/268/247 166/264/247 168/262/247
f 162/257/242 164/260/242 163/258/242
f 164/260/243 168/262/243 167/261/243
f 168/262/244 166/264/244 165/263/244
f 166/264/245 162/269/245 161/265/245
f 167/261/246 165/263/246 161/266/246
f 164/268/247 162/270/247 166/264/247
o LMG_CarryHandle
v -0.280000 0.214999 -8.985000
v -0.280000 0.264999 -8.985000
v -0.280000 0.214999 -9.015000
v -0.280000 0.264999 -9.015000
v -0.120000 0.214999 -8.985000
v -0.120000 0.264999 -8.985000
v -0.120000 0.214999 -9.015000
v -0.120000 0.264999 -9.015000
vn -1.0000 -0.0000 -0.0000
vn -0.0000 -0.0000 -1.0000
vn 1.0000 -0.0000 -0.0000
vn -0.0000 -0.0000 1.0000
vn -0.0000 -1.0000 -0.0000
vn -0.0000 1.0000 -0.0000
vt 0.625000 0.000000
vt 0.375000 0.250000
vt 0.375000 0.000000
vt 0.625000 0.250000
vt 0.375000 0.500000
vt 0.625000 0.500000
vt 0.375000 0.750000
vt 0.625000 0.750000
vt 0.375000 1.000000
vt 0.125000 0.750000
vt 0.125000 0.500000
vt 0.875000 0.500000
vt 0.625000 1.000000
vt 0.875000 0.750000
s 1
usemtl Dark
f 170/271/248 171/272/248 169/273/248
f 172/274/249 175/275/249 171/272/249
f 176/276/250 173/277/250 175/275/250
f 174/278/251 169/279/251 173/277/251
f 175/275/252 169/280/252 171/281/252
f 172/282/253 174/278/253 176/276/253
f 170/271/248 172/274/248 171/272/248
f 172/274/249 176/276/249 175/275/249
f 176/276/250 174/278/250 173/277/250
f 174/278/251 170/283/251 169/279/251
f 175/275/252 173/277/252 169/280/252
f 172/282/253 170/284/253 174/278/253
o LMG_BipodL
v -0.860000 -0.177218 -9.087572
v -0.860000 0.051035 -9.013408
v -0.860000 -0.171038 -9.106593
v -0.860000 0.057215 -9.032429
v -0.840000 -0.177218 -9.087572
v -0.840000 0.051035 -9.013408
v -0.840000 -0.171038 -9.106593
v -0.840000 0.057215 -9.032429
vn -1.0000 -0.0000 -0.0000
vn -0.0000 0.3090 -0.9511
vn 1.0000 -0.0000 -0.0000
vn -0.0000 -0.3090 0.9511
vn -0.0000 -0.9511 -0.3090
vn -0.0000 0.9511 0.3090
vt 0.625000 0.000000
vt 0.375000 0.250000
vt 0.375000 0.000000
vt 0.625000 0.250000
vt 0.375000 0.500000
vt 0.625000 0.500000
vt 0.375000 0.750000
vt 0.625000 0.750000
vt 0.375000 1.000000
vt 0.125000 0.750000
vt 0.125000 0.500000
vt 0.875000 0.500000
vt 0.625000 1.000000
vt 0.875000 0.750000
s 1
usemtl Dark
f 178/285/254 179/286/254 177/287/254
f 180/288/255 183/289/255 179/286/255
f 184/290/256 181/291/256 183/289/256
f 182/292/257 177/293/257 181/291/257
f 183/289/258 177/294/258 179/295/258
f 180/296/259 182/292/259 184/290/259
f 178/285/254 180/288/254 179/286/254
f 180/288/255 184/290/255 183/289/255
f 184/290/256 182/292/256 181/291/256
f 182/292/257 178/297/257 177/293/257
f 183/289/258 181/291/258 177/294/258
f 180/296/259 178/298/259 182/292/259
o LMG_BipodR
v -0.860000 -0.171038 -8.893407
v -0.860000 0.057215 -8.967571
v -0.860000 -0.177218 -8.912428
v -0.860000 0.051035 -8.986592
v -0.840000 -0.171038 -8.893407
v -0.840000 0.057215 -8.967571
v -0.840000 -0.177218 -8.912428
v -0.840000 0.051035 -8.986592
vn -1.0000 -0.0000 -0.0000
vn -0.0000 -0.3090 -0.9511
vn 1.0000 -0.0000 -0.0000
vn -0.0000 0.3090 0.9511
vn -0.0000 -0.9511 0.3090
vn -0.0000 0.9511 -0.3090
vt 0.625000 0.000000
vt 0.375000 0.250000
vt 0.375000 0.000000
vt 0.625000 0.250000
vt 0.375000 0.500000
vt 0.625000 0.500000
vt 0.375000 0.750000
vt 0.625000 0.750000
vt 0.375000 1.000000
vt 0.125000 0.750000
vt 0.125000 0.500000
vt 0.875000 0.500000
vt 0.625000 1.000000
vt 0.875000 0.750000
s 1
usemtl Dark
f 186/299/260 187/300/260 185/301/260
f 188/302/261 191/303/261 187/300/261
f 192/304/262 189/305/262 191/303/262
f 190/306/263 185/307/263 189/305/263
f 191/303/264 185/308/264 187/309/264
f 188/310/265 190/306/265 192/304/265
f 186/299/260 188/302/260 187/300/260
f 188/302/261 192/304/261 191/303/261
f 192/304/262 190/306/262 189/305/262
f 190/306/263 186/311/263 185/307/263
f 191/303/264 189/305/264 185/308/264
f 188/310/265 186/312/265 190/306/265
o LMG_AmmoBox
v -0.140000 -0.180000 -8.945001
v -0.140000 -0.170000 -8.935000
v -0.150000 -0.170000 -8.945001
v -0.140000 -0.177071 -8.937928
v -0.145773 -0.175773 -8.939226
v -0.147071 -0.170000 -8.937928
v -0.147071 -0.177071 -8.945000
v -0.140000 0.010000 -8.935000
v -0.140000 0.020000 -8.945001
v -0.150000 0.010000 -8.945001
v -0.140000 0.017071 -8.937928
v -0.145773 0.015774 -8.939226
v -0.147071 0.017071 -8.945000
v -0.147071 0.010000 -8.937928
v -0.140000 -0.180000 -9.054999
v -0.150000 -0.170000 -9.054999
v -0.140000 -0.170000 -9.065000
v -0.147071 -0.177071 -9.055000
v -0.145774 -0.175773 -9.060774
v -0.147071 -0.170000 -9.062072
v -0.140000 -0.177071 -9.062072
v -0.140000 0.020000 -9.054999
v -0.140000 0.010000 -9.065000
v -0.150000 0.010000 -9.054999
v -0.140000 0.017071 -9.062072
v -0.145774 0.015774 -9.060774
v -0.147071 0.010000 -9.062072
v -0.147071 0.017071 -9.055000
v 0.100000 -0.180000 -8.945001
v 0.110000 -0.170000 -8.945001
v 0.100000 -0.170000 -8.935000
v 0.107071 -0.177071 -8.945000
v 0.105774 -0.175773 -8.939226
v 0.107071 -0.170000 -8.937928
v 0.100000 -0.177071 -8.937928
v 0.100000 0.020000 -8.945001
v 0.100000 0.010000 -8.935000
v 0.110000 0.010000 -8.945001
v 0.100000 0.017071 -8.937928
v 0.105774 0.015774 -8.939226
v 0.107071 0.010000 -8.937928
v 0.107071 0.017071 -8.945000
v 0.100000 -0.180000 -9.054999
v 0.100000 -0.170000 -9.065000
v 0.110000 -0.170000 -9.054999
v 0.100000 -0.177071 -9.062072
v 0.105774 -0.175773 -9.060774
v 0.107071 -0.170000 -9.062072
v 0.107071 -0.177071 -9.055000
v 0.100000 0.020000 -9.054999
v 0.110000 0.010000 -9.054999
v 0.100000 0.010000 -9.065000
v 0.107071 0.017071 -9.055000
v 0.105774 0.015774 -9.060774
v 0.107071 0.010000 -9.062072
v 0.100000 0.017071 -9.062072
vn -0.0000 -0.0000 1.0000
vn 1.0000 -0.0000 -0.0000
vn -0.0000 1.0000 -0.0000
vn -1.0000 -0.0000 -0.0000
vn -0.0000 -0.0000 -1.0000
vn -0.3251 -0.8881 0.3251
vn -0.3672 -0.8864 0.2818
vn -0.3250 -0.3250 0.8881
vn -0.2818 -0.3672 0.8864
vn -0.8881 -0.3250 0.3250
vn -0.8864 -0.2819 0.3671
vn -0.3250 0.3250 0.8881
vn -0.3671 0.2816 0.8865
vn -0.3251 0.8881 0.3251
vn -0.2818 0.8865 0.3671
vn -0.8881 0.3250 0.3250
vn -0.8865 0.3669 0.2818
vn -0.3251 -0.8881 -0.3251
vn -0.2818 -0.8865 -0.3671
vn -0.8881 -0.3250 -0.3250
vn -0.8865 -0.3669 -0.2818
vn -0.3250 -0.3250 -0.8881
vn -0.3671 -0.2816 -0.8865
vn -0.3251 0.8881 -0.3251
vn -0.3672 0.8864 -0.2818
vn -0.3250 0.3250 -0.8881
vn -0.2818 0.3672 -0.8864
vn -0.8881 0.3250 -0.3250
vn -0.8864 0.2819 -0.3671
vn 0.3251 -0.8881 0.3251
vn 0.2818 -0.8865 0.3671
vn 0.8881 -0.3250 0.3250
vn 0.8865 -0.3669 0.2818
vn 0.3250 -0.3250 0.8881
vn 0.3671 -0.2816 0.8865
vn 0.3251 0.8881 0.3251
vn 0.3672 0.8864 0.2818
vn 0.3250 0.3250 0.8881
vn 0.2818 0.3672 0.8864
vn 0.8881 0.3250 0.3250
vn 0.8864 0.2819 0.3671
vn 0.3251 -0.8881 -0.3251
vn 0.3672 -0.8864 -0.2818
vn 0.3250 -0.3250 -0.8881
vn 0.2818 -0.3672 -0.8864
vn 0.8881 -0.3250 -0.3250
vn 0.8864 -0.2819 -0.3671
vn 0.3251 0.8881 -0.3251
vn 0.2818 0.8865 -0.3671
vn 0.8881 0.3250 -0.3250
vn 0.8865 0.3669 -0.2818
vn 0.3250 0.3250 -0.8881
vn 0.3671 0.2816 -0.8865
vn -0.3827 -0.9239 -0.0000
vn -0.9239 -0.3827 -0.0000
vn -0.3826 -0.0000 0.9239
vn -0.9239 -0.0000 0.3826
vn -0.3827 0.9239 -0.0000
vn -0.9239 0.3827 -0.0000
vn -0.3826 -0.0000 -0.9239
vn -0.9239 -0.0000 -0.3826
vn -0.0000 -0.9239 -0.3827
vn -0.0000 -0.9239 -0.3826
vn -0.0000 -0.3826 -0.9239
vn -0.0000 0.9239 -0.3827
vn -0.0000 0.9239 -0.3826
vn -0.0000 0.3826 -0.9239
vn 0.9239 -0.0000 -0.3826
vn 0.3826 -0.0000 -0.9239
vn 0.3827 -0.9239 -0.0000
vn 0.9239 -0.3827 -0.0000
vn 0.3827 0.9239 -0.0000
vn 0.9239 0.3827 -0.0000
vn 0.3826 -0.0000 0.9239
vn 0.9239 -0.0000 0.3826
vn -0.0000 -0.9239 0.3826
vn -0.0000 -0.3826 0.9239
vn -0.0000 -0.3824 0.9240
vn -0.0000 0.9239 0.3826
vn -0.0000 0.3826 0.9239
vn -0.0000 0.3824 0.9240
vn -0.0000 -1.0000 -0.0000
vn -0.2818 -0.8865 0.3671
vn -0.3671 -0.2816 0.8865
vn -0.8865 -0.3669 0.2818
vn -0.2818 0.3672 0.8864
vn -0.3672 0.8864 0.2818
vn -0.8864 0.2819 0.3671
vn -0.3672 -0.8864 -0.2818
vn -0.8864 -0.2819 -0.3671
vn -0.2818 -0.3672 -0.8864
vn -0.2818 0.8865 -0.3671
vn -0.3671 0.2816 -0.8865
vn -0.8865 0.3669 -0.2818
vn 0.3672 -0.8864 0.2818
vn 0.8864 -0.2819 0.3671
vn 0.2818 -0.3672 0.8864
vn 0.2818 0.8865 0.3671
vn 0.3671 0.2816 0.8865
vn 0.8865 0.3669 0.2818
vn 0.2818 -0.8865 -0.3671
vn 0.3671 -0.2816 -0.8865
vn 0.8865 -0.3669 -0.2818
vn 0.3672 0.8864 -0.2818
vn 0.8864 0.2819 -0.3671
vn 0.2818 0.3672 -0.8864
vt 0.612500 0.759615
vt 0.387500 0.990385
vt 0.387500 0.759615
vt 0.612500 0.519231
vt 0.387500 0.730769
vt 0.387500 0.519231
vt 0.865385 0.519231
vt 0.634615 0.730769
vt 0.634615 0.519231
vt 0.612500 0.019231
vt 0.387500 0.230769
vt 0.387500 0.019231
vt 0.612500 0.259615
vt 0.387500 0.490385
vt 0.387500 0.259615
vt 0.134615 0.730769
vt 0.129064 0.750000
vt 0.125000 0.730771
vt 0.380283 1.000000
vt 0.375000 0.990385
vt 0.375000 0.008126
vt 0.387500 0.000000
vt 0.612500 0.990385
vt 0.625000 0.995936
vt 0.612500 1.000000
vt 0.865385 0.730769
vt 0.875000 0.741874
vt 0.865385 0.750000
vt 0.619717 0.000000
vt 0.625000 0.019230
vt 0.134615 0.519231
vt 0.125000 0.508126
vt 0.134615 0.500000
vt 0.380283 0.250000
vt 0.375000 0.230770
vt 0.375000 0.254064
vt 0.387500 0.250000
vt 0.870936 0.500000
vt 0.875000 0.519230
vt 0.619717 0.250000
vt 0.625000 0.259615
vt 0.612500 0.230769
vt 0.625000 0.241874
vt 0.612500 0.250000
vt 0.365385 0.730769
vt 0.376761 0.748646
vt 0.365385 0.750000
vt 0.375000 0.730771
vt 0.387500 0.750000
vt 0.624594 0.747291
vt 0.625000 0.730771
vt 0.625000 0.759615
vt 0.612500 0.730769
vt 0.612500 0.750000
vt 0.365385 0.519231
vt 0.375406 0.502709
vt 0.375000 0.519230
vt 0.375000 0.490385
vt 0.387500 0.500000
vt 0.623239 0.501354
vt 0.634615 0.500000
vt 0.625000 0.519230
vt 0.612500 0.490385
vt 0.612500 0.500000
vt 0.125000 0.519230
vt 0.375000 0.019230
vt 0.387500 1.000000
vt 0.612500 0.000000
vt 0.875000 0.730771
vt 0.625000 0.230770
vt 0.365385 0.500000
vt 0.375000 0.259615
vt 0.865385 0.500000
vt 0.625000 0.490385
vt 0.134615 0.750000
vt 0.375000 0.759615
vt 0.634615 0.750000
vt 0.625000 0.990385
s 1
usemtl Olive
f 229/313/266 194/314/266 223/315/266
f 243/316/267 222/317/267 237/318/267
f 214/319/268 228/320/268 242/321/268
f 202/322/269 208/323/269 195/324/269
f 215/325/270 236/326/270 209/327/270
f 193/328/271 197/329/271 199/330/272
f 194/314/273 197/331/273 196/332/274
f 195/324/275 197/333/275 198/334/276
f 200/335/277 204/336/277 206/337/278
f 201/338/279 204/339/279 203/340/280
f 202/322/281 204/341/281 205/342/282
f 207/343/283 211/344/283 213/345/284
f 208/323/285 211/346/285 210/347/286
f 209/327/287 211/348/287 212/349/288
f 214/319/289 218/350/289 220/351/290
f 215/325/291 218/352/291 217/353/292
f 216/354/293 218/355/293 219/356/294
f 221/357/295 225/358/295 227/359/296
f 222/317/297 225/358/297 224/360/298
f 223/315/299 225/358/299 226/361/300
f 228/320/301 232/362/301 234/363/302
f 229/313/303 232/362/303 231/364/304
f 230/365/305 232/362/305 233/366/306
f 235/367/307 239/368/307 241/369/308
f 236/326/309 239/368/309 238/370/310
f 237/318/311 239/368/311 240/371/312
f 242/321/313 246/372/313 248/373/314
f 243/316/315 246/372/315 245/374/316
f 244/375/317 246/372/317 247/376/318
f 193/328/319 210/377/319 207/343/319
f 199/378/320 208/323/320 210/347/320
f 194/314/321 206/337/321 198/379/321
f 206/380/322 195/324/322 198/334/322
f 214/319/323 205/381/323 201/338/323
f 220/382/324 202/322/324 205/342/324
f 209/327/325 219/356/325 215/325/325
f 212/349/326 216/354/326 219/356/326
f 207/343/327 238/383/328 235/367/328
f 213/384/329 236/326/329 238/370/329
f 242/321/330 217/385/331 214/319/331
f 248/386/332 215/325/332 217/353/332
f 237/318/333 247/376/333 243/316/333
f 247/376/334 236/326/334 244/375/334
f 235/367/335 224/360/335 221/357/335
f 241/369/336 222/317/336 224/360/336
f 228/320/337 245/374/337 242/321/337
f 234/363/338 243/316/338 245/374/338
f 223/315/339 233/366/339 229/313/339
f 226/361/340 230/365/340 233/366/340
f 221/357/341 196/387/341 193/328/341
f 227/388/342 194/314/343 196/332/343
f 201/338/344 231/389/344 228/320/344
f 203/390/345 229/313/346 231/364/346
f 235/367/347 193/328/347 207/343/347
f 229/313/266 200/335/266 194/314/266
f 243/316/267 230/365/267 222/317/267
f 214/319/268 201/338/268 228/320/268
f 202/322/269 216/354/269 208/323/269
f 215/325/270 244/375/270 236/326/270
f 193/328/271 196/387/348 197/329/271
f 194/314/273 198/379/349 197/331/273
f 195/324/275 199/378/350 197/333/275
f 200/335/277 203/390/351 204/336/277
f 201/338/279 205/381/352 204/339/279
f 202/322/281 206/380/353 204/341/281
f 207/343/283 210/377/354 211/344/283
f 208/323/285 212/349/355 211/346/285
f 209/327/287 213/384/356 211/348/287
f 214/319/289 217/385/357 218/350/289
f 215/325/291 219/356/358 218/352/291
f 216/354/293 220/382/359 218/355/293
f 221/357/295 224/360/360 225/358/295
f 222/317/297 226/361/361 225/358/297
f 223/315/299 227/388/362 225/358/299
f 228/320/301 231/389/363 232/362/301
f 229/313/303 233/366/364 232/362/303
f 230/365/305 234/363/365 232/362/305
f 235/367/307 238/383/366 239/368/307
f 236/326/309 240/371/367 239/368/309
f 237/318/311 241/369/368 239/368/311
f 242/321/313 245/374/369 246/372/313
f 243/316/315 247/376/370 246/372/315
f 244/375/317 248/386/371 246/372/317
f 193/328/319 199/330/319 210/377/319
f 199/378/320 195/324/320 208/323/320
f 194/314/321 200/335/321 206/337/321
f 206/380/322 202/322/322 195/324/322
f 214/319/323 220/351/323 205/381/323
f 220/382/324 216/354/324 202/322/324
f 209/327/325 212/349/325 219/356/325
f 212/349/326 208/323/326 216/354/326
f 207/343/327 213/345/327 238/383/328
f 213/384/329 209/327/329 236/326/329
f 242/321/330 248/373/330 217/385/331
f 248/386/332 244/375/332 215/325/332
f 237/318/333 240/371/333 247/376/333
f 247/376/334 240/371/334 236/326/334
f 235/367/335 241/369/335 224/360/335
f 241/369/336 237/318/336 222/317/336
f 228/320/337 234/363/337 245/374/337
f 234/363/338 230/365/338 243/316/338
f 223/315/339 226/361/339 233/366/339
f 226/361/340 222/317/340 230/365/340
f 221/357/341 227/359/341 196/387/341
f 227/388/342 223/315/342 194/314/343
f 201/338/344 203/340/344 231/389/344
f 203/390/345 200/335/345 229/313/346
f 235/367/347 221/357/347 193/328/347
o LMG_ChargingHandle
v 0.200001 0.136001 -9.125000
v 0.200001 0.136001 -9.035000
v 0.208001 0.133857 -9.125000
v 0.208001 0.133857 -9.035000
v 0.213857 0.128001 -9.125000
v 0.213857 0.128001 -9.035000
v 0.216001 0.120001 -9.125000
v 0.216001 0.120001 -9.035000
v 0.213857 0.112001 -9.125000
v 0.213857 0.112001 -9.035000
v 0.208001 0.106144 -9.125000
v 0.208001 0.106144 -9.035000
v 0.200001 0.104001 -9.125000
v 0.200001 0.104001 -9.035000
v 0.192001 0.106144 -9.125000
v 0.192001 0.106144 -9.035000
v 0.186144 0.112001 -9.125000
v 0.186144 0.112001 -9.035000
v 0.184001 0.120001 -9.125000
v 0.184001 0.120001 -9.035000
v 0.186144 0.128001 -9.125000
v 0.186144 0.128001 -9.035000
v 0.192001 0.133857 -9.125000
v 0.192001 0.133857 -9.035000
vn 0.2588 0.9659 -0.0000
vn 0.7071 0.7071 -0.0000
vn 0.9659 0.2588 -0.0000
vn 0.9659 -0.2588 -0.0000
vn 0.7071 -0.7071 -0.0000
vn 0.2588 -0.9659 -0.0000
vn -0.2588 -0.9659 -0.0000
vn -0.7071 -0.7071 -0.0000
vn -0.9659 -0.2588 -0.0000
vn -0.9659 0.2588 -0.0000
vn -0.0000 -0.0000 1.0000
vn -0.7071 0.7071 -0.0000
vn -0.2588 0.9659 -0.0000
vn -0.0000 -0.0000 -1.0000
vt 1.000000 1.000000
vt 0.916667 0.500000
vt 1.000000 0.500000
vt 0.916667 1.000000
vt 0.833333 0.500000
vt 0.833333 1.000000
vt 0.750000 0.500000
vt 0.750000 1.000000
vt 0.666667 0.500000
vt 0.666667 1.000000
vt 0.583333 0.500000
vt 0.583333 1.000000
vt 0.500000 0.500000
vt 0.500000 1.000000
vt 0.416667 0.500000
vt 0.416667 1.000000
vt 0.333333 0.500000
vt 0.333333 1.000000
vt 0.250000 0.500000
vt 0.250000 1.000000
vt 0.166667 0.500000
vt 0.042154 0.370000
vt 0.250000 0.010000
vt 0.457846 0.370000
vt 0.166667 1.000000
vt 0.083333 0.500000
vt 0.083333 1.000000
vt 0.000000 0.500000
vt 0.990000 0.250000
vt 0.630000 0.042154
vt 0.630000 0.457846
vt 0.370000 0.457846
vt 0.250000 0.490000
vt 0.130000 0.457846
vt 0.010000 0.250000
vt 0.042154 0.130000
vt 0.130000 0.042154
vt 0.370000 0.042154
vt 0.457846 0.130000
vt 0.490000 0.250000
vt 0.000000 1.000000
vt 0.750000 0.490000
vt 0.870000 0.457846
vt 0.957846 0.370000
vt 0.957846 0.130000
vt 0.870000 0.042154
vt 0.750000 0.010000
vt 0.542154 0.130000
vt 0.510000 0.250000
vt 0.542154 0.370000
s 1
usemtl Dark
f 250/391/372 251/392/372 249/393/372
f 252/394/373 253/395/373 251/392/373
f 254/396/374 255/397/374 253/395/374
f 256/398/375 257/399/375 255/397/375
f 258/400/376 259/401/376 257/399/376
f 260/402/377 261/403/377 259/401/377
f 262/404/378 263/405/378 261/403/378
f 264/406/379 265/407/379 263/405/379
f 266/408/380 267/409/380 265/407/380
f 268/410/381 269/411/381 267/409/381
f 270/412/382 262/413/382 254/414/382
f 270/415/383 271/416/383 269/411/383
f 272/417/384 249/418/384 271/416/384
f 255/419/385 263/420/385 271/421/385
f 250/391/372 252/394/372 251/392/372
f 252/394/373 254/396/373 253/395/373
f 254/396/374 256/398/374 255/397/374
f 256/398/375 258/400/375 257/399/375
f 258/400/376 260/402/376 259/401/376
f 260/402/377 262/404/377 261/403/377
f 262/404/378 264/406/378 263/405/378
f 264/406/379 266/408/379 265/407/379
f 266/408/380 268/410/380 267/409/380
f 268/410/381 270/415/381 269/411/381
f 254/414/382 252/422/382 250/423/382
f 250/423/382 272/424/382 270/412/382
f 270/412/382 268/425/382 266/426/382
f 266/426/382 264/427/382 262/413/382
f 262/413/382 260/428/382 258/429/382
f 258/429/382 256/430/382 254/414/382
f 254/414/382 250/423/382 270/412/382
f 270/412/382 266/426/382 262/413/382
f 262/413/382 258/429/382 254/414/382
f 270/415/383 272/417/383 271/416/383
f 272/417/384 250/431/384 249/418/384
f 271/421/385 249/432/385 251/433/385
f 251/433/385 253/434/385 255/419/385
f 255/419/385 257/435/385 259/436/385
f 259/436/385 261/437/385 263/420/385
f 263/420/385 265/438/385 267/439/385
f 267/439/385 269/440/385 271/421/385
f 271/421/385 251/433/385 255/419/385
f 255/419/385 259/436/385 263/420/385
f 263/420/385 267/439/385 271/421/385
