# Blender 5.2.0 LTS
# www.blender.org
mtllib Pistol.mtl
o Pistol_Slide
v -0.142000 0.025000 -2.978000
v -0.142000 0.033000 -2.970000
v -0.150000 0.033000 -2.978000
v -0.142000 0.027343 -2.972343
v -0.146619 0.028381 -2.973381
v -0.147657 0.033000 -2.972343
v -0.147657 0.027343 -2.978000
v -0.142000 0.087000 -2.970000
v -0.142000 0.095000 -2.978000
v -0.150000 0.087000 -2.978000
v -0.142000 0.092656 -2.972343
v -0.146619 0.091618 -2.973381
v -0.147657 0.092656 -2.978000
v -0.147657 0.087000 -2.972343
v -0.142000 0.025000 -3.022000
v -0.150000 0.033000 -3.022000
v -0.142000 0.033000 -3.030000
v -0.147657 0.027343 -3.022000
v -0.146619 0.028381 -3.026619
v -0.147657 0.033000 -3.027657
v -0.142000 0.027343 -3.027657
v -0.142000 0.095000 -3.022000
v -0.142000 0.087000 -3.030000
v -0.150000 0.087000 -3.022000
v -0.142000 0.092656 -3.027657
v -0.146619 0.091618 -3.026619
v -0.147657 0.087000 -3.027657
v -0.147657 0.092656 -3.022000
v 0.142000 0.025000 -2.978000
v 0.150000 0.033000 -2.978000
v 0.142000 0.033000 -2.970000
v 0.147657 0.027343 -2.978000
v 0.146619 0.028381 -2.973381
v 0.147657 0.033000 -2.972343
v 0.142000 0.027343 -2.972343
v 0.142000 0.095000 -2.978000
v 0.142000 0.087000 -2.970000
v 0.150000 0.087000 -2.978000
v 0.142000 0.092656 -2.972343
v 0.146619 0.091618 -2.973381
v 0.147657 0.087000 -2.972343
v 0.147657 0.092656 -2.978000
v 0.142000 0.025000 -3.022000
v 0.142000 0.033000 -3.030000
v 0.150000 0.033000 -3.022000
v 0.142000 0.027343 -3.027657
v 0.146619 0.028381 -3.026619
v 0.147657 0.033000 -3.027657
v 0.147657 0.027343 -3.022000
v 0.142000 0.095000 -3.022000
v 0.150000 0.087000 -3.022000
v 0.142000 0.087000 -3.030000
v 0.147657 0.092656 -3.022000
v 0.146619 0.091618 -3.026619
v 0.147657 0.087000 -3.027657
v 0.142000 0.092656 -3.027657
vn -0.0000 -0.0000 1.0000
vn 1.0000 -0.0000 -0.0000
vn -0.0000 1.0000 -0.0000
vn -1.0000 -0.0000 -0.0000
vn -0.0000 -0.0000 -1.0000
vn -0.3251 -0.8881 0.3251
vn -0.3672 -0.8864 0.2818
vn -0.3250 -0.3251 0.8881
vn -0.2817 -0.3672 0.8865
vn -0.8881 -0.3250 0.3251
vn -0.8865 -0.2817 0.3672
vn -0.3250 0.3251 0.8881
vn -0.3671 0.2819 0.8864
vn -0.3251 0.8881 0.3251
vn -0.2818 0.8864 0.3672
vn -0.8881 0.3250 0.3251
vn -0.8864 0.3672 0.2818
vn -0.3251 -0.8881 -0.3251
vn -0.2818 -0.8864 -0.3672
vn -0.8881 -0.3250 -0.3251
vn -0.8864 -0.3672 -0.2818
vn -0.3250 -0.3251 -0.8881
vn -0.3671 -0.2819 -0.8864
vn -0.3251 0.8881 -0.3251
vn -0.3672 0.8864 -0.2818
vn -0.3250 0.3251 -0.8881
vn -0.2817 0.3672 -0.8865
vn -0.8881 0.3250 -0.3251
vn -0.8865 0.2817 -0.3672
vn 0.3251 -0.8881 0.3251
vn 0.2818 -0.8864 0.3672
vn 0.8881 -0.3250 0.3251
vn 0.8864 -0.3672 0.2818
vn 0.3250 -0.3251 0.8881
vn 0.3671 -0.2819 0.8864
vn 0.3251 0.8881 0.3251
vn 0.3672 0.8864 0.2818
vn 0.3250 0.3251 0.8881
vn 0.2817 0.3672 0.8865
vn 0.8881 0.3250 0.3251
vn 0.8865 0.2817 0.3672
vn 0.3251 -0.8881 -0.3251
vn 0.3672 -0.8864 -0.2818
vn 0.3250 -0.3251 -0.8881
vn 0.2817 -0.3672 -0.8865
vn 0.8881 -0.3250 -0.3251
vn 0.8865 -0.2817 -0.3672
vn 0.3251 0.8881 -0.3251
vn 0.2818 0.8864 -0.3672
vn 0.8881 0.3250 -0.3251
vn 0.8864 0.3672 -0.2818
vn 0.3250 0.3251 -0.8881
vn 0.3671 0.2819 -0.8864
vn -0.3827 -0.9239 -0.0000
vn -0.9239 -0.3827 -0.0000
vn -0.3827 -0.0000 0.9239
vn -0.9239 -0.0000 0.3827
vn -0.3827 0.9239 -0.0000
vn -0.9239 0.3827 -0.0000
vn -0.3827 -0.0000 -0.9239
vn -0.9239 -0.0000 -0.3827
vn -0.0000 -0.9239 -0.3827
vn -0.0000 -0.3826 -0.9239
vn -0.0000 -0.3827 -0.9239
vn -0.0000 0.9239 -0.3827
vn -0.0000 0.3826 -0.9239
vn -0.0000 0.3827 -0.9239
vn 0.9239 -0.0000 -0.3827
vn 0.3827 -0.0000 -0.9239
vn 0.3827 -0.9239 -0.0000
vn 0.9239 -0.3827 -0.0000
vn 0.3827 0.9239 -0.0000
vn 0.9239 0.3827 -0.0000
vn 0.3827 -0.0000 0.9239
vn 0.9239 -0.0000 0.3827
vn -0.0000 -0.9239 0.3827
vn -0.0000 -0.3826 0.9239
vn -0.0000 -0.3827 0.9239
vn -0.0000 0.9239 0.3827
vn -0.0000 0.3826 0.9239
vn -0.0000 0.3827 0.9239
vn -0.0000 -1.0000 -0.0000
vn -0.2818 -0.8864 0.3672
vn -0.3671 -0.2819 0.8864
vn -0.8864 -0.3672 0.2818
vn -0.2817 0.3672 0.8865
vn -0.3672 0.8864 0.2818
vn -0.8865 0.2817 0.3672
vn -0.3672 -0.8864 -0.2818
vn -0.8865 -0.2817 -0.3672
vn -0.2817 -0.3672 -0.8865
vn -0.2818 0.8864 -0.3672
vn -0.3671 0.2819 -0.8864
vn -0.8864 0.3672 -0.2818
vn 0.3672 -0.8864 0.2818
vn 0.8865 -0.2817 0.3672
vn 0.2817 -0.3672 0.8865
vn 0.2818 0.8864 0.3672
vn 0.3671 0.2819 0.8864
vn 0.8864 0.3672 0.2818
vn 0.2818 -0.8864 -0.3672
vn 0.3671 -0.2819 -0.8864
vn 0.8864 -0.3672 -0.2818
vn 0.3672 0.8864 -0.2818
vn 0.8865 0.2817 -0.3672
vn 0.2817 0.3672 -0.8865
vt 0.596429 0.756667
vt 0.403571 0.993333
vt 0.403571 0.756667
vt 0.596429 0.533333
vt 0.403571 0.716667
vt 0.403571 0.533333
vt 0.868333 0.533333
vt 0.631667 0.716667
vt 0.631667 0.533333
vt 0.596429 0.033333
vt 0.403571 0.216667
vt 0.403571 0.033333
vt 0.596429 0.256667
vt 0.403571 0.493333
vt 0.403571 0.256667
vt 0.131667 0.716667
vt 0.127818 0.750000
vt 0.125000 0.716668
vt 0.387076 1.000000
vt 0.375000 0.993333
vt 0.375000 0.014088
vt 0.403571 0.000000
vt 0.596429 0.993333
vt 0.625000 0.997182
vt 0.596429 1.000000
vt 0.868333 0.716667
vt 0.875000 0.735912
vt 0.868333 0.750000
vt 0.612924 0.000000
vt 0.625000 0.033332
vt 0.131667 0.533333
vt 0.125000 0.514088
vt 0.131667 0.500000
vt 0.387076 0.250000
vt 0.375000 0.216668
vt 0.375000 0.252818
vt 0.403571 0.250000
vt 0.872182 0.500000
vt 0.875000 0.533332
vt 0.612924 0.250000
vt 0.625000 0.256667
vt 0.596429 0.216667
vt 0.625000 0.235912
vt 0.596429 0.250000
vt 0.368333 0.716667
vt 0.379025 0.746243
vt 0.368333 0.750000
vt 0.375000 0.716668
vt 0.403571 0.750000
vt 0.621914 0.745304
vt 0.625000 0.716668
vt 0.625000 0.756667
vt 0.596429 0.716667
vt 0.596429 0.750000
vt 0.368333 0.533333
vt 0.378086 0.504696
vt 0.375000 0.533332
vt 0.375000 0.493333
vt 0.403571 0.500000
vt 0.620975 0.503757
vt 0.631667 0.500000
vt 0.625000 0.533332
vt 0.596429 0.493333
vt 0.596429 0.500000
vt 0.125000 0.533332
vt 0.375000 0.033332
vt 0.403571 1.000000
vt 0.596429 0.000000
vt 0.875000 0.716668
vt 0.625000 0.216668
vt 0.368333 0.500000
vt 0.375000 0.256667
vt 0.868333 0.500000
vt 0.625000 0.493333
vt 0.131667 0.750000
vt 0.375000 0.756667
vt 0.631667 0.750000
vt 0.625000 0.993333
s 1
usemtl Gunmetal
f 37/1/1 2/2/1 31/3/1
f 51/4/2 30/5/2 45/6/2
f 22/7/3 36/8/3 50/9/3
f 10/10/4 16/11/4 3/12/4
f 23/13/5 44/14/5 17/15/5
f 1/16/6 5/17/6 7/18/7
f 2/2/8 5/19/8 4/20/9
f 3/12/10 5/21/10 6/22/11
f 8/23/12 12/24/12 14/25/13
f 9/26/14 12/27/14 11/28/15
f 10/10/16 12/29/16 13/30/17
f 15/31/18 19/32/18 21/33/19
f 16/11/20 19/34/20 18/35/21
f 17/15/22 19/36/22 20/37/23
f 22/7/24 26/38/24 28/39/25
f 23/13/26 26/40/26 25/41/27
f 24/42/28 26/43/28 27/44/29
f 29/45/30 33/46/30 35/47/31
f 30/5/32 33/46/32 32/48/33
f 31/3/34 33/46/34 34/49/35
f 36/8/36 40/50/36 42/51/37
f 37/1/38 40/50/38 39/52/39
f 38/53/40 40/50/40 41/54/41
f 43/55/42 47/56/42 49/57/43
f 44/14/44 47/56/44 46/58/45
f 45/6/46 47/56/46 48/59/47
f 50/9/48 54/60/48 56/61/49
f 51/4/50 54/60/50 53/62/51
f 52/63/52 54/60/52 55/64/53
f 1/16/54 18/65/54 15/31/54
f 7/66/55 16/11/55 18/35/55
f 8/23/56 6/67/56 2/2/56
f 14/68/57 3/12/57 6/22/57
f 22/7/58 13/69/58 9/26/58
f 28/70/59 10/10/59 13/30/59
f 17/15/60 27/44/60 23/13/60
f 20/37/61 24/42/61 27/44/61
f 15/31/62 46/71/62 43/55/62
f 21/72/63 44/14/64 46/58/64
f 50/9/65 25/73/65 22/7/65
f 56/74/66 23/13/67 25/41/67
f 45/6/68 55/64/68 51/4/68
f 48/59/69 52/63/69 55/64/69
f 43/55/70 32/48/70 29/45/70
f 49/57/71 30/5/71 32/48/71
f 36/8/72 53/62/72 50/9/72
f 42/51/73 51/4/73 53/62/73
f 31/3/74 41/54/74 37/1/74
f 34/49/75 38/53/75 41/54/75
f 29/45/76 4/75/76 1/16/76
f 35/76/77 2/2/78 4/20/78
f 9/26/79 39/77/79 36/8/79
f 11/78/80 37/1/81 39/52/81
f 43/55/82 1/16/82 15/31/82
f 37/1/1 8/23/1 2/2/1
f 51/4/2 38/53/2 30/5/2
f 22/7/3 9/26/3 36/8/3
f 10/10/4 24/42/4 16/11/4
f 23/13/5 52/63/5 44/14/5
f 1/16/6 4/75/83 5/17/6
f 2/2/8 6/67/84 5/19/8
f 3/12/10 7/66/85 5/21/10
f 8/23/12 11/78/86 12/24/12
f 9/26/14 13/69/87 12/27/14
f 10/10/16 14/68/88 12/29/16
f 15/31/18 18/65/89 19/32/18
f 16/11/20 20/37/90 19/34/20
f 17/15/22 21/72/91 19/36/22
f 22/7/24 25/73/92 26/38/24
f 23/13/26 27/44/93 26/40/26
f 24/42/28 28/70/94 26/43/28
f 29/45/30 32/48/95 33/46/30
f 30/5/32 34/49/96 33/46/32
f 31/3/34 35/76/97 33/46/34
f 36/8/36 39/77/98 40/50/36
f 37/1/38 41/54/99 40/50/38
f 38/53/40 42/51/100 40/50/40
f 43/55/42 46/71/101 47/56/42
f 44/14/44 48/59/102 47/56/44
f 45/6/46 49/57/103 47/56/46
f 50/9/48 53/62/104 54/60/48
f 51/4/50 55/64/105 54/60/50
f 52/63/52 56/74/106 54/60/52
f 1/16/54 7/18/54 18/65/54
f 7/66/55 3/12/55 16/11/55
f 8/23/56 14/25/56 6/67/56
f 14/68/57 10/10/57 3/12/57
f 22/7/58 28/39/58 13/69/58
f 28/70/59 24/42/59 10/10/59
f 17/15/60 20/37/60 27/44/60
f 20/37/61 16/11/61 24/42/61
f 15/31/62 21/33/62 46/71/62
f 21/72/63 17/15/63 44/14/64
f 50/9/65 56/61/65 25/73/65
f 56/74/66 52/63/66 23/13/67
f 45/6/68 48/59/68 55/64/68
f 48/59/69 44/14/69 52/63/69
f 43/55/70 49/57/70 32/48/70
f 49/57/71 45/6/71 30/5/71
f 36/8/72 42/51/72 53/62/72
f 42/51/73 38/53/73 51/4/73
f 31/3/74 34/49/74 41/54/74
f 34/49/75 30/5/75 38/53/75
f 29/45/76 35/47/76 4/75/76
f 35/76/77 31/3/77 2/2/78
f 9/26/79 11/28/79 39/77/79
f 11/78/80 8/23/80 37/1/81
f 43/55/82 29/45/82 1/16/82
o Pistol_Frame
v -0.122000 -0.030000 -2.980500
v -0.122000 -0.022000 -2.972500
v -0.130000 -0.022000 -2.980500
v -0.122000 -0.027657 -2.974844
v -0.126619 -0.026619 -2.975882
v -0.127657 -0.022000 -2.974844
v -0.127657 -0.027657 -2.980500
v -0.122000 0.022000 -2.972500
v -0.122000 0.030000 -2.980500
v -0.130000 0.022000 -2.980500
v -0.122000 0.027656 -2.974844
v -0.126619 0.026618 -2.975882
v -0.127657 0.027656 -2.980500
v -0.127657 0.022000 -2.974844
v -0.122000 -0.030000 -3.019500
v -0.130000 -0.022000 -3.019500
v -0.122000 -0.022000 -3.027500
v -0.127657 -0.027657 -3.019500
v -0.126619 -0.026619 -3.024118
v -0.127657 -0.022000 -3.025156
v -0.122000 -0.027657 -3.025156
v -0.122000 0.030000 -3.019500
v -0.122000 0.022000 -3.027500
v -0.130000 0.022000 -3.019500
v -0.122000 0.027656 -3.025156
v -0.126619 0.026618 -3.024118
v -0.127657 0.022000 -3.025156
v -0.127657 0.027656 -3.019500
v 0.122000 -0.030000 -2.980500
v 0.130000 -0.022000 -2.980500
v 0.122000 -0.022000 -2.972500
v 0.127657 -0.027657 -2.980500
v 0.126619 -0.026619 -2.975882
v 0.127657 -0.022000 -2.974844
v 0.122000 -0.027657 -2.974844
v 0.122000 0.030000 -2.980500
v 0.122000 0.022000 -2.972500
v 0.130000 0.022000 -2.980500
v 0.122000 0.027656 -2.974844
v 0.126619 0.026618 -2.975882
v 0.127657 0.022000 -2.974844
v 0.127657 0.027656 -2.980500
v 0.122000 -0.030000 -3.019500
v 0.122000 -0.022000 -3.027500
v 0.130000 -0.022000 -3.019500
v 0.122000 -0.027657 -3.025156
v 0.126619 -0.026619 -3.024118
v 0.127657 -0.022000 -3.025156
v 0.127657 -0.027657 -3.019500
v 0.122000 0.030000 -3.019500
v 0.130000 0.022000 -3.019500
v 0.122000 0.022000 -3.027500
v 0.127657 0.027656 -3.019500
v 0.126619 0.026618 -3.024118
v 0.127657 0.022000 -3.025156
v 0.122000 0.027656 -3.025156
vn -0.0000 -0.0000 1.0000
vn 1.0000 -0.0000 -0.0000
vn -0.0000 1.0000 -0.0000
vn -1.0000 -0.0000 -0.0000
vn -0.0000 -0.0000 -1.0000
vn -0.3251 -0.8881 0.3251
vn -0.3672 -0.8864 0.2818
vn -0.3251 -0.3250 0.8881
vn -0.2817 -0.3673 0.8864
vn -0.8881 -0.3251 0.3251
vn -0.8864 -0.2818 0.3672
vn -0.3251 0.3250 0.8881
vn -0.3672 0.2816 0.8865
vn -0.3251 0.8881 0.3251
vn -0.2817 0.8865 0.3672
vn -0.8881 0.3251 0.3251
vn -0.8864 0.3672 0.2818
vn -0.3251 -0.8881 -0.3251
vn -0.2817 -0.8865 -0.3672
vn -0.8881 -0.3251 -0.3251
vn -0.8864 -0.3672 -0.2818
vn -0.3251 -0.3250 -0.8881
vn -0.3672 -0.2817 -0.8865
vn -0.3251 0.8881 -0.3251
vn -0.3672 0.8864 -0.2818
vn -0.3251 0.3250 -0.8881
vn -0.2817 0.3673 -0.8864
vn -0.8881 0.3251 -0.3251
vn -0.8864 0.2818 -0.3672
vn 0.3251 -0.8881 0.3251
vn 0.2817 -0.8865 0.3672
vn 0.8881 -0.3251 0.3251
vn 0.8864 -0.3672 0.2818
vn 0.3251 -0.3250 0.8881
vn 0.3672 -0.2817 0.8865
vn 0.3251 0.8881 0.3251
vn 0.3672 0.8864 0.2818
vn 0.3251 0.3250 0.8881
vn 0.2817 0.3673 0.8864
vn 0.8881 0.3251 0.3251
vn 0.8864 0.2818 0.3672
vn 0.3251 -0.8881 -0.3251
vn 0.3672 -0.8864 -0.2818
vn 0.3251 -0.3250 -0.8881
vn 0.2817 -0.3673 -0.8864
vn 0.8881 -0.3251 -0.3251
vn 0.8864 -0.2818 -0.3672
vn 0.3251 0.8881 -0.3251
vn 0.2817 0.8865 -0.3672
vn 0.8881 0.3251 -0.3251
vn 0.8864 0.3672 -0.2818
vn 0.3251 0.3250 -0.8881
vn 0.3672 0.2817 -0.8865
vn -0.3827 -0.9239 -0.0000
vn -0.9239 -0.3827 -0.0000
vn -0.3827 -0.0000 0.9239
vn -0.9239 -0.0000 0.3827
vn -0.3827 0.9239 -0.0000
vn -0.9239 0.3827 -0.0000
vn -0.3827 -0.0000 -0.9239
vn -0.9239 -0.0000 -0.3827
vn -0.0000 -0.9239 -0.3827
vn -0.0000 -0.3828 -0.9239
vn -0.0000 -0.3827 -0.9239
vn -0.0000 0.9239 -0.3827
vn -0.0000 0.3828 -0.9239
vn -0.0000 0.3827 -0.9239
vn 0.9239 -0.0000 -0.3827
vn 0.3827 -0.0000 -0.9239
vn 0.3827 -0.9239 -0.0000
vn 0.9239 -0.3827 -0.0000
vn 0.3827 0.9239 -0.0000
vn 0.9239 0.3827 -0.0000
vn 0.3827 -0.0000 0.9239
vn 0.9239 -0.0000 0.3827
vn -0.0000 -0.9239 0.3827
vn -0.0000 -0.3828 0.9239
vn -0.0000 -0.3827 0.9239
vn -0.0000 0.9239 0.3827
vn -0.0000 0.3828 0.9239
vn -0.0000 0.3827 0.9239
vn -0.0000 -1.0000 -0.0000
vn -0.2817 -0.8865 0.3672
vn -0.3672 -0.2816 0.8865
vn -0.8864 -0.3672 0.2818
vn -0.2817 0.3673 0.8864
vn -0.3672 0.8864 0.2818
vn -0.8864 0.2818 0.3672
vn -0.3672 -0.8864 -0.2818
vn -0.8864 -0.2818 -0.3672
vn -0.2818 -0.3672 -0.8864
vn -0.2817 0.8865 -0.3672
vn -0.3672 0.2816 -0.8865
vn -0.8864 0.3672 -0.2818
vn 0.3672 -0.8864 0.2818
vn 0.8864 -0.2818 0.3672
vn 0.2818 -0.3672 0.8864
vn 0.2817 0.8865 0.3672
vn 0.3672 0.2816 0.8865
vn 0.8864 0.3672 0.2818
vn 0.2817 -0.8865 -0.3672
vn 0.3672 -0.2816 -0.8865
vn 0.8864 -0.3672 -0.2818
vn 0.3672 0.8864 -0.2818
vn 0.8864 0.2818 -0.3672
vn 0.2818 0.3672 -0.8864
vt 0.591667 0.757692
vt 0.408333 0.992308
vt 0.408333 0.757692
vt 0.591667 0.536363
vt 0.408333 0.713637
vt 0.408333 0.536363
vt 0.867308 0.536363
vt 0.632692 0.713637
vt 0.632692 0.536363
vt 0.591667 0.036363
vt 0.408333 0.213637
vt 0.408333 0.036363
vt 0.591667 0.257692
vt 0.408333 0.492308
vt 0.408333 0.257692
vt 0.132692 0.713637
vt 0.128251 0.750000
vt 0.125000 0.713636
vt 0.389088 1.000000
vt 0.375000 0.992308
vt 0.375000 0.015370
vt 0.408333 0.000000
vt 0.591667 0.992308
vt 0.625000 0.996749
vt 0.591667 1.000000
vt 0.867308 0.713637
vt 0.875000 0.734630
vt 0.867308 0.750000
vt 0.610912 0.000000
vt 0.625000 0.036364
vt 0.132692 0.536363
vt 0.125000 0.515370
vt 0.132692 0.500000
vt 0.389088 0.250000
vt 0.375000 0.213636
vt 0.375000 0.253251
vt 0.408333 0.250000
vt 0.871749 0.500000
vt 0.875000 0.536364
vt 0.610912 0.250000
vt 0.625000 0.257692
vt 0.591667 0.213637
vt 0.625000 0.234630
vt 0.591667 0.250000
vt 0.367308 0.713637
vt 0.379696 0.745960
vt 0.367308 0.750000
vt 0.375000 0.713636
vt 0.408333 0.750000
vt 0.621388 0.744877
vt 0.625000 0.713636
vt 0.625000 0.757692
vt 0.591667 0.713637
vt 0.591667 0.750000
vt 0.367308 0.536363
vt 0.378612 0.505123
vt 0.375000 0.536364
vt 0.375000 0.492308
vt 0.408333 0.500000
vt 0.620304 0.504040
vt 0.632692 0.500000
vt 0.625000 0.536364
vt 0.591667 0.492308
vt 0.591667 0.500000
vt 0.125000 0.536364
vt 0.375000 0.036364
vt 0.408333 1.000000
vt 0.591667 0.000000
vt 0.875000 0.713636
vt 0.625000 0.213636
vt 0.367308 0.500000
vt 0.375000 0.257692
vt 0.867308 0.500000
vt 0.625000 0.492308
vt 0.132692 0.750000
vt 0.375000 0.757692
vt 0.632692 0.750000
vt 0.625000 0.992308
s 1
usemtl Dark
f 93/79/107 58/80/107 87/81/107
f 107/82/108 86/83/108 101/84/108
f 78/85/109 92/86/109 106/87/109
f 66/88/110 72/89/110 59/90/110
f 79/91/111 100/92/111 73/93/111
f 57/94/112 61/95/112 63/96/113
f 58/80/114 61/97/114 60/98/115
f 59/90/116 61/99/116 62/100/117
f 64/101/118 68/102/118 70/103/119
f 65/104/120 68/105/120 67/106/121
f 66/88/122 68/107/122 69/108/123
f 71/109/124 75/110/124 77/111/125
f 72/89/126 75/112/126 74/113/127
f 73/93/128 75/114/128 76/115/129
f 78/85/130 82/116/130 84/117/131
f 79/91/132 82/118/132 81/119/133
f 80/120/134 82/121/134 83/122/135
f 85/123/136 89/124/136 91/125/137
f 86/83/138 89/124/138 88/126/139
f 87/81/140 89/124/140 90/127/141
f 92/86/142 96/128/142 98/129/143
f 93/79/144 96/128/144 95/130/145
f 94/131/146 96/128/146 97/132/147
f 99/133/148 103/134/148 105/135/149
f 100/92/150 103/134/150 102/136/151
f 101/84/152 103/134/152 104/137/153
f 106/87/154 110/138/154 112/139/155
f 107/82/156 110/138/156 109/140/157
f 108/141/158 110/138/158 111/142/159
f 71/109/160 63/96/160 74/143/160
f 63/144/161 72/89/161 74/113/161
f 64/101/162 62/145/162 58/80/162
f 70/146/163 59/90/163 62/100/163
f 78/85/164 69/147/164 65/104/164
f 84/148/165 66/88/165 69/108/165
f 73/93/166 83/122/166 79/91/166
f 76/115/167 80/120/167 83/122/167
f 71/109/168 102/149/168 99/133/168
f 77/150/169 100/92/170 102/136/170
f 106/87/171 81/151/171 78/85/171
f 112/152/172 79/91/173 81/119/173
f 101/84/174 111/142/174 107/82/174
f 104/137/175 108/141/175 111/142/175
f 85/123/176 105/135/176 88/126/176
f 105/135/177 86/83/177 88/126/177
f 106/87/178 98/129/178 109/140/178
f 98/129/179 107/82/179 109/140/179
f 87/81/180 97/132/180 93/79/180
f 90/127/181 94/131/181 97/132/181
f 85/123/182 60/153/182 57/94/182
f 91/154/183 58/80/184 60/98/184
f 65/104/185 95/155/185 92/86/185
f 67/156/186 93/79/187 95/130/187
f 99/133/188 57/94/188 71/109/188
f 93/79/107 64/101/107 58/80/107
f 107/82/108 94/131/108 86/83/108
f 78/85/109 65/104/109 92/86/109
f 66/88/110 80/120/110 72/89/110
f 79/91/111 108/141/111 100/92/111
f 57/94/112 60/153/189 61/95/112
f 58/80/114 62/145/190 61/97/114
f 59/90/116 63/144/191 61/99/116
f 64/101/118 67/156/192 68/102/118
f 65/104/120 69/147/193 68/105/120
f 66/88/122 70/146/194 68/107/122
f 71/109/124 74/143/195 75/110/124
f 72/89/126 76/115/196 75/112/126
f 73/93/128 77/150/197 75/114/128
f 78/85/130 81/151/198 82/116/130
f 79/91/132 83/122/199 82/118/132
f 80/120/134 84/148/200 82/121/134
f 85/123/136 88/126/201 89/124/136
f 86/83/138 90/127/202 89/124/138
f 87/81/140 91/154/203 89/124/140
f 92/86/142 95/155/204 96/128/142
f 93/79/144 97/132/205 96/128/144
f 94/131/146 98/129/206 96/128/146
f 99/133/148 102/149/207 103/134/148
f 100/92/150 104/137/208 103/134/150
f 101/84/152 105/135/209 103/134/152
f 106/87/154 109/140/210 110/138/154
f 107/82/156 111/142/211 110/138/156
f 108/141/158 112/152/212 110/138/158
f 71/109/160 57/94/160 63/96/160
f 63/144/161 59/90/161 72/89/161
f 64/101/162 70/103/162 62/145/162
f 70/146/163 66/88/163 59/90/163
f 78/85/164 84/117/164 69/147/164
f 84/148/165 80/120/165 66/88/165
f 73/93/166 76/115/166 83/122/166
f 76/115/167 72/89/167 80/120/167
f 71/109/168 77/111/168 102/149/168
f 77/150/169 73/93/169 100/92/170
f 106/87/171 112/139/171 81/151/171
f 112/152/172 108/141/172 79/91/173
f 101/84/174 104/137/174 111/142/174
f 104/137/175 100/92/175 108/141/175
f 85/123/176 99/133/176 105/135/176
f 105/135/177 101/84/177 86/83/177
f 106/87/178 92/86/178 98/129/178
f 98/129/179 94/131/179 107/82/179
f 87/81/180 90/127/180 97/132/180
f 90/127/181 86/83/181 94/131/181
f 85/123/182 91/125/182 60/153/182
f 91/154/183 87/81/183 58/80/184
f 65/104/185 67/106/185 95/155/185
f 67/156/186 64/101/186 93/79/187
f 99/133/188 85/123/188 57/94/188
o Pistol_GripPanel
v 0.036716 -0.151839 -2.970000
v 0.064500 0.005730 -2.970000
v 0.036716 -0.151839 -3.030000
v 0.064500 0.005730 -3.030000
v 0.115500 -0.165731 -2.970000
v 0.143284 -0.008162 -2.970000
v 0.115500 -0.165731 -3.030000
v 0.143284 -0.008162 -3.030000
vn -0.9848 0.1736 -0.0000
vn -0.0000 -0.0000 -1.0000
vn 0.9848 -0.1736 -0.0000
vn -0.0000 -0.0000 1.0000
vn -0.1736 -0.9848 -0.0000
vn 0.1736 0.9848 -0.0000
vt 0.625000 0.000000
vt 0.375000 0.250000
vt 0.375000 0.000000
vt 0.625000 0.250000
vt 0.375000 0.500000
vt 0.625000 0.500000
vt 0.375000 0.750000
vt 0.625000 0.750000
vt 0.375000 1.000000
vt 0.125000 0.750000
vt 0.125000 0.500000
vt 0.875000 0.500000
vt 0.625000 1.000000
vt 0.875000 0.750000
s 1
usemtl Olive
f 114/157/213 115/158/213 113/159/213
f 116/160/214 119/161/214 115/158/214
f 120/162/215 117/163/215 119/161/215
f 118/164/216 113/165/216 117/163/216
f 119/161/217 113/166/217 115/167/217
f 116/168/218 118/164/218 120/162/218
f 114/157/213 116/160/213 115/158/213
f 116/160/214 120/162/214 119/161/214
f 120/162/215 118/164/215 117/163/215
f 118/164/216 114/169/216 113/165/216
f 119/161/217 117/163/217 113/166/217
f 116/168/218 114/170/218 118/164/218
o Pistol_Muzzle
v -0.190000 0.060000 -3.020000
v -0.150000 0.060000 -3.020000
v -0.190000 0.050000 -3.017320
v -0.150000 0.050000 -3.017320
v -0.190000 0.042679 -3.010000
v -0.150000 0.042679 -3.010000
v -0.190000 0.040000 -3.000000
v -0.150000 0.040000 -3.000000
v -0.190000 0.042679 -2.990000
v -0.150000 0.042679 -2.990000
v -0.190000 0.050000 -2.982680
v -0.150000 0.050000 -2.982680
v -0.190000 0.060000 -2.980000
v -0.150000 0.060000 -2.980000
v -0.190000 0.070000 -2.982680
v -0.150000 0.070000 -2.982680
v -0.190000 0.077321 -2.990000
v -0.150000 0.077321 -2.990000
v -0.190000 0.080000 -3.000000
v -0.150000 0.080000 -3.000000
v -0.190000 0.077321 -3.010000
v -0.150000 0.077321 -3.010000
v -0.190000 0.070000 -3.017320
v -0.150000 0.070000 -3.017320
vn -0.0000 -0.2588 -0.9659
vn -0.0000 -0.7071 -0.7071
vn -0.0000 -0.9659 -0.2588
vn -0.0000 -0.9659 0.2588
vn -0.0000 -0.7071 0.7071
vn -0.0000 -0.2588 0.9659
vn -0.0000 0.2588 0.9659
vn -0.0000 0.7071 0.7071
vn -0.0000 0.9659 0.2588
vn -0.0000 0.9659 -0.2588
vn 1.0000 -0.0000 -0.0000
vn -0.0000 0.7071 -0.7071
vn -0.0000 0.2588 -0.9659
vn -1.0000 -0.0000 -0.0000
vt 1.000000 1.000000
vt 0.916667 0.500000
vt 1.000000 0.500000
vt 0.916667 1.000000
vt 0.833333 0.500000
vt 0.833333 1.000000
vt 0.750000 0.500000
vt 0.750000 1.000000
vt 0.666667 0.500000
vt 0.666667 1.000000
vt 0.583333 0.500000
vt 0.583333 1.000000
vt 0.500000 0.500000
vt 0.500000 1.000000
vt 0.416667 0.500000
vt 0.416667 1.000000
vt 0.333333 0.500000
vt 0.333333 1.000000
vt 0.250000 0.500000
vt 0.250000 1.000000
vt 0.166667 0.500000
vt 0.042154 0.370000
vt 0.250000 0.010000
vt 0.457846 0.370000
vt 0.166667 1.000000
vt 0.083333 0.500000
vt 0.083333 1.000000
vt 0.000000 0.500000
vt 0.990000 0.250000
vt 0.630000 0.042154
vt 0.630000 0.457846
vt 0.370000 0.457846
vt 0.250000 0.490000
vt 0.130000 0.457846
vt 0.010000 0.250000
vt 0.042154 0.130000
vt 0.130000 0.042154
vt 0.370000 0.042154
vt 0.457846 0.130000
vt 0.490000 0.250000
vt 0.000000 1.000000
vt 0.750000 0.490000
vt 0.870000 0.457846
vt 0.957846 0.370000
vt 0.957846 0.130000
vt 0.870000 0.042154
vt 0.750000 0.010000
vt 0.542154 0.130000
vt 0.510000 0.250000
vt 0.542154 0.370000
s 1
usemtl Dark
f 122/171/219 123/172/219 121/173/219
f 124/174/220 125/175/220 123/172/220
f 126/176/221 127/177/221 125/175/221
f 128/178/222 129/179/222 127/177/222
f 130/180/223 131/181/223 129/179/223
f 132/182/224 133/183/224 131/181/224
f 134/184/225 135/185/225 133/183/225
f 136/186/226 137/187/226 135/185/226
f 138/188/227 139/189/227 137/187/227
f 140/190/228 141/191/228 139/189/228
f 142/192/229 134/193/229 126/194/229
f 142/195/230 143/196/230 141/191/230
f 144/197/231 121/198/231 143/196/231
f 127/199/232 135/200/232 143/201/232
f 122/171/219 124/174/219 123/172/219
f 124/174/220 126/176/220 125/175/220
f 126/176/221 128/178/221 127/177/221
f 128/178/222 130/180/222 129/179/222
f 130/180/223 132/182/223 131/181/223
f 132/182/224 134/184/224 133/183/224
f 134/184/225 136/186/225 135/185/225
f 136/186/226 138/188/226 137/187/226
f 138/188/227 140/190/227 139/189/227
f 140/190/228 142/195/228 141/191/228
f 126/194/229 124/202/229 122/203/229
f 122/203/229 144/204/229 142/192/229
f 142/192/229 140/205/229 138/206/229
f 138/206/229 136/207/229 134/193/229
f 134/193/229 132/208/229 130/209/229
f 130/209/229 128/210/229 126/194/229
f 126/194/229 122/203/229 142/192/229
f 142/192/229 138/206/229 134/193/229
f 134/193/229 130/209/229 126/194/229
f 142/195/230 144/197/230 143/196/230
f 144/197/231 122/211/231 121/198/231
f 143/201/232 121/212/232 123/213/232
f 123/213/232 125/214/232 127/199/232
f 127/199/232 129/215/232 131/216/232
f 131/216/232 133/217/232 135/200/232
f 135/200/232 137/218/232 139/219/232
f 139/219/232 141/220/232 143/201/232
f 143/201/232 123/213/232 127/199/232
f 127/199/232 131/216/232 135/200/232
f 135/200/232 139/219/232 143/201/232
o Pistol_Magazine
v 0.036564 -0.163574 -2.975000
v 0.064348 -0.006005 -2.975000
v 0.036564 -0.163574 -3.025000
v 0.064348 -0.006005 -3.025000
v 0.095652 -0.173993 -2.975000
v 0.123436 -0.016424 -2.975000
v 0.095652 -0.173993 -3.025000
v 0.123436 -0.016424 -3.025000
vn -0.9848 0.1736 -0.0000
vn -0.0000 -0.0000 -1.0000
vn 0.9848 -0.1736 -0.0000
vn -0.0000 -0.0000 1.0000
vn -0.1736 -0.9848 -0.0000
vn 0.1736 0.9848 -0.0000
vt 0.625000 0.000000
vt 0.375000 0.250000
vt 0.375000 0.000000
vt 0.625000 0.250000
vt 0.375000 0.500000
vt 0.625000 0.500000
vt 0.375000 0.750000
vt 0.625000 1.000000
vt 0.375000 1.000000
vt 0.125000 0.750000
vt 0.125000 0.500000
vt 0.875000 0.500000
vt 0.625000 0.750000
vt 0.875000 0.750000
s 1
usemtl Gunmetal
f 146/221/233 147/222/233 145/223/233
f 148/224/234 151/225/234 147/222/234
f 152/226/235 149/227/235 151/225/235
f 149/227/236 146/228/236 145/229/236
f 151/225/237 145/230/237 147/231/237
f 148/232/238 150/233/238 152/226/238
f 146/221/233 148/224/233 147/222/233
f 148/224/234 152/226/234 151/225/234
f 152/226/235 150/233/235 149/227/235
f 149/227/236 150/233/236 146/228/236
f 151/225/237 149/227/237 145/230/237
f 148/232/238 146/234/238 150/233/238
o Pistol_Hammer
v 0.139999 0.035000 -2.980000
v 0.139999 0.085000 -2.980000
v 0.139999 0.035000 -3.020000
v 0.139999 0.085000 -3.020000
v 0.159999 0.035000 -2.980000
v 0.159999 0.085000 -2.980000
v 0.159999 0.035000 -3.020000
v 0.159999 0.085000 -3.020000
vn -1.0000 -0.0000 -0.0000
vn -0.0000 -0.0000 -1.0000
vn 1.0000 -0.0000 -0.0000
vn -0.0000 -0.0000 1.0000
vn -0.0000 -1.0000 -0.0000
vn -0.0000 1.0000 -0.0000
vt 0.625000 0.000000
vt 0.375000 0.250000
vt 0.375000 0.000000
vt 0.625000 0.250000
vt 0.375000 0.500000
vt 0.625000 0.500000
vt 0.375000 0.750000
vt 0.625000 0.750000
vt 0.375000 1.000000
vt 0.125000 0.750000
vt 0.125000 0.500000
vt 0.875000 0.500000
vt 0.625000 1.000000
vt 0.875000 0.750000
s 1
usemtl Dark
f 154/235/239 155/236/239 153/237/239
f 156/238/240 159/239/240 155/236/240
f 160/240/241 157/241/241 159/239/241
f 158/242/242 153/243/242 157/241/242
f 159/239/243 153/244/243 155/245/243
f 156/246/244 158/242/244 160/240/244
f 154/235/239 156/238/239 155/236/239
f 156/238/240 160/240/240 159/239/240
f 160/240/241 158/242/241 157/241/241
f 158/242/242 154/247/242 153/243/242
f 159/239/243 157/241/243 153/244/243
f 156/246/244 154/248/244 158/242/244
