# Blender 5.2.0 LTS
# www.blender.org
mtllib RPG.mtl
o RPG_Tube
v -0.750000 0.120000 -12.045000
v 0.750000 0.120000 -12.045000
v -0.750000 0.097500 -12.038971
v 0.750000 0.097500 -12.038971
v -0.750000 0.081029 -12.022500
v 0.750000 0.081029 -12.022500
v -0.750000 0.075000 -12.000000
v 0.750000 0.075000 -12.000000
v -0.750000 0.081029 -11.977500
v 0.750000 0.081029 -11.977500
v -0.750000 0.097500 -11.961029
v 0.750000 0.097500 -11.961029
v -0.750000 0.120000 -11.955000
v 0.750000 0.120000 -11.955000
v -0.750000 0.142500 -11.961029
v 0.750000 0.142500 -11.961029
v -0.750000 0.158971 -11.977500
v 0.750000 0.158971 -11.977500
v -0.750000 0.165000 -12.000000
v 0.750000 0.165000 -12.000000
v -0.750000 0.158971 -12.022500
v 0.750000 0.158971 -12.022500
v -0.750000 0.142500 -12.038971
v 0.750000 0.142500 -12.038971
vn -0.0000 -0.2588 -0.9659
vn -0.0000 -0.7071 -0.7071
vn -0.0000 -0.9659 -0.2588
vn -0.0000 -0.9659 0.2588
vn -0.0000 -0.7071 0.7071
vn -0.0000 -0.2588 0.9659
vn -0.0000 0.2588 0.9659
vn -0.0000 0.7071 0.7071
vn -0.0000 0.9659 0.2588
vn -0.0000 0.9659 -0.2588
vn 1.0000 -0.0000 -0.0000
vn -0.0000 0.7071 -0.7071
vn -0.0000 0.2588 -0.9659
vn -1.0000 -0.0000 -0.0000
vt 1.000000 1.000000
vt 0.916667 0.500000
vt 1.000000 0.500000
vt 0.916667 1.000000
vt 0.833333 0.500000
vt 0.833333 1.000000
vt 0.750000 0.500000
vt 0.750000 1.000000
vt 0.666667 0.500000
vt 0.666667 1.000000
vt 0.583333 0.500000
vt 0.583333 1.000000
vt 0.500000 0.500000
vt 0.500000 1.000000
vt 0.416667 0.500000
vt 0.416667 1.000000
vt 0.333333 0.500000
vt 0.333333 1.000000
vt 0.250000 0.500000
vt 0.250000 1.000000
vt 0.166667 0.500000
vt 0.042154 0.370000
vt 0.250000 0.010000
vt 0.457846 0.370000
vt 0.166667 1.000000
vt 0.083333 0.500000
vt 0.083333 1.000000
vt 0.000000 0.500000
vt 0.990000 0.250000
vt 0.630000 0.042154
vt 0.630000 0.457846
vt 0.370000 0.457846
vt 0.250000 0.490000
vt 0.130000 0.457846
vt 0.010000 0.250000
vt 0.042154 0.130000
vt 0.130000 0.042154
vt 0.370000 0.042154
vt 0.457846 0.130000
vt 0.490000 0.250000
vt 0.000000 1.000000
vt 0.750000 0.490000
vt 0.870000 0.457846
vt 0.957846 0.370000
vt 0.957846 0.130000
vt 0.870000 0.042154
vt 0.750000 0.010000
vt 0.542154 0.130000
vt 0.510000 0.250000
vt 0.542154 0.370000
s 1
usemtl Olive
f 2/1/1 3/2/1 1/3/1
f 4/4/2 5/5/2 3/2/2
f 6/6/3 7/7/3 5/5/3
f 8/8/4 9/9/4 7/7/4
f 10/10/5 11/11/5 9/9/5
f 12/12/6 13/13/6 11/11/6
f 14/14/7 15/15/7 13/13/7
f 16/16/8 17/17/8 15/15/8
f 18/18/9 19/19/9 17/17/9
f 20/20/10 21/21/10 19/19/10
f 22/22/11 14/23/11 6/24/11
f 22/25/12 23/26/12 21/21/12
f 24/27/13 1/28/13 23/26/13
f 7/29/14 15/30/14 23/31/14
f 2/1/1 4/4/1 3/2/1
f 4/4/2 6/6/2 5/5/2
f 6/6/3 8/8/3 7/7/3
f 8/8/4 10/10/4 9/9/4
f 10/10/5 12/12/5 11/11/5
f 12/12/6 14/14/6 13/13/6
f 14/14/7 16/16/7 15/15/7
f 16/16/8 18/18/8 17/17/8
f 18/18/9 20/20/9 19/19/9
f 20/20/10 22/25/10 21/21/10
f 6/24/11 4/32/11 2/33/11
f 2/33/11 24/34/11 22/22/11
f 22/22/11 20/35/11 18/36/11
f 18/36/11 16/37/11 14/23/11
f 14/23/11 12/38/11 10/39/11
f 10/39/11 8/40/11 6/24/11
f 6/24/11 2/33/11 22/22/11
f 22/22/11 18/36/11 14/23/11
f 14/23/11 10/39/11 6/24/11
f 22/25/12 24/27/12 23/26/12
f 24/27/13 2/41/13 1/28/13
f 23/31/14 1/42/14 3/43/14
f 3/43/14 5/44/14 7/29/14
f 7/29/14 9/45/14 11/46/14
f 11/46/14 13/47/14 15/30/14
f 15/30/14 17/48/14 19/49/14
f 19/49/14 21/50/14 23/31/14
f 23/31/14 3/43/14 7/29/14
f 7/29/14 11/46/14 15/30/14
f 15/30/14 19/49/14 23/31/14
o RPG_RearCone
v 0.910000 0.120000 -12.090000
v 0.730000 0.120000 -12.045000
v 0.910000 0.165000 -12.077942
v 0.730000 0.142500 -12.038971
v 0.910000 0.197942 -12.045000
v 0.730000 0.158971 -12.022500
v 0.910000 0.210000 -12.000000
v 0.730000 0.165000 -12.000000
v 0.910000 0.197942 -11.955000
v 0.730000 0.158971 -11.977500
v 0.910000 0.165000 -11.922058
v 0.730000 0.142500 -11.961029
v 0.910000 0.120000 -11.910000
v 0.730000 0.120000 -11.955000
v 0.910000 0.075000 -11.922058
v 0.730000 0.097500 -11.961029
v 0.910000 0.042058 -11.955000
v 0.730000 0.081029 -11.977500
v 0.910000 0.030000 -12.000000
v 0.730000 0.075000 -12.000000
v 0.910000 0.042058 -12.045000
v 0.730000 0.081029 -12.022500
v 0.910000 0.075000 -12.077942
v 0.730000 0.097500 -12.038971
vn -0.2347 0.2516 -0.9389
vn -0.2347 0.6873 -0.6874
vn -0.2347 0.6873 -0.6873
vn -0.2347 0.9389 -0.2516
vn -0.2347 0.9389 0.2516
vn -0.2347 0.6873 0.6873
vn -0.2347 0.6873 0.6874
vn -0.2347 0.2516 0.9389
vn -0.2347 -0.2516 0.9389
vn -0.2347 -0.6873 0.6874
vn -0.2347 -0.6873 0.6873
vn -0.2347 -0.9389 0.2516
vn -0.2347 -0.9389 -0.2516
vn -1.0000 -0.0000 -0.0000
vn -0.2347 -0.6873 -0.6873
vn -0.2347 -0.2516 -0.9389
vn 1.0000 -0.0000 -0.0000
vt 1.000000 1.000000
vt 0.916667 0.500000
vt 1.000000 0.500000
vt 0.916667 1.000000
vt 0.833333 0.500000
vt 0.833333 1.000000
vt 0.750000 0.500000
vt 0.750000 1.000000
vt 0.666667 0.500000
vt 0.666667 1.000000
vt 0.583333 0.500000
vt 0.583333 1.000000
vt 0.500000 0.500000
vt 0.500000 1.000000
vt 0.416667 0.500000
vt 0.416667 1.000000
vt 0.333333 0.500000
vt 0.333333 1.000000
vt 0.250000 0.500000
vt 0.250000 1.000000
vt 0.166667 0.500000
vt 0.042154 0.370000
vt 0.250000 0.010000
vt 0.457846 0.370000
vt 0.166667 1.000000
vt 0.083333 0.500000
vt 0.083333 1.000000
vt 0.000000 0.500000
vt 0.990000 0.250000
vt 0.630000 0.042154
vt 0.630000 0.457846
vt 0.370000 0.457846
vt 0.250000 0.490000
vt 0.130000 0.457846
vt 0.010000 0.250000
vt 0.042154 0.130000
vt 0.130000 0.042154
vt 0.370000 0.042154
vt 0.457846 0.130000
vt 0.490000 0.250000
vt 0.000000 1.000000
vt 0.750000 0.490000
vt 0.870000 0.457846
vt 0.957846 0.370000
vt 0.957846 0.130000
vt 0.870000 0.042154
vt 0.750000 0.010000
vt 0.542154 0.130000
vt 0.510000 0.250000
vt 0.542154 0.370000
s 1
usemtl Dark
f 26/51/15 27/52/15 25/53/15
f 28/54/16 29/55/17 27/52/17
f 30/56/18 31/57/18 29/55/18
f 32/58/19 33/59/19 31/57/19
f 34/60/20 35/61/20 33/59/21
f 36/62/22 37/63/22 35/61/22
f 38/64/23 39/65/23 37/63/23
f 40/66/24 41/67/25 39/65/25
f 42/68/26 43/69/26 41/67/26
f 44/70/27 45/71/27 43/69/27
f 46/72/28 38/73/28 30/74/28
f 46/75/29 47/76/29 45/71/29
f 48/77/30 25/78/30 47/76/30
f 31/79/31 39/80/31 47/81/31
f 26/51/15 28/54/15 27/52/15
f 28/54/16 30/56/16 29/55/17
f 30/56/18 32/58/18 31/57/18
f 32/58/19 34/60/19 33/59/19
f 34/60/20 36/62/20 35/61/20
f 36/62/22 38/64/22 37/63/22
f 38/64/23 40/66/23 39/65/23
f 40/66/24 42/68/24 41/67/25
f 42/68/26 44/70/26 43/69/26
f 44/70/27 46/75/27 45/71/27
f 30/74/28 28/82/28 26/83/28
f 26/83/28 48/84/28 46/72/28
f 46/72/28 44/85/28 42/86/28
f 42/86/28 40/87/28 38/73/28
f 38/73/28 36/88/28 34/89/28
f 34/89/28 32/90/28 30/74/28
f 30/74/28 26/83/28 46/72/28
f 46/72/28 42/86/28 38/73/28
f 38/73/28 34/89/28 30/74/28
f 46/75/29 48/77/29 47/76/29
f 48/77/30 26/91/30 25/78/30
f 47/81/31 25/92/31 27/93/31
f 27/93/31 29/94/31 31/79/31
f 31/79/31 33/95/31 35/96/31
f 35/96/31 37/97/31 39/80/31
f 39/80/31 41/98/31 43/99/31
f 43/99/31 45/100/31 47/81/31
f 47/81/31 27/93/31 31/79/31
f 31/79/31 35/96/31 39/80/31
f 39/80/31 43/99/31 47/81/31
o RPG_Grip
v 0.065000 -0.120002 -11.965000
v 0.065000 0.079998 -11.965000
v 0.065000 -0.120002 -12.035000
v 0.065000 0.079998 -12.035000
v 0.135000 -0.120002 -11.965000
v 0.135000 0.079998 -11.965000
v 0.135000 -0.120002 -12.035000
v 0.135000 0.079998 -12.035000
vn -1.0000 -0.0000 -0.0000
vn -0.0000 -0.0000 -1.0000
vn 1.0000 -0.0000 -0.0000
vn -0.0000 -0.0000 1.0000
vn -0.0000 -1.0000 -0.0000
vn -0.0000 1.0000 -0.0000
vt 0.625000 0.000000
vt 0.375000 0.250000
vt 0.375000 0.000000
vt 0.625000 0.250000
vt 0.375000 0.500000
vt 0.625000 0.500000
vt 0.375000 0.750000
vt 0.625000 0.750000
vt 0.375000 1.000000
vt 0.125000 0.750000
vt 0.125000 0.500000
vt 0.875000 0.500000
vt 0.625000 1.000000
vt 0.875000 0.750000
s 1
usemtl Dark
f 50/101/32 51/102/32 49/103/32
f 52/104/33 55/105/33 51/102/33
f 56/106/34 53/107/34 55/105/34
f 54/108/35 49/109/35 53/107/35
f 55/105/36 49/110/36 51/111/36
f 52/112/37 54/108/37 56/106/37
f 50/101/32 52/104/32 51/102/32
f 52/104/33 56/106/33 55/105/33
f 56/106/34 54/108/34 53/107/34
f 54/108/35 50/113/35 49/109/35
f 55/105/36 53/107/36 49/110/36
f 52/112/37 50/114/37 54/108/37
o RPG_Trigger
v -0.005000 -0.010002 -11.985000
v -0.005000 0.049998 -11.985000
v -0.005000 -0.010002 -12.015000
v -0.005000 0.049998 -12.015000
v 0.045000 -0.010002 -11.985000
v 0.045000 0.049998 -11.985000
v 0.045000 -0.010002 -12.015000
v 0.045000 0.049998 -12.015000
vn -1.0000 -0.0000 -0.0000
vn -0.0000 -0.0000 -1.0000
vn 1.0000 -0.0000 -0.0000
vn -0.0000 -0.0000 1.0000
vn -0.0000 -1.0000 -0.0000
vn -0.0000 1.0000 -0.0000
vt 0.625000 0.000000
vt 0.375000 0.250000
vt 0.375000 0.000000
vt 0.625000 0.250000
vt 0.375000 0.500000
vt 0.625000 0.500000
vt 0.375000 0.750000
vt 0.625000 0.750000
vt 0.375000 1.000000
vt 0.125000 0.750000
vt 0.125000 0.500000
vt 0.875000 0.500000
vt 0.625000 1.000000
vt 0.875000 0.750000
s 1
usemtl Dark
f 58/115/38 59/116/38 57/117/38
f 60/118/39 63/119/39 59/116/39
f 64/120/40 61/121/40 63/119/40
f 62/122/41 57/123/41 61/121/41
f 63/119/42 57/124/42 59/125/42
f 60/126/43 62/122/43 64/120/43
f 58/115/38 60/118/38 59/116/38
f 60/118/39 64/120/39 63/119/39
f 64/120/40 62/122/40 61/121/40
f 62/122/41 58/127/41 57/123/41
f 63/119/42 61/121/42 57/124/42
f 60/126/43 58/128/43 62/122/43
o RPG_Sight
v -0.175000 0.159998 -11.985000
v -0.175000 0.279998 -11.985000
v -0.175000 0.159998 -12.015000
v -0.175000 0.279998 -12.015000
v -0.125000 0.159998 -11.985000
v -0.125000 0.279998 -11.985000
v -0.125000 0.159998 -12.015000
v -0.125000 0.279998 -12.015000
vn -1.0000 -0.0000 -0.0000
vn -0.0000 -0.0000 -1.0000
vn 1.0000 -0.0000 -0.0000
vn -0.0000 -0.0000 1.0000
vn -0.0000 -1.0000 -0.0000
vn -0.0000 1.0000 -0.0000
vt 0.625000 0.000000
vt 0.375000 0.250000
vt 0.375000 0.000000
vt 0.625000 0.250000
vt 0.375000 0.500000
vt 0.625000 0.500000
vt 0.375000 0.750000
vt 0.625000 0.750000
vt 0.375000 1.000000
vt 0.125000 0.750000
vt 0.125000 0.500000
vt 0.875000 0.500000
vt 0.625000 1.000000
vt 0.875000 0.750000
s 1
usemtl Dark
f 66/129/44 67/130/44 65/131/44
f 68/132/45 71/133/45 67/130/45
f 72/134/46 69/135/46 71/133/46
f 70/136/47 65/137/47 69/135/47
f 71/133/48 65/138/48 67/139/48
f 68/140/49 70/136/49 72/134/49
f 66/129/44 68/132/44 67/130/44
f 68/132/45 72/134/45 71/133/45
f 72/134/46 70/136/46 69/135/46
f 70/136/47 66/141/47 65/137/47
f 71/133/48 69/135/48 65/138/48
f 68/140/49 66/142/49 70/136/49
o RPG_Warhead
v -0.730000 0.120000 -12.045000
v -1.070000 0.120000 -12.100000
v -0.730000 0.142500 -12.038971
v -1.070000 0.170000 -12.086602
v -0.730000 0.158971 -12.022500
v -1.070000 0.206602 -12.050000
v -0.730000 0.165000 -12.000000
v -1.070000 0.220000 -12.000000
v -0.730000 0.158971 -11.977500
v -1.070000 0.206602 -11.950000
v -0.730000 0.142500 -11.961029
v -1.070000 0.170000 -11.913398
v -0.730000 0.120000 -11.955000
v -1.070000 0.120000 -11.900000
v -0.730000 0.097500 -11.961029
v -1.070000 0.070000 -11.913398
v -0.730000 0.081029 -11.977500
v -1.070000 0.033397 -11.950000
v -0.730000 0.075000 -12.000000
v -1.070000 0.020000 -12.000000
v -0.730000 0.081029 -12.022500
v -1.070000 0.033397 -12.050000
v -0.730000 0.097500 -12.038971
v -1.070000 0.070000 -12.086602
vn 0.1544 0.2557 -0.9543
vn 0.1544 0.6986 -0.6986
vn 0.1544 0.9543 -0.2557
vn 0.1544 0.9543 0.2557
vn 0.1544 0.6986 0.6986
vn 0.1544 0.2557 0.9543
vn 0.1544 -0.2557 0.9543
vn 0.1544 -0.6986 0.6986
vn 0.1544 -0.9543 0.2557
vn 0.1544 -0.9543 -0.2557
vn -1.0000 -0.0000 -0.0000
vn 0.1544 -0.6986 -0.6986
vn 0.1544 -0.2557 -0.9543
vn 1.0000 -0.0000 -0.0000
vt 1.000000 0.500000
vt 0.916667 1.000000
vt 0.916667 0.500000
vt 0.833333 1.000000
vt 0.833333 0.500000
vt 0.750000 1.000000
vt 0.750000 0.500000
vt 0.666667 1.000000
vt 0.666667 0.500000
vt 0.583333 1.000000
vt 0.583333 0.500000
vt 0.500000 1.000000
vt 0.500000 0.500000
vt 0.416667 1.000000
vt 0.416667 0.500000
vt 0.333333 1.000000
vt 0.333333 0.500000
vt 0.250000 1.000000
vt 0.250000 0.500000
vt 0.166667 1.000000
vt 0.166667 0.500000
vt 0.042154 0.370000
vt 0.250000 0.010000
vt 0.457846 0.370000
vt 0.083333 1.000000
vt 0.083333 0.500000
vt 0.000000 1.000000
vt 0.000000 0.500000
vt 0.990000 0.250000
vt 0.630000 0.042154
vt 0.630000 0.457846
vt 1.000000 1.000000
vt 0.370000 0.457846
vt 0.250000 0.490000
vt 0.130000 0.457846
vt 0.010000 0.250000
vt 0.042154 0.130000
vt 0.130000 0.042154
vt 0.370000 0.042154
vt 0.457846 0.130000
vt 0.490000 0.250000
vt 0.750000 0.490000
vt 0.870000 0.457846
vt 0.957846 0.370000
vt 0.957846 0.130000
vt 0.870000 0.042154
vt 0.750000 0.010000
vt 0.542154 0.130000
vt 0.510000 0.250000
vt 0.542154 0.370000
s 1
usemtl Tan
f 73/143/50 76/144/50 75/145/50
f 75/145/51 78/146/51 77/147/51
f 77/147/52 80/148/52 79/149/52
f 79/149/53 82/150/53 81/151/53
f 81/151/54 84/152/54 83/153/54
f 83/153/55 86/154/55 85/155/55
f 85/155/56 88/156/56 87/157/56
f 87/157/57 90/158/57 89/159/57
f 89/159/58 92/160/58 91/161/58
f 91/161/59 94/162/59 93/163/59
f 94/164/60 86/165/60 78/166/60
f 93/163/61 96/167/61 95/168/61
f 95/168/62 74/169/62 73/170/62
f 79/171/63 87/172/63 95/173/63
f 73/143/50 74/174/50 76/144/50
f 75/145/51 76/144/51 78/146/51
f 77/147/52 78/146/52 80/148/52
f 79/149/53 80/148/53 82/150/53
f 81/151/54 82/150/54 84/152/54
f 83/153/55 84/152/55 86/154/55
f 85/155/56 86/154/56 88/156/56
f 87/157/57 88/156/57 90/158/57
f 89/159/58 90/158/58 92/160/58
f 91/161/59 92/160/59 94/162/59
f 78/166/60 76/175/60 74/176/60
f 74/176/60 96/177/60 94/164/60
f 94/164/60 92/178/60 90/179/60
f 90/179/60 88/180/60 86/165/60
f 86/165/60 84/181/60 82/182/60
f 82/182/60 80/183/60 78/166/60
f 78/166/60 74/176/60 94/164/60
f 94/164/60 90/179/60 86/165/60
f 86/165/60 82/182/60 78/166/60
f 93/163/61 94/162/61 96/167/61
f 95/168/62 96/167/62 74/169/62
f 95/173/63 73/184/63 75/185/63
f 75/185/63 77/186/63 79/171/63
f 79/171/63 81/187/63 83/188/63
f 83/188/63 85/189/63 87/172/63
f 87/172/63 89/190/63 91/191/63
f 91/191/63 93/192/63 95/173/63
f 95/173/63 75/185/63 79/171/63
f 79/171/63 83/188/63 87/172/63
f 87/172/63 91/191/63 95/173/63
o RPG_SafetyPin
v -0.615003 0.090000 -11.985000
v -0.615003 0.150000 -11.985000
v -0.615003 0.090000 -12.015000
v -0.615003 0.150000 -12.015000
v -0.585003 0.090000 -11.985000
v -0.585003 0.150000 -11.985000
v -0.585003 0.090000 -12.015000
v -0.585003 0.150000 -12.015000
vn -1.0000 -0.0000 -0.0000
vn -0.0000 -0.0000 -1.0000
vn 1.0000 -0.0000 -0.0000
vn -0.0000 -0.0000 1.0000
vn -0.0000 -1.0000 -0.0000
vn -0.0000 1.0000 -0.0000
vt 0.625000 0.000000
vt 0.375000 0.250000
vt 0.375000 0.000000
vt 0.625000 0.250000
vt 0.375000 0.500000
vt 0.625000 0.500000
vt 0.375000 0.750000
vt 0.625000 0.750000
vt 0.375000 1.000000
vt 0.125000 0.750000
vt 0.125000 0.500000
vt 0.875000 0.500000
vt 0.625000 1.000000
vt 0.875000 0.750000
s 1
usemtl SignalRed
f 98/193/64 99/194/64 97/195/64
f 100/196/65 103/197/65 99/194/65
f 104/198/66 101/199/66 103/197/66
f 102/200/67 97/201/67 101/199/67
f 103/197/68 97/202/68 99/203/68
f 100/204/69 102/200/69 104/198/69
f 98/193/64 100/196/64 99/194/64
f 100/196/65 104/198/65 103/197/65
f 104/198/66 102/200/66 101/199/66
f 102/200/67 98/205/67 97/201/67
f 103/197/68 101/199/68 97/202/68
f 100/204/69 98/206/69 102/200/69
