# Blender 5.2.0 LTS
# www.blender.org
mtllib SniperRifle.mtl
o SniperRifle_Receiver
v -0.290000 0.024999 -5.965000
v -0.290000 0.034999 -5.955000
v -0.300000 0.034999 -5.965000
v -0.290000 0.027928 -5.957929
v -0.295774 0.029226 -5.959227
v -0.297071 0.034999 -5.957929
v -0.297071 0.027928 -5.965000
v -0.290000 0.144999 -5.955000
v -0.290000 0.154999 -5.965000
v -0.300000 0.144999 -5.965000
v -0.290000 0.152070 -5.957929
v -0.295774 0.150773 -5.959227
v -0.297071 0.152070 -5.965000
v -0.297071 0.144999 -5.957929
v -0.290000 0.024999 -6.035000
v -0.300000 0.034999 -6.035000
v -0.290000 0.034999 -6.045000
v -0.297071 0.027928 -6.035000
v -0.295774 0.029226 -6.040773
v -0.297071 0.034999 -6.042071
v -0.290000 0.027928 -6.042071
v -0.290000 0.154999 -6.035000
v -0.290000 0.144999 -6.045000
v -0.300000 0.144999 -6.035000
v -0.290000 0.152070 -6.042071
v -0.295774 0.150773 -6.040773
v -0.297071 0.144999 -6.042071
v -0.297071 0.152070 -6.035000
v 0.390000 0.024999 -5.965000
v 0.400000 0.034999 -5.965000
v 0.390000 0.034999 -5.955000
v 0.397071 0.027928 -5.965000
v 0.395774 0.029226 -5.959227
v 0.397071 0.034999 -5.957929
v 0.390000 0.027928 -5.957929
v 0.390000 0.154999 -5.965000
v 0.390000 0.144999 -5.955000
v 0.400000 0.144999 -5.965000
v 0.390000 0.152070 -5.957929
v 0.395774 0.150773 -5.959227
v 0.397071 0.144999 -5.957929
v 0.397071 0.152070 -5.965000
v 0.390000 0.024999 -6.035000
v 0.390000 0.034999 -6.045000
v 0.400000 0.034999 -6.035000
v 0.390000 0.027928 -6.042071
v 0.395774 0.029226 -6.040773
v 0.397071 0.034999 -6.042071
v 0.397071 0.027928 -6.035000
v 0.390000 0.154999 -6.035000
v 0.400000 0.144999 -6.035000
v 0.390000 0.144999 -6.045000
v 0.397071 0.152070 -6.035000
v 0.395774 0.150773 -6.040773
v 0.397071 0.144999 -6.042071
v 0.390000 0.152070 -6.042071
vn -0.0000 -0.0000 1.0000
vn 1.0000 -0.0000 -0.0000
vn -0.0000 1.0000 -0.0000
vn -1.0000 -0.0000 -0.0000
vn -0.0000 -0.0000 -1.0000
vn -0.3251 -0.8881 0.3251
vn -0.3672 -0.8864 0.2818
vn -0.3251 -0.3251 0.8881
vn -0.2817 -0.3674 0.8864
vn -0.8881 -0.3250 0.3251
vn -0.8865 -0.2817 0.3672
vn -0.3251 0.3251 0.8881
vn -0.3672 0.2815 0.8865
vn -0.3251 0.8881 0.3251
vn -0.2818 0.8864 0.3672
vn -0.8881 0.3250 0.3251
vn -0.8865 0.3672 0.2817
vn -0.3251 -0.8881 -0.3251
vn -0.2818 -0.8864 -0.3672
vn -0.8881 -0.3250 -0.3251
vn -0.8864 -0.3672 -0.2817
vn -0.3251 -0.3251 -0.8881
vn -0.3672 -0.2815 -0.8865
vn -0.3251 0.8881 -0.3251
vn -0.3672 0.8864 -0.2818
vn -0.3251 0.3251 -0.8881
vn -0.2817 0.3674 -0.8864
vn -0.8881 0.3250 -0.3251
vn -0.8865 0.2817 -0.3672
vn 0.3251 -0.8881 0.3251
vn 0.2818 -0.8864 0.3672
vn 0.8881 -0.3250 0.3251
vn 0.8865 -0.3672 0.2817
vn 0.3251 -0.3251 0.8881
vn 0.3672 -0.2815 0.8865
vn 0.3251 0.8881 0.3251
vn 0.3672 0.8865 0.2818
vn 0.3251 0.3251 0.8881
vn 0.2817 0.3674 0.8864
vn 0.8881 0.3250 0.3251
vn 0.8865 0.2817 0.3672
vn 0.3251 -0.8881 -0.3251
vn 0.3672 -0.8864 -0.2818
vn 0.3251 -0.3251 -0.8881
vn 0.2817 -0.3674 -0.8864
vn 0.8881 -0.3250 -0.3251
vn 0.8865 -0.2817 -0.3672
vn 0.3251 0.8881 -0.3251
vn 0.2818 0.8864 -0.3672
vn 0.8881 0.3250 -0.3251
vn 0.8864 0.3672 -0.2817
vn 0.3251 0.3251 -0.8881
vn 0.3672 0.2815 -0.8865
vn -0.3827 -0.9239 -0.0000
vn -0.9239 -0.3827 -0.0000
vn -0.3827 -0.0000 0.9239
vn -0.9239 -0.0000 0.3827
vn -0.3827 0.9239 -0.0000
vn -0.9239 0.3827 -0.0000
vn -0.3827 -0.0000 -0.9239
vn -0.9239 -0.0000 -0.3827
vn -0.0000 -0.9239 -0.3827
vn -0.0000 -0.9239 -0.3826
vn -0.0000 -0.3826 -0.9239
vn -0.0000 -0.3827 -0.9239
vn -0.0000 0.9239 -0.3827
vn -0.0000 0.9239 -0.3826
vn -0.0000 0.3826 -0.9239
vn -0.0000 0.3827 -0.9239
vn 0.9239 -0.0000 -0.3827
vn 0.3827 -0.0000 -0.9239
vn 0.3827 -0.9239 -0.0000
vn 0.9239 -0.3827 -0.0000
vn 0.3827 0.9239 -0.0000
vn 0.9239 0.3827 -0.0000
vn 0.3827 -0.0000 0.9239
vn 0.9239 -0.0000 0.3827
vn -0.0000 -0.9239 0.3827
vn -0.0000 -0.3829 0.9238
vn -0.0000 -0.3826 0.9239
vn -0.0000 0.9239 0.3827
vn -0.0000 0.3829 0.9238
vn -0.0000 0.3826 0.9239
vn -0.0000 -1.0000 -0.0000
vn -0.2818 -0.8864 0.3672
vn -0.3672 -0.2815 0.8865
vn -0.8865 -0.3672 0.2818
vn -0.2817 0.3674 0.8864
vn -0.3672 0.8864 0.2818
vn -0.8865 0.2817 0.3672
vn -0.3672 -0.8864 -0.2818
vn -0.8865 -0.2817 -0.3672
vn -0.2817 -0.3674 -0.8864
vn -0.2818 0.8864 -0.3672
vn -0.3672 0.2815 -0.8865
vn -0.8864 0.3672 -0.2817
vn 0.3672 -0.8864 0.2818
vn 0.8865 -0.2817 0.3672
vn 0.2817 -0.3674 0.8864
vn 0.2818 0.8864 0.3672
vn 0.3672 0.2815 0.8865
vn 0.8865 0.3672 0.2817
vn 0.2818 -0.8864 -0.3672
vn 0.3672 -0.2815 -0.8865
vn 0.8864 -0.3672 -0.2817
vn 0.3672 0.8864 -0.2818
vn 0.8865 0.2817 -0.3672
vn 0.2817 0.3674 -0.8864
vt 0.605769 0.753571
vt 0.394231 0.996429
vt 0.394231 0.753571
vt 0.605769 0.527778
vt 0.394231 0.722222
vt 0.394231 0.527778
vt 0.871429 0.527778
vt 0.628571 0.722222
vt 0.628571 0.527778
vt 0.605769 0.027778
vt 0.394231 0.222222
vt 0.394231 0.027778
vt 0.605769 0.253571
vt 0.394231 0.496429
vt 0.394231 0.253571
vt 0.128571 0.722222
vt 0.126509 0.750000
vt 0.125000 0.722222
vt 0.383128 1.000000
vt 0.375000 0.996429
vt 0.375000 0.011741
vt 0.394231 0.000000
vt 0.605769 0.996429
vt 0.625000 0.998491
vt 0.605769 1.000000
vt 0.871429 0.722222
vt 0.875000 0.738259
vt 0.871429 0.750000
vt 0.616872 0.000000
vt 0.625000 0.027778
vt 0.128571 0.527778
vt 0.125000 0.511741
vt 0.128571 0.500000
vt 0.383128 0.250000
vt 0.375000 0.222222
vt 0.375000 0.251509
vt 0.394231 0.250000
vt 0.873491 0.500000
vt 0.875000 0.527778
vt 0.616872 0.250000
vt 0.625000 0.253571
vt 0.605769 0.222222
vt 0.625000 0.238259
vt 0.605769 0.250000
vt 0.371429 0.722222
vt 0.377709 0.746590
vt 0.371429 0.750000
vt 0.375000 0.722222
vt 0.394231 0.750000
vt 0.622794 0.746086
vt 0.625000 0.722222
vt 0.625000 0.753571
vt 0.605769 0.722222
vt 0.605769 0.750000
vt 0.371429 0.527778
vt 0.377206 0.503914
vt 0.375000 0.527778
vt 0.375000 0.496429
vt 0.394231 0.500000
vt 0.622291 0.503410
vt 0.628571 0.500000
vt 0.625000 0.527778
vt 0.605769 0.496429
vt 0.605769 0.500000
vt 0.125000 0.527778
vt 0.375000 0.027778
vt 0.394231 1.000000
vt 0.605769 0.000000
vt 0.875000 0.722222
vt 0.625000 0.222222
vt 0.371429 0.500000
vt 0.375000 0.253571
vt 0.871429 0.500000
vt 0.128571 0.750000
vt 0.375000 0.753571
vt 0.628571 0.750000
vt 0.625000 0.996429
vt 0.625000 0.496429
s 1
usemtl Gunmetal
f 37/1/1 2/2/1 31/3/1
f 51/4/2 30/5/2 45/6/2
f 22/7/3 36/8/3 50/9/3
f 10/10/4 16/11/4 3/12/4
f 23/13/5 44/14/5 17/15/5
f 1/16/6 5/17/6 7/18/7
f 2/2/8 5/19/8 4/20/9
f 3/12/10 5/21/10 6/22/11
f 8/23/12 12/24/12 14/25/13
f 9/26/14 12/27/14 11/28/15
f 10/10/16 12/29/16 13/30/17
f 15/31/18 19/32/18 21/33/19
f 16/11/20 19/34/20 18/35/21
f 17/15/22 19/36/22 20/37/23
f 22/7/24 26/38/24 28/39/25
f 23/13/26 26/40/26 25/41/27
f 24/42/28 26/43/28 27/44/29
f 29/45/30 33/46/30 35/47/31
f 30/5/32 33/46/32 32/48/33
f 31/3/34 33/46/34 34/49/35
f 36/8/36 40/50/36 42/51/37
f 37/1/38 40/50/38 39/52/39
f 38/53/40 40/50/40 41/54/41
f 43/55/42 47/56/42 49/57/43
f 44/14/44 47/56/44 46/58/45
f 45/6/46 47/56/46 48/59/47
f 50/9/48 54/60/48 56/61/49
f 51/4/50 54/60/50 53/62/51
f 52/63/52 54/60/52 55/64/53
f 1/16/54 18/65/54 15/31/54
f 7/66/55 16/11/55 18/35/55
f 8/23/56 6/67/56 2/2/56
f 14/68/57 3/12/57 6/22/57
f 22/7/58 13/69/58 9/26/58
f 28/70/59 10/10/59 13/30/59
f 17/15/60 27/44/60 23/13/60
f 20/37/61 24/42/61 27/44/61
f 15/31/62 46/71/63 43/55/63
f 21/72/64 44/14/65 46/58/65
f 50/9/66 25/73/67 22/7/67
f 25/41/68 52/63/69 23/13/68
f 45/6/70 55/64/70 51/4/70
f 48/59/71 52/63/71 55/64/71
f 43/55/72 32/48/72 29/45/72
f 49/57/73 30/5/73 32/48/73
f 36/8/74 53/62/74 50/9/74
f 42/51/75 51/4/75 53/62/75
f 31/3/76 41/54/76 37/1/76
f 34/49/77 38/53/77 41/54/77
f 29/45/78 4/74/78 1/16/78
f 35/75/79 2/2/80 4/20/80
f 9/26/81 39/76/81 36/8/81
f 39/52/82 8/23/83 37/1/82
f 43/55/84 1/16/84 15/31/84
f 37/1/1 8/23/1 2/2/1
f 51/4/2 38/53/2 30/5/2
f 22/7/3 9/26/3 36/8/3
f 10/10/4 24/42/4 16/11/4
f 23/13/5 52/63/5 44/14/5
f 1/16/6 4/74/85 5/17/6
f 2/2/8 6/67/86 5/19/8
f 3/12/10 7/66/87 5/21/10
f 8/23/12 11/77/88 12/24/12
f 9/26/14 13/69/89 12/27/14
f 10/10/16 14/68/90 12/29/16
f 15/31/18 18/65/91 19/32/18
f 16/11/20 20/37/92 19/34/20
f 17/15/22 21/72/93 19/36/22
f 22/7/24 25/73/94 26/38/24
f 23/13/26 27/44/95 26/40/26
f 24/42/28 28/70/96 26/43/28
f 29/45/30 32/48/97 33/46/30
f 30/5/32 34/49/98 33/46/32
f 31/3/34 35/75/99 33/46/34
f 36/8/36 39/76/100 40/50/36
f 37/1/38 41/54/101 40/50/38
f 38/53/40 42/51/102 40/50/40
f 43/55/42 46/71/103 47/56/42
f 44/14/44 48/59/104 47/56/44
f 45/6/46 49/57/105 47/56/46
f 50/9/48 53/62/106 54/60/48
f 51/4/50 55/64/107 54/60/50
f 52/63/52 56/78/108 54/60/52
f 1/16/54 7/18/54 18/65/54
f 7/66/55 3/12/55 16/11/55
f 8/23/56 14/25/56 6/67/56
f 14/68/57 10/10/57 3/12/57
f 22/7/58 28/39/58 13/69/58
f 28/70/59 24/42/59 10/10/59
f 17/15/60 20/37/60 27/44/60
f 20/37/61 16/11/61 24/42/61
f 15/31/62 21/33/62 46/71/63
f 21/72/64 17/15/64 44/14/65
f 50/9/66 56/61/66 25/73/67
f 25/41/68 56/78/69 52/63/69
f 45/6/70 48/59/70 55/64/70
f 48/59/71 44/14/71 52/63/71
f 43/55/72 49/57/72 32/48/72
f 49/57/73 45/6/73 30/5/73
f 36/8/74 42/51/74 53/62/74
f 42/51/75 38/53/75 51/4/75
f 31/3/76 34/49/76 41/54/76
f 34/49/77 30/5/77 38/53/77
f 29/45/78 35/47/78 4/74/78
f 35/75/79 31/3/79 2/2/80
f 9/26/81 11/28/81 39/76/81
f 39/52/82 11/77/83 8/23/83
f 43/55/84 29/45/84 1/16/84
o SniperRifle_Barrel
v -1.175000 0.100000 -6.020000
v -0.325000 0.100000 -6.020000
v -1.175000 0.090000 -6.017321
v -0.325000 0.090000 -6.017321
v -1.175000 0.082679 -6.010000
v -0.325000 0.082680 -6.010000
v -1.175000 0.080000 -6.000000
v -0.325000 0.080000 -6.000000
v -1.175000 0.082679 -5.990000
v -0.325000 0.082680 -5.990000
v -1.175000 0.090000 -5.982679
v -0.325000 0.090000 -5.982679
v -1.175000 0.100000 -5.980000
v -0.325000 0.100000 -5.980000
v -1.175000 0.110000 -5.982679
v -0.325000 0.110000 -5.982679
v -1.175000 0.117320 -5.990000
v -0.325000 0.117321 -5.990000
v -1.175000 0.120000 -6.000000
v -0.325000 0.120000 -6.000000
v -1.175000 0.117320 -6.010000
v -0.325000 0.117321 -6.010000
v -1.175000 0.110000 -6.017321
v -0.325000 0.110000 -6.017321
vn -0.0000 -0.2588 -0.9659
vn -0.0000 -0.7071 -0.7071
vn -0.0000 -0.9659 -0.2588
vn -0.0000 -0.9659 0.2588
vn -0.0000 -0.7071 0.7071
vn -0.0000 -0.2588 0.9659
vn -0.0000 0.2588 0.9659
vn -0.0000 0.7071 0.7071
vn -0.0000 0.9659 0.2588
vn -0.0000 0.9659 -0.2588
vn 1.0000 -0.0000 -0.0000
vn -0.0000 0.7071 -0.7071
vn -0.0000 0.2588 -0.9659
vn -1.0000 -0.0000 -0.0000
vt 1.000000 1.000000
vt 0.916667 0.500000
vt 1.000000 0.500000
vt 0.916667 1.000000
vt 0.833333 0.500000
vt 0.833333 1.000000
vt 0.750000 0.500000
vt 0.750000 1.000000
vt 0.666667 0.500000
vt 0.666667 1.000000
vt 0.583333 0.500000
vt 0.583333 1.000000
vt 0.500000 0.500000
vt 0.500000 1.000000
vt 0.416667 0.500000
vt 0.416667 1.000000
vt 0.333333 0.500000
vt 0.333333 1.000000
vt 0.250000 0.500000
vt 0.250000 1.000000
vt 0.166667 0.500000
vt 0.042154 0.370000
vt 0.250000 0.010000
vt 0.457846 0.370000
vt 0.166667 1.000000
vt 0.083333 0.500000
vt 0.083333 1.000000
vt 0.000000 0.500000
vt 0.990000 0.250000
vt 0.630000 0.042154
vt 0.630000 0.457846
vt 0.370000 0.457846
vt 0.250000 0.490000
vt 0.130000 0.457846
vt 0.010000 0.250000
vt 0.042154 0.130000
vt 0.130000 0.042154
vt 0.370000 0.042154
vt 0.457846 0.130000
vt 0.490000 0.250000
vt 0.000000 1.000000
vt 0.750000 0.490000
vt 0.870000 0.457846
vt 0.957846 0.370000
vt 0.957846 0.130000
vt 0.870000 0.042154
vt 0.750000 0.010000
vt 0.542154 0.130000
vt 0.510000 0.250000
vt 0.542154 0.370000
s 1
usemtl Dark
f 58/79/109 59/80/109 57/81/109
f 60/82/110 61/83/110 59/80/110
f 62/84/111 63/85/111 61/83/111
f 64/86/112 65/87/112 63/85/112
f 66/88/113 67/89/113 65/87/113
f 68/90/114 69/91/114 67/89/114
f 70/92/115 71/93/115 69/91/115
f 72/94/116 73/95/116 71/93/116
f 74/96/117 75/97/117 73/95/117
f 76/98/118 77/99/118 75/97/118
f 78/100/119 70/101/119 62/102/119
f 78/103/120 79/104/120 77/99/120
f 80/105/121 57/106/121 79/104/121
f 63/107/122 71/108/122 79/109/122
f 58/79/109 60/82/109 59/80/109
f 60/82/110 62/84/110 61/83/110
f 62/84/111 64/86/111 63/85/111
f 64/86/112 66/88/112 65/87/112
f 66/88/113 68/90/113 67/89/113
f 68/90/114 70/92/114 69/91/114
f 70/92/115 72/94/115 71/93/115
f 72/94/116 74/96/116 73/95/116
f 74/96/117 76/98/117 75/97/117
f 76/98/118 78/103/118 77/99/118
f 62/102/119 60/110/119 58/111/119
f 58/111/119 80/112/119 78/100/119
f 78/100/119 76/113/119 74/114/119
f 74/114/119 72/115/119 70/101/119
f 70/101/119 68/116/119 66/117/119
f 66/117/119 64/118/119 62/102/119
f 62/102/119 58/111/119 78/100/119
f 78/100/119 74/114/119 70/101/119
f 70/101/119 66/117/119 62/102/119
f 78/103/120 80/105/120 79/104/120
f 80/105/121 58/119/121 57/106/121
f 79/109/122 57/120/122 59/121/122
f 59/121/122 61/122/122 63/107/122
f 63/107/122 65/123/122 67/124/122
f 67/124/122 69/125/122 71/108/122
f 71/108/122 73/126/122 75/127/122
f 75/127/122 77/128/122 79/109/122
f 79/109/122 59/121/122 63/107/122
f 63/107/122 67/124/122 71/108/122
f 71/108/122 75/127/122 79/109/122
o SniperRifle_MuzzleBrake
v -1.200000 0.100000 -6.035000
v -1.120000 0.100000 -6.035000
v -1.200000 0.082500 -6.030311
v -1.120000 0.082500 -6.030311
v -1.200000 0.069689 -6.017500
v -1.120000 0.069689 -6.017500
v -1.200000 0.065000 -6.000000
v -1.120000 0.065000 -6.000000
v -1.200000 0.069689 -5.982500
v -1.120000 0.069689 -5.982500
v -1.200000 0.082500 -5.969689
v -1.120000 0.082500 -5.969689
v -1.200000 0.100000 -5.965000
v -1.120000 0.100000 -5.965000
v -1.200000 0.117500 -5.969689
v -1.120000 0.117500 -5.969689
v -1.200000 0.130311 -5.982500
v -1.120000 0.130311 -5.982500
v -1.200000 0.135000 -6.000000
v -1.120000 0.135000 -6.000000
v -1.200000 0.130311 -6.017500
v -1.120000 0.130311 -6.017500
v -1.200000 0.117500 -6.030311
v -1.120000 0.117500 -6.030311
vn -0.0000 -0.2588 -0.9659
vn -0.0000 -0.7071 -0.7071
vn -0.0000 -0.9659 -0.2588
vn -0.0000 -0.9659 0.2588
vn -0.0000 -0.7071 0.7071
vn -0.0000 -0.2588 0.9659
vn -0.0000 0.2588 0.9659
vn -0.0000 0.7071 0.7071
vn -0.0000 0.9659 0.2588
vn -0.0000 0.9659 -0.2588
vn 1.0000 -0.0000 -0.0000
vn -0.0000 0.7071 -0.7071
vn -0.0000 0.2588 -0.9659
vn -1.0000 -0.0000 -0.0000
vt 1.000000 1.000000
vt 0.916667 0.500000
vt 1.000000 0.500000
vt 0.916667 1.000000
vt 0.833333 0.500000
vt 0.833333 1.000000
vt 0.750000 0.500000
vt 0.750000 1.000000
vt 0.666667 0.500000
vt 0.666667 1.000000
vt 0.583333 0.500000
vt 0.583333 1.000000
vt 0.500000 0.500000
vt 0.500000 1.000000
vt 0.416667 0.500000
vt 0.416667 1.000000
vt 0.333333 0.500000
vt 0.333333 1.000000
vt 0.250000 0.500000
vt 0.250000 1.000000
vt 0.166667 0.500000
vt 0.042154 0.370000
vt 0.250000 0.010000
vt 0.457846 0.370000
vt 0.166667 1.000000
vt 0.083333 0.500000
vt 0.083333 1.000000
vt 0.000000 0.500000
vt 0.990000 0.250000
vt 0.630000 0.042154
vt 0.630000 0.457846
vt 0.370000 0.457846
vt 0.250000 0.490000
vt 0.130000 0.457846
vt 0.010000 0.250000
vt 0.042154 0.130000
vt 0.130000 0.042154
vt 0.370000 0.042154
vt 0.457846 0.130000
vt 0.490000 0.250000
vt 0.000000 1.000000
vt 0.750000 0.490000
vt 0.870000 0.457846
vt 0.957846 0.370000
vt 0.957846 0.130000
vt 0.870000 0.042154
vt 0.750000 0.010000
vt 0.542154 0.130000
vt 0.510000 0.250000
vt 0.542154 0.370000
s 1
usemtl Gunmetal
f 82/129/123 83/130/123 81/131/123
f 84/132/124 85/133/124 83/130/124
f 86/134/125 87/135/125 85/133/125
f 88/136/126 89/137/126 87/135/126
f 90/138/127 91/139/127 89/137/127
f 92/140/128 93/141/128 91/139/128
f 94/142/129 95/143/129 93/141/129
f 96/144/130 97/145/130 95/143/130
f 98/146/131 99/147/131 97/145/131
f 100/148/132 101/149/132 99/147/132
f 102/150/133 94/151/133 86/152/133
f 102/153/134 103/154/134 101/149/134
f 104/155/135 81/156/135 103/154/135
f 87/157/136 95/158/136 103/159/136
f 82/129/123 84/132/123 83/130/123
f 84/132/124 86/134/124 85/133/124
f 86/134/125 88/136/125 87/135/125
f 88/136/126 90/138/126 89/137/126
f 90/138/127 92/140/127 91/139/127
f 92/140/128 94/142/128 93/141/128
f 94/142/129 96/144/129 95/143/129
f 96/144/130 98/146/130 97/145/130
f 98/146/131 100/148/131 99/147/131
f 100/148/132 102/153/132 101/149/132
f 86/152/133 84/160/133 82/161/133
f 82/161/133 104/162/133 102/150/133
f 102/150/133 100/163/133 98/164/133
f 98/164/133 96/165/133 94/151/133
f 94/151/133 92/166/133 90/167/133
f 90/167/133 88/168/133 86/152/133
f 86/152/133 82/161/133 102/150/133
f 102/150/133 98/164/133 94/151/133
f 94/151/133 90/167/133 86/152/133
f 102/153/134 104/155/134 103/154/134
f 104/155/135 82/169/135 81/156/135
f 103/159/136 81/170/136 83/171/136
f 83/171/136 85/172/136 87/157/136
f 87/157/136 89/173/136 91/174/136
f 91/174/136 93/175/136 95/158/136
f 95/158/136 97/176/136 99/177/136
f 99/177/136 101/178/136 103/159/136
f 103/159/136 83/171/136 87/157/136
f 87/157/136 91/174/136 95/158/136
f 95/158/136 99/177/136 103/159/136
o SniperRifle_Stock
v 0.405000 -0.030001 -5.970000
v 0.405000 -0.020001 -5.960000
v 0.395000 -0.020001 -5.970000
v 0.405000 -0.027072 -5.962930
v 0.399227 -0.025774 -5.964227
v 0.397929 -0.020001 -5.962930
v 0.397929 -0.027072 -5.970001
v 0.405000 0.119999 -5.960000
v 0.405000 0.129999 -5.970000
v 0.395000 0.119999 -5.970000
v 0.405000 0.127070 -5.962930
v 0.399227 0.125773 -5.964227
v 0.397929 0.127070 -5.970001
v 0.397929 0.119999 -5.962930
v 0.405000 -0.030001 -6.030000
v 0.395000 -0.020001 -6.030000
v 0.405000 -0.020001 -6.040000
v 0.397929 -0.027072 -6.029999
v 0.399227 -0.025774 -6.035773
v 0.397929 -0.020001 -6.037070
v 0.405000 -0.027072 -6.037070
v 0.405000 0.129999 -6.030000
v 0.405000 0.119999 -6.040000
v 0.395000 0.119999 -6.030000
v 0.405000 0.127070 -6.037070
v 0.399227 0.125773 -6.035773
v 0.397929 0.119999 -6.037070
v 0.397929 0.127070 -6.029999
v 0.835000 -0.030001 -5.970000
v 0.845000 -0.020001 -5.970000
v 0.835000 -0.020001 -5.960000
v 0.842071 -0.027072 -5.970001
v 0.840774 -0.025774 -5.964227
v 0.842071 -0.020001 -5.962930
v 0.835000 -0.027072 -5.962930
v 0.835000 0.129999 -5.970000
v 0.835000 0.119999 -5.960000
v 0.845000 0.119999 -5.970000
v 0.835000 0.127070 -5.962930
v 0.840774 0.125773 -5.964227
v 0.842071 0.119999 -5.962930
v 0.842071 0.127070 -5.970001
v 0.835000 -0.030001 -6.030000
v 0.835000 -0.020001 -6.040000
v 0.845000 -0.020001 -6.030000
v 0.835000 -0.027072 -6.037070
v 0.840774 -0.025774 -6.035773
v 0.842071 -0.020001 -6.037070
v 0.842071 -0.027072 -6.029999
v 0.835000 0.129999 -6.030000
v 0.845000 0.119999 -6.030000
v 0.835000 0.119999 -6.040000
v 0.842071 0.127070 -6.029999
v 0.840774 0.125773 -6.035773
v 0.842071 0.119999 -6.037070
v 0.835000 0.127070 -6.037070
vn -0.0000 -0.0000 1.0000
vn 1.0000 -0.0000 -0.0000
vn -0.0000 1.0000 -0.0000
vn -1.0000 -0.0000 -0.0000
vn -0.0000 -0.0000 -1.0000
vn -0.3251 -0.8881 0.3251
vn -0.3672 -0.8865 0.2817
vn -0.3251 -0.3250 0.8881
vn -0.2817 -0.3672 0.8864
vn -0.8881 -0.3251 0.3251
vn -0.8865 -0.2817 0.3672
vn -0.3251 0.3250 0.8881
vn -0.3673 0.2816 0.8864
vn -0.3251 0.8881 0.3251
vn -0.2817 0.8864 0.3672
vn -0.8881 0.3251 0.3251
vn -0.8864 0.3672 0.2817
vn -0.3251 -0.8881 -0.3251
vn -0.2817 -0.8864 -0.3672
vn -0.8881 -0.3251 -0.3251
vn -0.8864 -0.3672 -0.2817
vn -0.3251 -0.3250 -0.8881
vn -0.3673 -0.2816 -0.8865
vn -0.3251 0.8881 -0.3251
vn -0.3672 0.8865 -0.2817
vn -0.3251 0.3250 -0.8881
vn -0.2817 0.3672 -0.8864
vn -0.8881 0.3251 -0.3251
vn -0.8864 0.2817 -0.3672
vn 0.3251 -0.8881 0.3251
vn 0.2817 -0.8864 0.3672
vn 0.8881 -0.3251 0.3251
vn 0.8865 -0.3672 0.2818
vn 0.3251 -0.3251 0.8880
vn 0.3673 -0.2817 0.8864
vn 0.3251 0.8881 0.3251
vn 0.3672 0.8865 0.2817
vn 0.3251 0.3251 0.8880
vn 0.2817 0.3672 0.8864
vn 0.8881 0.3251 0.3251
vn 0.8864 0.2817 0.3672
vn 0.3251 -0.8881 -0.3251
vn 0.3672 -0.8865 -0.2817
vn 0.3251 -0.3251 -0.8881
vn 0.2817 -0.3672 -0.8864
vn 0.8881 -0.3251 -0.3251
vn 0.8864 -0.2818 -0.3672
vn 0.3251 0.8881 -0.3251
vn 0.2817 0.8864 -0.3672
vn 0.8881 0.3251 -0.3251
vn 0.8864 0.3672 -0.2817
vn 0.3251 0.3251 -0.8881
vn 0.3673 0.2817 -0.8864
vn -0.3827 -0.9239 -0.0000
vn -0.9239 -0.3827 -0.0000
vn -0.3828 -0.0000 0.9238
vn -0.9239 -0.0000 0.3827
vn -0.3827 0.9239 -0.0000
vn -0.9239 0.3827 -0.0000
vn -0.3828 -0.0000 -0.9238
vn -0.9239 -0.0000 -0.3827
vn -0.0000 -0.9239 -0.3827
vn -0.0000 -0.3827 -0.9239
vn -0.0000 -0.3828 -0.9238
vn -0.0000 0.9239 -0.3827
vn -0.0000 0.3828 -0.9238
vn -0.0000 0.3827 -0.9239
vn 0.9239 -0.0000 -0.3827
vn 0.3828 -0.0000 -0.9238
vn 0.3827 -0.9239 -0.0000
vn 0.9239 -0.3827 -0.0000
vn 0.3827 0.9239 -0.0000
vn 0.9239 0.3827 -0.0000
vn 0.3828 -0.0000 0.9238
vn 0.9239 -0.0000 0.3827
vn -0.0000 -0.9239 0.3827
vn -0.0000 -0.3828 0.9238
vn -0.0000 0.9239 0.3827
vn -0.0000 0.3828 0.9238
vn -0.0000 -1.0000 -0.0000
vn -0.2817 -0.8864 0.3672
vn -0.3673 -0.2816 0.8864
vn -0.8864 -0.3672 0.2817
vn -0.2817 0.3672 0.8864
vn -0.3672 0.8865 0.2817
vn -0.8865 0.2817 0.3672
vn -0.3672 -0.8865 -0.2817
vn -0.8864 -0.2817 -0.3672
vn -0.2817 -0.3672 -0.8864
vn -0.2817 0.8864 -0.3672
vn -0.3673 0.2816 -0.8865
vn -0.8864 0.3672 -0.2817
vn 0.3672 -0.8865 0.2817
vn 0.8864 -0.2817 0.3672
vn 0.2817 -0.3672 0.8864
vn 0.2817 0.8864 0.3672
vn 0.3673 0.2818 0.8864
vn 0.8865 0.3672 0.2817
vn 0.2817 -0.8864 -0.3672
vn 0.3673 -0.2817 -0.8864
vn 0.8864 -0.3672 -0.2818
vn 0.3672 0.8865 -0.2817
vn 0.8864 0.2818 -0.3672
vn 0.2817 0.3672 -0.8864
vt 0.609375 0.755556
vt 0.390625 0.994445
vt 0.390625 0.755556
vt 0.609375 0.531251
vt 0.390625 0.718749
vt 0.390625 0.531251
vt 0.869444 0.531251
vt 0.630556 0.718749
vt 0.630556 0.531251
vt 0.609375 0.031251
vt 0.390625 0.218749
vt 0.390625 0.031251
vt 0.609375 0.255556
vt 0.390625 0.494444
vt 0.390625 0.255556
vt 0.130556 0.718749
vt 0.127348 0.750000
vt 0.125000 0.718748
vt 0.381604 1.000000
vt 0.375000 0.994444
vt 0.375000 0.013210
vt 0.390625 0.000000
vt 0.609375 0.994444
vt 0.625000 0.997652
vt 0.609375 1.000000
vt 0.869444 0.718749
vt 0.875000 0.736790
vt 0.869444 0.750000
vt 0.618396 0.000000
vt 0.625000 0.031252
vt 0.130556 0.531251
vt 0.125000 0.513210
vt 0.130556 0.500000
vt 0.381604 0.250000
vt 0.375000 0.218748
vt 0.375000 0.252348
vt 0.390625 0.250000
vt 0.872652 0.500000
vt 0.875000 0.531252
vt 0.618396 0.250000
vt 0.625000 0.255556
vt 0.609375 0.218749
vt 0.625000 0.236790
vt 0.609375 0.250000
vt 0.369444 0.718749
vt 0.377201 0.746379
vt 0.369444 0.750000
vt 0.375000 0.718748
vt 0.390625 0.750000
vt 0.623581 0.745597
vt 0.625000 0.718748
vt 0.625000 0.755556
vt 0.609375 0.718749
vt 0.609375 0.750000
vt 0.369444 0.531251
vt 0.376419 0.504403
vt 0.375000 0.531252
vt 0.375000 0.494444
vt 0.390625 0.500000
vt 0.622799 0.503621
vt 0.630556 0.500000
vt 0.625000 0.531252
vt 0.609375 0.494444
vt 0.609375 0.500000
vt 0.125000 0.531252
vt 0.375000 0.031252
vt 0.390625 1.000000
vt 0.609375 0.000000
vt 0.875000 0.718748
vt 0.625000 0.218748
vt 0.369444 0.500000
vt 0.375000 0.255556
vt 0.869444 0.500000
vt 0.625000 0.494444
vt 0.130556 0.750000
vt 0.630556 0.750000
vt 0.625000 0.994444
vt 0.375000 0.755556
s 1
usemtl Olive
f 141/179/137 106/180/137 135/181/137
f 155/182/138 134/183/138 149/184/138
f 126/185/139 140/186/139 154/187/139
f 114/188/140 120/189/140 107/190/140
f 127/191/141 148/192/141 121/193/141
f 105/194/142 109/195/142 111/196/143
f 106/180/144 109/197/144 108/198/145
f 107/190/146 109/199/146 110/200/147
f 112/201/148 116/202/148 118/203/149
f 113/204/150 116/205/150 115/206/151
f 114/188/152 116/207/152 117/208/153
f 119/209/154 123/210/154 125/211/155
f 120/189/156 123/212/156 122/213/157
f 121/193/158 123/214/158 124/215/159
f 126/185/160 130/216/160 132/217/161
f 127/191/162 130/218/162 129/219/163
f 128/220/164 130/221/164 131/222/165
f 133/223/166 137/224/166 139/225/167
f 134/183/168 137/224/168 136/226/169
f 135/181/170 137/224/170 138/227/171
f 140/186/172 144/228/172 146/229/173
f 141/179/174 144/228/174 143/230/175
f 142/231/176 144/228/176 145/232/177
f 147/233/178 151/234/178 153/235/179
f 148/192/180 151/234/180 150/236/181
f 149/184/182 151/234/182 152/237/183
f 154/187/184 158/238/184 160/239/185
f 155/182/186 158/238/186 157/240/187
f 156/241/188 158/238/188 159/242/189
f 105/194/190 122/243/190 119/209/190
f 111/244/191 120/189/191 122/213/191
f 112/201/192 110/245/192 106/180/192
f 118/246/193 107/190/193 110/200/193
f 126/185/194 117/247/194 113/204/194
f 132/248/195 114/188/195 117/208/195
f 121/193/196 131/222/196 127/191/196
f 124/215/197 128/220/197 131/222/197
f 147/233/198 125/211/198 150/249/198
f 125/250/199 148/192/200 150/236/200
f 154/187/201 129/251/201 126/185/201
f 160/252/202 127/191/203 129/219/203
f 149/184/204 159/242/204 155/182/204
f 152/237/205 156/241/205 159/242/205
f 147/233/206 136/226/206 133/223/206
f 153/235/207 134/183/207 136/226/207
f 154/187/208 146/229/208 157/240/208
f 146/229/209 155/182/209 157/240/209
f 135/181/210 145/232/210 141/179/210
f 138/227/211 142/231/211 145/232/211
f 133/223/212 108/253/212 105/194/212
f 108/198/213 135/181/213 106/180/213
f 140/186/214 115/206/214 143/254/214
f 115/255/215 141/179/215 143/230/215
f 147/233/216 105/194/216 119/209/216
f 141/179/137 112/201/137 106/180/137
f 155/182/138 142/231/138 134/183/138
f 126/185/139 113/204/139 140/186/139
f 114/188/140 128/220/140 120/189/140
f 127/191/141 156/241/141 148/192/141
f 105/194/142 108/253/217 109/195/142
f 106/180/144 110/245/218 109/197/144
f 107/190/146 111/244/219 109/199/146
f 112/201/148 115/255/220 116/202/148
f 113/204/150 117/247/221 116/205/150
f 114/188/152 118/246/222 116/207/152
f 119/209/154 122/243/223 123/210/154
f 120/189/156 124/215/224 123/212/156
f 121/193/158 125/250/225 123/214/158
f 126/185/160 129/251/226 130/216/160
f 127/191/162 131/222/227 130/218/162
f 128/220/164 132/248/228 130/221/164
f 133/223/166 136/226/229 137/224/166
f 134/183/168 138/227/230 137/224/168
f 135/181/170 139/256/231 137/224/170
f 140/186/172 143/254/232 144/228/172
f 141/179/174 145/232/233 144/228/174
f 142/231/176 146/229/234 144/228/176
f 147/233/178 150/249/235 151/234/178
f 148/192/180 152/237/236 151/234/180
f 149/184/182 153/235/237 151/234/182
f 154/187/184 157/240/238 158/238/184
f 155/182/186 159/242/239 158/238/186
f 156/241/188 160/252/240 158/238/188
f 105/194/190 111/196/190 122/243/190
f 111/244/191 107/190/191 120/189/191
f 112/201/192 118/203/192 110/245/192
f 118/246/193 114/188/193 107/190/193
f 126/185/194 132/217/194 117/247/194
f 132/248/195 128/220/195 114/188/195
f 121/193/196 124/215/196 131/222/196
f 124/215/197 120/189/197 128/220/197
f 147/233/198 119/209/198 125/211/198
f 125/250/199 121/193/199 148/192/200
f 154/187/201 160/239/201 129/251/201
f 160/252/202 156/241/202 127/191/203
f 149/184/204 152/237/204 159/242/204
f 152/237/205 148/192/205 156/241/205
f 147/233/206 153/235/206 136/226/206
f 153/235/207 149/184/207 134/183/207
f 154/187/208 140/186/208 146/229/208
f 146/229/209 142/231/209 155/182/209
f 135/181/210 138/227/210 145/232/210
f 138/227/211 134/183/211 142/231/211
f 133/223/212 139/225/212 108/253/212
f 108/198/213 139/256/213 135/181/213
f 140/186/214 113/204/214 115/206/214
f 115/255/215 112/201/215 141/179/215
f 147/233/216 133/223/216 105/194/216
o SniperRifle_Cheek
v 0.460000 0.124999 -5.965000
v 0.460000 0.174999 -5.965000
v 0.460000 0.124999 -6.035000
v 0.460000 0.174999 -6.035000
v 0.640000 0.124999 -5.965000
v 0.640000 0.174999 -5.965000
v 0.640000 0.124999 -6.035000
v 0.640000 0.174999 -6.035000
vn -1.0000 -0.0000 -0.0000
vn -0.0000 -0.0000 -1.0000
vn 1.0000 -0.0000 -0.0000
vn -0.0000 -0.0000 1.0000
vn -0.0000 -1.0000 -0.0000
vn -0.0000 1.0000 -0.0000
vt 0.625000 0.000000
vt 0.375000 0.250000
vt 0.375000 0.000000
vt 0.625000 0.250000
vt 0.375000 0.500000
vt 0.625000 0.500000
vt 0.375000 0.750000
vt 0.625000 0.750000
vt 0.375000 1.000000
vt 0.125000 0.750000
vt 0.125000 0.500000
vt 0.875000 0.500000
vt 0.625000 1.000000
vt 0.875000 0.750000
s 1
usemtl Olive
f 162/257/241 163/258/241 161/259/241
f 164/260/242 167/261/242 163/258/242
f 168/262/243 165/263/243 167/261/243
f 166/264/244 161/265/244 165/263/244
f 167/261/245 161/266/245 163/267/245
f 164/268/246 166/264/246 168/262/246
f 162/257/241 164/260/241 163/258/241
f 164/260/242 168/262/242 167/261/242
f 168/262/243 166/264/243 165/263/243
f 166/264/244 162/269/244 161/265/244
f 167/261/245 165/263/245 161/266/245
f 164/268/246 162/270/246 166/264/246
o SniperRifle_Grip
v 0.166686 -0.109157 -5.965000
v 0.205393 0.046090 -5.965000
v 0.166686 -0.109157 -6.035000
v 0.205393 0.046090 -6.035000
v 0.234607 -0.126092 -5.965000
v 0.273314 0.029155 -5.965000
v 0.234607 -0.126092 -6.035000
v 0.273314 0.029155 -6.035000
vn -0.9703 0.2419 -0.0000
vn -0.0000 -0.0000 -1.0000
vn 0.9703 -0.2419 -0.0000
vn -0.0000 -0.0000 1.0000
vn -0.2419 -0.9703 -0.0000
vn 0.2419 0.9703 -0.0000
vt 0.625000 0.000000
vt 0.375000 0.250000
vt 0.375000 0.000000
vt 0.625000 0.250000
vt 0.375000 0.500000
vt 0.625000 0.500000
vt 0.375000 0.750000
vt 0.625000 0.750000
vt 0.375000 1.000000
vt 0.125000 0.750000
vt 0.125000 0.500000
vt 0.875000 0.500000
vt 0.625000 1.000000
vt 0.875000 0.750000
s 1
usemtl Dark
f 170/271/247 171/272/247 169/273/247
f 172/274/248 175/275/248 171/272/248
f 176/276/249 173/277/249 175/275/249
f 174/278/250 169/279/250 173/277/250
f 175/275/251 169/280/251 171/281/251
f 172/282/252 174/278/252 176/276/252
f 170/271/247 172/274/247 171/272/247
f 172/274/248 176/276/248 175/275/248
f 176/276/249 174/278/249 173/277/249
f 174/278/250 170/283/250 169/279/250
f 175/275/251 173/277/251 169/280/251
f 172/282/252 170/284/252 174/278/252
o SniperRifle_ScopeTube
v -0.130000 0.220000 -6.035000
v 0.170000 0.220000 -6.035000
v -0.130000 0.202500 -6.030311
v 0.170000 0.202500 -6.030311
v -0.130000 0.189689 -6.017500
v 0.170000 0.189689 -6.017500
v -0.130000 0.185000 -6.000000
v 0.170000 0.185000 -6.000000
v -0.130000 0.189689 -5.982500
v 0.170000 0.189689 -5.982500
v -0.130000 0.202500 -5.969689
v 0.170000 0.202500 -5.969689
v -0.130000 0.220000 -5.965000
v 0.170000 0.220000 -5.965000
v -0.130000 0.237500 -5.969689
v 0.170000 0.237500 -5.969689
v -0.130000 0.250311 -5.982500
v 0.170000 0.250311 -5.982500
v -0.130000 0.255000 -6.000000
v 0.170000 0.255000 -6.000000
v -0.130000 0.250311 -6.017500
v 0.170000 0.250311 -6.017500
v -0.130000 0.237500 -6.030311
v 0.170000 0.237500 -6.030311
vn -0.0000 -0.2588 -0.9659
vn -0.0000 -0.7071 -0.7071
vn -0.0000 -0.9659 -0.2588
vn -0.0000 -0.9659 0.2588
vn -0.0000 -0.7071 0.7071
vn -0.0000 -0.2588 0.9659
vn -0.0000 0.2588 0.9659
vn -0.0000 0.7071 0.7071
vn -0.0000 0.9659 0.2588
vn -0.0000 0.9659 -0.2588
vn 1.0000 -0.0000 -0.0000
vn -0.0000 0.7071 -0.7071
vn -0.0000 0.2588 -0.9659
vn -1.0000 -0.0000 -0.0000
vt 1.000000 1.000000
vt 0.916667 0.500000
vt 1.000000 0.500000
vt 0.916667 1.000000
vt 0.833333 0.500000
vt 0.833333 1.000000
vt 0.750000 0.500000
vt 0.750000 1.000000
vt 0.666667 0.500000
vt 0.666667 1.000000
vt 0.583333 0.500000
vt 0.583333 1.000000
vt 0.500000 0.500000
vt 0.500000 1.000000
vt 0.416667 0.500000
vt 0.416667 1.000000
vt 0.333333 0.500000
vt 0.333333 1.000000
vt 0.250000 0.500000
vt 0.250000 1.000000
vt 0.166667 0.500000
vt 0.042154 0.370000
vt 0.250000 0.010000
vt 0.457846 0.370000
vt 0.166667 1.000000
vt 0.083333 0.500000
vt 0.083333 1.000000
vt 0.000000 0.500000
vt 0.990000 0.250000
vt 0.630000 0.042154
vt 0.630000 0.457846
vt 0.370000 0.457846
vt 0.250000 0.490000
vt 0.130000 0.457846
vt 0.010000 0.250000
vt 0.042154 0.130000
vt 0.130000 0.042154
vt 0.370000 0.042154
vt 0.457846 0.130000
vt 0.490000 0.250000
vt 0.000000 1.000000
vt 0.750000 0.490000
vt 0.870000 0.457846
vt 0.957846 0.370000
vt 0.957846 0.130000
vt 0.870000 0.042154
vt 0.750000 0.010000
vt 0.542154 0.130000
vt 0.510000 0.250000
vt 0.542154 0.370000
s 1
usemtl Dark
f 178/285/253 179/286/253 177/287/253
f 180/288/254 181/289/254 179/286/254
f 182/290/255 183/291/255 181/289/255
f 184/292/256 185/293/256 183/291/256
f 186/294/257 187/295/257 185/293/257
f 188/296/258 189/297/258 187/295/258
f 190/298/259 191/299/259 189/297/259
f 192/300/260 193/301/260 191/299/260
f 194/302/261 195/303/261 193/301/261
f 196/304/262 197/305/262 195/303/262
f 198/306/263 190/307/263 182/308/263
f 198/309/264 199/310/264 197/305/264
f 200/311/265 177/312/265 199/310/265
f 183/313/266 191/314/266 199/315/266
f 178/285/253 180/288/253 179/286/253
f 180/288/254 182/290/254 181/289/254
f 182/290/255 184/292/255 183/291/255
f 184/292/256 186/294/256 185/293/256
f 186/294/257 188/296/257 187/295/257
f 188/296/258 190/298/258 189/297/258
f 190/298/259 192/300/259 191/299/259
f 192/300/260 194/302/260 193/301/260
f 194/302/261 196/304/261 195/303/261
f 196/304/262 198/309/262 197/305/262
f 182/308/263 180/316/263 178/317/263
f 178/317/263 200/318/263 198/306/263
f 198/306/263 196/319/263 194/320/263
f 194/320/263 192/321/263 190/307/263
f 190/307/263 188/322/263 186/323/263
f 186/323/263 184/324/263 182/308/263
f 182/308/263 178/317/263 198/306/263
f 198/306/263 194/320/263 190/307/263
f 190/307/263 186/323/263 182/308/263
f 198/309/264 200/311/264 199/310/264
f 200/311/265 178/325/265 177/312/265
f 199/315/266 177/326/266 179/327/266
f 179/327/266 181/328/266 183/313/266
f 183/313/266 185/329/266 187/330/266
f 187/330/266 189/331/266 191/314/266
f 191/314/266 193/332/266 195/333/266
f 195/333/266 197/334/266 199/315/266
f 199/315/266 179/327/266 183/313/266
f 183/313/266 187/330/266 191/314/266
f 191/314/266 195/333/266 199/315/266
o SniperRifle_ScopeBell
v -0.180000 0.220000 -6.050000
v -0.120000 0.220000 -6.050000
v -0.180000 0.195000 -6.043301
v -0.120000 0.195000 -6.043301
v -0.180000 0.176699 -6.025000
v -0.120000 0.176699 -6.025000
v -0.180000 0.170000 -6.000000
v -0.120000 0.170000 -6.000000
v -0.180000 0.176699 -5.975000
v -0.120000 0.176699 -5.975000
v -0.180000 0.195000 -5.956699
v -0.120000 0.195000 -5.956699
v -0.180000 0.220000 -5.950000
v -0.120000 0.220000 -5.950000
v -0.180000 0.245000 -5.956699
v -0.120000 0.245000 -5.956699
v -0.180000 0.263301 -5.975000
v -0.120000 0.263301 -5.975000
v -0.180000 0.270000 -6.000000
v -0.120000 0.270000 -6.000000
v -0.180000 0.263301 -6.025000
v -0.120000 0.263301 -6.025000
v -0.180000 0.245000 -6.043301
v -0.120000 0.245000 -6.043301
vn -0.0000 -0.2588 -0.9659
vn -0.0000 -0.7071 -0.7071
vn -0.0000 -0.9659 -0.2588
vn -0.0000 -0.9659 0.2588
vn -0.0000 -0.7071 0.7071
vn -0.0000 -0.2588 0.9659
vn -0.0000 0.2588 0.9659
vn -0.0000 0.7071 0.7071
vn -0.0000 0.9659 0.2588
vn -0.0000 0.9659 -0.2588
vn 1.0000 -0.0000 -0.0000
vn -0.0000 0.7071 -0.7071
vn -0.0000 0.2588 -0.9659
vn -1.0000 -0.0000 -0.0000
vt 1.000000 1.000000
vt 0.916667 0.500000
vt 1.000000 0.500000
vt 0.916667 1.000000
vt 0.833333 0.500000
vt 0.833333 1.000000
vt 0.750000 0.500000
vt 0.750000 1.000000
vt 0.666667 0.500000
vt 0.666667 1.000000
vt 0.583333 0.500000
vt 0.583333 1.000000
vt 0.500000 0.500000
vt 0.500000 1.000000
vt 0.416667 0.500000
vt 0.416667 1.000000
vt 0.333333 0.500000
vt 0.333333 1.000000
vt 0.250000 0.500000
vt 0.250000 1.000000
vt 0.166667 0.500000
vt 0.042154 0.370000
vt 0.250000 0.010000
vt 0.457846 0.370000
vt 0.166667 1.000000
vt 0.083333 0.500000
vt 0.083333 1.000000
vt 0.000000 0.500000
vt 0.990000 0.250000
vt 0.630000 0.042154
vt 0.630000 0.457846
vt 0.370000 0.457846
vt 0.250000 0.490000
vt 0.130000 0.457846
vt 0.010000 0.250000
vt 0.042154 0.130000
vt 0.130000 0.042154
vt 0.370000 0.042154
vt 0.457846 0.130000
vt 0.490000 0.250000
vt 0.000000 1.000000
vt 0.750000 0.490000
vt 0.870000 0.457846
vt 0.957846 0.370000
vt 0.957846 0.130000
vt 0.870000 0.042154
vt 0.750000 0.010000
vt 0.542154 0.130000
vt 0.510000 0.250000
vt 0.542154 0.370000
s 1
usemtl Gunmetal
f 202/335/267 203/336/267 201/337/267
f 204/338/268 205/339/268 203/336/268
f 206/340/269 207/341/269 205/339/269
f 208/342/270 209/343/270 207/341/270
f 210/344/271 211/345/271 209/343/271
f 212/346/272 213/347/272 211/345/272
f 214/348/273 215/349/273 213/347/273
f 216/350/274 217/351/274 215/349/274
f 218/352/275 219/353/275 217/351/275
f 220/354/276 221/355/276 219/353/276
f 222/356/277 214/357/277 206/358/277
f 222/359/278 223/360/278 221/355/278
f 224/361/279 201/362/279 223/360/279
f 207/363/280 215/364/280 223/365/280
f 202/335/267 204/338/267 203/336/267
f 204/338/268 206/340/268 205/339/268
f 206/340/269 208/342/269 207/341/269
f 208/342/270 210/344/270 209/343/270
f 210/344/271 212/346/271 211/345/271
f 212/346/272 214/348/272 213/347/272
f 214/348/273 216/350/273 215/349/273
f 216/350/274 218/352/274 217/351/274
f 218/352/275 220/354/275 219/353/275
f 220/354/276 222/359/276 221/355/276
f 206/358/277 204/366/277 202/367/277
f 202/367/277 224/368/277 222/356/277
f 222/356/277 220/369/277 218/370/277
f 218/370/277 216/371/277 214/357/277
f 214/357/277 212/372/277 210/373/277
f 210/373/277 208/374/277 206/358/277
f 206/358/277 202/367/277 222/356/277
f 222/356/277 218/370/277 214/357/277
f 214/357/277 210/373/277 206/358/277
f 222/359/278 224/361/278 223/360/278
f 224/361/279 202/375/279 201/362/279
f 223/365/280 201/376/280 203/377/280
f 203/377/280 205/378/280 207/363/280
f 207/363/280 209/379/280 211/380/280
f 211/380/280 213/381/280 215/364/280
f 215/364/280 217/382/280 219/383/280
f 219/383/280 221/384/280 223/365/280
f 223/365/280 203/377/280 207/363/280
f 207/363/280 211/380/280 215/364/280
f 215/364/280 219/383/280 223/365/280
o SniperRifle_ScopeMount
v -0.060000 0.134999 -5.980000
v -0.060000 0.184999 -5.980000
v -0.060000 0.134999 -6.020000
v -0.060000 0.184999 -6.020000
v 0.100000 0.134999 -5.980000
v 0.100000 0.184999 -5.980000
v 0.100000 0.134999 -6.020000
v 0.100000 0.184999 -6.020000
vn -1.0000 -0.0000 -0.0000
vn -0.0000 -0.0000 -1.0000
vn 1.0000 -0.0000 -0.0000
vn -0.0000 -0.0000 1.0000
vn -0.0000 -1.0000 -0.0000
vn -0.0000 1.0000 -0.0000
vt 0.625000 0.000000
vt 0.375000 0.250000
vt 0.375000 0.000000
vt 0.625000 0.250000
vt 0.375000 0.500000
vt 0.625000 0.500000
vt 0.375000 0.750000
vt 0.625000 0.750000
vt 0.375000 1.000000
vt 0.125000 0.750000
vt 0.125000 0.500000
vt 0.875000 0.500000
vt 0.625000 1.000000
vt 0.875000 0.750000
s 1
usemtl Gunmetal
f 226/385/281 227/386/281 225/387/281
f 228/388/282 231/389/282 227/386/282
f 232/390/283 229/391/283 231/389/283
f 230/392/284 225/393/284 229/391/284
f 231/389/285 225/394/285 227/395/285
f 228/396/286 230/392/286 232/390/286
f 226/385/281 228/388/281 227/386/281
f 228/388/282 232/390/282 231/389/282
f 232/390/283 230/392/283 229/391/283
f 230/392/284 226/397/284 225/393/284
f 231/389/285 229/391/285 225/394/285
f 228/396/286 226/398/286 230/392/286
o SniperRifle_Magazine
v -0.100000 -0.094999 -5.970000
v -0.100000 0.035001 -5.970000
v -0.100000 -0.094999 -6.030000
v -0.100000 0.035001 -6.030000
v 0.060000 -0.094999 -5.970000
v 0.060000 0.035001 -5.970000
v 0.060000 -0.094999 -6.030000
v 0.060000 0.035001 -6.030000
vn -1.0000 -0.0000 -0.0000
vn -0.0000 -0.0000 -1.0000
vn 1.0000 -0.0000 -0.0000
vn -0.0000 -0.0000 1.0000
vn -0.0000 -1.0000 -0.0000
vn -0.0000 1.0000 -0.0000
vt 0.625000 0.000000
vt 0.375000 0.250000
vt 0.375000 0.000000
vt 0.625000 0.250000
vt 0.375000 0.500000
vt 0.625000 0.500000
vt 0.375000 0.750000
vt 0.625000 0.750000
vt 0.375000 1.000000
vt 0.125000 0.750000
vt 0.125000 0.500000
vt 0.875000 0.500000
vt 0.625000 1.000000
vt 0.875000 0.750000
s 1
usemtl Dark
f 234/399/287 235/400/287 233/401/287
f 236/402/288 239/403/288 235/400/288
f 240/404/289 237/405/289 239/403/289
f 238/406/290 233/407/290 237/405/290
f 239/403/291 233/408/291 235/409/291
f 236/410/292 238/406/292 240/404/292
f 234/399/287 236/402/287 235/400/287
f 236/402/288 240/404/288 239/403/288
f 240/404/289 238/406/289 237/405/289
f 238/406/290 234/411/290 233/407/290
f 239/403/291 237/405/291 233/408/291
f 236/410/292 234/412/292 238/406/292
o SniperRifle_BoltHandle
v 0.119999 0.114000 -6.129999
v 0.119999 0.114000 -6.029999
v 0.126999 0.112124 -6.129999
v 0.126999 0.112124 -6.029999
v 0.132124 0.107000 -6.129999
v 0.132124 0.107000 -6.029999
v 0.133999 0.100000 -6.129999
v 0.133999 0.100000 -6.029999
v 0.132124 0.093000 -6.129999
v 0.132124 0.093000 -6.029999
v 0.126999 0.087876 -6.129999
v 0.126999 0.087876 -6.029999
v 0.119999 0.086000 -6.129999
v 0.119999 0.086000 -6.029999
v 0.112999 0.087876 -6.129999
v 0.112999 0.087876 -6.029999
v 0.107875 0.093000 -6.129999
v 0.107875 0.093000 -6.029999
v 0.105999 0.100000 -6.129999
v 0.105999 0.100000 -6.029999
v 0.107875 0.107000 -6.129999
v 0.107875 0.107000 -6.029999
v 0.112999 0.112124 -6.129999
v 0.112999 0.112124 -6.029999
vn 0.2588 0.9659 -0.0000
vn 0.7071 0.7071 -0.0000
vn 0.9659 0.2588 -0.0000
vn 0.9659 -0.2588 -0.0000
vn 0.7071 -0.7071 -0.0000
vn 0.2588 -0.9659 -0.0000
vn -0.2588 -0.9659 -0.0000
vn -0.7071 -0.7071 -0.0000
vn -0.9659 -0.2588 -0.0000
vn -0.9659 0.2588 -0.0000
vn -0.0000 -0.0000 1.0000
vn -0.7071 0.7071 -0.0000
vn -0.2588 0.9659 -0.0000
vn -0.0000 -0.0000 -1.0000
vt 1.000000 1.000000
vt 0.916667 0.500000
vt 1.000000 0.500000
vt 0.916667 1.000000
vt 0.833333 0.500000
vt 0.833333 1.000000
vt 0.750000 0.500000
vt 0.750000 1.000000
vt 0.666667 0.500000
vt 0.666667 1.000000
vt 0.583333 0.500000
vt 0.583333 1.000000
vt 0.500000 0.500000
vt 0.500000 1.000000
vt 0.416667 0.500000
vt 0.416667 1.000000
vt 0.333333 0.500000
vt 0.333333 1.000000
vt 0.250000 0.500000
vt 0.250000 1.000000
vt 0.166667 0.500000
vt 0.042154 0.370000
vt 0.250000 0.010000
vt 0.457846 0.370000
vt 0.166667 1.000000
vt 0.083333 0.500000
vt 0.083333 1.000000
vt 0.000000 0.500000
vt 0.990000 0.250000
vt 0.630000 0.042154
vt 0.630000 0.457846
vt 0.370000 0.457846
vt 0.250000 0.490000
vt 0.130000 0.457846
vt 0.010000 0.250000
vt 0.042154 0.130000
vt 0.130000 0.042154
vt 0.370000 0.042154
vt 0.457846 0.130000
vt 0.490000 0.250000
vt 0.000000 1.000000
vt 0.750000 0.490000
vt 0.870000 0.457846
vt 0.957846 0.370000
vt 0.957846 0.130000
vt 0.870000 0.042154
vt 0.750000 0.010000
vt 0.542154 0.130000
vt 0.510000 0.250000
vt 0.542154 0.370000
s 1
usemtl SteelTip
f 242/413/293 243/414/293 241/415/293
f 244/416/294 245/417/294 243/414/294
f 246/418/295 247/419/295 245/417/295
f 248/420/296 249/421/296 247/419/296
f 250/422/297 251/423/297 249/421/297
f 252/424/298 253/425/298 251/423/298
f 254/426/299 255/427/299 253/425/299
f 256/428/300 257/429/300 255/427/300
f 258/430/301 259/431/301 257/429/301
f 260/432/302 261/433/302 259/431/302
f 262/434/303 254/435/303 246/436/303
f 262/437/304 263/438/304 261/433/304
f 264/439/305 241/440/305 263/438/305
f 247/441/306 255/442/306 263/443/306
f 242/413/293 244/416/293 243/414/293
f 244/416/294 246/418/294 245/417/294
f 246/418/295 248/420/295 247/419/295
f 248/420/296 250/422/296 249/421/296
f 250/422/297 252/424/297 251/423/297
f 252/424/298 254/426/298 253/425/298
f 254/426/299 256/428/299 255/427/299
f 256/428/300 258/430/300 257/429/300
f 258/430/301 260/432/301 259/431/301
f 260/432/302 262/437/302 261/433/302
f 246/436/303 244/444/303 242/445/303
f 242/445/303 264/446/303 262/434/303
f 262/434/303 260/447/303 258/448/303
f 258/448/303 256/449/303 254/435/303
f 254/435/303 252/450/303 250/451/303
f 250/451/303 248/452/303 246/436/303
f 246/436/303 242/445/303 262/434/303
f 262/434/303 258/448/303 254/435/303
f 254/435/303 250/451/303 246/436/303
f 262/437/304 264/439/304 263/438/304
f 264/439/305 242/453/305 241/440/305
f 263/443/306 241/454/306 243/455/306
f 243/455/306 245/456/306 247/441/306
f 247/441/306 249/457/306 251/458/306
f 251/458/306 253/459/306 255/442/306
f 255/442/306 257/460/306 259/461/306
f 259/461/306 261/462/306 263/443/306
f 263/443/306 243/455/306 247/441/306
f 247/441/306 251/458/306 255/442/306
f 255/442/306 259/461/306 263/443/306
