# Blender 5.2.0 LTS
# www.blender.org
mtllib Bush.mtl
o Icosphere.003
v 8.000000 -0.500000 -2.000000
v 9.085411 0.329171 -1.211412
v 7.585418 0.329170 -0.724026
v 6.658361 0.329177 -2.000000
v 7.585418 0.329170 -3.275974
v 9.085411 0.329171 -2.788588
v 8.414582 1.670830 -0.724026
v 6.914589 1.670829 -1.211412
v 6.914589 1.670829 -2.788588
v 8.414582 1.670830 -3.275974
v 9.341640 1.670823 -2.000000
v 8.000000 2.500000 -2.000000
v 7.756317 -0.275982 -1.250007
v 8.637984 -0.275981 -1.536483
v 8.394303 0.211393 -0.786482
v 9.275971 0.211396 -2.000000
v 8.637984 -0.275981 -2.463517
v 7.211405 -0.275977 -2.000000
v 6.967716 0.211396 -1.250005
v 7.756317 -0.275982 -2.749993
v 6.967716 0.211396 -2.749995
v 8.394303 0.211393 -3.213518
v 9.426587 1.000000 -1.536481
v 9.426587 1.000000 -2.463519
v 8.000000 1.000000 -0.500000
v 8.881679 1.000000 -0.786475
v 6.573413 1.000000 -1.536481
v 7.118321 1.000000 -0.786475
v 7.118321 1.000000 -3.213525
v 6.573413 1.000000 -2.463519
v 8.881679 1.000000 -3.213525
v 8.000000 1.000000 -3.500000
v 9.032284 1.788604 -1.250005
v 7.605697 1.788607 -0.786482
v 6.724028 1.788604 -2.000000
v 7.605697 1.788607 -3.213518
v 9.032284 1.788604 -2.749995
v 8.243683 2.275982 -1.250007
v 8.788594 2.275977 -2.000000
v 7.362016 2.275981 -1.536483
v 7.362016 2.275981 -2.463517
v 8.243683 2.275982 -2.749993
vn 0.1024 -0.9435 0.3151
vn 0.7002 -0.6617 0.2680
vn -0.2680 -0.9435 0.1947
vn -0.2680 -0.9435 -0.1947
vn 0.1024 -0.9435 -0.3151
vn 0.9050 -0.3304 0.2680
vn 0.0247 -0.3304 0.9435
vn -0.8897 -0.3304 0.3151
vn -0.5746 -0.3304 -0.7488
vn 0.5346 -0.3304 -0.7779
vn 0.8026 -0.1256 0.5831
vn -0.3066 -0.1256 0.9435
vn -0.9921 -0.1256 -0.0000
vn -0.3066 -0.1256 -0.9435
vn 0.8026 -0.1256 -0.5831
vn 0.4089 0.6617 0.6284
vn -0.4713 0.6617 0.5831
vn -0.7002 0.6617 -0.2680
vn 0.0385 0.6617 -0.7488
vn 0.7240 0.6617 -0.1947
vn 0.2680 0.9435 -0.1947
vn 0.4911 0.7947 -0.3568
vn 0.4089 0.6617 -0.6284
vn -0.1024 0.9435 -0.3151
vn -0.1876 0.7947 -0.5773
vn -0.4713 0.6617 -0.5831
vn -0.3313 0.9435 -0.0000
vn -0.6071 0.7947 -0.0000
vn -0.7002 0.6617 0.2680
vn -0.1024 0.9435 0.3151
vn -0.1876 0.7947 0.5773
vn 0.0385 0.6617 0.7488
vn 0.2680 0.9435 0.1947
vn 0.4911 0.7947 0.3568
vn 0.7240 0.6617 0.1947
vn 0.8897 0.3304 -0.3151
vn 0.7947 0.1876 -0.5773
vn 0.5746 0.3304 -0.7488
vn -0.0247 0.3304 -0.9435
vn -0.3035 0.1876 -0.9342
vn -0.5346 0.3304 -0.7779
vn -0.9050 0.3304 -0.2680
vn -0.9822 0.1876 -0.0000
vn -0.9050 0.3304 0.2680
vn -0.5346 0.3304 0.7779
vn -0.3035 0.1876 0.9342
vn -0.0247 0.3304 0.9435
vn 0.5746 0.3304 0.7488
vn 0.7947 0.1876 0.5773
vn 0.8897 0.3304 0.3151
vn 0.3066 0.1256 -0.9435
vn 0.3035 -0.1876 -0.9342
vn 0.0247 -0.3304 -0.9435
vn -0.8026 0.1256 -0.5831
vn -0.7947 -0.1876 -0.5773
vn -0.8897 -0.3304 -0.3151
vn -0.8026 0.1256 0.5831
vn -0.7947 -0.1876 0.5773
vn -0.5746 -0.3304 0.7488
vn 0.3066 0.1256 0.9435
vn 0.3035 -0.1876 0.9342
vn 0.5346 -0.3304 0.7779
vn 0.9921 0.1256 -0.0000
vn 0.9822 -0.1876 -0.0000
vn 0.9050 -0.3304 -0.2680
vn 0.4713 -0.6617 -0.5831
vn 0.1876 -0.7947 -0.5773
vn -0.0385 -0.6617 -0.7488
vn -0.4089 -0.6617 -0.6284
vn -0.4911 -0.7947 -0.3568
vn -0.7240 -0.6617 -0.1947
vn -0.7240 -0.6617 0.1947
vn -0.4911 -0.7947 0.3568
vn -0.4089 -0.6617 0.6284
vn 0.7002 -0.6617 -0.2680
vn 0.6071 -0.7947 -0.0000
vn 0.3313 -0.9435 -0.0000
vn -0.0385 -0.6617 0.7488
vn 0.1876 -0.7947 0.5773
vn 0.4713 -0.6617 0.5831
vt 0.181819 0.000000
vt 0.227273 0.078731
vt 0.136365 0.078731
vt 0.272728 0.157461
vt 0.318182 0.078731
vt 0.363637 0.157461
vt 0.909091 0.000000
vt 0.954545 0.078731
vt 0.863636 0.078731
vt 0.727273 0.000000
vt 0.772727 0.078731
vt 0.681818 0.078731
vt 0.545455 0.000000
vt 0.590909 0.078731
vt 0.500000 0.078731
vt 0.318182 0.236191
vt 0.090910 0.157461
vt 0.181819 0.157461
vt 0.136365 0.236191
vt 0.818182 0.157461
vt 0.909091 0.157461
vt 0.863636 0.236191
vt 0.636364 0.157461
vt 0.727273 0.157461
vt 0.681818 0.236191
vt 0.454546 0.157461
vt 0.545455 0.157461
vt 0.500000 0.236191
vt 0.227273 0.236191
vt 0.045455 0.236191
vt 0.772727 0.236191
vt 0.590909 0.236191
vt 0.409092 0.236191
vt 0.181819 0.314921
vt 0.272728 0.314921
vt 0.227273 0.393651
vt 0.000000 0.314921
vt 0.090910 0.314921
vt 0.045455 0.393651
vt 0.727273 0.314921
vt 0.818182 0.314921
vt 0.772727 0.393651
vt 0.545455 0.314921
vt 0.636364 0.314921
vt 0.590909 0.393651
vt 0.363637 0.314921
vt 0.454546 0.314921
vt 0.409092 0.393651
vt 0.500000 0.393651
vt 0.454546 0.472382
vt 0.681818 0.393651
vt 0.636364 0.472382
vt 0.863636 0.393651
vt 0.818182 0.472382
vt 0.909091 0.314921
vt 0.136365 0.393651
vt 0.090910 0.472382
vt 0.318182 0.393651
vt 0.272728 0.472382
vt 0.954545 0.236191
vt 1.000000 0.157461
vt 0.409092 0.078731
vt 0.363637 0.000000
s 0
usemtl Map_Leaves
f 1/1/1 14/2/1 13/3/1
f 2/4/2 14/5/2 16/6/2
f 1/7/3 13/8/3 18/9/3
f 1/10/4 18/11/4 20/12/4
f 1/13/5 20/14/5 17/15/5
f 2/4/6 16/6/6 23/16/6
f 3/17/7 15/18/7 25/19/7
f 4/20/8 19/21/8 27/22/8
f 5/23/9 21/24/9 29/25/9
f 6/26/10 22/27/10 31/28/10
f 2/4/11 23/16/11 26/29/11
f 3/17/12 25/19/12 28/30/12
f 4/20/13 27/22/13 30/31/13
f 5/23/14 29/25/14 32/32/14
f 6/26/15 31/28/15 24/33/15
f 7/34/16 33/35/16 38/36/16
f 8/37/17 34/38/17 40/39/17
f 9/40/18 35/41/18 41/42/18
f 10/43/19 36/44/19 42/45/19
f 11/46/20 37/47/20 39/48/20
f 39/48/21 42/49/21 12/50/21
f 39/48/22 37/47/22 42/49/22
f 37/47/23 10/43/23 42/49/23
f 42/45/24 41/51/24 12/52/24
f 42/45/25 36/44/25 41/51/25
f 36/44/26 9/40/26 41/51/26
f 41/42/27 40/53/27 12/54/27
f 41/42/28 35/41/28 40/53/28
f 35/41/29 8/55/29 40/53/29
f 40/39/30 38/56/30 12/57/30
f 40/39/31 34/38/31 38/56/31
f 34/38/32 7/34/32 38/56/32
f 38/36/33 39/58/33 12/59/33
f 38/36/34 33/35/34 39/58/34
f 33/35/35 11/46/35 39/58/35
f 24/33/36 37/47/36 11/46/36
f 24/33/37 31/28/37 37/47/37
f 31/28/38 10/43/38 37/47/38
f 32/32/39 36/44/39 10/43/39
f 32/32/40 29/25/40 36/44/40
f 29/25/41 9/40/41 36/44/41
f 30/31/42 35/41/42 9/40/42
f 30/31/43 27/22/43 35/41/43
f 27/22/44 8/55/44 35/41/44
f 28/30/45 34/38/45 8/37/45
f 28/30/46 25/19/46 34/38/46
f 25/19/47 7/34/47 34/38/47
f 26/29/48 33/35/48 7/34/48
f 26/29/49 23/16/49 33/35/49
f 23/16/50 11/46/50 33/35/50
f 31/28/51 32/32/51 10/43/51
f 31/28/52 22/27/52 32/32/52
f 22/27/53 5/23/53 32/32/53
f 29/25/54 30/31/54 9/40/54
f 29/25/55 21/24/55 30/31/55
f 21/24/56 4/20/56 30/31/56
f 27/22/57 28/60/57 8/55/57
f 27/22/58 19/21/58 28/60/58
f 19/21/59 3/61/59 28/60/59
f 25/19/60 26/29/60 7/34/60
f 25/19/61 15/18/61 26/29/61
f 15/18/62 2/4/62 26/29/62
f 23/16/63 24/33/63 11/46/63
f 23/16/64 16/6/64 24/33/64
f 16/6/65 6/26/65 24/33/65
f 17/15/66 22/27/66 6/26/66
f 17/15/67 20/14/67 22/27/67
f 20/14/68 5/23/68 22/27/68
f 20/12/69 21/24/69 5/23/69
f 20/12/70 18/11/70 21/24/70
f 18/11/71 4/20/71 21/24/71
f 18/9/72 19/21/72 4/20/72
f 18/9/73 13/8/73 19/21/73
f 13/8/74 3/61/74 19/21/74
f 16/6/75 17/62/75 6/26/75
f 16/6/76 14/5/76 17/62/76
f 14/5/77 1/63/77 17/62/77
f 13/3/78 15/18/78 3/17/78
f 13/3/79 14/2/79 15/18/79
f 14/2/80 2/4/80 15/18/80
o Icosphere.004
v 9.200000 -0.400000 -2.800000
v 9.923607 0.152781 -2.274275
v 8.923612 0.152780 -1.949351
v 8.305573 0.152784 -2.800000
v 8.923612 0.152780 -3.650649
v 9.923607 0.152781 -3.325725
v 9.476388 1.047220 -1.949351
v 8.476393 1.047220 -2.274275
v 8.476393 1.047220 -3.325725
v 9.476388 1.047220 -3.650649
v 10.094426 1.047216 -2.800000
v 9.200000 1.600000 -2.800000
v 9.037544 -0.250654 -2.300005
v 9.625322 -0.250654 -2.490988
v 9.462869 0.074262 -1.990988
v 10.050648 0.074264 -2.800000
v 9.625322 -0.250654 -3.109011
v 8.674270 -0.250652 -2.800000
v 8.511810 0.074264 -2.300003
v 9.037544 -0.250654 -3.299995
v 8.511810 0.074264 -3.299997
v 9.462869 0.074262 -3.609012
v 10.151057 0.600000 -2.490987
v 10.151057 0.600000 -3.109013
v 9.200000 0.600000 -1.800000
v 9.787786 0.600000 -1.990983
v 8.248942 0.600000 -2.490987
v 8.612214 0.600000 -1.990983
v 8.612214 0.600000 -3.609017
v 8.248942 0.600000 -3.109013
v 9.787786 0.600000 -3.609017
v 9.200000 0.600000 -3.800000
v 9.888189 1.125736 -2.300003
v 8.937131 1.125738 -1.990988
v 8.349352 1.125736 -2.800000
v 8.937131 1.125738 -3.609012
v 9.888189 1.125736 -3.299997
v 9.362455 1.450654 -2.300005
v 9.725730 1.450652 -2.800000
v 8.774677 1.450654 -2.490988
v 8.774677 1.450654 -3.109011
v 9.362455 1.450654 -3.299995
vn 0.1024 -0.9435 0.3151
vn 0.7002 -0.6617 0.2680
vn -0.2680 -0.9435 0.1947
vn -0.2680 -0.9435 -0.1947
vn 0.1024 -0.9435 -0.3151
vn 0.9050 -0.3304 0.2680
vn 0.0247 -0.3304 0.9435
vn -0.8897 -0.3304 0.3151
vn -0.5746 -0.3304 -0.7488
vn 0.5346 -0.3304 -0.7779
vn 0.8026 -0.1256 0.5831
vn -0.3066 -0.1256 0.9435
vn -0.9921 -0.1256 -0.0000
vn -0.3066 -0.1256 -0.9435
vn 0.8026 -0.1256 -0.5831
vn 0.4089 0.6617 0.6284
vn -0.4713 0.6617 0.5831
vn -0.7002 0.6617 -0.2680
vn 0.0385 0.6617 -0.7488
vn 0.7240 0.6617 -0.1947
vn 0.2680 0.9435 -0.1947
vn 0.4911 0.7947 -0.3568
vn 0.4089 0.6617 -0.6284
vn -0.1024 0.9435 -0.3151
vn -0.1876 0.7947 -0.5773
vn -0.4713 0.6617 -0.5831
vn -0.3313 0.9435 -0.0000
vn -0.6071 0.7947 -0.0000
vn -0.7002 0.6617 0.2680
vn -0.1024 0.9435 0.3151
vn -0.1876 0.7947 0.5773
vn 0.0385 0.6617 0.7488
vn 0.2680 0.9435 0.1947
vn 0.4911 0.7947 0.3568
vn 0.7240 0.6617 0.1947
vn 0.8897 0.3304 -0.3151
vn 0.7947 0.1876 -0.5773
vn 0.5746 0.3304 -0.7488
vn -0.0247 0.3304 -0.9435
vn -0.3035 0.1876 -0.9342
vn -0.5346 0.3304 -0.7779
vn -0.9050 0.3304 -0.2680
vn -0.9822 0.1876 -0.0000
vn -0.9050 0.3304 0.2680
vn -0.5346 0.3304 0.7779
vn -0.3035 0.1876 0.9342
vn -0.0247 0.3304 0.9435
vn 0.5746 0.3304 0.7488
vn 0.7947 0.1876 0.5773
vn 0.8897 0.3304 0.3151
vn 0.3066 0.1256 -0.9435
vn 0.3035 -0.1876 -0.9342
vn 0.0247 -0.3304 -0.9435
vn -0.8026 0.1256 -0.5831
vn -0.7947 -0.1876 -0.5773
vn -0.8897 -0.3304 -0.3151
vn -0.8026 0.1256 0.5831
vn -0.7947 -0.1876 0.5773
vn -0.5746 -0.3304 0.7488
vn 0.3066 0.1256 0.9435
vn 0.3035 -0.1876 0.9342
vn 0.5346 -0.3304 0.7779
vn 0.9921 0.1256 -0.0000
vn 0.9822 -0.1876 -0.0000
vn 0.9050 -0.3304 -0.2680
vn 0.4713 -0.6617 -0.5831
vn 0.1876 -0.7947 -0.5773
vn -0.0385 -0.6617 -0.7488
vn -0.4089 -0.6617 -0.6284
vn -0.4911 -0.7947 -0.3568
vn -0.7240 -0.6617 -0.1947
vn -0.7240 -0.6617 0.1947
vn -0.4911 -0.7947 0.3568
vn -0.4089 -0.6617 0.6284
vn 0.7002 -0.6617 -0.2680
vn 0.6071 -0.7947 -0.0000
vn 0.3313 -0.9435 -0.0000
vn -0.0385 -0.6617 0.7488
vn 0.1876 -0.7947 0.5773
vn 0.4713 -0.6617 0.5831
vt 0.181819 0.000000
vt 0.227273 0.078731
vt 0.136365 0.078731
vt 0.272728 0.157461
vt 0.318182 0.078731
vt 0.363637 0.157461
vt 0.909091 0.000000
vt 0.954545 0.078731
vt 0.863636 0.078731
vt 0.727273 0.000000
vt 0.772727 0.078731
vt 0.681818 0.078731
vt 0.545455 0.000000
vt 0.590909 0.078731
vt 0.500000 0.078731
vt 0.318182 0.236191
vt 0.090910 0.157461
vt 0.181819 0.157461
vt 0.136365 0.236191
vt 0.818182 0.157461
vt 0.909091 0.157461
vt 0.863636 0.236191
vt 0.636364 0.157461
vt 0.727273 0.157461
vt 0.681818 0.236191
vt 0.454546 0.157461
vt 0.545455 0.157461
vt 0.500000 0.236191
vt 0.227273 0.236191
vt 0.045455 0.236191
vt 0.772727 0.236191
vt 0.590909 0.236191
vt 0.409092 0.236191
vt 0.181819 0.314921
vt 0.272728 0.314921
vt 0.227273 0.393651
vt 0.000000 0.314921
vt 0.090910 0.314921
vt 0.045455 0.393651
vt 0.727273 0.314921
vt 0.818182 0.314921
vt 0.772727 0.393651
vt 0.545455 0.314921
vt 0.636364 0.314921
vt 0.590909 0.393651
vt 0.363637 0.314921
vt 0.454546 0.314921
vt 0.409092 0.393651
vt 0.500000 0.393651
vt 0.454546 0.472382
vt 0.681818 0.393651
vt 0.636364 0.472382
vt 0.863636 0.393651
vt 0.818182 0.472382
vt 0.909091 0.314921
vt 0.136365 0.393651
vt 0.090910 0.472382
vt 0.318182 0.393651
vt 0.272728 0.472382
vt 0.954545 0.236191
vt 1.000000 0.157461
vt 0.409092 0.078731
vt 0.363637 0.000000
s 0
usemtl Map_Leaves
f 43/64/81 56/65/81 55/66/81
f 44/67/82 56/68/82 58/69/82
f 43/70/83 55/71/83 60/72/83
f 43/73/84 60/74/84 62/75/84
f 43/76/85 62/77/85 59/78/85
f 44/67/86 58/69/86 65/79/86
f 45/80/87 57/81/87 67/82/87
f 46/83/88 61/84/88 69/85/88
f 47/86/89 63/87/89 71/88/89
f 48/89/90 64/90/90 73/91/90
f 44/67/91 65/79/91 68/92/91
f 45/80/92 67/82/92 70/93/92
f 46/83/93 69/85/93 72/94/93
f 47/86/94 71/88/94 74/95/94
f 48/89/95 73/91/95 66/96/95
f 49/97/96 75/98/96 80/99/96
f 50/100/97 76/101/97 82/102/97
f 51/103/98 77/104/98 83/105/98
f 52/106/99 78/107/99 84/108/99
f 53/109/100 79/110/100 81/111/100
f 81/111/101 84/112/101 54/113/101
f 81/111/102 79/110/102 84/112/102
f 79/110/103 52/106/103 84/112/103
f 84/108/104 83/114/104 54/115/104
f 84/108/105 78/107/105 83/114/105
f 78/107/106 51/103/106 83/114/106
f 83/105/107 82/116/107 54/117/107
f 83/105/108 77/104/108 82/116/108
f 77/104/109 50/118/109 82/116/109
f 82/102/110 80/119/110 54/120/110
f 82/102/111 76/101/111 80/119/111
f 76/101/112 49/97/112 80/119/112
f 80/99/113 81/121/113 54/122/113
f 80/99/114 75/98/114 81/121/114
f 75/98/115 53/109/115 81/121/115
f 66/96/116 79/110/116 53/109/116
f 66/96/117 73/91/117 79/110/117
f 73/91/118 52/106/118 79/110/118
f 74/95/119 78/107/119 52/106/119
f 74/95/120 71/88/120 78/107/120
f 71/88/121 51/103/121 78/107/121
f 72/94/122 77/104/122 51/103/122
f 72/94/123 69/85/123 77/104/123
f 69/85/124 50/118/124 77/104/124
f 70/93/125 76/101/125 50/100/125
f 70/93/126 67/82/126 76/101/126
f 67/82/127 49/97/127 76/101/127
f 68/92/128 75/98/128 49/97/128
f 68/92/129 65/79/129 75/98/129
f 65/79/130 53/109/130 75/98/130
f 73/91/131 74/95/131 52/106/131
f 73/91/132 64/90/132 74/95/132
f 64/90/133 47/86/133 74/95/133
f 71/88/134 72/94/134 51/103/134
f 71/88/135 63/87/135 72/94/135
f 63/87/136 46/83/136 72/94/136
f 69/85/137 70/123/137 50/118/137
f 69/85/138 61/84/138 70/123/138
f 61/84/139 45/124/139 70/123/139
f 67/82/140 68/92/140 49/97/140
f 67/82/141 57/81/141 68/92/141
f 57/81/142 44/67/142 68/92/142
f 65/79/143 66/96/143 53/109/143
f 65/79/144 58/69/144 66/96/144
f 58/69/145 48/89/145 66/96/145
f 59/78/146 64/90/146 48/89/146
f 59/78/147 62/77/147 64/90/147
f 62/77/148 47/86/148 64/90/148
f 62/75/149 63/87/149 47/86/149
f 62/75/150 60/74/150 63/87/150
f 60/74/151 46/83/151 63/87/151
f 60/72/152 61/84/152 46/83/152
f 60/72/153 55/71/153 61/84/153
f 55/71/154 45/124/154 61/84/154
f 58/69/155 59/125/155 48/89/155
f 58/69/156 56/68/156 59/125/156
f 56/68/157 43/126/157 59/125/157
f 55/66/158 57/81/158 45/80/158
f 55/66/159 56/65/159 57/81/159
f 56/65/160 44/67/160 57/81/160
