# Blender 5.2.0 LTS
# www.blender.org
mtllib House.mtl
o Cube
v -17.000000 0.000000 -1.000000
v -17.000000 6.000000 -1.000000
v -17.000000 0.000000 -9.000000
v -17.000000 6.000000 -9.000000
v -7.000000 0.000000 -1.000000
v -7.000000 6.000000 -1.000000
v -7.000000 0.000000 -9.000000
v -7.000000 6.000000 -9.000000
vn -1.0000 -0.0000 -0.0000
vn -0.0000 -0.0000 -1.0000
vn 1.0000 -0.0000 -0.0000
vn -0.0000 -0.0000 1.0000
vn -0.0000 -1.0000 -0.0000
vn -0.0000 1.0000 -0.0000
vt 0.625000 0.000000
vt 0.375000 0.250000
vt 0.375000 0.000000
vt 0.625000 0.250000
vt 0.375000 0.500000
vt 0.625000 0.500000
vt 0.375000 0.750000
vt 0.625000 0.750000
vt 0.375000 1.000000
vt 0.125000 0.750000
vt 0.125000 0.500000
vt 0.875000 0.500000
vt 0.625000 1.000000
vt 0.875000 0.750000
s 0
usemtl Map_Concrete
f 2/1/1 3/2/1 1/3/1
f 4/4/2 7/5/2 3/2/2
f 8/6/3 5/7/3 7/5/3
f 6/8/4 1/9/4 5/7/4
f 7/5/5 1/10/5 3/11/5
f 4/12/6 6/8/6 8/6/6
f 2/1/1 4/4/1 3/2/1
f 4/4/2 8/6/2 7/5/2
f 8/6/3 6/8/3 5/7/3
f 6/8/4 2/13/4 1/9/4
f 7/5/5 5/7/5 1/10/5
f 4/12/6 2/14/6 6/8/6
o Cone
v -15.959798 6.000000 -8.959798
v -7.050252 6.000000 -9.949747
v -8.040202 6.000000 -1.040202
v -16.949747 6.000000 -0.050252
v -12.000000 10.000000 -5.000000
vn -0.0745 0.7379 -0.6708
vn 0.6708 0.7379 0.0745
vn -0.0000 -1.0000 -0.0000
vn 0.0745 0.7379 0.6708
vn -0.6708 0.7379 -0.0745
vt 0.250000 0.490000
vt 0.250000 0.250000
vt 0.490000 0.250000
vt 0.250000 0.010000
vt 0.750000 0.490000
vt 0.750000 0.010000
vt 0.510000 0.250000
vt 0.010000 0.250000
vt 0.990000 0.250000
s 0
usemtl Map_Roof
f 9/15/7 13/16/7 10/17/7
f 10/17/8 13/16/8 11/18/8
f 9/19/9 11/20/9 12/21/9
f 11/18/10 13/16/10 12/22/10
f 12/22/11 13/16/11 9/15/11
f 9/19/9 10/23/9 11/20/9
o Cube.001
v -12.750000 0.000000 -0.800000
v -12.750000 3.000000 -0.800000
v -12.750000 0.000000 -1.000000
v -12.750000 3.000000 -1.000000
v -11.250000 0.000000 -0.800000
v -11.250000 3.000000 -0.800000
v -11.250000 0.000000 -1.000000
v -11.250000 3.000000 -1.000000
vn -1.0000 -0.0000 -0.0000
vn -0.0000 -0.0000 -1.0000
vn 1.0000 -0.0000 -0.0000
vn -0.0000 -0.0000 1.0000
vn -0.0000 -1.0000 -0.0000
vn -0.0000 1.0000 -0.0000
vt 0.625000 0.000000
vt 0.375000 0.250000
vt 0.375000 0.000000
vt 0.625000 0.250000
vt 0.375000 0.500000
vt 0.625000 0.500000
vt 0.375000 0.750000
vt 0.625000 0.750000
vt 0.375000 1.000000
vt 0.125000 0.750000
vt 0.125000 0.500000
vt 0.875000 0.500000
vt 0.625000 1.000000
vt 0.875000 0.750000
s 0
usemtl Map_Wood
f 15/24/12 16/25/12 14/26/12
f 17/27/13 20/28/13 16/25/13
f 21/29/14 18/30/14 20/28/14
f 19/31/15 14/32/15 18/30/15
f 20/28/16 14/33/16 16/34/16
f 17/35/17 19/31/17 21/29/17
f 15/24/12 17/27/12 16/25/12
f 17/27/13 21/29/13 20/28/13
f 21/29/14 19/31/14 18/30/14
f 19/31/15 15/36/15 14/32/15
f 20/28/16 18/30/16 14/33/16
f 17/35/17 15/37/17 19/31/17
o Cube.002
v -15.500000 1.750000 -0.800000
v -15.500000 3.250000 -0.800000
v -15.500000 1.750000 -1.000000
v -15.500000 3.250000 -1.000000
v -13.500000 1.750000 -0.800000
v -13.500000 3.250000 -0.800000
v -13.500000 1.750000 -1.000000
v -13.500000 3.250000 -1.000000
vn -1.0000 -0.0000 -0.0000
vn -0.0000 -0.0000 -1.0000
vn 1.0000 -0.0000 -0.0000
vn -0.0000 -0.0000 1.0000
vn -0.0000 -1.0000 -0.0000
vn -0.0000 1.0000 -0.0000
vt 0.625000 0.000000
vt 0.375000 0.250000
vt 0.375000 0.000000
vt 0.625000 0.250000
vt 0.375000 0.500000
vt 0.625000 0.500000
vt 0.375000 0.750000
vt 0.625000 0.750000
vt 0.375000 1.000000
vt 0.125000 0.750000
vt 0.125000 0.500000
vt 0.875000 0.500000
vt 0.625000 1.000000
vt 0.875000 0.750000
s 0
usemtl Map_Window
f 23/38/18 24/39/18 22/40/18
f 25/41/19 28/42/19 24/39/19
f 29/43/20 26/44/20 28/42/20
f 27/45/21 22/46/21 26/44/21
f 28/42/22 22/47/22 24/48/22
f 25/49/23 27/45/23 29/43/23
f 23/38/18 25/41/18 24/39/18
f 25/41/19 29/43/19 28/42/19
f 29/43/20 27/45/20 26/44/20
f 27/45/21 23/50/21 22/46/21
f 28/42/22 26/44/22 22/47/22
f 25/49/23 23/51/23 27/45/23
