# Blender 5.2.0 LTS
# www.blender.org
mtllib Tree.mtl
o Cylinder
v 10.000000 0.000000 -8.600000
v 10.000000 5.000000 -8.600000
v 10.117054 0.000000 -8.588471
v 10.117054 5.000000 -8.588471
v 10.229610 0.000000 -8.554328
v 10.229610 5.000000 -8.554328
v 10.333343 0.000000 -8.498881
v 10.333343 5.000000 -8.498881
v 10.424264 0.000000 -8.424264
v 10.424264 5.000000 -8.424264
v 10.498881 0.000000 -8.333343
v 10.498881 5.000000 -8.333343
v 10.554328 0.000000 -8.229610
v 10.554328 5.000000 -8.229610
v 10.588471 0.000000 -8.117054
v 10.588471 5.000000 -8.117054
v 10.600000 0.000000 -8.000000
v 10.600000 5.000000 -8.000000
v 10.588471 0.000000 -7.882946
v 10.588471 5.000000 -7.882946
v 10.554328 0.000000 -7.770390
v 10.554328 5.000000 -7.770390
v 10.498881 0.000000 -7.666658
v 10.498881 5.000000 -7.666658
v 10.424264 0.000000 -7.575736
v 10.424264 5.000000 -7.575736
v 10.333343 0.000000 -7.501118
v 10.333343 5.000000 -7.501118
v 10.229610 0.000000 -7.445672
v 10.229610 5.000000 -7.445672
v 10.117054 0.000000 -7.411529
v 10.117054 5.000000 -7.411529
v 10.000000 0.000000 -7.400000
v 10.000000 5.000000 -7.400000
v 9.882946 0.000000 -7.411529
v 9.882946 5.000000 -7.411529
v 9.770390 0.000000 -7.445672
v 9.770390 5.000000 -7.445672
v 9.666657 0.000000 -7.501118
v 9.666657 5.000000 -7.501118
v 9.575736 0.000000 -7.575736
v 9.575736 5.000000 -7.575736
v 9.501119 0.000000 -7.666658
v 9.501119 5.000000 -7.666658
v 9.445672 0.000000 -7.770390
v 9.445672 5.000000 -7.770390
v 9.411529 0.000000 -7.882946
v 9.411529 5.000000 -7.882946
v 9.400000 0.000000 -8.000000
v 9.400000 5.000000 -8.000000
v 9.411529 0.000000 -8.117054
v 9.411529 5.000000 -8.117054
v 9.445672 0.000000 -8.229610
v 9.445672 5.000000 -8.229610
v 9.501119 0.000000 -8.333343
v 9.501119 5.000000 -8.333343
v 9.575736 0.000000 -8.424264
v 9.575736 5.000000 -8.424264
v 9.666657 0.000000 -8.498881
v 9.666657 5.000000 -8.498881
v 9.770390 0.000000 -8.554328
v 9.770390 5.000000 -8.554328
v 9.882946 0.000000 -8.588471
v 9.882946 5.000000 -8.588471
vn 0.0980 -0.0000 -0.9952
vn 0.2903 -0.0000 -0.9569
vn 0.4714 -0.0000 -0.8819
vn 0.6344 -0.0000 -0.7730
vn 0.7730 -0.0000 -0.6344
vn 0.8819 -0.0000 -0.4714
vn 0.9569 -0.0000 -0.2903
vn 0.9952 -0.0000 -0.0980
vn 0.9952 -0.0000 0.0980
vn 0.9569 -0.0000 0.2903
vn 0.8819 -0.0000 0.4714
vn 0.7730 -0.0000 0.6344
vn 0.6344 -0.0000 0.7730
vn 0.4714 -0.0000 0.8819
vn 0.2903 -0.0000 0.9569
vn 0.0980 -0.0000 0.9952
vn -0.0980 -0.0000 0.9952
vn -0.2903 -0.0000 0.9569
vn -0.4714 -0.0000 0.8819
vn -0.6344 -0.0000 0.7730
vn -0.7730 -0.0000 0.6344
vn -0.8819 -0.0000 0.4714
vn -0.9569 -0.0000 0.2903
vn -0.9952 -0.0000 0.0980
vn -0.9952 -0.0000 -0.0980
vn -0.9569 -0.0000 -0.2903
vn -0.8819 -0.0000 -0.4714
vn -0.7730 -0.0000 -0.6344
vn -0.6344 -0.0000 -0.7730
vn -0.4714 -0.0000 -0.8819
vn -0.0000 1.0000 -0.0000
vn -0.2903 -0.0000 -0.9569
vn -0.0980 -0.0000 -0.9952
vn -0.0000 -1.0000 -0.0000
vt 1.000000 1.000000
vt 0.968750 0.500000
vt 1.000000 0.500000
vt 0.968750 1.000000
vt 0.937500 0.500000
vt 0.937500 1.000000
vt 0.906250 0.500000
vt 0.906250 1.000000
vt 0.875000 0.500000
vt 0.875000 1.000000
vt 0.843750 0.500000
vt 0.843750 1.000000
vt 0.812500 0.500000
vt 0.812500 1.000000
vt 0.781250 0.500000
vt 0.781250 1.000000
vt 0.750000 0.500000
vt 0.750000 1.000000
vt 0.718750 0.500000
vt 0.718750 1.000000
vt 0.687500 0.500000
vt 0.687500 1.000000
vt 0.656250 0.500000
vt 0.656250 1.000000
vt 0.625000 0.500000
vt 0.625000 1.000000
vt 0.593750 0.500000
vt 0.593750 1.000000
vt 0.562500 0.500000
vt 0.562500 1.000000
vt 0.531250 0.500000
vt 0.531250 1.000000
vt 0.500000 0.500000
vt 0.500000 1.000000
vt 0.468750 0.500000
vt 0.468750 1.000000
vt 0.437500 0.500000
vt 0.437500 1.000000
vt 0.406250 0.500000
vt 0.406250 1.000000
vt 0.375000 0.500000
vt 0.375000 1.000000
vt 0.343750 0.500000
vt 0.343750 1.000000
vt 0.312500 0.500000
vt 0.312500 1.000000
vt 0.281250 0.500000
vt 0.281250 1.000000
vt 0.250000 0.500000
vt 0.250000 1.000000
vt 0.218750 0.500000
vt 0.218750 1.000000
vt 0.187500 0.500000
vt 0.187500 1.000000
vt 0.156250 0.500000
vt 0.156250 1.000000
vt 0.125000 0.500000
vt 0.125000 1.000000
vt 0.093750 0.500000
vt 0.093750 1.000000
vt 0.062500 0.500000
vt 0.158156 0.028269
vt 0.471731 0.158156
vt 0.341844 0.471731
vt 0.062500 1.000000
vt 0.031250 0.500000
vt 0.031250 1.000000
vt 0.000000 0.500000
vt 0.796822 0.014612
vt 0.514612 0.203178
vt 0.703178 0.485388
vt 0.296822 0.485388
vt 0.250000 0.490000
vt 0.203178 0.485388
vt 0.158156 0.471731
vt 0.116663 0.449553
vt 0.080294 0.419706
vt 0.050447 0.383337
vt 0.028269 0.341844
vt 0.014612 0.296822
vt 0.010000 0.250000
vt 0.014612 0.203178
vt 0.028269 0.158156
vt 0.050447 0.116663
vt 0.080294 0.080294
vt 0.116663 0.050447
vt 0.203178 0.014612
vt 0.250000 0.010000
vt 0.296822 0.014612
vt 0.341844 0.028269
vt 0.383337 0.050447
vt 0.419706 0.080294
vt 0.449553 0.116663
vt 0.485388 0.203178
vt 0.490000 0.250000
vt 0.485388 0.296822
vt 0.471731 0.341844
vt 0.449553 0.383337
vt 0.419706 0.419706
vt 0.383337 0.449553
vt 0.000000 1.000000
vt 0.750000 0.490000
vt 0.796822 0.485388
vt 0.841844 0.471731
vt 0.883337 0.449553
vt 0.919706 0.419706
vt 0.949553 0.383337
vt 0.971731 0.341844
vt 0.985388 0.296822
vt 0.990000 0.250000
vt 0.985388 0.203178
vt 0.971731 0.158156
vt 0.949553 0.116663
vt 0.919706 0.080294
vt 0.883337 0.050447
vt 0.841844 0.028269
vt 0.750000 0.010000
vt 0.703178 0.014612
vt 0.658156 0.028269
vt 0.616663 0.050447
vt 0.580294 0.080294
vt 0.550447 0.116663
vt 0.528269 0.158156
vt 0.510000 0.250000
vt 0.514612 0.296822
vt 0.528269 0.341844
vt 0.550447 0.383337
vt 0.580294 0.419706
vt 0.616663 0.449553
vt 0.658156 0.471731
s 0
usemtl Map_Wood
f 2/1/1 3/2/1 1/3/1
f 4/4/2 5/5/2 3/2/2
f 6/6/3 7/7/3 5/5/3
f 8/8/4 9/9/4 7/7/4
f 10/10/5 11/11/5 9/9/5
f 12/12/6 13/13/6 11/11/6
f 14/14/7 15/15/7 13/13/7
f 16/16/8 17/17/8 15/15/8
f 18/18/9 19/19/9 17/17/9
f 20/20/10 21/21/10 19/19/10
f 22/22/11 23/23/11 21/21/11
f 24/24/12 25/25/12 23/23/12
f 26/26/13 27/27/13 25/25/13
f 28/28/14 29/29/14 27/27/14
f 30/30/15 31/31/15 29/29/15
f 32/32/16 33/33/16 31/31/16
f 34/34/17 35/35/17 33/33/17
f 36/36/18 37/37/18 35/35/18
f 38/38/19 39/39/19 37/37/19
f 40/40/20 41/41/20 39/39/20
f 42/42/21 43/43/21 41/41/21
f 44/44/22 45/45/22 43/43/22
f 46/46/23 47/47/23 45/45/23
f 48/48/24 49/49/24 47/47/24
f 50/50/25 51/51/25 49/49/25
f 52/52/26 53/53/26 51/51/26
f 54/54/27 55/55/27 53/53/27
f 56/56/28 57/57/28 55/55/28
f 58/58/29 59/59/29 57/57/29
f 60/60/30 61/61/30 59/59/30
f 38/62/31 22/63/31 6/64/31
f 62/65/32 63/66/32 61/61/32
f 64/67/33 1/68/33 63/66/33
f 31/69/34 47/70/34 63/71/34
f 2/1/1 4/4/1 3/2/1
f 4/4/2 6/6/2 5/5/2
f 6/6/3 8/8/3 7/7/3
f 8/8/4 10/10/4 9/9/4
f 10/10/5 12/12/5 11/11/5
f 12/12/6 14/14/6 13/13/6
f 14/14/7 16/16/7 15/15/7
f 16/16/8 18/18/8 17/17/8
f 18/18/9 20/20/9 19/19/9
f 20/20/10 22/22/10 21/21/10
f 22/22/11 24/24/11 23/23/11
f 24/24/12 26/26/12 25/25/12
f 26/26/13 28/28/13 27/27/13
f 28/28/14 30/30/14 29/29/14
f 30/30/15 32/32/15 31/31/15
f 32/32/16 34/34/16 33/33/16
f 34/34/17 36/36/17 35/35/17
f 36/36/18 38/38/18 37/37/18
f 38/38/19 40/40/19 39/39/19
f 40/40/20 42/42/20 41/41/20
f 42/42/21 44/44/21 43/43/21
f 44/44/22 46/46/22 45/45/22
f 46/46/23 48/48/23 47/47/23
f 48/48/24 50/50/24 49/49/24
f 50/50/25 52/52/25 51/51/25
f 52/52/26 54/54/26 53/53/26
f 54/54/27 56/56/27 55/55/27
f 56/56/28 58/58/28 57/57/28
f 58/58/29 60/60/29 59/59/29
f 60/60/30 62/65/30 61/61/30
f 6/64/31 4/72/31 2/73/31
f 2/73/31 64/74/31 62/75/31
f 62/75/31 60/76/31 58/77/31
f 58/77/31 56/78/31 54/79/31
f 54/79/31 52/80/31 50/81/31
f 50/81/31 48/82/31 46/83/31
f 46/83/31 44/84/31 42/85/31
f 42/85/31 40/86/31 38/62/31
f 38/62/31 36/87/31 34/88/31
f 34/88/31 32/89/31 30/90/31
f 30/90/31 28/91/31 26/92/31
f 26/92/31 24/93/31 22/63/31
f 22/63/31 20/94/31 18/95/31
f 18/95/31 16/96/31 14/97/31
f 14/97/31 12/98/31 10/99/31
f 10/99/31 8/100/31 6/64/31
f 6/64/31 2/73/31 62/75/31
f 62/75/31 58/77/31 54/79/31
f 54/79/31 50/81/31 46/83/31
f 46/83/31 42/85/31 38/62/31
f 38/62/31 34/88/31 30/90/31
f 30/90/31 26/92/31 22/63/31
f 22/63/31 18/95/31 14/97/31
f 14/97/31 10/99/31 6/64/31
f 6/64/31 62/75/31 54/79/31
f 54/79/31 46/83/31 38/62/31
f 38/62/31 30/90/31 22/63/31
f 22/63/31 14/97/31 6/64/31
f 6/64/31 54/79/31 38/62/31
f 62/65/32 64/67/32 63/66/32
f 64/67/33 2/101/33 1/68/33
f 63/71/34 1/102/34 3/103/34
f 3/103/34 5/104/34 7/105/34
f 7/105/34 9/106/34 11/107/34
f 11/107/34 13/108/34 15/109/34
f 15/109/34 17/110/34 19/111/34
f 19/111/34 21/112/34 23/113/34
f 23/113/34 25/114/34 27/115/34
f 27/115/34 29/116/34 31/69/34
f 31/69/34 33/117/34 35/118/34
f 35/118/34 37/119/34 39/120/34
f 39/120/34 41/121/34 43/122/34
f 43/122/34 45/123/34 47/70/34
f 47/70/34 49/124/34 51/125/34
f 51/125/34 53/126/34 55/127/34
f 55/127/34 57/128/34 59/129/34
f 59/129/34 61/130/34 63/71/34
f 63/71/34 3/103/34 7/105/34
f 7/105/34 11/107/34 15/109/34
f 15/109/34 19/111/34 23/113/34
f 23/113/34 27/115/34 31/69/34
f 31/69/34 35/118/34 39/120/34
f 39/120/34 43/122/34 47/70/34
f 47/70/34 51/125/34 55/127/34
f 55/127/34 59/129/34 63/71/34
f 63/71/34 7/105/34 15/109/34
f 15/109/34 23/113/34 31/69/34
f 31/69/34 39/120/34 47/70/34
f 47/70/34 55/127/34 63/71/34
f 63/71/34 15/109/34 31/69/34
o Icosphere
v 10.000000 2.500000 -8.000000
v 11.809018 3.881951 -6.685687
v 9.309031 3.881950 -5.873377
v 7.763935 3.881961 -8.000000
v 9.309031 3.881950 -10.126623
v 11.809018 3.881951 -9.314313
v 10.690969 6.118050 -5.873377
v 8.190982 6.118049 -6.685687
v 8.190982 6.118049 -9.314313
v 10.690969 6.118050 -10.126623
v 12.236065 6.118039 -8.000000
v 10.000000 7.500000 -8.000000
v 9.593862 2.873364 -6.750012
v 11.063307 2.873364 -7.227471
v 10.657172 3.685656 -5.977471
v 12.126619 3.685660 -8.000000
v 11.063307 2.873364 -8.772529
v 8.685676 2.873371 -8.000000
v 8.279527 3.685659 -6.750008
v 9.593862 2.873364 -9.249989
v 8.279527 3.685659 -9.249992
v 10.657172 3.685656 -10.022530
v 12.377645 5.000000 -7.227468
v 12.377645 5.000000 -8.772532
v 10.000000 5.000000 -5.500000
v 11.469464 5.000000 -5.977458
v 7.622355 5.000000 -7.227468
v 8.530536 5.000000 -5.977458
v 8.530536 5.000000 -10.022542
v 7.622355 5.000000 -8.772532
v 11.469464 5.000000 -10.022542
v 10.000000 5.000000 -10.500000
v 11.720473 6.314341 -6.750008
v 9.342828 6.314344 -5.977471
v 7.873381 6.314340 -8.000000
v 9.342828 6.314344 -10.022530
v 11.720473 6.314341 -9.249992
v 10.406138 7.126636 -6.750012
v 11.314324 7.126629 -8.000000
v 8.936693 7.126636 -7.227471
v 8.936693 7.126636 -8.772529
v 10.406138 7.126636 -9.249989
vn 0.1024 -0.9435 0.3151
vn 0.7002 -0.6617 0.2680
vn -0.2680 -0.9435 0.1947
vn -0.2680 -0.9435 -0.1947
vn 0.1024 -0.9435 -0.3151
vn 0.9050 -0.3304 0.2680
vn 0.0247 -0.3304 0.9435
vn -0.8897 -0.3304 0.3151
vn -0.5746 -0.3304 -0.7488
vn 0.5346 -0.3304 -0.7779
vn 0.8026 -0.1256 0.5831
vn -0.3066 -0.1256 0.9435
vn -0.9921 -0.1256 -0.0000
vn -0.3066 -0.1256 -0.9435
vn 0.8026 -0.1256 -0.5831
vn 0.4089 0.6617 0.6284
vn -0.4713 0.6617 0.5831
vn -0.7002 0.6617 -0.2680
vn 0.0385 0.6617 -0.7488
vn 0.7240 0.6617 -0.1947
vn 0.2680 0.9435 -0.1947
vn 0.4911 0.7947 -0.3568
vn 0.4089 0.6617 -0.6284
vn -0.1024 0.9435 -0.3151
vn -0.1876 0.7947 -0.5773
vn -0.4713 0.6617 -0.5831
vn -0.3313 0.9435 -0.0000
vn -0.6071 0.7947 -0.0000
vn -0.7002 0.6617 0.2680
vn -0.1024 0.9435 0.3151
vn -0.1876 0.7947 0.5773
vn 0.0385 0.6617 0.7488
vn 0.2680 0.9435 0.1947
vn 0.4911 0.7947 0.3568
vn 0.7240 0.6617 0.1947
vn 0.8897 0.3304 -0.3151
vn 0.7947 0.1876 -0.5773
vn 0.5746 0.3304 -0.7488
vn -0.0247 0.3304 -0.9435
vn -0.3035 0.1876 -0.9342
vn -0.5346 0.3304 -0.7779
vn -0.9050 0.3304 -0.2680
vn -0.9822 0.1876 -0.0000
vn -0.9050 0.3304 0.2680
vn -0.5346 0.3304 0.7779
vn -0.3035 0.1876 0.9342
vn -0.0247 0.3304 0.9435
vn 0.5746 0.3304 0.7488
vn 0.7947 0.1876 0.5773
vn 0.8897 0.3304 0.3151
vn 0.3066 0.1256 -0.9435
vn 0.3035 -0.1876 -0.9342
vn 0.0247 -0.3304 -0.9435
vn -0.8026 0.1256 -0.5831
vn -0.7947 -0.1876 -0.5773
vn -0.8897 -0.3304 -0.3151
vn -0.8026 0.1256 0.5831
vn -0.7947 -0.1876 0.5773
vn -0.5746 -0.3304 0.7488
vn 0.3066 0.1256 0.9435
vn 0.3035 -0.1876 0.9342
vn 0.5346 -0.3304 0.7779
vn 0.9921 0.1256 -0.0000
vn 0.9822 -0.1876 -0.0000
vn 0.9050 -0.3304 -0.2680
vn 0.4713 -0.6617 -0.5831
vn 0.1876 -0.7947 -0.5773
vn -0.0385 -0.6617 -0.7488
vn -0.4089 -0.6617 -0.6284
vn -0.4911 -0.7947 -0.3568
vn -0.7240 -0.6617 -0.1947
vn -0.7240 -0.6617 0.1947
vn -0.4911 -0.7947 0.3568
vn -0.4089 -0.6617 0.6284
vn 0.7002 -0.6617 -0.2680
vn 0.6071 -0.7947 -0.0000
vn 0.3313 -0.9435 -0.0000
vn -0.0385 -0.6617 0.7488
vn 0.1876 -0.7947 0.5773
vn 0.4713 -0.6617 0.5831
vt 0.181819 0.000000
vt 0.227273 0.078731
vt 0.136365 0.078731
vt 0.272728 0.157461
vt 0.318182 0.078731
vt 0.363637 0.157461
vt 0.909091 0.000000
vt 0.954545 0.078731
vt 0.863636 0.078731
vt 0.727273 0.000000
vt 0.772727 0.078731
vt 0.681818 0.078731
vt 0.545455 0.000000
vt 0.590909 0.078731
vt 0.500000 0.078731
vt 0.318182 0.236191
vt 0.090910 0.157461
vt 0.181819 0.157461
vt 0.136365 0.236191
vt 0.818182 0.157461
vt 0.909091 0.157461
vt 0.863636 0.236191
vt 0.636364 0.157461
vt 0.727273 0.157461
vt 0.681818 0.236191
vt 0.454546 0.157461
vt 0.545455 0.157461
vt 0.500000 0.236191
vt 0.227273 0.236191
vt 0.045455 0.236191
vt 0.772727 0.236191
vt 0.590909 0.236191
vt 0.409092 0.236191
vt 0.181819 0.314921
vt 0.272728 0.314921
vt 0.227273 0.393651
vt 0.000000 0.314921
vt 0.090910 0.314921
vt 0.045455 0.393651
vt 0.727273 0.314921
vt 0.818182 0.314921
vt 0.772727 0.393651
vt 0.545455 0.314921
vt 0.636364 0.314921
vt 0.590909 0.393651
vt 0.363637 0.314921
vt 0.454546 0.314921
vt 0.409092 0.393651
vt 0.500000 0.393651
vt 0.454546 0.472382
vt 0.681818 0.393651
vt 0.636364 0.472382
vt 0.863636 0.393651
vt 0.818182 0.472382
vt 0.909091 0.314921
vt 0.136365 0.393651
vt 0.090910 0.472382
vt 0.318182 0.393651
vt 0.272728 0.472382
vt 0.954545 0.236191
vt 1.000000 0.157461
vt 0.409092 0.078731
vt 0.363637 0.000000
s 0
usemtl Map_Leaves
f 65/131/35 78/132/35 77/133/35
f 66/134/36 78/135/36 80/136/36
f 65/137/37 77/138/37 82/139/37
f 65/140/38 82/141/38 84/142/38
f 65/143/39 84/144/39 81/145/39
f 66/134/40 80/136/40 87/146/40
f 67/147/41 79/148/41 89/149/41
f 68/150/42 83/151/42 91/152/42
f 69/153/43 85/154/43 93/155/43
f 70/156/44 86/157/44 95/158/44
f 66/134/45 87/146/45 90/159/45
f 67/147/46 89/149/46 92/160/46
f 68/150/47 91/152/47 94/161/47
f 69/153/48 93/155/48 96/162/48
f 70/156/49 95/158/49 88/163/49
f 71/164/50 97/165/50 102/166/50
f 72/167/51 98/168/51 104/169/51
f 73/170/52 99/171/52 105/172/52
f 74/173/53 100/174/53 106/175/53
f 75/176/54 101/177/54 103/178/54
f 103/178/55 106/179/55 76/180/55
f 103/178/56 101/177/56 106/179/56
f 101/177/57 74/173/57 106/179/57
f 106/175/58 105/181/58 76/182/58
f 106/175/59 100/174/59 105/181/59
f 100/174/60 73/170/60 105/181/60
f 105/172/61 104/183/61 76/184/61
f 105/172/62 99/171/62 104/183/62
f 99/171/63 72/185/63 104/183/63
f 104/169/64 102/186/64 76/187/64
f 104/169/65 98/168/65 102/186/65
f 98/168/66 71/164/66 102/186/66
f 102/166/67 103/188/67 76/189/67
f 102/166/68 97/165/68 103/188/68
f 97/165/69 75/176/69 103/188/69
f 88/163/70 101/177/70 75/176/70
f 88/163/71 95/158/71 101/177/71
f 95/158/72 74/173/72 101/177/72
f 96/162/73 100/174/73 74/173/73
f 96/162/74 93/155/74 100/174/74
f 93/155/75 73/170/75 100/174/75
f 94/161/76 99/171/76 73/170/76
f 94/161/77 91/152/77 99/171/77
f 91/152/78 72/185/78 99/171/78
f 92/160/79 98/168/79 72/167/79
f 92/160/80 89/149/80 98/168/80
f 89/149/81 71/164/81 98/168/81
f 90/159/82 97/165/82 71/164/82
f 90/159/83 87/146/83 97/165/83
f 87/146/84 75/176/84 97/165/84
f 95/158/85 96/162/85 74/173/85
f 95/158/86 86/157/86 96/162/86
f 86/157/87 69/153/87 96/162/87
f 93/155/88 94/161/88 73/170/88
f 93/155/89 85/154/89 94/161/89
f 85/154/90 68/150/90 94/161/90
f 91/152/91 92/190/91 72/185/91
f 91/152/92 83/151/92 92/190/92
f 83/151/93 67/191/93 92/190/93
f 89/149/94 90/159/94 71/164/94
f 89/149/95 79/148/95 90/159/95
f 79/148/96 66/134/96 90/159/96
f 87/146/97 88/163/97 75/176/97
f 87/146/98 80/136/98 88/163/98
f 80/136/99 70/156/99 88/163/99
f 81/145/100 86/157/100 70/156/100
f 81/145/101 84/144/101 86/157/101
f 84/144/102 69/153/102 86/157/102
f 84/142/103 85/154/103 69/153/103
f 84/142/104 82/141/104 85/154/104
f 82/141/105 68/150/105 85/154/105
f 82/139/106 83/151/106 68/150/106
f 82/139/107 77/138/107 83/151/107
f 77/138/108 67/191/108 83/151/108
f 80/136/109 81/192/109 70/156/109
f 80/136/110 78/135/110 81/192/110
f 78/135/111 65/193/111 81/192/111
f 77/133/112 79/148/112 67/147/112
f 77/133/113 78/132/113 79/148/113
f 78/132/114 66/134/114 79/148/114
o Icosphere.001
v 10.000000 4.700000 -8.000000
v 11.519575 5.860839 -6.895977
v 9.419585 5.860839 -6.213637
v 8.121705 5.860847 -8.000000
v 9.419585 5.860839 -9.786364
v 11.519575 5.860839 -9.104023
v 10.580415 7.739161 -6.213637
v 8.480425 7.739161 -6.895977
v 8.480425 7.739161 -9.104023
v 10.580415 7.739161 -9.786364
v 11.878295 7.739153 -8.000000
v 10.000000 8.900000 -8.000000
v 9.658843 5.013626 -6.950010
v 10.893178 5.013627 -7.351076
v 10.552025 5.695951 -6.301075
v 11.786361 5.695955 -8.000000
v 10.893178 5.013627 -8.648924
v 8.895967 5.013632 -8.000000
v 8.554802 5.695954 -6.950006
v 9.658843 5.013626 -9.049990
v 8.554803 5.695954 -9.049994
v 10.552025 5.695951 -9.698925
v 11.997221 6.800000 -7.351073
v 11.997221 6.800000 -8.648927
v 10.000000 6.800000 -5.900000
v 11.234350 6.800000 -6.301065
v 8.002779 6.800000 -7.351073
v 8.765650 6.800000 -6.301065
v 8.765650 6.800000 -9.698936
v 8.002779 6.800000 -8.648927
v 11.234350 6.800000 -9.698936
v 10.000000 6.800000 -10.100000
v 11.445197 7.904046 -6.950006
v 9.447975 7.904049 -6.301075
v 8.213639 7.904046 -8.000000
v 9.447975 7.904049 -9.698925
v 11.445198 7.904046 -9.049994
v 10.341157 8.586374 -6.950010
v 11.104033 8.586369 -8.000000
v 9.106822 8.586374 -7.351076
v 9.106822 8.586374 -8.648924
v 10.341157 8.586374 -9.049990
vn 0.1024 -0.9435 0.3151
vn 0.7002 -0.6617 0.2680
vn -0.2680 -0.9435 0.1947
vn -0.2680 -0.9435 -0.1947
vn 0.1024 -0.9435 -0.3151
vn 0.9050 -0.3304 0.2680
vn 0.0247 -0.3304 0.9435
vn -0.8897 -0.3304 0.3151
vn -0.5746 -0.3304 -0.7488
vn 0.5346 -0.3304 -0.7779
vn 0.8026 -0.1256 0.5831
vn -0.3066 -0.1256 0.9435
vn -0.9921 -0.1256 -0.0000
vn -0.3066 -0.1256 -0.9435
vn 0.8026 -0.1256 -0.5831
vn 0.4089 0.6617 0.6284
vn -0.4713 0.6617 0.5831
vn -0.7002 0.6617 -0.2680
vn 0.0385 0.6617 -0.7488
vn 0.7240 0.6617 -0.1947
vn 0.2680 0.9435 -0.1947
vn 0.4911 0.7947 -0.3568
vn 0.4089 0.6617 -0.6284
vn -0.1024 0.9435 -0.3151
vn -0.1876 0.7947 -0.5773
vn -0.4713 0.6617 -0.5831
vn -0.3313 0.9435 -0.0000
vn -0.6071 0.7947 -0.0000
vn -0.7002 0.6617 0.2680
vn -0.1024 0.9435 0.3151
vn -0.1876 0.7947 0.5773
vn 0.0385 0.6617 0.7488
vn 0.2680 0.9435 0.1947
vn 0.4911 0.7947 0.3568
vn 0.7240 0.6617 0.1947
vn 0.8897 0.3304 -0.3151
vn 0.7947 0.1876 -0.5773
vn 0.5746 0.3304 -0.7488
vn -0.0247 0.3304 -0.9435
vn -0.3035 0.1876 -0.9342
vn -0.5346 0.3304 -0.7779
vn -0.9050 0.3304 -0.2680
vn -0.9822 0.1876 -0.0000
vn -0.9050 0.3304 0.2680
vn -0.5346 0.3304 0.7779
vn -0.3035 0.1876 0.9342
vn -0.0247 0.3304 0.9435
vn 0.5746 0.3304 0.7488
vn 0.7947 0.1876 0.5773
vn 0.8897 0.3304 0.3151
vn 0.3066 0.1256 -0.9435
vn 0.3035 -0.1876 -0.9342
vn 0.0247 -0.3304 -0.9435
vn -0.8026 0.1256 -0.5831
vn -0.7947 -0.1876 -0.5773
vn -0.8897 -0.3304 -0.3151
vn -0.8026 0.1256 0.5831
vn -0.7947 -0.1876 0.5773
vn -0.5746 -0.3304 0.7488
vn 0.3066 0.1256 0.9435
vn 0.3035 -0.1876 0.9342
vn 0.5346 -0.3304 0.7779
vn 0.9921 0.1256 -0.0000
vn 0.9822 -0.1876 -0.0000
vn 0.9050 -0.3304 -0.2680
vn 0.4713 -0.6617 -0.5831
vn 0.1876 -0.7947 -0.5773
vn -0.0385 -0.6617 -0.7488
vn -0.4089 -0.6617 -0.6284
vn -0.4911 -0.7947 -0.3568
vn -0.7240 -0.6617 -0.1947
vn -0.7240 -0.6617 0.1947
vn -0.4911 -0.7947 0.3568
vn -0.4089 -0.6617 0.6284
vn 0.7002 -0.6617 -0.2680
vn 0.6071 -0.7947 -0.0000
vn 0.3313 -0.9435 -0.0000
vn -0.0385 -0.6617 0.7488
vn 0.1876 -0.7947 0.5773
vn 0.4713 -0.6617 0.5831
vt 0.181819 0.000000
vt 0.227273 0.078731
vt 0.136365 0.078731
vt 0.272728 0.157461
vt 0.318182 0.078731
vt 0.363637 0.157461
vt 0.909091 0.000000
vt 0.954545 0.078731
vt 0.863636 0.078731
vt 0.727273 0.000000
vt 0.772727 0.078731
vt 0.681818 0.078731
vt 0.545455 0.000000
vt 0.590909 0.078731
vt 0.500000 0.078731
vt 0.318182 0.236191
vt 0.090910 0.157461
vt 0.181819 0.157461
vt 0.136365 0.236191
vt 0.818182 0.157461
vt 0.909091 0.157461
vt 0.863636 0.236191
vt 0.636364 0.157461
vt 0.727273 0.157461
vt 0.681818 0.236191
vt 0.454546 0.157461
vt 0.545455 0.157461
vt 0.500000 0.236191
vt 0.227273 0.236191
vt 0.045455 0.236191
vt 0.772727 0.236191
vt 0.590909 0.236191
vt 0.409092 0.236191
vt 0.181819 0.314921
vt 0.272728 0.314921
vt 0.227273 0.393651
vt 0.000000 0.314921
vt 0.090910 0.314921
vt 0.045455 0.393651
vt 0.727273 0.314921
vt 0.818182 0.314921
vt 0.772727 0.393651
vt 0.545455 0.314921
vt 0.636364 0.314921
vt 0.590909 0.393651
vt 0.363637 0.314921
vt 0.454546 0.314921
vt 0.409092 0.393651
vt 0.500000 0.393651
vt 0.454546 0.472382
vt 0.681818 0.393651
vt 0.636364 0.472382
vt 0.863636 0.393651
vt 0.818182 0.472382
vt 0.909091 0.314921
vt 0.136365 0.393651
vt 0.090910 0.472382
vt 0.318182 0.393651
vt 0.272728 0.472382
vt 0.954545 0.236191
vt 1.000000 0.157461
vt 0.409092 0.078731
vt 0.363637 0.000000
s 0
usemtl Map_Leaves
f 107/194/115 120/195/115 119/196/115
f 108/197/116 120/198/116 122/199/116
f 107/200/117 119/201/117 124/202/117
f 107/203/118 124/204/118 126/205/118
f 107/206/119 126/207/119 123/208/119
f 108/197/120 122/199/120 129/209/120
f 109/210/121 121/211/121 131/212/121
f 110/213/122 125/214/122 133/215/122
f 111/216/123 127/217/123 135/218/123
f 112/219/124 128/220/124 137/221/124
f 108/197/125 129/209/125 132/222/125
f 109/210/126 131/212/126 134/223/126
f 110/213/127 133/215/127 136/224/127
f 111/216/128 135/218/128 138/225/128
f 112/219/129 137/221/129 130/226/129
f 113/227/130 139/228/130 144/229/130
f 114/230/131 140/231/131 146/232/131
f 115/233/132 141/234/132 147/235/132
f 116/236/133 142/237/133 148/238/133
f 117/239/134 143/240/134 145/241/134
f 145/241/135 148/242/135 118/243/135
f 145/241/136 143/240/136 148/242/136
f 143/240/137 116/236/137 148/242/137
f 148/238/138 147/244/138 118/245/138
f 148/238/139 142/237/139 147/244/139
f 142/237/140 115/233/140 147/244/140
f 147/235/141 146/246/141 118/247/141
f 147/235/142 141/234/142 146/246/142
f 141/234/143 114/248/143 146/246/143
f 146/232/144 144/249/144 118/250/144
f 146/232/145 140/231/145 144/249/145
f 140/231/146 113/227/146 144/249/146
f 144/229/147 145/251/147 118/252/147
f 144/229/148 139/228/148 145/251/148
f 139/228/149 117/239/149 145/251/149
f 130/226/150 143/240/150 117/239/150
f 130/226/151 137/221/151 143/240/151
f 137/221/152 116/236/152 143/240/152
f 138/225/153 142/237/153 116/236/153
f 138/225/154 135/218/154 142/237/154
f 135/218/155 115/233/155 142/237/155
f 136/224/156 141/234/156 115/233/156
f 136/224/157 133/215/157 141/234/157
f 133/215/158 114/248/158 141/234/158
f 134/223/159 140/231/159 114/230/159
f 134/223/160 131/212/160 140/231/160
f 131/212/161 113/227/161 140/231/161
f 132/222/162 139/228/162 113/227/162
f 132/222/163 129/209/163 139/228/163
f 129/209/164 117/239/164 139/228/164
f 137/221/165 138/225/165 116/236/165
f 137/221/166 128/220/166 138/225/166
f 128/220/167 111/216/167 138/225/167
f 135/218/168 136/224/168 115/233/168
f 135/218/169 127/217/169 136/224/169
f 127/217/170 110/213/170 136/224/170
f 133/215/171 134/253/171 114/248/171
f 133/215/172 125/214/172 134/253/172
f 125/214/173 109/254/173 134/253/173
f 131/212/174 132/222/174 113/227/174
f 131/212/175 121/211/175 132/222/175
f 121/211/176 108/197/176 132/222/176
f 129/209/177 130/226/177 117/239/177
f 129/209/178 122/199/178 130/226/178
f 122/199/179 112/219/179 130/226/179
f 123/208/180 128/220/180 112/219/180
f 123/208/181 126/207/181 128/220/181
f 126/207/182 111/216/182 128/220/182
f 126/205/183 127/217/183 111/216/183
f 126/205/184 124/204/184 127/217/184
f 124/204/185 110/213/185 127/217/185
f 124/202/186 125/214/186 110/213/186
f 124/202/187 119/201/187 125/214/187
f 119/201/188 109/254/188 125/214/188
f 122/199/189 123/255/189 112/219/189
f 122/199/190 120/198/190 123/255/190
f 120/198/191 107/256/191 123/255/191
f 119/196/192 121/211/192 109/210/192
f 119/196/193 120/195/193 121/211/193
f 120/195/194 108/197/194 121/211/194
o Icosphere.002
v 10.000000 6.900001 -8.000000
v 11.230133 7.839727 -7.106267
v 9.530140 7.839726 -6.553896
v 8.479475 7.839734 -8.000000
v 9.530140 7.839726 -9.446104
v 11.230133 7.839727 -8.893733
v 10.469860 9.360274 -6.553896
v 8.769867 9.360273 -7.106267
v 8.769867 9.360273 -8.893733
v 10.469860 9.360274 -9.446104
v 11.520525 9.360267 -8.000000
v 10.000000 10.300000 -8.000000
v 9.723825 7.153888 -7.150008
v 10.723048 7.153888 -7.474681
v 10.446877 7.706246 -6.624680
v 11.446101 7.706249 -8.000000
v 10.723048 7.153888 -8.525319
v 9.106259 7.153893 -8.000000
v 8.830078 7.706249 -7.150005
v 9.723825 7.153888 -8.849992
v 8.830078 7.706249 -8.849995
v 10.446877 7.706246 -9.375320
v 11.616798 8.600000 -7.474679
v 11.616798 8.600000 -8.525322
v 10.000000 8.600000 -6.300000
v 10.999235 8.600000 -6.624671
v 8.383202 8.600000 -7.474679
v 9.000765 8.600000 -6.624671
v 9.000765 8.600000 -9.375328
v 8.383202 8.600000 -8.525322
v 10.999235 8.600000 -9.375328
v 10.000000 8.600000 -9.700000
v 11.169922 9.493752 -7.150005
v 9.553123 9.493754 -6.624680
v 8.553899 9.493752 -8.000000
v 9.553123 9.493754 -9.375319
v 11.169922 9.493752 -8.849995
v 10.276175 10.046113 -7.150008
v 10.893741 10.046108 -8.000000
v 9.276952 10.046112 -7.474681
v 9.276952 10.046112 -8.525319
v 10.276175 10.046113 -8.849992
vn 0.1024 -0.9435 0.3151
vn 0.7002 -0.6617 0.2680
vn -0.2680 -0.9435 0.1947
vn -0.2680 -0.9435 -0.1947
vn 0.1024 -0.9435 -0.3151
vn 0.9050 -0.3304 0.2680
vn 0.0247 -0.3304 0.9435
vn -0.8897 -0.3304 0.3151
vn -0.5746 -0.3304 -0.7488
vn 0.5346 -0.3304 -0.7779
vn 0.8026 -0.1256 0.5831
vn -0.3066 -0.1256 0.9435
vn -0.9921 -0.1256 -0.0000
vn -0.3066 -0.1256 -0.9435
vn 0.8026 -0.1256 -0.5831
vn 0.4089 0.6617 0.6284
vn -0.4713 0.6617 0.5831
vn -0.7002 0.6617 -0.2680
vn 0.0385 0.6617 -0.7488
vn 0.7240 0.6617 -0.1947
vn 0.2680 0.9435 -0.1947
vn 0.4911 0.7947 -0.3568
vn 0.4089 0.6617 -0.6284
vn -0.1024 0.9435 -0.3151
vn -0.1876 0.7947 -0.5773
vn -0.4713 0.6617 -0.5831
vn -0.3313 0.9435 -0.0000
vn -0.6071 0.7947 -0.0000
vn -0.7002 0.6617 0.2680
vn -0.1024 0.9435 0.3151
vn -0.1876 0.7947 0.5773
vn 0.0385 0.6617 0.7488
vn 0.2680 0.9435 0.1947
vn 0.4911 0.7947 0.3568
vn 0.7240 0.6617 0.1947
vn 0.8897 0.3304 -0.3151
vn 0.7947 0.1876 -0.5773
vn 0.5746 0.3304 -0.7488
vn -0.0247 0.3304 -0.9435
vn -0.3035 0.1876 -0.9342
vn -0.5346 0.3304 -0.7779
vn -0.9050 0.3304 -0.2680
vn -0.9822 0.1876 -0.0000
vn -0.9050 0.3304 0.2680
vn -0.5346 0.3304 0.7779
vn -0.3035 0.1876 0.9342
vn -0.0247 0.3304 0.9435
vn 0.5746 0.3304 0.7488
vn 0.7947 0.1876 0.5773
vn 0.8897 0.3304 0.3151
vn 0.3066 0.1256 -0.9435
vn 0.3035 -0.1876 -0.9342
vn 0.0247 -0.3304 -0.9435
vn -0.8026 0.1256 -0.5831
vn -0.7947 -0.1876 -0.5773
vn -0.8897 -0.3304 -0.3151
vn -0.8026 0.1256 0.5831
vn -0.7947 -0.1876 0.5773
vn -0.5746 -0.3304 0.7488
vn 0.3066 0.1256 0.9435
vn 0.3035 -0.1876 0.9342
vn 0.5346 -0.3304 0.7779
vn 0.9921 0.1256 -0.0000
vn 0.9822 -0.1876 -0.0000
vn 0.9050 -0.3304 -0.2680
vn 0.4713 -0.6617 -0.5831
vn 0.1876 -0.7947 -0.5773
vn -0.0385 -0.6617 -0.7488
vn -0.4089 -0.6617 -0.6284
vn -0.4911 -0.7947 -0.3568
vn -0.7240 -0.6617 -0.1947
vn -0.7240 -0.6617 0.1947
vn -0.4911 -0.7947 0.3568
vn -0.4089 -0.6617 0.6284
vn 0.7002 -0.6617 -0.2680
vn 0.6071 -0.7947 -0.0000
vn 0.3313 -0.9435 -0.0000
vn -0.0385 -0.6617 0.7488
vn 0.1876 -0.7947 0.5773
vn 0.4713 -0.6617 0.5831
vt 0.181819 0.000000
vt 0.227273 0.078731
vt 0.136365 0.078731
vt 0.272728 0.157461
vt 0.318182 0.078731
vt 0.363637 0.157461
vt 0.909091 0.000000
vt 0.954545 0.078731
vt 0.863636 0.078731
vt 0.727273 0.000000
vt 0.772727 0.078731
vt 0.681818 0.078731
vt 0.545455 0.000000
vt 0.590909 0.078731
vt 0.500000 0.078731
vt 0.318182 0.236191
vt 0.090910 0.157461
vt 0.181819 0.157461
vt 0.136365 0.236191
vt 0.818182 0.157461
vt 0.909091 0.157461
vt 0.863636 0.236191
vt 0.636364 0.157461
vt 0.727273 0.157461
vt 0.681818 0.236191
vt 0.454546 0.157461
vt 0.545455 0.157461
vt 0.500000 0.236191
vt 0.227273 0.236191
vt 0.045455 0.236191
vt 0.772727 0.236191
vt 0.590909 0.236191
vt 0.409092 0.236191
vt 0.181819 0.314921
vt 0.272728 0.314921
vt 0.227273 0.393651
vt 0.000000 0.314921
vt 0.090910 0.314921
vt 0.045455 0.393651
vt 0.727273 0.314921
vt 0.818182 0.314921
vt 0.772727 0.393651
vt 0.545455 0.314921
vt 0.636364 0.314921
vt 0.590909 0.393651
vt 0.363637 0.314921
vt 0.454546 0.314921
vt 0.409092 0.393651
vt 0.500000 0.393651
vt 0.454546 0.472382
vt 0.681818 0.393651
vt 0.636364 0.472382
vt 0.863636 0.393651
vt 0.818182 0.472382
vt 0.909091 0.314921
vt 0.136365 0.393651
vt 0.090910 0.472382
vt 0.318182 0.393651
vt 0.272728 0.472382
vt 0.954545 0.236191
vt 1.000000 0.157461
vt 0.409092 0.078731
vt 0.363637 0.000000
s 0
usemtl Map_Leaves
f 149/257/195 162/258/195 161/259/195
f 150/260/196 162/261/196 164/262/196
f 149/263/197 161/264/197 166/265/197
f 149/266/198 166/267/198 168/268/198
f 149/269/199 168/270/199 165/271/199
f 150/260/200 164/262/200 171/272/200
f 151/273/201 163/274/201 173/275/201
f 152/276/202 167/277/202 175/278/202
f 153/279/203 169/280/203 177/281/203
f 154/282/204 170/283/204 179/284/204
f 150/260/205 171/272/205 174/285/205
f 151/273/206 173/275/206 176/286/206
f 152/276/207 175/278/207 178/287/207
f 153/279/208 177/281/208 180/288/208
f 154/282/209 179/284/209 172/289/209
f 155/290/210 181/291/210 186/292/210
f 156/293/211 182/294/211 188/295/211
f 157/296/212 183/297/212 189/298/212
f 158/299/213 184/300/213 190/301/213
f 159/302/214 185/303/214 187/304/214
f 187/304/215 190/305/215 160/306/215
f 187/304/216 185/303/216 190/305/216
f 185/303/217 158/299/217 190/305/217
f 190/301/218 189/307/218 160/308/218
f 190/301/219 184/300/219 189/307/219
f 184/300/220 157/296/220 189/307/220
f 189/298/221 188/309/221 160/310/221
f 189/298/222 183/297/222 188/309/222
f 183/297/223 156/311/223 188/309/223
f 188/295/224 186/312/224 160/313/224
f 188/295/225 182/294/225 186/312/225
f 182/294/226 155/290/226 186/312/226
f 186/292/227 187/314/227 160/315/227
f 186/292/228 181/291/228 187/314/228
f 181/291/229 159/302/229 187/314/229
f 172/289/230 185/303/230 159/302/230
f 172/289/231 179/284/231 185/303/231
f 179/284/232 158/299/232 185/303/232
f 180/288/233 184/300/233 158/299/233
f 180/288/234 177/281/234 184/300/234
f 177/281/235 157/296/235 184/300/235
f 178/287/236 183/297/236 157/296/236
f 178/287/237 175/278/237 183/297/237
f 175/278/238 156/311/238 183/297/238
f 176/286/239 182/294/239 156/293/239
f 176/286/240 173/275/240 182/294/240
f 173/275/241 155/290/241 182/294/241
f 174/285/242 181/291/242 155/290/242
f 174/285/243 171/272/243 181/291/243
f 171/272/244 159/302/244 181/291/244
f 179/284/245 180/288/245 158/299/245
f 179/284/246 170/283/246 180/288/246
f 170/283/247 153/279/247 180/288/247
f 177/281/248 178/287/248 157/296/248
f 177/281/249 169/280/249 178/287/249
f 169/280/250 152/276/250 178/287/250
f 175/278/251 176/316/251 156/311/251
f 175/278/252 167/277/252 176/316/252
f 167/277/253 151/317/253 176/316/253
f 173/275/254 174/285/254 155/290/254
f 173/275/255 163/274/255 174/285/255
f 163/274/256 150/260/256 174/285/256
f 171/272/257 172/289/257 159/302/257
f 171/272/258 164/262/258 172/289/258
f 164/262/259 154/282/259 172/289/259
f 165/271/260 170/283/260 154/282/260
f 165/271/261 168/270/261 170/283/261
f 168/270/262 153/279/262 170/283/262
f 168/268/263 169/280/263 153/279/263
f 168/268/264 166/267/264 169/280/264
f 166/267/265 152/276/265 169/280/265
f 166/265/266 167/277/266 152/276/266
f 166/265/267 161/264/267 167/277/267
f 161/264/268 151/317/268 167/277/268
f 164/262/269 165/318/269 154/282/269
f 164/262/270 162/261/270 165/318/270
f 162/261/271 149/319/271 165/318/271
f 161/259/272 163/274/272 151/273/272
f 161/259/273 162/258/273 163/274/273
f 162/258/274 150/260/274 163/274/274
