# Blender 5.2.0 LTS
# www.blender.org
mtllib B_338Lapua.mtl
o B_338Lapua_Body
v -0.020000 -0.000000 -3.009000
v 0.020000 0.000000 -3.009000
v -0.020000 -0.005290 -3.007281
v 0.020000 -0.005290 -3.007281
v -0.020000 -0.008560 -3.002781
v 0.020000 -0.008560 -3.002781
v -0.020000 -0.008560 -2.997219
v 0.020000 -0.008560 -2.997219
v -0.020000 -0.005290 -2.992719
v 0.020000 -0.005290 -2.992719
v -0.020000 -0.000000 -2.991000
v 0.020000 0.000000 -2.991000
v -0.020000 0.005290 -2.992719
v 0.020000 0.005290 -2.992719
v -0.020000 0.008560 -2.997219
v 0.020000 0.008560 -2.997219
v -0.020000 0.008560 -3.002781
v 0.020000 0.008560 -3.002781
v -0.020000 0.005290 -3.007281
v 0.020000 0.005290 -3.007281
vn -0.0000 -0.3090 -0.9511
vn -0.0000 -0.8090 -0.5878
vn -0.0000 -1.0000 -0.0000
vn -0.0000 -0.8090 0.5878
vn -0.0000 -0.3090 0.9511
vn -0.0000 0.3090 0.9511
vn -0.0000 0.8090 0.5878
vn -0.0000 1.0000 -0.0000
vn 1.0000 -0.0000 -0.0000
vn -0.0000 0.8090 -0.5878
vn -0.0000 0.3090 -0.9511
vn -1.0000 -0.0000 -0.0000
vt 1.000000 1.000000
vt 0.900000 0.500000
vt 1.000000 0.500000
vt 0.900000 1.000000
vt 0.800000 0.500000
vt 0.800000 1.000000
vt 0.700000 0.500000
vt 0.700000 1.000000
vt 0.600000 0.500000
vt 0.600000 1.000000
vt 0.500000 0.500000
vt 0.500000 1.000000
vt 0.400000 0.500000
vt 0.400000 1.000000
vt 0.300000 0.500000
vt 0.300000 1.000000
vt 0.200000 0.500000
vt 0.021746 0.324164
vt 0.391068 0.055836
vt 0.478254 0.324164
vt 0.200000 1.000000
vt 0.100000 0.500000
vt 0.100000 1.000000
vt -0.000000 0.500000
vt 0.978254 0.175836
vt 0.521746 0.175836
vt 0.608932 0.444164
vt 0.391068 0.444164
vt 0.250000 0.490000
vt 0.108932 0.444164
vt 0.021746 0.175836
vt 0.108932 0.055836
vt 0.250000 0.010000
vt 0.478254 0.175836
vt -0.000000 1.000000
vt 0.750000 0.490000
vt 0.891068 0.444164
vt 0.978254 0.324164
vt 0.891068 0.055836
vt 0.750000 0.010000
vt 0.608932 0.055836
vt 0.521746 0.324164
s 1
usemtl Brass
f 2/1/1 3/2/1 1/3/1
f 4/4/2 5/5/2 3/2/2
f 6/6/3 7/7/3 5/5/3
f 8/8/4 9/9/4 7/7/4
f 10/10/5 11/11/5 9/9/5
f 12/12/6 13/13/6 11/11/6
f 14/14/7 15/15/7 13/13/7
f 16/16/8 17/17/8 15/15/8
f 18/18/9 10/19/9 6/20/9
f 18/21/10 19/22/10 17/17/10
f 20/23/11 1/24/11 19/22/11
f 7/25/12 15/26/12 19/27/12
f 2/1/1 4/4/1 3/2/1
f 4/4/2 6/6/2 5/5/2
f 6/6/3 8/8/3 7/7/3
f 8/8/4 10/10/4 9/9/4
f 10/10/5 12/12/5 11/11/5
f 12/12/6 14/14/6 13/13/6
f 14/14/7 16/16/7 15/15/7
f 16/16/8 18/21/8 17/17/8
f 6/20/9 4/28/9 2/29/9
f 2/29/9 20/30/9 18/18/9
f 18/18/9 16/31/9 14/32/9
f 14/32/9 12/33/9 10/19/9
f 10/19/9 8/34/9 6/20/9
f 6/20/9 2/29/9 18/18/9
f 18/18/9 14/32/9 10/19/9
f 18/21/10 20/23/10 19/22/10
f 20/23/11 2/35/11 1/24/11
f 19/27/12 1/36/12 3/37/12
f 3/37/12 5/38/12 7/25/12
f 7/25/12 9/39/12 11/40/12
f 11/40/12 13/41/12 15/26/12
f 15/26/12 17/42/12 19/27/12
f 19/27/12 3/37/12 7/25/12
f 7/25/12 11/40/12 15/26/12
o B_338Lapua_Tip
v -0.020000 -0.000000 -3.009000
v -0.046000 0.000000 -3.002000
v -0.020000 0.005290 -3.007281
v -0.046000 0.001176 -3.001618
v -0.020000 0.008560 -3.002781
v -0.046000 0.001902 -3.000618
v -0.020000 0.008560 -2.997219
v -0.046000 0.001902 -2.999382
v -0.020000 0.005290 -2.992719
v -0.046000 0.001176 -2.998382
v -0.020000 -0.000000 -2.991000
v -0.046000 0.000000 -2.998000
v -0.020000 -0.005290 -2.992719
v -0.046000 -0.001176 -2.998382
v -0.020000 -0.008560 -2.997219
v -0.046000 -0.001902 -2.999382
v -0.020000 -0.008560 -3.002781
v -0.046000 -0.001902 -3.000618
v -0.020000 -0.005290 -3.007281
v -0.046000 -0.001176 -3.001618
vn -0.2481 0.2994 -0.9213
vn -0.2481 0.7837 -0.5694
vn -0.2481 0.9687 -0.0000
vn -0.2481 0.7837 0.5694
vn -0.2481 0.2994 0.9213
vn -0.2481 -0.2994 0.9213
vn -0.2481 -0.7837 0.5694
vn -0.2481 -0.9687 -0.0000
vn -1.0000 -0.0000 -0.0000
vn -0.2481 -0.7837 -0.5694
vn -0.2481 -0.2994 -0.9213
vn 1.0000 -0.0000 -0.0000
vt 1.000000 0.500000
vt 0.900000 1.000000
vt 0.900000 0.500000
vt 0.800000 0.500000
vt 0.800000 1.000000
vt 0.700000 0.500000
vt 0.700000 1.000000
vt 0.600000 0.500000
vt 0.500000 1.000000
vt 0.500000 0.500000
vt 0.400000 1.000000
vt 0.400000 0.500000
vt 0.300000 0.500000
vt 0.300000 1.000000
vt 0.200000 0.500000
vt 0.021746 0.324164
vt 0.391068 0.055836
vt 0.478254 0.324164
vt 0.200000 1.000000
vt 0.100000 0.500000
vt -0.000000 1.000000
vt -0.000000 0.500000
vt 0.978254 0.175836
vt 0.521746 0.175836
vt 0.608932 0.444164
vt 1.000000 1.000000
vt 0.600000 1.000000
vt 0.391068 0.444164
vt 0.250000 0.490000
vt 0.108932 0.444164
vt 0.021746 0.175836
vt 0.108932 0.055836
vt 0.250000 0.010000
vt 0.478254 0.175836
vt 0.100000 1.000000
vt 0.750000 0.490000
vt 0.891068 0.444164
vt 0.978254 0.324164
vt 0.891068 0.055836
vt 0.750000 0.010000
vt 0.608932 0.055836
vt 0.521746 0.324164
s 1
usemtl SteelTip
f 21/43/13 24/44/13 23/45/13
f 24/44/14 25/46/14 23/45/14
f 26/47/15 27/48/15 25/46/15
f 28/49/16 29/50/16 27/48/16
f 29/50/17 32/51/17 31/52/17
f 31/52/18 34/53/18 33/54/18
f 34/53/19 35/55/19 33/54/19
f 36/56/20 37/57/20 35/55/20
f 38/58/21 30/59/21 26/60/21
f 38/61/22 39/62/22 37/57/22
f 39/62/23 22/63/23 21/64/23
f 27/65/24 35/66/24 39/67/24
f 21/43/13 22/68/13 24/44/13
f 24/44/14 26/47/14 25/46/14
f 26/47/15 28/49/15 27/48/15
f 28/49/16 30/69/16 29/50/16
f 29/50/17 30/69/17 32/51/17
f 31/52/18 32/51/18 34/53/18
f 34/53/19 36/56/19 35/55/19
f 36/56/20 38/61/20 37/57/20
f 26/60/21 24/70/21 22/71/21
f 22/71/21 40/72/21 38/58/21
f 38/58/21 36/73/21 34/74/21
f 34/74/21 32/75/21 30/59/21
f 30/59/21 28/76/21 26/60/21
f 26/60/21 22/71/21 38/58/21
f 38/58/21 34/74/21 30/59/21
f 38/61/22 40/77/22 39/62/22
f 39/62/23 40/77/23 22/63/23
f 39/67/24 21/78/24 23/79/24
f 23/79/24 25/80/24 27/65/24
f 27/65/24 29/81/24 31/82/24
f 31/82/24 33/83/24 35/66/24
f 35/66/24 37/84/24 39/67/24
f 39/67/24 23/79/24 27/65/24
f 27/65/24 31/82/24 35/66/24
