# Blender 5.2.0 LTS
# www.blender.org
mtllib RPG_Warhead.mtl
o RPG_Warhead_Nose
v -0.100000 -0.000000 -10.090000
v -0.320000 0.000000 -10.020000
v -0.100000 0.045000 -10.077942
v -0.320000 0.010000 -10.017321
v -0.100000 0.077942 -10.045000
v -0.320000 0.017321 -10.010000
v -0.100000 0.090000 -10.000000
v -0.320000 0.020000 -10.000000
v -0.100000 0.077942 -9.955000
v -0.320000 0.017321 -9.990000
v -0.100000 0.045000 -9.922058
v -0.320000 0.010000 -9.982679
v -0.100000 -0.000000 -9.910000
v -0.320000 0.000000 -9.980000
v -0.100000 -0.045000 -9.922058
v -0.320000 -0.010000 -9.982679
v -0.100000 -0.077942 -9.955000
v -0.320000 -0.017321 -9.990000
v -0.100000 -0.090000 -10.000000
v -0.320000 -0.020000 -10.000000
v -0.100000 -0.077942 -10.045000
v -0.320000 -0.017321 -10.010000
v -0.100000 -0.045000 -10.077942
v -0.320000 -0.010000 -10.017321
vn -0.2938 0.2474 -0.9233
vn -0.2938 0.6759 -0.6759
vn -0.2938 0.9233 -0.2474
vn -0.2938 0.9233 0.2474
vn -0.2938 0.6759 0.6759
vn -0.2938 0.2474 0.9233
vn -0.2938 -0.2474 0.9233
vn -0.2938 -0.6759 0.6759
vn -0.2938 -0.9233 0.2474
vn -0.2938 -0.9233 -0.2474
vn -1.0000 -0.0000 -0.0000
vn -0.2938 -0.6759 -0.6759
vn -0.2938 -0.2474 -0.9233
vn 1.0000 -0.0000 -0.0000
vt 1.000000 1.000000
vt 0.916667 0.500000
vt 1.000000 0.500000
vt 0.916667 1.000000
vt 0.833333 0.500000
vt 0.833333 1.000000
vt 0.750000 0.500000
vt 0.750000 1.000000
vt 0.666667 0.500000
vt 0.666667 1.000000
vt 0.583333 0.500000
vt 0.583333 1.000000
vt 0.500000 0.500000
vt 0.500000 1.000000
vt 0.416667 0.500000
vt 0.416667 1.000000
vt 0.333333 0.500000
vt 0.333333 1.000000
vt 0.250000 0.500000
vt 0.250000 1.000000
vt 0.166667 0.500000
vt 0.042154 0.370000
vt 0.250000 0.010000
vt 0.457846 0.370000
vt 0.166667 1.000000
vt 0.083333 0.500000
vt 0.083333 1.000000
vt 0.000000 0.500000
vt 0.990000 0.250000
vt 0.630000 0.042154
vt 0.630000 0.457846
vt 0.370000 0.457846
vt 0.250000 0.490000
vt 0.130000 0.457846
vt 0.010000 0.250000
vt 0.042154 0.130000
vt 0.130000 0.042154
vt 0.370000 0.042154
vt 0.457846 0.130000
vt 0.490000 0.250000
vt 0.000000 1.000000
vt 0.750000 0.490000
vt 0.870000 0.457846
vt 0.957846 0.370000
vt 0.957846 0.130000
vt 0.870000 0.042154
vt 0.750000 0.010000
vt 0.542154 0.130000
vt 0.510000 0.250000
vt 0.542154 0.370000
s 1
usemtl Tan
f 2/1/1 3/2/1 1/3/1
f 4/4/2 5/5/2 3/2/2
f 6/6/3 7/7/3 5/5/3
f 8/8/4 9/9/4 7/7/4
f 10/10/5 11/11/5 9/9/5
f 12/12/6 13/13/6 11/11/6
f 14/14/7 15/15/7 13/13/7
f 16/16/8 17/17/8 15/15/8
f 18/18/9 19/19/9 17/17/9
f 20/20/10 21/21/10 19/19/10
f 22/22/11 14/23/11 6/24/11
f 22/25/12 23/26/12 21/21/12
f 24/27/13 1/28/13 23/26/13
f 7/29/14 15/30/14 23/31/14
f 2/1/1 4/4/1 3/2/1
f 4/4/2 6/6/2 5/5/2
f 6/6/3 8/8/3 7/7/3
f 8/8/4 10/10/4 9/9/4
f 10/10/5 12/12/5 11/11/5
f 12/12/6 14/14/6 13/13/6
f 14/14/7 16/16/7 15/15/7
f 16/16/8 18/18/8 17/17/8
f 18/18/9 20/20/9 19/19/9
f 20/20/10 22/25/10 21/21/10
f 6/24/11 4/32/11 2/33/11
f 2/33/11 24/34/11 22/22/11
f 22/22/11 20/35/11 18/36/11
f 18/36/11 16/37/11 14/23/11
f 14/23/11 12/38/11 10/39/11
f 10/39/11 8/40/11 6/24/11
f 6/24/11 2/33/11 22/22/11
f 22/22/11 18/36/11 14/23/11
f 14/23/11 10/39/11 6/24/11
f 22/25/12 24/27/12 23/26/12
f 24/27/13 2/41/13 1/28/13
f 23/31/14 1/42/14 3/43/14
f 3/43/14 5/44/14 7/29/14
f 7/29/14 9/45/14 11/46/14
f 11/46/14 13/47/14 15/30/14
f 15/30/14 17/48/14 19/49/14
f 19/49/14 21/50/14 23/31/14
f 23/31/14 3/43/14 7/29/14
f 7/29/14 11/46/14 15/30/14
f 15/30/14 19/49/14 23/31/14
o RPG_Warhead_Body
v -0.090000 -0.000000 -10.050000
v 0.130000 0.000000 -10.050000
v -0.090000 -0.025000 -10.043302
v 0.130000 -0.025000 -10.043302
v -0.090000 -0.043301 -10.025000
v 0.130000 -0.043301 -10.025000
v -0.090000 -0.050000 -10.000000
v 0.130000 -0.050000 -10.000000
v -0.090000 -0.043301 -9.975000
v 0.130000 -0.043301 -9.975000
v -0.090000 -0.025000 -9.956698
v 0.130000 -0.025000 -9.956698
v -0.090000 -0.000000 -9.950000
v 0.130000 0.000000 -9.950000
v -0.090000 0.025000 -9.956698
v 0.130000 0.025000 -9.956698
v -0.090000 0.043301 -9.975000
v 0.130000 0.043301 -9.975000
v -0.090000 0.050000 -10.000000
v 0.130000 0.050000 -10.000000
v -0.090000 0.043301 -10.025000
v 0.130000 0.043301 -10.025000
v -0.090000 0.025000 -10.043302
v 0.130000 0.025000 -10.043302
vn -0.0000 -0.2588 -0.9659
vn -0.0000 -0.7071 -0.7071
vn -0.0000 -0.9659 -0.2588
vn -0.0000 -0.9659 0.2588
vn -0.0000 -0.7071 0.7071
vn -0.0000 -0.2588 0.9659
vn -0.0000 0.2588 0.9659
vn -0.0000 0.7071 0.7071
vn -0.0000 0.9659 0.2588
vn -0.0000 0.9659 -0.2588
vn 1.0000 -0.0000 -0.0000
vn -0.0000 0.7071 -0.7071
vn -0.0000 0.2588 -0.9659
vn -1.0000 -0.0000 -0.0000
vt 1.000000 1.000000
vt 0.916667 0.500000
vt 1.000000 0.500000
vt 0.916667 1.000000
vt 0.833333 0.500000
vt 0.833333 1.000000
vt 0.750000 0.500000
vt 0.750000 1.000000
vt 0.666667 0.500000
vt 0.666667 1.000000
vt 0.583333 0.500000
vt 0.583333 1.000000
vt 0.500000 0.500000
vt 0.500000 1.000000
vt 0.416667 0.500000
vt 0.416667 1.000000
vt 0.333333 0.500000
vt 0.333333 1.000000
vt 0.250000 0.500000
vt 0.250000 1.000000
vt 0.166667 0.500000
vt 0.042154 0.370000
vt 0.250000 0.010000
vt 0.457846 0.370000
vt 0.166667 1.000000
vt 0.083333 0.500000
vt 0.083333 1.000000
vt 0.000000 0.500000
vt 0.990000 0.250000
vt 0.630000 0.042154
vt 0.630000 0.457846
vt 0.370000 0.457846
vt 0.250000 0.490000
vt 0.130000 0.457846
vt 0.010000 0.250000
vt 0.042154 0.130000
vt 0.130000 0.042154
vt 0.370000 0.042154
vt 0.457846 0.130000
vt 0.490000 0.250000
vt 0.000000 1.000000
vt 0.750000 0.490000
vt 0.870000 0.457846
vt 0.957846 0.370000
vt 0.957846 0.130000
vt 0.870000 0.042154
vt 0.750000 0.010000
vt 0.542154 0.130000
vt 0.510000 0.250000
vt 0.542154 0.370000
s 1
usemtl Gunmetal
f 26/51/15 27/52/15 25/53/15
f 28/54/16 29/55/16 27/52/16
f 30/56/17 31/57/17 29/55/17
f 32/58/18 33/59/18 31/57/18
f 34/60/19 35/61/19 33/59/19
f 36/62/20 37/63/20 35/61/20
f 38/64/21 39/65/21 37/63/21
f 40/66/22 41/67/22 39/65/22
f 42/68/23 43/69/23 41/67/23
f 44/70/24 45/71/24 43/69/24
f 46/72/25 38/73/25 30/74/25
f 46/75/26 47/76/26 45/71/26
f 48/77/27 25/78/27 47/76/27
f 31/79/28 39/80/28 47/81/28
f 26/51/15 28/54/15 27/52/15
f 28/54/16 30/56/16 29/55/16
f 30/56/17 32/58/17 31/57/17
f 32/58/18 34/60/18 33/59/18
f 34/60/19 36/62/19 35/61/19
f 36/62/20 38/64/20 37/63/20
f 38/64/21 40/66/21 39/65/21
f 40/66/22 42/68/22 41/67/22
f 42/68/23 44/70/23 43/69/23
f 44/70/24 46/75/24 45/71/24
f 30/74/25 28/82/25 26/83/25
f 26/83/25 48/84/25 46/72/25
f 46/72/25 44/85/25 42/86/25
f 42/86/25 40/87/25 38/73/25
f 38/73/25 36/88/25 34/89/25
f 34/89/25 32/90/25 30/74/25
f 30/74/25 26/83/25 46/72/25
f 46/72/25 42/86/25 38/73/25
f 38/73/25 34/89/25 30/74/25
f 46/75/26 48/77/26 47/76/26
f 48/77/27 26/91/27 25/78/27
f 47/81/28 25/92/28 27/93/28
f 27/93/28 29/94/28 31/79/28
f 31/79/28 33/95/28 35/96/28
f 35/96/28 37/97/28 39/80/28
f 39/80/28 41/98/28 43/99/28
f 43/99/28 45/100/28 47/81/28
f 47/81/28 27/93/28 31/79/28
f 31/79/28 35/96/28 39/80/28
f 39/80/28 43/99/28 47/81/28
o RPG_Warhead_Stem
v 0.120000 -0.000000 -10.020000
v 0.280000 0.000000 -10.020000
v 0.120000 -0.010000 -10.017321
v 0.280000 -0.010000 -10.017321
v 0.120000 -0.017321 -10.010000
v 0.280000 -0.017321 -10.010000
v 0.120000 -0.020000 -10.000000
v 0.280000 -0.020000 -10.000000
v 0.120000 -0.017321 -9.990000
v 0.280000 -0.017321 -9.990000
v 0.120000 -0.010000 -9.982679
v 0.280000 -0.010000 -9.982679
v 0.120000 -0.000000 -9.980000
v 0.280000 0.000000 -9.980000
v 0.120000 0.010000 -9.982679
v 0.280000 0.010000 -9.982679
v 0.120000 0.017321 -9.990000
v 0.280000 0.017321 -9.990000
v 0.120000 0.020000 -10.000000
v 0.280000 0.020000 -10.000000
v 0.120000 0.017321 -10.010000
v 0.280000 0.017321 -10.010000
v 0.120000 0.010000 -10.017321
v 0.280000 0.010000 -10.017321
vn -0.0000 -0.2588 -0.9659
vn -0.0000 -0.7071 -0.7071
vn -0.0000 -0.9659 -0.2588
vn -0.0000 -0.9659 0.2588
vn -0.0000 -0.7071 0.7071
vn -0.0000 -0.2588 0.9659
vn -0.0000 0.2588 0.9659
vn -0.0000 0.7071 0.7071
vn -0.0000 0.9659 0.2588
vn -0.0000 0.9659 -0.2588
vn 1.0000 -0.0000 -0.0000
vn -0.0000 0.7071 -0.7071
vn -0.0000 0.2588 -0.9659
vn -1.0000 -0.0000 -0.0000
vt 1.000000 1.000000
vt 0.916667 0.500000
vt 1.000000 0.500000
vt 0.916667 1.000000
vt 0.833333 0.500000
vt 0.833333 1.000000
vt 0.750000 0.500000
vt 0.750000 1.000000
vt 0.666667 0.500000
vt 0.666667 1.000000
vt 0.583333 0.500000
vt 0.583333 1.000000
vt 0.500000 0.500000
vt 0.500000 1.000000
vt 0.416667 0.500000
vt 0.416667 1.000000
vt 0.333333 0.500000
vt 0.333333 1.000000
vt 0.250000 0.500000
vt 0.250000 1.000000
vt 0.166667 0.500000
vt 0.042154 0.370000
vt 0.250000 0.010000
vt 0.457846 0.370000
vt 0.166667 1.000000
vt 0.083333 0.500000
vt 0.083333 1.000000
vt 0.000000 0.500000
vt 0.990000 0.250000
vt 0.630000 0.042154
vt 0.630000 0.457846
vt 0.370000 0.457846
vt 0.250000 0.490000
vt 0.130000 0.457846
vt 0.010000 0.250000
vt 0.042154 0.130000
vt 0.130000 0.042154
vt 0.370000 0.042154
vt 0.457846 0.130000
vt 0.490000 0.250000
vt 0.000000 1.000000
vt 0.750000 0.490000
vt 0.870000 0.457846
vt 0.957846 0.370000
vt 0.957846 0.130000
vt 0.870000 0.042154
vt 0.750000 0.010000
vt 0.542154 0.130000
vt 0.510000 0.250000
vt 0.542154 0.370000
s 1
usemtl Dark
f 50/101/29 51/102/29 49/103/29
f 52/104/30 53/105/30 51/102/30
f 54/106/31 55/107/31 53/105/31
f 56/108/32 57/109/32 55/107/32
f 58/110/33 59/111/33 57/109/33
f 60/112/34 61/113/34 59/111/34
f 62/114/35 63/115/35 61/113/35
f 64/116/36 65/117/36 63/115/36
f 66/118/37 67/119/37 65/117/37
f 68/120/38 69/121/38 67/119/38
f 70/122/39 62/123/39 54/124/39
f 70/125/40 71/126/40 69/121/40
f 72/127/41 49/128/41 71/126/41
f 55/129/42 63/130/42 71/131/42
f 50/101/29 52/104/29 51/102/29
f 52/104/30 54/106/30 53/105/30
f 54/106/31 56/108/31 55/107/31
f 56/108/32 58/110/32 57/109/32
f 58/110/33 60/112/33 59/111/33
f 60/112/34 62/114/34 61/113/34
f 62/114/35 64/116/35 63/115/35
f 64/116/36 66/118/36 65/117/36
f 66/118/37 68/120/37 67/119/37
f 68/120/38 70/125/38 69/121/38
f 54/124/39 52/132/39 50/133/39
f 50/133/39 72/134/39 70/122/39
f 70/122/39 68/135/39 66/136/39
f 66/136/39 64/137/39 62/123/39
f 62/123/39 60/138/39 58/139/39
f 58/139/39 56/140/39 54/124/39
f 54/124/39 50/133/39 70/122/39
f 70/122/39 66/136/39 62/123/39
f 62/123/39 58/139/39 54/124/39
f 70/125/40 72/127/40 71/126/40
f 72/127/41 50/141/41 49/128/41
f 71/131/42 49/142/42 51/143/42
f 51/143/42 53/144/42 55/129/42
f 55/129/42 57/145/42 59/146/42
f 59/146/42 61/147/42 63/130/42
f 63/130/42 65/148/42 67/149/42
f 67/149/42 69/150/42 71/131/42
f 71/131/42 51/143/42 55/129/42
f 55/129/42 59/146/42 63/130/42
f 63/130/42 67/149/42 71/131/42
o RPG_Warhead_Fin0
v 0.190000 -0.030002 -10.042500
v 0.190000 0.029998 -10.042500
v 0.190000 -0.030002 -10.047500
v 0.190000 0.029998 -10.047500
v 0.290000 -0.030002 -10.042500
v 0.290000 0.029998 -10.042500
v 0.290000 -0.030002 -10.047500
v 0.290000 0.029998 -10.047500
vn -1.0000 -0.0000 -0.0000
vn -0.0000 -0.0000 -1.0000
vn 1.0000 -0.0000 -0.0000
vn -0.0000 -0.0000 1.0000
vn -0.0000 -1.0000 -0.0000
vn -0.0000 1.0000 -0.0000
vt 0.625000 0.000000
vt 0.375000 0.250000
vt 0.375000 0.000000
vt 0.625000 0.250000
vt 0.375000 0.500000
vt 0.625000 0.500000
vt 0.375000 0.750000
vt 0.625000 0.750000
vt 0.375000 1.000000
vt 0.125000 0.750000
vt 0.125000 0.500000
vt 0.875000 0.500000
vt 0.625000 1.000000
vt 0.875000 0.750000
s 1
usemtl Dark
f 74/151/43 75/152/43 73/153/43
f 76/154/44 79/155/44 75/152/44
f 80/156/45 77/157/45 79/155/45
f 78/158/46 73/159/46 77/157/46
f 79/155/47 73/160/47 75/161/47
f 76/162/48 78/158/48 80/156/48
f 74/151/43 76/154/43 75/152/43
f 76/154/44 80/156/44 79/155/44
f 80/156/45 78/158/45 77/157/45
f 78/158/46 74/163/46 73/159/46
f 79/155/47 77/157/47 73/160/47
f 76/162/48 74/164/48 78/158/48
o RPG_Warhead_Fin1
v 0.190000 0.042498 -10.030000
v 0.190000 0.042498 -9.970000
v 0.190000 0.047498 -10.030000
v 0.190000 0.047498 -9.970000
v 0.290000 0.042498 -10.030000
v 0.290000 0.042498 -9.970000
v 0.290000 0.047498 -10.030000
v 0.290000 0.047498 -9.970000
vn -1.0000 -0.0000 -0.0000
vn -0.0000 1.0000 -0.0000
vn 1.0000 -0.0000 -0.0000
vn -0.0000 -1.0000 -0.0000
vn -0.0000 -0.0000 -1.0000
vn -0.0000 -0.0000 1.0000
vt 0.625000 0.000000
vt 0.375000 0.250000
vt 0.375000 0.000000
vt 0.625000 0.250000
vt 0.375000 0.500000
vt 0.625000 0.500000
vt 0.375000 0.750000
vt 0.625000 0.750000
vt 0.375000 1.000000
vt 0.125000 0.750000
vt 0.125000 0.500000
vt 0.875000 0.500000
vt 0.625000 1.000000
vt 0.875000 0.750000
s 1
usemtl Dark
f 82/165/49 83/166/49 81/167/49
f 84/168/50 87/169/50 83/166/50
f 88/170/51 85/171/51 87/169/51
f 86/172/52 81/173/52 85/171/52
f 87/169/53 81/174/53 83/175/53
f 84/176/54 86/172/54 88/170/54
f 82/165/49 84/168/49 83/166/49
f 84/168/50 88/170/50 87/169/50
f 88/170/51 86/172/51 85/171/51
f 86/172/52 82/177/52 81/173/52
f 87/169/53 85/171/53 81/174/53
f 84/176/54 82/178/54 86/172/54
o RPG_Warhead_Fin2
v 0.190000 0.029998 -9.957500
v 0.190000 -0.030002 -9.957500
v 0.190000 0.029998 -9.952500
v 0.190000 -0.030002 -9.952500
v 0.290000 0.029998 -9.957500
v 0.290000 -0.030002 -9.957500
v 0.290000 0.029998 -9.952500
v 0.290000 -0.030002 -9.952500
vn -1.0000 -0.0000 -0.0000
vn -0.0000 -0.0000 1.0000
vn 1.0000 -0.0000 -0.0000
vn -0.0000 -0.0000 -1.0000
vn -0.0000 1.0000 -0.0000
vn -0.0000 -1.0000 -0.0000
vt 0.625000 0.000000
vt 0.375000 0.250000
vt 0.375000 0.000000
vt 0.625000 0.250000
vt 0.375000 0.500000
vt 0.625000 0.500000
vt 0.375000 0.750000
vt 0.625000 0.750000
vt 0.375000 1.000000
vt 0.125000 0.750000
vt 0.125000 0.500000
vt 0.875000 0.500000
vt 0.625000 1.000000
vt 0.875000 0.750000
s 1
usemtl Dark
f 90/179/55 91/180/55 89/181/55
f 92/182/56 95/183/56 91/180/56
f 96/184/57 93/185/57 95/183/57
f 94/186/58 89/187/58 93/185/58
f 95/183/59 89/188/59 91/189/59
f 92/190/60 94/186/60 96/184/60
f 90/179/55 92/182/55 91/180/55
f 92/182/56 96/184/56 95/183/56
f 96/184/57 94/186/57 93/185/57
f 94/186/58 90/191/58 89/187/58
f 95/183/59 93/185/59 89/188/59
f 92/190/60 90/192/60 94/186/60
o RPG_Warhead_Fin3
v 0.190000 -0.042502 -9.970000
v 0.190000 -0.042502 -10.030000
v 0.190000 -0.047502 -9.970000
v 0.190000 -0.047502 -10.030000
v 0.290000 -0.042502 -9.970000
v 0.290000 -0.042502 -10.030000
v 0.290000 -0.047502 -9.970000
v 0.290000 -0.047502 -10.030000
vn -1.0000 -0.0000 -0.0000
vn -0.0000 -1.0000 -0.0000
vn 1.0000 -0.0000 -0.0000
vn -0.0000 1.0000 -0.0000
vn -0.0000 -0.0000 1.0000
vn -0.0000 -0.0000 -1.0000
vt 0.625000 0.000000
vt 0.375000 0.250000
vt 0.375000 0.000000
vt 0.625000 0.250000
vt 0.375000 0.500000
vt 0.625000 0.500000
vt 0.375000 0.750000
vt 0.625000 0.750000
vt 0.375000 1.000000
vt 0.125000 0.750000
vt 0.125000 0.500000
vt 0.875000 0.500000
vt 0.625000 1.000000
vt 0.875000 0.750000
s 1
usemtl Dark
f 98/193/61 99/194/61 97/195/61
f 100/196/62 103/197/62 99/194/62
f 104/198/63 101/199/63 103/197/63
f 102/200/64 97/201/64 101/199/64
f 103/197/65 97/202/65 99/203/65
f 100/204/66 102/200/66 104/198/66
f 98/193/61 100/196/61 99/194/61
f 100/196/62 104/198/62 103/197/62
f 104/198/63 102/200/63 101/199/63
f 102/200/64 98/205/64 97/201/64
f 103/197/65 101/199/65 97/202/65
f 100/204/66 98/206/66 102/200/66
